<svg xmlns="http://www.w3.org/2000/svg" xmlns:xlink="http://www.w3.org/1999/xlink" viewBox="0 0 71.21 71.21"><defs><style>.cls-1{fill:none;}.cls-2{fill:#447eb2;}.cls-3{fill:#b7daef;}.cls-4{fill:url(#Blue_Gingham);}</style><pattern id="Blue_Gingham" data-name="Blue Gingham" width="94.25" height="94.34" patternTransform="translate(-1046.52 -511.55)" patternUnits="userSpaceOnUse" viewBox="0 0 94.25 94.34"><rect class="cls-1" width="94.25" height="94.34"/><polygon class="cls-2" points="70.7 82.55 70.7 70.76 82.49 70.76 82.49 82.55 70.7 82.55"/><polygon class="cls-3" points="70.7 94.34 70.7 82.55 82.46 82.55 82.46 94.34 70.7 94.34"/><polygon class="cls-3" points="82.49 82.55 82.49 70.76 94.25 70.76 94.25 82.55 82.49 82.55"/><polygon class="cls-2" points="47.14 82.55 47.14 70.76 58.93 70.76 58.93 82.55 47.14 82.55"/><polygon class="cls-3" points="47.14 94.34 47.14 82.55 58.9 82.55 58.9 94.34 47.14 94.34"/><polygon class="cls-3" points="58.93 82.55 58.93 70.76 70.7 70.76 70.7 82.55 58.93 82.55"/><polygon class="cls-2" points="23.55 82.55 23.55 70.76 35.35 70.76 35.35 82.55 23.55 82.55"/><polygon class="cls-3" points="23.55 94.34 23.55 82.55 35.32 82.55 35.32 94.34 23.55 94.34"/><polygon class="cls-3" points="35.35 82.55 35.35 70.76 47.11 70.76 47.11 82.55 35.35 82.55"/><polygon class="cls-2" points="0 82.55 0 70.76 11.79 70.76 11.79 82.55 0 82.55"/><polygon class="cls-3" points="0 94.34 0 82.55 11.76 82.55 11.76 94.34 0 94.34"/><polygon class="cls-3" points="11.79 82.55 11.79 70.76 23.55 70.76 23.55 82.55 11.79 82.55"/><polygon class="cls-2" points="70.7 35.38 70.7 23.59 82.49 23.59 82.49 35.38 70.7 35.38"/><polygon class="cls-3" points="70.7 47.17 70.7 35.38 82.46 35.38 82.46 47.17 70.7 47.17"/><polygon class="cls-3" points="82.49 35.38 82.49 23.59 94.25 23.59 94.25 35.38 82.49 35.38"/><polygon class="cls-2" points="47.14 35.38 47.14 23.59 58.93 23.59 58.93 35.38 47.14 35.38"/><polygon class="cls-3" points="47.14 47.17 47.14 35.38 58.9 35.38 58.9 47.17 47.14 47.17"/><polygon class="cls-3" points="58.93 35.38 58.93 23.59 70.7 23.59 70.7 35.38 58.93 35.38"/><polygon class="cls-2" points="70.7 58.97 70.7 47.17 82.49 47.17 82.49 58.97 70.7 58.97"/><polygon class="cls-3" points="70.7 70.76 70.7 58.97 82.46 58.97 82.46 70.76 70.7 70.76"/><polygon class="cls-3" points="82.49 58.97 82.49 47.17 94.25 47.17 94.25 58.97 82.49 58.97"/><polygon class="cls-2" points="47.14 58.97 47.14 47.17 58.93 47.17 58.93 58.97 47.14 58.97"/><polygon class="cls-3" points="47.14 70.76 47.14 58.97 58.9 58.97 58.9 70.76 47.14 70.76"/><polygon class="cls-3" points="58.93 58.97 58.93 47.17 70.7 47.17 70.7 58.97 58.93 58.97"/><polygon class="cls-2" points="23.55 35.38 23.55 23.59 35.35 23.59 35.35 35.38 23.55 35.38"/><polygon class="cls-3" points="23.55 47.17 23.55 35.38 35.32 35.38 35.32 47.17 23.55 47.17"/><polygon class="cls-3" points="35.35 35.38 35.35 23.59 47.11 23.59 47.11 35.38 35.35 35.38"/><polygon class="cls-2" points="0 35.38 0 23.59 11.79 23.59 11.79 35.38 0 35.38"/><polygon class="cls-3" points="0 47.17 0 35.38 11.76 35.38 11.76 47.17 0 47.17"/><polygon class="cls-3" points="11.79 35.38 11.79 23.59 23.55 23.59 23.55 35.38 11.79 35.38"/><polygon class="cls-2" points="23.55 58.97 23.55 47.17 35.35 47.17 35.35 58.97 23.55 58.97"/><polygon class="cls-3" points="23.55 70.76 23.55 58.97 35.32 58.97 35.32 70.76 23.55 70.76"/><polygon class="cls-3" points="35.35 58.97 35.35 47.17 47.11 47.17 47.11 58.97 35.35 58.97"/><polygon class="cls-2" points="0 58.97 0 47.17 11.79 47.17 11.79 58.97 0 58.97"/><polygon class="cls-3" points="0 70.76 0 58.97 11.76 58.97 11.76 70.76 0 70.76"/><polygon class="cls-3" points="11.79 58.97 11.79 47.17 23.55 47.17 23.55 58.97 11.79 58.97"/><polygon class="cls-2" points="70.7 11.79 70.7 0 82.49 0 82.49 11.79 70.7 11.79"/><polygon class="cls-3" points="70.7 23.59 70.7 11.79 82.46 11.79 82.46 23.59 70.7 23.59"/><polygon class="cls-3" points="82.49 11.79 82.49 0 94.25 0 94.25 11.79 82.49 11.79"/><polygon class="cls-2" points="47.14 11.79 47.14 0 58.93 0 58.93 11.79 47.14 11.79"/><polygon class="cls-3" points="47.14 23.59 47.14 11.79 58.9 11.79 58.9 23.59 47.14 23.59"/><polygon class="cls-3" points="58.93 11.79 58.93 0 70.7 0 70.7 11.79 58.93 11.79"/><polygon class="cls-2" points="23.55 11.79 23.55 0 35.35 0 35.35 11.79 23.55 11.79"/><polygon class="cls-3" points="23.55 23.59 23.55 11.79 35.32 11.79 35.32 23.59 23.55 23.59"/><polygon class="cls-3" points="35.35 11.79 35.35 0 47.11 0 47.11 11.79 35.35 11.79"/><polygon class="cls-2" points="0 11.79 0 0 11.79 0 11.79 11.79 0 11.79"/><polygon class="cls-3" points="0 23.59 0 11.79 11.76 11.79 11.76 23.59 0 23.59"/><polygon class="cls-3" points="11.79 11.79 11.79 0 23.55 0 23.55 11.79 11.79 11.79"/></pattern></defs><title>blue-table-cloth_1</title><g id="Layer_2" data-name="Layer 2"><g id="Layer_1-2" data-name="Layer 1"><rect class="cls-4" width="71.21" height="71.21"/></g></g></svg>