<svg xmlns="http://www.w3.org/2000/svg" viewBox="0 0 63.27 50.56"><defs><style>.cls-1{fill:none;}.cls-1,.cls-2,.cls-3{stroke:#000;stroke-miterlimit:10;}.cls-2{fill:#1a1a1a;}.cls-3{fill:#fff;}</style></defs><title>gloria</title><g id="Layer_2" data-name="Layer 2"><g id="Layer_1-2" data-name="Layer 1"><path class="cls-1" d="M47.54,15.89c-.66-.11-3,.07-3.77,1a1,1,0,0,0-.22.79,2.52,2.52,0,0,1,1.53.7,3.73,3.73,0,0,1,1,2.4.43.43,0,0,0,.27.13V21a3,3,0,0,1,2.45,1.58l.09.12.46-.2a.6.6,0,0,1,0-.13,10.34,10.34,0,0,1,.16-2.76C49.84,17.29,49.9,16.26,47.54,15.89Z"/><path class="cls-1" d="M13.52,29.16a.14.14,0,0,1-.11-.15l-.1,0a4.08,4.08,0,0,0-3,1l.08,0v.35l-.08,0a18,18,0,0,1,3.85,3.49h.11c-.11-.86-.26-1.73-.41-2.57S13.63,29.9,13.52,29.16Z"/><path class="cls-1" d="M24.49,11.29a2.18,2.18,0,0,0,.5.08c.06-.13.13-.25.2-.39A4.92,4.92,0,0,1,26,9.67l-.06,0c.18-.35.3-.75.7-.88l0,0a2.38,2.38,0,0,1,1.2-.91c0-.06,0-.12,0-.18C27,7.41,26.65,6.59,26.13,6A9.84,9.84,0,0,0,24.4,9.84l0,.16.15,0A4.21,4.21,0,0,0,24.49,11.29Z"/><path class="cls-2" d="M25.91,33c1.19-.94.2-5.53-2.29-4.23a3.38,3.38,0,0,0-1.06,3C22.85,32.8,25,33.78,25.91,33Zm-1.83-2.53a.36.36,0,0,1,.72,0v.24a.36.36,0,0,1-.72,0Z"/><path class="cls-2" d="M36.13,33.93c2.17,0,2.47-5.07.35-4.93S34.09,33.9,36.13,33.93Zm-.28-3.17a.36.36,0,0,1,.72,0V31a.36.36,0,0,1-.72,0Z"/><path class="cls-2" d="M46.88,7.91h.05a.49.49,0,0,0,.49-.44,2.44,2.44,0,0,1,1.34-2,2.51,2.51,0,0,1,2.43.16.49.49,0,1,0,.51-.84,3.5,3.5,0,0,0-3.38-.21,3.41,3.41,0,0,0-1.88,2.76A.49.49,0,0,0,46.88,7.91Z"/><path class="cls-2" d="M62.62,22.58a.65.65,0,0,0-1.26.34c.36,1.33-.29,1.81-.91,2a2.54,2.54,0,0,1-3-1.54c-.11-.37.06-.72.34-1.26a4.2,4.2,0,0,0,.44-1.06,2.35,2.35,0,0,0-.33-2.19c-.66-.71-1.74-.56-2.69-.42a3.69,3.69,0,0,1-1.17.06c-.5-.33-.27-1.51-.08-2.45A3.81,3.81,0,0,0,54,14c-1.08-2.61-5.48-2.86-6.95-2.67a.65.65,0,0,0-.56.73.66.66,0,0,0,.73.56c1.25-.17,4.85.15,5.57,1.87a4.83,4.83,0,0,1-.16,1.27c-.24,1.25-.58,3,.64,3.78a3,3,0,0,0,2.07.15c.54-.08,1.36-.19,1.56,0s.14.42,0,1a3.13,3.13,0,0,1-.32.73,2.86,2.86,0,0,0-.44,2.23,3.77,3.77,0,0,0,3.67,2.56,3.59,3.59,0,0,0,1-.13A2.67,2.67,0,0,0,62.62,22.58Z"/><path class="cls-2" d="M28.38,16.5a.67.67,0,0,0,.68-1.16,3.48,3.48,0,0,0-2.73-.61,3.71,3.71,0,0,0-2,2.19c-.48.93-.81,1.5-1.38,1.53-.07,0-.19-.11-.41-.45a2.33,2.33,0,0,0-2.06-1.3v0c-3.21-1.47-.95,4.29,0,1.41v0c.45,0,.63.23.95.7a1.83,1.83,0,0,0,1.51,1H23c1.39-.06,2-1.28,2.51-2.26.36-.71.71-1.37,1.21-1.52A2.36,2.36,0,0,1,28.38,16.5Z"/><path class="cls-2" d="M23.82,25.25a.63.63,0,0,0-.62-.64h0a5.24,5.24,0,0,0-2.51.82c-.28.15-.57.31-.87.43A.63.63,0,0,0,20,27.08a.62.62,0,0,0,.24-.05c.34-.14.66-.31,1-.49a4.14,4.14,0,0,1,1.92-.67h0A.63.63,0,0,0,23.82,25.25Z"/><path class="cls-2" d="M36.39,25.88c.82.28,1.64.55,2.46.86a.54.54,0,1,0,.38-1c-.83-.31-1.66-.59-2.49-.87l-.87-.29a.54.54,0,0,0-.35,1Z"/><path class="cls-2" d="M28.67,37.16A1.7,1.7,0,0,0,30,38.95a2.06,2.06,0,0,0,2.33-1.09.65.65,0,0,0-1.19-.54.75.75,0,0,1-.84.36.4.4,0,0,1-.33-.46.65.65,0,0,0-.63-.68A.67.67,0,0,0,28.67,37.16Z"/><path class="cls-2" d="M28.8,44.84H29a10.35,10.35,0,0,0,3.36-.74c.38-.13.76-.26,1.14-.37a.7.7,0,1,0-.39-1.35c-.4.12-.8.25-1.2.39a9.23,9.23,0,0,1-3,.66.67.67,0,0,0-.72.68A.7.7,0,0,0,28.8,44.84Z"/><path class="cls-2" d="M57.76,38.05a.72.72,0,0,0-.78.66c-.09,1.07-.72,1.26-1.21,1.24-.68,0-1.44-.53-1.43-1.16a5.79,5.79,0,0,1,.77-1.17c.43-.56.64-.84.66-1.19A1.81,1.81,0,0,0,55,35.1l-.3-.27c0-.23.32-.67.63-1.05.6-.72,1.41-1.7.93-3a3.36,3.36,0,0,0-2.44-1.75c-.93-.3-1.26-.46-1.29-.78s.18-.44.62-.81a3.22,3.22,0,0,0,.85-.94A2.92,2.92,0,0,0,54.28,24c-.58-1.3-2.24-1.72-3.57-2.05h0a11,11,0,0,1,.18-2.11c.31-2.07.71-4.65-3.09-5.26-.74-.12-3.75-.06-5,1.47a2.36,2.36,0,0,0-.53,1.9c-.23,0-.34-.1-.62-.44l-.25-.3c-.82-.94-2.72-2.07-6.2.91a.6.6,0,1,0,.79.92c1.41-1.21,3.34-2.36,4.51-1l.24.28a1.75,1.75,0,0,0,2.23.73.67.67,0,0,0,.34,0l0,0a1.31,1.31,0,0,1,.94.35,2.79,2.79,0,0,1,.63,2.12.35.35,0,0,0,0,0h-.26c-2.22,1.3.71,2.76,1.76,1.06V22.4h0c.46-.07.8.36,1.28,1l.24.32,0,0c1,1.28.12,2.69-1.11,4.4l0,0-.07-.07a.35.35,0,0,1-.24-.11c-.11-.53-.19-1.08-.25-1.66,0-.41-.09-.82-.16-1.23h.12c.67-2.81-3.07-1.42-1.58.53h0c0,.29.08.58.11.87A17.29,17.29,0,0,0,45,28.65h-.11v1.94h.17c-.06,6.51-4.28,16.65-11.76,18a13.39,13.39,0,0,1-8.75-1.4c-3.12-1.49-4.46-3.07-6.67-5.67l-.82-1,.19-.09c-.62-2.22-.81-4.08-1.58-6.34h-.1c-.11-1-.29-2-.47-3-.14-.77-.28-1.56-.38-2.34l.07,0c2.86-.95.73-3.55,1.06-5.81l-.11-.07a4.52,4.52,0,0,1,3.5-1.38.56.56,0,0,0,.61-.53.57.57,0,0,0-.53-.61A5.68,5.68,0,0,0,15,22.06l0-.1c-.58,0-.3-.87-1.06-.71-1,1.39-.37,4.31-.53,6.5l-.08,0a5,5,0,0,0-4.07,1.55l-.08-.11c-.35,0-.22.48-.7.35l0,.06a2.79,2.79,0,0,1-1.21-1.74,1.19,1.19,0,0,1,.47-.93,5.91,5.91,0,0,1,1.34-.29c1.5-.23,3.78-.57,3.7-2.43a2.08,2.08,0,0,0-1.21-1.58c-.67-.44-1-.72-1-1.39a2.62,2.62,0,0,1,.94-1.66,5.78,5.78,0,0,1,1.76.16c1.2.21,2.23.39,2.86-.1a1.53,1.53,0,0,0,.46-2,1.38,1.38,0,0,1-.14-.85,3.57,3.57,0,0,1,1.75-2.28,4,4,0,0,1,3-.38c1.35,2.65,2.44-.1,2.61-1.47v-.05a3.65,3.65,0,0,0,1.32.24h0c1,1.26,2.42.64,3.41.21s1.54-.62,1.89-.21a2.41,2.41,0,0,1-.11.86c-.2.86-.51,2.17.77,3a2.21,2.21,0,0,0,1.16.37,1.65,1.65,0,0,0,.39,0c.9-.22,1.44-1.1,2-2,.73-1.2,1.27-2,2.16-2a2.59,2.59,0,0,1,1.64.66,2.07,2.07,0,0,0,3,0,2.33,2.33,0,0,0,.62-1.1c.13-.36.28-.81.49-.89a1.11,1.11,0,0,1,.76.18.61.61,0,1,0,.56-1.1,2.11,2.11,0,0,0-1.77-.23,2.41,2.41,0,0,0-1.19,1.62,2.69,2.69,0,0,1-.23.55c-.67.54-.84.41-1.48-.05a3.73,3.73,0,0,0-2.39-.9c-1.64,0-2.5,1.45-3.2,2.6-.41.68-.83,1.38-1.24,1.48-.06,0-.24.06-.61-.17s-.43-.72-.22-1.62A2.1,2.1,0,0,0,31.36,12c-1-1.14-2.33-.54-3.32-.11s-1.54.58-1.88.23c.1-.19.19-.38.28-.57a4,4,0,0,1,.51-.9l0,0c.67,0,.67.74,1.41.7-.25-1,.4-1.12.53-1.76a1.5,1.5,0,0,0-1.06-.18h-.07a1.35,1.35,0,0,1,.63-.39,5.88,5.88,0,0,0,3,.62,4.94,4.94,0,0,1,2.2.38l-.1.09c0,2.49,2.36,1.08,1.76-.53l-.31,0C35.24,8,36.27,8,38.06,8a7.8,7.8,0,0,0,1.78-.1,2.48,2.48,0,0,0,.94-.52c.38-.29.64-.47.91-.44s.57.21,1.15,1.09a.61.61,0,1,0,1-.68,3.21,3.21,0,0,0-2-1.63A2.39,2.39,0,0,0,40,6.4a2.09,2.09,0,0,1-.45.3,7.12,7.12,0,0,1-1.5.07c-1.4,0-3.45-.05-4.18,2a6.58,6.58,0,0,0-2.51-.39,4.7,4.7,0,0,1-2.32-.46c0-.14,0-.28,0-.42l0,0c1.46-1.12-.87-2.05-1.41-2.82h-.11c.43-1,1.17-1.06,2.45-1a4.06,4.06,0,0,0,2.47-.44A8.6,8.6,0,0,1,38,2.15.65.65,0,1,0,38.27.88a9.92,9.92,0,0,0-6.51,1.29,3.13,3.13,0,0,1-1.71.22c-1.24,0-2.9-.06-3.7,1.88l-.09-.1a.78.78,0,0,0-.7.35l.11.13c-1.45,1.22-2,3.14-2.49,4.84v0l-.07-.08c-.18,0-.21-.14-.35-.18l0,0a6.42,6.42,0,0,0-1.23-1.53A4,4,0,0,0,21.11,3a3.7,3.7,0,0,0-4.44-1A2.44,2.44,0,0,0,15.33.66c-1.06-.4-2.48,0-4.22,1a.53.53,0,1,0,.56.89c1.4-.88,2.57-1.22,3.29-.94a1.51,1.51,0,0,1,.84,1l-.28,0c-1.53,1.24,1.92,2.89,1.59.53L16.86,3a2.77,2.77,0,0,1,3.51.68,3.07,3.07,0,0,1,.27,3.67,7.67,7.67,0,0,0-3-.43,2.27,2.27,0,0,0-.89.49,1.42,1.42,0,0,1-.54.32,10.73,10.73,0,0,1-2.2,0c-1.49-.08-3-.17-4.13,1.13a3,3,0,0,0-.49,1.55,2.35,2.35,0,0,1-.53,1.51c-.66.52-4.27.65-5.23.06A2.72,2.72,0,0,1,2.47,9.78l.2,0c.06.05.27-.11.18-.18,2.28,1.68,1.8-2,.35-2.11-.88-.08-1.82,1.1-2.11,2.29l.22,0A3.84,3.84,0,0,0,3,12.95a6.8,6.8,0,0,0,3.08.55,6.8,6.8,0,0,0,3.45-.68,3.2,3.2,0,0,0,1-2.27,2.65,2.65,0,0,1,.23-1c.69-.82,1.66-.8,3.18-.72a11.8,11.8,0,0,0,2.44,0,2.32,2.32,0,0,0,1.07-.55A1.51,1.51,0,0,1,17.85,8a7.31,7.31,0,0,1,2.53.44h0a5.21,5.21,0,0,1,1.38,1.67l-.09,0v.6c-2.06-1.13-3.93-1.38-5.41-.7s-2.66,2.43-3.15,5.05c-.12.65-.29.81-.36.85s-.78-.06-1.34-.23a6.59,6.59,0,0,0-2.89-.43c-3.57.45-3.39,3.84-3.29,5.86,0,.14,0,.31.06.49s.05.34.06.5c-1.71,0-4.31.2-4.83,2.87a4.44,4.44,0,0,0,1.94,4A.66.66,0,0,0,3,27.81a3.41,3.41,0,0,1-1.2-2.56c.31-1.62,1.84-1.78,3.8-1.81a1,1,0,0,0,.77-.35,2.06,2.06,0,0,0,.19-1.66c0-.13,0-.26,0-.36-.15-2.77.14-4.23,2.14-4.48A5.46,5.46,0,0,1,11,17a2.91,2.91,0,0,0,2.41.11,2.36,2.36,0,0,0,1-1.74c.4-2.14,1.24-3.56,2.41-4.1s2.53-.27,4.2.64l0,0a5.4,5.4,0,0,1,.52.85,5.38,5.38,0,0,0-4,.54,4.92,4.92,0,0,0-2.4,3.15,2.67,2.67,0,0,0,.19,1.63,1.85,1.85,0,0,1,.11.33.44.44,0,0,1-.13.14,5.6,5.6,0,0,1-1.81-.15A4.8,4.8,0,0,0,11,18.35a3.79,3.79,0,0,0-1.73,2.77,2.74,2.74,0,0,0,1.59,2.64c.24.16.6.39.6.5,0,.65-1.47.88-2.56,1a4.11,4.11,0,0,0-2,.61,2.51,2.51,0,0,0-.92,2,3.82,3.82,0,0,0,1.58,2.63c.18.46-.18.35-.23.92l.12.11a3.72,3.72,0,0,0-1.9,2.63,2.64,2.64,0,0,0,.42,2.07c.66.84,1.81,1,3,1.1a9.43,9.43,0,0,1,2.13.4,2.23,2.23,0,0,1,1.57,2,3.26,3.26,0,0,1-1.37,3,1.4,1.4,0,0,1-1.61-.18.65.65,0,0,0-.78,1.05,2.91,2.91,0,0,0,1.73.62,2.65,2.65,0,0,0,1.3-.35,4.58,4.58,0,0,0,2-4.2,3.54,3.54,0,0,0-2.43-3.15,10.62,10.62,0,0,0-2.43-.47c-.94-.1-1.82-.2-2.14-.61a1.48,1.48,0,0,1-.15-1.09,2.31,2.31,0,0,1,1-1.52v0c1.2.14,1.17-.94,1.94-1.23h0A17.59,17.59,0,0,1,13.32,35l-.08,0c-.58,3.16,2.47,3.24,1.76,6a4.31,4.31,0,0,1-.69.69,3,3,0,0,0-1.36,2.42.73.73,0,0,0,.73.7h0a.74.74,0,0,0,.7-.76c0-.48.28-.76.85-1.25a5,5,0,0,0,1-1.09h.12l.55.64c2.24,2.64,3.73,4.38,7.09,6a15.61,15.61,0,0,0,6.9,1.75,15,15,0,0,0,2.62-.24c8.06-1.43,12.52-11.6,12.78-18.7.33-.13.12-.52.53-.17l0-.06a5.63,5.63,0,0,0,2.47,1.77c1,.44,1.53.72,1.73,1.47.25.9-.33,1.45-1.6,2.39-.92.68-1.86,1.38-1.93,2.49s1,2,1.78,2.55c.56.4,1.13.82,1.19,1.21a.9.9,0,0,1-.15.54l0,0c-.68-.07-1,1.41-.35,1.58l0,0a1.74,1.74,0,0,0,1.4,1.42,2.21,2.21,0,0,0,.48.05A2.14,2.14,0,0,0,54,45a.73.73,0,1,0-1.36-.54.74.74,0,0,1-.82.33c-.26-.06-.29-.2-.29-.33h.12V44A2.25,2.25,0,0,0,52,42.56a3.57,3.57,0,0,0-1.76-2.15c-.74-.53-1.22-.91-1.2-1.32s.7-.95,1.36-1.43c1.12-.83,2.65-2,2.12-3.9A3.76,3.76,0,0,0,50,31.36a4.1,4.1,0,0,1-2-1.45.69.69,0,0,0-.11-.11l.09-.09c-.12-.5.22-.53.18-1,1.06-1.48,2.42-3.59,1.08-5.62l.35-.15a.69.69,0,0,0,.32.2l.5.13c1,.25,2.31.59,2.61,1.25a1.6,1.6,0,0,1-.23,1.33,2.34,2.34,0,0,1-.5.5,2.4,2.4,0,0,0-1.12,2c.11,1.35,1.37,1.75,2.29,2s1.37.46,1.53.89-.1.8-.69,1.51a2.78,2.78,0,0,0-.94,2.25A2,2,0,0,0,54,36.16l.22.21-.29.38a4,4,0,0,0-1.06,2,2.82,2.82,0,0,0,2.8,2.65h.14a2.53,2.53,0,0,0,2.58-2.57A.72.72,0,0,0,57.76,38.05ZM24.4,9.84A9.84,9.84,0,0,1,26.13,6c.53.61.84,1.44,1.71,1.71,0,.06,0,.12,0,.18a2.38,2.38,0,0,0-1.2.91l0,0c-.4.13-.53.53-.7.88l.06,0A4.92,4.92,0,0,0,25.18,11c-.06.14-.13.26-.2.39a2.18,2.18,0,0,1-.5-.08,4.21,4.21,0,0,1,0-1.31l-.15,0ZM14.29,33.93h-.1a18,18,0,0,0-3.85-3.49l.08,0v-.35l-.08,0a4.08,4.08,0,0,1,3-1l.1,0a.14.14,0,0,0,.11.15c.1.74.23,1.48.36,2.2s.31,1.71.41,2.57ZM49.5,19.58a10.34,10.34,0,0,0-.16,2.76.6.6,0,0,0,0,.13l-.46.2-.09-.12A3,3,0,0,0,46.33,21V20.9a.43.43,0,0,1-.27-.13,3.73,3.73,0,0,0-1-2.4,2.52,2.52,0,0,0-1.53-.7,1,1,0,0,1,.22-.79c.78-.92,3.1-1.1,3.77-1C49.9,16.26,49.84,17.29,49.5,19.58Z"/><path class="cls-3" d="M24.81,30.76v-.24a.36.36,0,0,0-.72,0v.24A.36.36,0,0,0,24.81,30.76Z"/><path class="cls-3" d="M36.57,31v-.24a.36.36,0,0,0-.72,0V31A.36.36,0,0,0,36.57,31Z"/></g></g></svg>