<svg xmlns="http://www.w3.org/2000/svg" xmlns:xlink="http://www.w3.org/1999/xlink" viewBox="0 0 800 166"><defs><style>.cls-1{fill:none;}.cls-2{fill:#6b875d;}.cls-3{fill:#a7d390;}.cls-4{fill:url(#Green_Gingham);}</style><pattern id="Green_Gingham" data-name="Green Gingham" width="93.28" height="94.34" patternTransform="translate(-1034.91 -511.55)" patternUnits="userSpaceOnUse" viewBox="0 0 93.28 94.34"><rect class="cls-1" width="93.28" height="94.34"/><polygon class="cls-2" points="69.97 82.55 69.97 70.76 81.64 70.76 81.64 82.55 69.97 82.55"/><polygon class="cls-3" points="69.97 94.34 69.97 82.55 81.61 82.55 81.61 94.34 69.97 94.34"/><polygon class="cls-3" points="81.64 82.55 81.64 70.76 93.28 70.76 93.28 82.55 81.64 82.55"/><polygon class="cls-2" points="46.66 82.55 46.66 70.76 58.33 70.76 58.33 82.55 46.66 82.55"/><polygon class="cls-3" points="46.66 94.34 46.66 82.55 58.3 82.55 58.3 94.34 46.66 94.34"/><polygon class="cls-3" points="58.33 82.55 58.33 70.76 69.97 70.76 69.97 82.55 58.33 82.55"/><polygon class="cls-2" points="23.31 82.55 23.31 70.76 34.98 70.76 34.98 82.55 23.31 82.55"/><polygon class="cls-3" points="23.31 94.34 23.31 82.55 34.95 82.55 34.95 94.34 23.31 94.34"/><polygon class="cls-3" points="34.98 82.55 34.98 70.76 46.63 70.76 46.63 82.55 34.98 82.55"/><polygon class="cls-2" points="0 82.55 0 70.76 11.67 70.76 11.67 82.55 0 82.55"/><polygon class="cls-3" points="0 94.34 0 82.55 11.64 82.55 11.64 94.34 0 94.34"/><polygon class="cls-3" points="11.67 82.55 11.67 70.76 23.31 70.76 23.31 82.55 11.67 82.55"/><polygon class="cls-2" points="69.97 35.38 69.97 23.59 81.64 23.59 81.64 35.38 69.97 35.38"/><polygon class="cls-3" points="69.97 47.17 69.97 35.38 81.61 35.38 81.61 47.17 69.97 47.17"/><polygon class="cls-3" points="81.64 35.38 81.64 23.59 93.28 23.59 93.28 35.38 81.64 35.38"/><polygon class="cls-2" points="46.66 35.38 46.66 23.59 58.33 23.59 58.33 35.38 46.66 35.38"/><polygon class="cls-3" points="46.66 47.17 46.66 35.38 58.3 35.38 58.3 47.17 46.66 47.17"/><polygon class="cls-3" points="58.33 35.38 58.33 23.59 69.97 23.59 69.97 35.38 58.33 35.38"/><polygon class="cls-2" points="69.97 58.97 69.97 47.17 81.64 47.17 81.64 58.97 69.97 58.97"/><polygon class="cls-3" points="69.97 70.76 69.97 58.97 81.61 58.97 81.61 70.76 69.97 70.76"/><polygon class="cls-3" points="81.64 58.97 81.64 47.17 93.28 47.17 93.28 58.97 81.64 58.97"/><polygon class="cls-2" points="46.66 58.97 46.66 47.17 58.33 47.17 58.33 58.97 46.66 58.97"/><polygon class="cls-3" points="46.66 70.76 46.66 58.97 58.3 58.97 58.3 70.76 46.66 70.76"/><polygon class="cls-3" points="58.33 58.97 58.33 47.17 69.97 47.17 69.97 58.97 58.33 58.97"/><polygon class="cls-2" points="23.31 35.38 23.31 23.59 34.98 23.59 34.98 35.38 23.31 35.38"/><polygon class="cls-3" points="23.31 47.17 23.31 35.38 34.95 35.38 34.95 47.17 23.31 47.17"/><polygon class="cls-3" points="34.98 35.38 34.98 23.59 46.63 23.59 46.63 35.38 34.98 35.38"/><polygon class="cls-2" points="0 35.38 0 23.59 11.67 23.59 11.67 35.38 0 35.38"/><polygon class="cls-3" points="0 47.17 0 35.38 11.64 35.38 11.64 47.17 0 47.17"/><polygon class="cls-3" points="11.67 35.38 11.67 23.59 23.31 23.59 23.31 35.38 11.67 35.38"/><polygon class="cls-2" points="23.31 58.97 23.31 47.17 34.98 47.17 34.98 58.97 23.31 58.97"/><polygon class="cls-3" points="23.31 70.76 23.31 58.97 34.95 58.97 34.95 70.76 23.31 70.76"/><polygon class="cls-3" points="34.98 58.97 34.98 47.17 46.63 47.17 46.63 58.97 34.98 58.97"/><polygon class="cls-2" points="0 58.97 0 47.17 11.67 47.17 11.67 58.97 0 58.97"/><polygon class="cls-3" points="0 70.76 0 58.97 11.64 58.97 11.64 70.76 0 70.76"/><polygon class="cls-3" points="11.67 58.97 11.67 47.17 23.31 47.17 23.31 58.97 11.67 58.97"/><polygon class="cls-2" points="69.97 11.79 69.97 0 81.64 0 81.64 11.79 69.97 11.79"/><polygon class="cls-3" points="69.97 23.59 69.97 11.79 81.61 11.79 81.61 23.59 69.97 23.59"/><polygon class="cls-3" points="81.64 11.79 81.64 0 93.28 0 93.28 11.79 81.64 11.79"/><polygon class="cls-2" points="46.66 11.79 46.66 0 58.33 0 58.33 11.79 46.66 11.79"/><polygon class="cls-3" points="46.66 23.59 46.66 11.79 58.3 11.79 58.3 23.59 46.66 23.59"/><polygon class="cls-3" points="58.33 11.79 58.33 0 69.97 0 69.97 11.79 58.33 11.79"/><polygon class="cls-2" points="23.31 11.79 23.31 0 34.98 0 34.98 11.79 23.31 11.79"/><polygon class="cls-3" points="23.31 23.59 23.31 11.79 34.95 11.79 34.95 23.59 23.31 23.59"/><polygon class="cls-3" points="34.98 11.79 34.98 0 46.63 0 46.63 11.79 34.98 11.79"/><polygon class="cls-2" points="0 11.79 0 0 11.67 0 11.67 11.79 0 11.79"/><polygon class="cls-3" points="0 23.59 0 11.79 11.64 11.79 11.64 23.59 0 23.59"/><polygon class="cls-3" points="11.67 11.79 11.67 0 23.31 0 23.31 11.79 11.67 11.79"/></pattern></defs><title>green-table-cloth</title><g id="Layer_2" data-name="Layer 2"><g id="Layer_1-2" data-name="Layer 1"><rect class="cls-4" width="800" height="166"/></g></g></svg>