<svg xmlns="http://www.w3.org/2000/svg" viewBox="0 0 124.09 53.02"><defs><style>.cls-1,.cls-4{fill:none;}.cls-1,.cls-4,.cls-5,.cls-6,.cls-7{stroke:#000;stroke-miterlimit:10;}.cls-1,.cls-5{stroke-width:0.89px;}.cls-2,.cls-5,.cls-6,.cls-7{fill:#1a1a1a;}.cls-3{fill:#231f20;}.cls-4{stroke-width:0.76px;}.cls-6{stroke-width:0.8px;}.cls-7{stroke-width:0.99px;}</style></defs><title>amymitch</title><g id="Layer_2" data-name="Layer 2"><g id="Layer_1-2" data-name="Layer 1"><path class="cls-1" d="M90.48,10.5c2.69-3,7.66-3.47,11.45-3a13.08,13.08,0,0,1,4.64,1.94,12.39,12.39,0,0,0,2.93,1.4,10.42,10.42,0,0,0,5.82-.13h0l0-.09a10.13,10.13,0,0,0,1.11-.87l0,0a3,3,0,0,1,.33-.42v0l0-.2,0,0-1.27.1c-.78.07-1.58.14-2.39.14a10.42,10.42,0,0,1-2.08-.2l-.07,0h-.33A10.78,10.78,0,0,1,106,7.8l-.28-.13A3.28,3.28,0,0,1,104,7.05V7H104c-.67-.15-1.32-.35-1.94-.54S101,6.11,100.44,6v.09h-.62V5.95a6.55,6.55,0,0,1-1.7.22A8.31,8.31,0,0,1,97,6.08v.1c-.16.17-.54.12-.87.12V6.2c-3.16,1-7.29,2.86-8,6.51.86-.68,1.51-1.56,2.3-2.31Z"/><path class="cls-1" d="M106.14,6.69v.11h0l.28.13a10.57,10.57,0,0,0,4,1.29.75.75,0,0,0-.09-.14C109.71,7.28,107.33,6.75,106.14,6.69Z"/><path class="cls-1" d="M99.29,5.1c-.31-.66.49-.79,1.15-.78v.12a15,15,0,0,1,9.82-.55c1.61.49,4.32,1.31,4.67,3.13a.41.41,0,0,1-.32.48h-.08a.41.41,0,0,1-.4-.33c-.26-1.34-2.77-2.1-4.11-2.51a14.18,14.18,0,0,0-9,.42c.46.12.92.26,1.36.39s1.13.34,1.7.48v0c.27-.39,1.11-.21,1.73-.25l0,.17c1,0,4.24.45,5.26,1.71a1.38,1.38,0,0,1,.31.78,15,15,0,0,0,4,0l1.29-.1.18-.3,0-.05c0-.11-.07-.21-.1-.32-.26-.22-.26-.72-.54-.92l.08-.06,0,0a10.25,10.25,0,0,0-7.41-4.42,15.3,15.3,0,0,0-11.49,3v0A6.42,6.42,0,0,0,99.29,5.1Z"/><path class="cls-2" d="M99.35,38a8.83,8.83,0,0,0,5,3.92,5,5,0,0,0,1.21.15c2.7,0,5.38-2.18,6.79-5.61a3.42,3.42,0,0,0-.08-1.28,7.78,7.78,0,0,0-.8-.17h-.21l0,.05a10.17,10.17,0,0,0-2.67,1.05c-2.93,1.61-5.62,1-8.74-2a3.63,3.63,0,0,1-1-.61,8.5,8.5,0,0,0-.35.89A5,5,0,0,0,99.35,38Zm.13-3h.1c2.07,1.89,4,2.84,6,2.84a7.21,7.21,0,0,0,3.5-1,9.48,9.48,0,0,1,2.5-1l0,.1h0c-1.41,3.53-4.36,5.69-7,5a7.94,7.94,0,0,1-4.45-3.48A4.41,4.41,0,0,1,99.48,35Z"/><path class="cls-3" d="M105.6,42.37a5.3,5.3,0,0,1-1.29-.16,9.16,9.16,0,0,1-5.23-4.06,5.29,5.29,0,0,1-.77-3.78l.06-.17a7.33,7.33,0,0,1,.31-.79l.17-.36.3.26a3.3,3.3,0,0,0,.88.56l.1.06c3,2.85,5.59,3.44,8.38,1.9a10.32,10.32,0,0,1,2.25-1l-.15-.16.93,0a8.11,8.11,0,0,1,.84.18l.17,0,0,.17a3.72,3.72,0,0,1,.09,1.4l0,.08c-1.45,3.52-4.23,5.8-7.07,5.8Zm6.45-6.95-.48-.11-.16,0a9.93,9.93,0,0,0-2.6,1c-3,1.68-5.84,1.07-9.06-2a3.59,3.59,0,0,1-.67-.39l-.13.37,0,.12a4.7,4.7,0,0,0,.7,3.32,8.5,8.5,0,0,0,4.85,3.77,4.2,4.2,0,0,0,1.14.14c2.59,0,5.13-2.11,6.49-5.38A3.22,3.22,0,0,0,112.05,35.43Zm-7.51,5.87a8.27,8.27,0,0,1-4.64-3.62A4.72,4.72,0,0,1,99.18,35l0-.28h.51l.09.08c3.23,3,6.05,3.52,9.14,1.82a9.79,9.79,0,0,1,2.57-1l.47-.12,0,.14.11,0-.2.5c-1.3,3.26-3.82,5.34-6.27,5.34A4.21,4.21,0,0,1,104.54,41.3Zm4.69-4.17c-3.18,1.75-6.17,1.28-9.43-1.53a4.57,4.57,0,0,0,.63,1.77h0a7.6,7.6,0,0,0,4.27,3.34c2.29.58,5-1.27,6.39-4.37A9,9,0,0,0,109.23,37.13Z"/><path class="cls-2" d="M110.77,22.08h.37c.41,0,.81,0,1.21,0a13.38,13.38,0,0,1,2.3,0,.42.42,0,0,0,.47-.37.42.42,0,0,0-.37-.47,14.23,14.23,0,0,0-2.44,0c-.52,0-1,0-1.51,0a.41.41,0,0,0-.44.41A.42.42,0,0,0,110.77,22.08Z"/><path class="cls-3" d="M111.13,22.39h-.38a.73.73,0,0,1-.71-.75.74.74,0,0,1,.24-.53.69.69,0,0,1,.52-.18c.47,0,.94,0,1.45,0a14.66,14.66,0,0,1,2.52,0,.73.73,0,0,1,.36,1.3.72.72,0,0,1-.54.14,12.86,12.86,0,0,0-2.2,0C112,22.37,111.55,22.39,111.13,22.39Zm-.36-.62c.52,0,1,0,1.55,0a13.59,13.59,0,0,1,2.35,0,.11.11,0,0,0,.09,0,.12.12,0,0,0-.06-.21,14,14,0,0,0-2.39,0c-.55,0-1,0-1.54,0a.1.1,0,0,0-.08,0,.13.13,0,0,0,0,.09A.12.12,0,0,0,110.77,21.77Z"/><path class="cls-2" d="M98.79,23.08a.38.38,0,0,0,.38-.38.36.36,0,0,0-.38-.37,9,9,0,0,0-3.35.9l-1,.39a.38.38,0,0,0,.13.73l.13,0,1-.4A8.35,8.35,0,0,1,98.79,23.08Z"/><path class="cls-3" d="M94.59,24.65a.69.69,0,0,1-.62-1,.68.68,0,0,1,.39-.35l1-.38A9.23,9.23,0,0,1,98.78,22a.58.58,0,0,1,.45.15.72.72,0,0,1,.25.53.69.69,0,0,1-.68.69,8.09,8.09,0,0,0-2.94.81c-.35.14-.68.28-1,.41A.7.7,0,0,1,94.59,24.65Zm4.22-2a8.83,8.83,0,0,0-3.27.88l-1,.39-.33.2.29-.11a.07.07,0,0,0,.07,0c.35-.13.68-.26,1-.4a8.57,8.57,0,0,1,3.18-.87h0l0,0C98.86,22.66,98.83,22.63,98.82,22.63Z"/><path class="cls-2" d="M114.59,25.32a.45.45,0,1,0,.82-.39,2.56,2.56,0,0,0-2.71-1.4,3.58,3.58,0,0,0-3.11,2.5.45.45,0,0,0,.34.55h.1a.45.45,0,0,0,.44-.35,2.67,2.67,0,0,1,2.32-1.8A1.67,1.67,0,0,1,114.59,25.32Z"/><path class="cls-3" d="M110,26.89l-.18,0a.76.76,0,0,1-.57-.91,3.9,3.9,0,0,1,3.38-2.73,2.86,2.86,0,0,1,3,1.57.76.76,0,1,1-1.37.66h0a1.37,1.37,0,0,0-1.49-.71,2.38,2.38,0,0,0-2.05,1.57A.76.76,0,0,1,110,26.89Zm3-3.08-.32,0a3.27,3.27,0,0,0-2.84,2.26.15.15,0,0,0,0,.11.15.15,0,0,0,.09.07.16.16,0,0,0,.18-.11,3,3,0,0,1,2.59-2,2,2,0,0,1,2.11,1.06h0a.15.15,0,1,0,.26-.13A2.21,2.21,0,0,0,113.05,23.82Z"/><path class="cls-2" d="M95.7,27.22a.46.46,0,0,0,.2,0,.47.47,0,0,0,.42-.26,2.79,2.79,0,0,1,2.15-1.49,2.4,2.4,0,0,1,2.17.78.47.47,0,0,0,.7-.61,3.31,3.31,0,0,0-3-1.09,3.73,3.73,0,0,0-2.86,2A.47.47,0,0,0,95.7,27.22Z"/><path class="cls-3" d="M95.91,27.58a.77.77,0,0,1-.69-1.11,4,4,0,0,1,3.1-2.18,3.6,3.6,0,0,1,3.26,1.2.77.77,0,0,1-.08,1.09.75.75,0,0,1-.56.19.77.77,0,0,1-.53-.27,2.1,2.1,0,0,0-1.9-.68,2.48,2.48,0,0,0-1.91,1.32A.78.78,0,0,1,95.91,27.58Zm2.93-2.71-.45,0a3.42,3.42,0,0,0-2.63,1.84.16.16,0,0,0,.07.21h0a.16.16,0,0,0,.21-.07,3.1,3.1,0,0,1,2.38-1.66,2.71,2.71,0,0,1,2.44.88.16.16,0,0,0,.11.05.15.15,0,0,0,.11,0,.16.16,0,0,0,0-.22A3,3,0,0,0,98.84,24.87Z"/><path class="cls-2" d="M103.93,31.48a.46.46,0,0,0,.44-.35.89.89,0,0,1,1.58-.37.46.46,0,0,0,.7-.6,1.8,1.8,0,0,0-3.17.74.46.46,0,0,0,.33.56Z"/><path class="cls-3" d="M103.93,31.79l-.19,0a.77.77,0,0,1-.55-.93,2.11,2.11,0,0,1,3.7-.87.77.77,0,0,1-1.16,1,.58.58,0,0,0-1.05.25A.77.77,0,0,1,103.93,31.79Zm1.31-2a1.45,1.45,0,0,0-.33,0A1.53,1.53,0,0,0,103.78,31a.15.15,0,0,0,.11.18h0a.15.15,0,0,0,.15-.11,1.23,1.23,0,0,1,.9-.93,1.22,1.22,0,0,1,1.22.43.15.15,0,0,0,.23-.2A1.57,1.57,0,0,0,105.24,29.8Z"/><path class="cls-1" d="M89,27.29A2.71,2.71,0,0,0,89.21,30a1.39,1.39,0,0,0,1.16.59,28.38,28.38,0,0,0-.4-3.94A1.21,1.21,0,0,0,89,27.29Z"/><path class="cls-1" d="M90.16,16.84h0c2.4-3.31,6.41-2.8,10-2.34.8.1,1.56.19,2.29.24-3.18-2.59-8.51-3.48-12.1-.46l.1.08c-.76.29-.7,1.57-.5,2.48Z"/><path class="cls-1" d="M112.4,12.06a13.05,13.05,0,0,1-3.11-.37,13,13,0,0,1-3.15-1.49,12.27,12.27,0,0,0-4.33-1.83c-3.49-.47-8,0-10.54,2.52h0V11a14.55,14.55,0,0,1,7-1.75c2.25,0,4.28,1.12,6.23,2.2a28.3,28.3,0,0,0,2.9,1.46c3,1.23,6.1,1.91,8.18-1.25h-.13v0A8.78,8.78,0,0,1,112.4,12.06Z"/><path class="cls-1" d="M116.37,12a5.37,5.37,0,0,1-4.78,2.82,12.47,12.47,0,0,1-4.54-1.1,28.81,28.81,0,0,1-3-1.5c-1.95-1.07-3.79-2.09-5.82-2.09h0a14,14,0,0,0-6.48,1.63l.05,0c-.6.4-1.93,1.31-1.74,1.72,4.06-3.18,10-2,13.29,1l.09-.11a1.24,1.24,0,0,1,.74.37l-.06.07c3.79,2.13,9.59,2.2,12.95-1.31.11-.47.37-.79.49-1.24h.1c0-.11,0-.23.05-.35.12-.81.18-1.44-.11-1.78l-.17.2c-.1.79-.64,1.13-1,1.68Z"/><path class="cls-4" d="M118.41,32.93h0v0a3.38,3.38,0,0,0,.93-2.93,1,1,0,0,0-.75-.73A12,12,0,0,0,118.41,32.93Z"/><path class="cls-1" d="M119.94,11A3.15,3.15,0,0,0,118,8.86c0,.11,0,.21.06.31l0,.14c.84.66.65,1.93.53,2.73l0,.22h.08c.67,0,.12.48.25,1h0a5,5,0,0,1,.37,1.37,6.42,6.42,0,0,0,.17.81A4.86,4.86,0,0,0,119.94,11Z"/><path class="cls-1" d="M122.08,9.64a21.3,21.3,0,0,0-4.41-2.49v0h0c.06.16.11.31.15.48v0l.06,0a.7.7,0,0,1,.26.3,3.9,3.9,0,0,1,2.63,2.67c.62,1.75.48,4.21-.94,5.59l.11.08c-.14.18-.16.49-.36.61,0,.06,0,.12,0,.18a4.67,4.67,0,0,0,.12,1.57h.12l.07.08c.21-.45.46-1,.74-1.52C121.82,14.78,123.7,11.05,122.08,9.64Z"/><path class="cls-5" d="M123.37,19.69a.47.47,0,0,0-.63.24,1.36,1.36,0,0,1-1.4.62.65.65,0,0,1-.59-.61h.14c.06-.39-.22-.44-.12-.87h-.07c.19-.42.44-.91.69-1.42,1.45-2.88,3.43-6.82,1.29-8.7A21.66,21.66,0,0,0,118,6.33v0a1.82,1.82,0,0,0-1.11-.37l0,.06A11.15,11.15,0,0,0,109,1.32,16.15,16.15,0,0,0,96.55,4.67l-.07-.09c-.27.27-.69.38-.87.74l0,0c-3.47,1.17-7.95,3.22-8.54,7.53h0a10.58,10.58,0,0,0,.5,3.59c.31.48,1.38.55,1.61,1s0,1.13.12,1.61h.07a.3.3,0,0,0,0,0,30.12,30.12,0,0,1,.43,5q0,.83.06,1.66a2,2,0,0,0-1.61,1.09,3.53,3.53,0,0,0,.29,3.6,2.19,2.19,0,0,0,1.8.94l.16,0c1.32,6.32,7.94,14.87,14.84,14.87a8.21,8.21,0,0,0,1.14-.08l.39-.05a16.32,16.32,0,0,0,1.89-.33c3.73-1,8.34-5.84,9.49-9.94a20.4,20.4,0,0,0,.5-2.65c.1-.71.22-1.45.39-2.16l0,0c.28-.1.67-.07.74-.37l-.09-.07a4.75,4.75,0,0,0,1.5-4.41,2,2,0,0,0-1.62-1.47,15.32,15.32,0,0,1,0-2.33c0-.65.09-1.33.07-2h.1a1.58,1.58,0,0,0,1.28,1.05,2.35,2.35,0,0,0,2.44-1.17A.47.47,0,0,0,123.37,19.69Zm-6-9.36.17-.2c.29.34.23,1,.11,1.78,0,.12,0,.24-.05.35h-.1c-.13.45-.39.77-.49,1.24-3.36,3.51-9.15,3.44-12.95,1.31l.06-.07a1.24,1.24,0,0,0-.74-.37l-.09.11c-3.31-3-9.23-4.17-13.29-1-.19-.41,1.13-1.33,1.74-1.72l-.05,0a14,14,0,0,1,6.48-1.63h0c2,0,3.88,1,5.82,2.09a28.81,28.81,0,0,0,3,1.5,12.47,12.47,0,0,0,4.54,1.1A5.37,5.37,0,0,0,116.37,12l0,0C116.76,11.46,117.31,11.12,117.41,10.33Zm-1.85,1.31h0c-2.08,3.17-5.16,2.48-8.18,1.25a28.3,28.3,0,0,1-2.9-1.46c-2-1.08-4-2.19-6.23-2.2a14.55,14.55,0,0,0-7,1.75v-.09h0c2.51-2.56,7-3,10.54-2.52a12.27,12.27,0,0,1,4.33,1.83,13,13,0,0,0,3.15,1.49,13.05,13.05,0,0,0,3.11.37,8.78,8.78,0,0,0,3-.47v0ZM97.35,5.14a15.3,15.3,0,0,1,11.49-3,10.25,10.25,0,0,1,7.41,4.42l0,0-.08.06c.28.2.28.7.54.92,0,.11.07.21.1.32l0,.05-.18.3-1.29.1a15,15,0,0,1-4,0,1.38,1.38,0,0,0-.31-.78c-1-1.27-4.24-1.76-5.26-1.71l0-.17c-.62,0-1.46-.14-1.73.25V6c-.57-.14-1.14-.31-1.7-.48s-.9-.27-1.36-.39a14.18,14.18,0,0,1,9-.42c1.35.41,3.85,1.17,4.11,2.51a.41.41,0,0,0,.4.33h.08a.41.41,0,0,0,.32-.48c-.36-1.82-3.06-2.64-4.67-3.13a15,15,0,0,0-9.82.55V4.33c-.66,0-1.46.11-1.15.78a6.42,6.42,0,0,1-1.94.06Zm13.11,3.1a10.57,10.57,0,0,1-4-1.29l-.28-.13h0V6.69c1.18.06,3.56.58,4.22,1.4A.75.75,0,0,1,110.45,8.24ZM88.11,12.7c.71-3.65,4.83-5.46,8-6.51v.11c.33,0,.71,0,.87-.12v-.1a8.31,8.31,0,0,0,1.17.09,6.55,6.55,0,0,0,1.7-.22v.11h.62V6c.53.13,1.06.29,1.61.46s1.28.4,1.94.54H104v.07a3.28,3.28,0,0,0,1.69.61l.28.13a10.78,10.78,0,0,0,4.58,1.4h.33l.07,0a10.42,10.42,0,0,0,2.08.2c.81,0,1.61-.07,2.39-.14l1.27-.1,0,0,0,.2v0a3,3,0,0,0-.33.42l0,0a10.13,10.13,0,0,1-1.11.87l0,.09h0a10.42,10.42,0,0,1-5.82.13,12.39,12.39,0,0,1-2.93-1.4,13.08,13.08,0,0,0-4.64-1.94c-3.78-.51-8.76,0-11.45,3l-.07-.1C89.62,11.15,89,12,88.11,12.7Zm2.3,1.66-.1-.08c3.59-3,8.92-2.12,12.1.46-.73-.05-1.48-.14-2.29-.24-3.55-.46-7.55-1-10,2.34h-.25C89.71,15.93,89.65,14.66,90.41,14.36ZM89.21,30A2.71,2.71,0,0,1,89,27.29a1.21,1.21,0,0,1,1-.66,28.38,28.38,0,0,1,.4,3.94A1.39,1.39,0,0,1,89.21,30Zm29.64-7.61a14.32,14.32,0,0,0,0,2.82h0a14.6,14.6,0,0,0-.26,5.09l-.17-.06c-.18,0-.11.3-.12.5l.13,0a22.58,22.58,0,0,0-.44,2.41,19.58,19.58,0,0,1-.48,2.55c-1.09,3.88-5.44,8.45-8.95,9.4a15.91,15.91,0,0,1-1.79.31l-.39.05c-7,1-13.94-8-15.15-14.4a.43.43,0,0,0,0-.16v0a29.15,29.15,0,0,0-.47-4.59.42.42,0,0,0,0-.08c0-.69-.06-1.37-.08-2.07a31.58,31.58,0,0,0-.43-5h0c.34-.41.37-1.12.62-1.61h0c2.07-2.93,5.66-2.47,9.13-2,1,.13,2,.26,2.94.29v.12c.37,0,1,.14,1-.25a13,13,0,0,0,6,1.48,10.41,10.41,0,0,0,7.87-3.24l0,0,.07.06c.1,0,.14-.05.2-.09a5,5,0,0,1,.23,1,5.17,5.17,0,0,0,.35,1.34h-.15v.49h.11c0,.16,0,.33,0,.5a4.85,4.85,0,0,0,.23,2.11h-.08c0,.39-.08.91.12,1.11h0A18,18,0,0,1,118.85,22.38Zm0-9.13h0c-.13-.51.42-1-.25-1h-.08l0-.22c.12-.8.31-2.07-.53-2.73l0-.14c0-.1,0-.21-.06-.31a3.15,3.15,0,0,1,1.94,2.1,4.86,4.86,0,0,1-.53,4.47,6.42,6.42,0,0,1-.17-.81A5,5,0,0,0,118.87,13.25Zm1.61,13.22a3.94,3.94,0,0,1-1.08,3.41v0h0a14,14,0,0,1,.25-4.23A1.13,1.13,0,0,1,120.48,26.47Zm-.64-7.69-.07-.08h-.12a4.67,4.67,0,0,1-.12-1.57c0-.06,0-.12,0-.18.2-.12.22-.43.36-.61l-.11-.08c1.43-1.38,1.56-3.84.94-5.59A3.9,3.9,0,0,0,118.1,8a.7.7,0,0,0-.26-.3l-.06,0v0c0-.16-.1-.32-.15-.48h0v0a21.3,21.3,0,0,1,4.41,2.49c1.62,1.41-.26,5.14-1.5,7.61C120.3,17.81,120,18.32,119.84,18.78Z"/><path class="cls-6" d="M49.84,46.91l-.07.09h0c-3.12-2.27-3.66-5.71-4.3-9.7-.11-.69-.22-1.39-.35-2.09-.66-3.68-1.18-7.88-1.68-11.94-.23-1.89-.47-3.77-.71-5.56l-.1-.77c-.68-5.08-1.09-8.15-4.2-11.5C35.54,2.32,32.87,2.65,30,3a20.46,20.46,0,0,1-4.35.21c-.77-.07-2.42.26-2.94,1.11a.63.63,0,0,0,.21.86.64.64,0,0,0,.88-.2,2.76,2.76,0,0,1,1.75-.51,21.79,21.79,0,0,0,4.61-.21c2.82-.35,4.85-.6,7.29,2,2.84,3.06,3.2,5.81,3.88,10.81l.1.77c.24,1.79.47,3.66.71,5.55.51,4.08,1,8.29,1.69,12,.12.7.23,1.39.34,2.07.64,4,1.25,7.83,4.65,10.41l-.08.06C49.79,49.79,51.62,47.23,49.84,46.91Z"/><path class="cls-6" d="M45.93,51l-.11.08a.54.54,0,0,0-.06-.09c-6.08-5.72-5.42-14.79-4.83-22.79v-.07h0a19.34,19.34,0,0,0,.15-4.51h-.07c0-.32,0-.65.07-1a14.47,14.47,0,0,0-.2-5h0a9,9,0,0,0-.45-3l-.09.07C38.86,9.85,34.57,4.86,28.74,5.1a.6.6,0,1,0,0,1.21c5-.17,9,4.22,10.49,8.72h-.11c0,.21-.25.25-.3.45l0,.07A12.75,12.75,0,0,1,24.67,10l0,0,.09-.06c.18-1.43-1.88-1.24-2-.15l.14,0c-3.38,4-8,6.57-12.48,6.88-.34-1.58-2-.55-1.8.91h.08A37,37,0,0,0,9.92,25H9.84c.07,1.16-.11,2.39,0,3.16l.15,0a28.91,28.91,0,0,0,.21,5.24c.14,1.49.29,3,.33,4.58.16,6.49-.75,8.49-1.61,9a71.85,71.85,0,0,0,.44-14.3c-.12-2.06-.43-4.15-.72-6.17A35.12,35.12,0,0,1,8,17.88a14.06,14.06,0,0,1,5.84-9.46A7.39,7.39,0,0,1,20.09,7.3a.57.57,0,0,0,.33-1.09,8.42,8.42,0,0,0-7.19,1.27A15.28,15.28,0,0,0,6.89,17.76a35.72,35.72,0,0,0,.61,8.82c.29,2,.6,4.06.71,6.07a70.32,70.32,0,0,1-.44,14.15l0,0c-.18.23-.43.37-.45.75l.07.06A4.16,4.16,0,0,0,6.11,49a7.34,7.34,0,0,1-.4.63.54.54,0,0,0,.87.64c.16-.23.31-.48.46-.73a4,4,0,0,1,.73-1,1,1,0,0,0,1.59-.69c2.21-1.1,2.39-5.89,2.28-10,0-1.58-.19-3.14-.33-4.65a34.1,34.1,0,0,1-.25-4.67h.27c1.69,5.31,7,8.77,13.67,8.82h.15c5.73,0,12.33-2.73,14.48-8.86-.56,7.76-1.13,17.25,5.18,23.28l-.1.07C45.15,53.82,48,51.42,45.93,51ZM25,36.11c-4.86,0-10.68-2.17-12.49-8h0a34.29,34.29,0,0,0-1.35-3.61l0,0A34.4,34.4,0,0,1,10,17.88h.1l0-.14C15,17.53,19.86,15,23.54,10.67c.13,0,.17.12.29.14l0,0a13.74,13.74,0,0,0,11.67,6.33,13.86,13.86,0,0,0,3.65-.49v.08c.36.25.13,1.08.45,1.35h0a13.47,13.47,0,0,1,.14,4.5q0,.42-.06.84c-.43,1.34-.72,2.83-1,4.29a.64.64,0,0,0-.12.21C36.68,33.62,30.44,36.14,25,36.11Z"/><path class="cls-6" d="M54.64,39.94a.6.6,0,0,0-1.17.25c.31,1.45,0,2.53-.81,2.88s-2,0-2.94-1.38c-1.63-2.35-1.95-7.71-2.14-10.91,0-.52-.06-1-.09-1.4s-.1-1-.17-1.62l-.24-2.1c-.8-7.27-1.9-17.23-7.27-22C37.2,1.33,32.65.92,28.64.56L27.35.45a12.5,12.5,0,0,0-4,.34A9.71,9.71,0,0,1,20,1.06,15.69,15.69,0,0,0,9.68,3.59C1.66,9,2,17.86,3.15,28.07a49.15,49.15,0,0,1-1,16.54L2.05,45c-.45,2-.56,2.09-1,2.08a.57.57,0,0,0-.62.57.6.6,0,0,0,.57.62h.1c1.45,0,1.73-1.2,2.14-3l.08-.37a50.37,50.37,0,0,0,1-16.94c-1.13-9.81-1.45-18.34,6-23.35a14.44,14.44,0,0,1,9.46-2.35A10.84,10.84,0,0,0,23.62,2a11.48,11.48,0,0,1,3.62-.32l1.29.12c3.83.34,8.17.73,10.49,2.79,5,4.48,6.1,14.17,6.88,21.25l.24,2.11c.07.57.14,1.11.17,1.56s.06.87.09,1.38c.21,3.54.52,8.9,2.35,11.52,1.16,1.67,3,2.41,4.39,1.8C54.2,43.71,55.15,42.36,54.64,39.94Z"/><path class="cls-6" d="M6.36,26.73C6.13,24,5.9,21.35,5.86,19c-.11-6.28,3.37-13,11.4-13.72a.53.53,0,0,0-.1-1.06c-8.7.83-12.48,8-12.36,14.8,0,2.34.27,5,.51,7.76.55,6.37,1.17,13.58-.5,18.55a5.79,5.79,0,0,1-1.52,2.87.53.53,0,1,0,.67.82A6.58,6.58,0,0,0,5.81,45.7C7.56,40.53,6.92,33.2,6.36,26.73Z"/><path class="cls-6" d="M36.42,14.09l.14,0a.61.61,0,0,0,.13-1.2c-3.81-.88-7.55-2.17-9.08-5.65a.61.61,0,0,0-1.11.49C28.26,11.72,32.31,13.14,36.42,14.09Z"/><path class="cls-6" d="M12.26,12.65l1.16-.7a17.8,17.8,0,0,1,4.47-2.19.47.47,0,0,0-.25-.91,18.77,18.77,0,0,0-4.71,2.29l-1.15.69a.47.47,0,0,0,.24.88A.49.49,0,0,0,12.26,12.65Z"/><path class="cls-6" d="M12.09,15.26h.05a11.33,11.33,0,0,0,5-2.24,19.91,19.91,0,0,1,2.34-1.41.46.46,0,0,0-.4-.83,21.19,21.19,0,0,0-2.45,1.47A10.49,10.49,0,0,1,12,14.34a.46.46,0,0,0,0,.92Z"/><path class="cls-7" d="M30.45,17.12A3.1,3.1,0,0,0,27.85,19a.5.5,0,0,0,.27.65.51.51,0,0,0,.19,0,.5.5,0,0,0,.46-.31,2.13,2.13,0,0,1,1.8-1.26,2.91,2.91,0,0,1,2.65,1.05.5.5,0,1,0,.81-.58A3.93,3.93,0,0,0,30.45,17.12Z"/><path class="cls-7" d="M20.93,19.78a3,3,0,0,0-2.75-1.24,4.33,4.33,0,0,0-3.33,2.35.47.47,0,0,0,.21.62.46.46,0,0,0,.21,0,.47.47,0,0,0,.42-.26,3.37,3.37,0,0,1,2.58-1.84,2.07,2.07,0,0,1,1.92.87.47.47,0,0,0,.75-.56Z"/><path class="cls-7" d="M23.65,26.07a.45.45,0,0,0,.58-.27.63.63,0,0,1,.71-.49.9.9,0,0,1,.77.81.45.45,0,0,0,.45.41h0A.45.45,0,0,0,26.6,26,1.8,1.8,0,0,0,25,24.41a1.52,1.52,0,0,0-1.67,1.08A.45.45,0,0,0,23.65,26.07Z"/><path class="cls-7" d="M28.76,28.35l0,0-.45.11c-1.38.34-2.7.66-4,.87a3.83,3.83,0,0,1-1.25.12,4.23,4.23,0,0,1-1.31.07L21,29.46a9.11,9.11,0,0,0,3.73,3,4.27,4.27,0,0,0,1,.12A4.74,4.74,0,0,0,27,32.4a4.36,4.36,0,0,0,2-1.13,34.4,34.4,0,0,0,1.81-3.55,5.23,5.23,0,0,1-1.86.57Zm-2.09,3a3.14,3.14,0,0,1-3-.66l.07,0v-.1a43.91,43.91,0,0,0,4.82-1l.19,0A3,3,0,0,1,26.67,31.31Z"/></g></g></svg>