<svg xmlns="http://www.w3.org/2000/svg" viewBox="0 0 52.61 184.34"><defs><style>.cls-1{fill:#f6931e;}.cls-2{fill:#447eb2;}.cls-3{fill:#a7d390;}.cls-4{fill:#de2348;}</style></defs><title>border-left</title><g id="Layer_2" data-name="Layer 2"><g id="Layer_1-2" data-name="Layer 1"><path class="cls-1" d="M52.57,22.3A33,33,0,0,0,36.85.22a1.5,1.5,0,0,0-1.51,2.59A30.1,30.1,0,0,1,49.68,23.1c.38,1.89,3.27,1.09,2.89-.8Z"/><path class="cls-2" d="M43.24,167,28,181.79c-1.39,1.35.74,3.47,2.12,2.12l15.21-14.82c1.39-1.35-.74-3.47-2.12-2.12Z"/><path class="cls-3" d="M37.26,82.64a41.83,41.83,0,0,1-23.6,0,1.5,1.5,0,0,0-.8,2.89,44.92,44.92,0,0,0,25.19,0,1.5,1.5,0,0,0-.8-2.89Z"/><path class="cls-2" d="M42.67,46a122.76,122.76,0,0,0-34.72-6.8c-1.93-.1-1.92,2.9,0,3a119.89,119.89,0,0,1,33.93,6.7c1.82.64,2.61-2.26.8-2.89Z"/><path class="cls-4" d="M44.07,149.21a71.57,71.57,0,0,1-42.2,3.12c-1.88-.43-2.68,2.46-.8,2.89a74.39,74.39,0,0,0,43.8-3.12c1.78-.69,1-3.59-.8-2.89Z"/><path class="cls-4" d="M43.33,108.35,20.55,108c-1.93,0-1.93,3,0,3l22.78.36c1.93,0,1.93-3,0-3Z"/><path class="cls-3" d="M44.64,29.79A225,225,0,0,0,21,23c-1.88-.43-2.68,2.46-.8,2.89a225,225,0,0,1,23.64,6.78c1.83.63,2.61-2.26.8-2.89Z"/><path class="cls-1" d="M41.11,131.34A116.32,116.32,0,0,1,9.93,128.8c-1.88-.41-2.69,2.48-.8,2.89a119.44,119.44,0,0,0,32,2.65c1.92-.1,1.93-3.1,0-3Z"/><path class="cls-1" d="M26.25,64.49l11.88,1.67c1.89.27,2.7-2.62.8-2.89L27,61.6c-1.89-.27-2.7,2.62-.8,2.89Z"/></g></g></svg>