<svg xmlns="http://www.w3.org/2000/svg" viewBox="0 0 36.6 44.09"><defs><style>.cls-1{fill:#231f20;}.cls-2{fill:#fff;}.cls-3{fill:#1a1a1a;}</style></defs><title>meg</title><g id="Layer_2" data-name="Layer 2"><g id="Layer_1-2" data-name="Layer 1"><path class="cls-1" d="M3.1,34.86l-.55-.08a.82.82,0,0,1-.42-.19c-.48-.41-.7-1.44-.66-3.06l0-1.23.62,1.06a6.31,6.31,0,0,1,.57,1.88c.08.39.15.76.25,1.08Z"/><path class="cls-2" d="M7.9,8.58a.26.26,0,0,0,.19-.15c.53-1.16,2-1.95,3.1-2.58l.51-.29a15.74,15.74,0,0,1,4.83-1.89l.1,0a4.89,4.89,0,0,1,2.79,0,.26.26,0,0,0,.2-.49,5.28,5.28,0,0,0-3.09,0l-.1,0a16.16,16.16,0,0,0-5,2l-.51.28C9.72,6.06,8.21,6.9,7.61,8.22a.26.26,0,0,0,.29.37Z"/><path d="M7.84,8.94a.61.61,0,0,1-.56-.87c.65-1.43,2.22-2.29,3.48-3l.5-.28a16.57,16.57,0,0,1,5.1-2l.1,0a5.55,5.55,0,0,1,3.28,0A.61.61,0,0,1,19.28,4a4.64,4.64,0,0,0-2.59,0l-.1,0a15.35,15.35,0,0,0-4.72,1.85l-.52.29c-1.1.61-2.48,1.37-3,2.42A.61.61,0,0,1,8,8.92Zm.08-.58h0Z"/><path class="cls-2" d="M19.4,5.51a.26.26,0,0,0,0-.37c-.49-.42-2,.08-2.93.41s-4.61,1.84-5.35,4a.26.26,0,0,0,.16.33.26.26,0,0,0,.14,0,.26.26,0,0,0,.2-.17c.52-1.51,3-2.93,5-3.69A4.85,4.85,0,0,1,19,5.54.26.26,0,0,0,19.4,5.51Z"/><path d="M11.34,10.27a.61.61,0,0,1-.58-.81c.77-2.26,4.45-3.81,5.56-4.23,2.56-1,3.1-.51,3.28-.35a.61.61,0,0,1,.07.86h0a.61.61,0,0,1-.81.11,6.64,6.64,0,0,0-2.11.53c-2.08.79-4.38,2.17-4.83,3.48a.61.61,0,0,1-.46.4Zm7.54-4.41Z"/><path class="cls-2" d="M18.89,6.85a20.47,20.47,0,0,0-2.68,1.91.26.26,0,1,0,.33.4A20,20,0,0,1,19.16,7.3a.26.26,0,0,0-.27-.45Z"/><path d="M16.38,9.58A.61.61,0,0,1,16,8.49a20.84,20.84,0,0,1,2.72-1.94.61.61,0,1,1,.62,1.05,19.7,19.7,0,0,0-2.57,1.83.61.61,0,0,1-.27.13ZM16.44,9h0Z"/><path class="cls-3" d="M19.09,31.46a1.79,1.79,0,0,0,.36-.07,1.76,1.76,0,0,0,1.17-1.31.6.6,0,0,0-.47-.73.66.66,0,0,0-.77.47c-.08.34-.26.4-.4.41a1,1,0,0,1-.94-.56.64.64,0,0,0-.84-.3.62.62,0,0,0-.33.82A2.28,2.28,0,0,0,19.09,31.46Z"/><path d="M18.89,31.82a2.65,2.65,0,0,1-2.34-1.49.94.94,0,0,1,0-.73,1,1,0,0,1,1.83-.08.66.66,0,0,0,.59.36s.06,0,.09-.15A1,1,0,0,1,20.22,29a1,1,0,0,1,.62.43.94.94,0,0,1,.11.73,2.11,2.11,0,0,1-1.4,1.56,2.15,2.15,0,0,1-.44.09Zm-1.42-2.16-.13,0a.3.3,0,0,0-.16.17.25.25,0,0,0,0,.19,1.94,1.94,0,0,0,1.87,1.07h0A1.37,1.37,0,0,0,20.28,30a.24.24,0,0,0,0-.19.27.27,0,0,0-.18-.12.31.31,0,0,0-.36.22.8.8,0,0,1-.69.68,1.36,1.36,0,0,1-1.3-.77A.28.28,0,0,0,17.47,29.66Z"/><path class="cls-3" d="M22.13,35.23a.73.73,0,0,0-.89.46,2.17,2.17,0,0,1-1.48,1.59,2.72,2.72,0,0,1-2.43-1,.72.72,0,0,0-1,0,.67.67,0,0,0-.07,1A4.06,4.06,0,0,0,20,38.61l.28-.08a3.63,3.63,0,0,0,2.26-2.45A.66.66,0,0,0,22.13,35.23Z"/><path d="M19.35,39A4.65,4.65,0,0,1,16,37.43a1,1,0,0,1-.27-.74A1,1,0,0,1,16.1,36a1.08,1.08,0,0,1,1.48.06,2.38,2.38,0,0,0,2.1.91,1.89,1.89,0,0,0,1.22-1.36,1.08,1.08,0,0,1,1.32-.68,1,1,0,0,1,.62.51,1,1,0,0,1,.06.79,4,4,0,0,1-2.48,2.67l-.32.09A3.55,3.55,0,0,1,19.35,39Zm-2.54-2.64a.39.39,0,0,0-.25.1.34.34,0,0,0-.12.24.3.3,0,0,0,.08.22A3.72,3.72,0,0,0,20,38.26l.25-.07a3.31,3.31,0,0,0,2-2.23.31.31,0,0,0,0-.24.32.32,0,0,0-.2-.16h0a.38.38,0,0,0-.46.23,2.45,2.45,0,0,1-1.74,1.82,3.06,3.06,0,0,1-2.77-1.11A.35.35,0,0,0,16.81,36.39Z"/><path class="cls-3" d="M11.73,19.64c-1.23,1-3.36-.35-3.42.76S12.14,21.73,11.73,19.64Z"/><path d="M10,21.54a3.1,3.1,0,0,1-1.41-.31A.91.91,0,0,1,8,20.38a.79.79,0,0,1,.27-.59,1.81,1.81,0,0,1,1.37-.16,2.51,2.51,0,0,0,1.91-.27L12,19l.11.58a1.46,1.46,0,0,1-.55,1.53A2.68,2.68,0,0,1,10,21.54Zm-1-1.26a.45.45,0,0,0-.25,0,.16.16,0,0,0,0,.09s.05.11.21.2a2.48,2.48,0,0,0,2.23-.07.74.74,0,0,0,.24-.29,4.14,4.14,0,0,1-1.83.08C9.34,20.31,9.1,20.28,8.92,20.28Z"/><path class="cls-3" d="M9.51,22.52c-1.88,1.85,2,3.6,2.88,1.92C13,23.29,10.77,21.27,9.51,22.52Zm1.75,1.3L11,24c-.4.2-.7-.43-.29-.63l.3-.15C11.37,23,11.67,23.62,11.26,23.82Z"/><path d="M11.11,25.47h-.19A2.54,2.54,0,0,1,8.74,24a1.62,1.62,0,0,1,.52-1.78,1.91,1.91,0,0,1,2.58,0,2,2,0,0,1,.85,2.32A1.72,1.72,0,0,1,11.11,25.47Zm-.65-3a1,1,0,0,0-.71.29h0a1,1,0,0,0-.36,1,1.86,1.86,0,0,0,1.57,1,1.12,1.12,0,0,0,1.12-.49c.23-.42-.16-1.05-.66-1.43A1.68,1.68,0,0,0,10.46,22.48Zm.35,1.88a.64.64,0,0,1-.36-.11.74.74,0,0,1-.32-.66.67.67,0,0,1,.39-.57l.3-.15a.66.66,0,0,1,.67,0,.74.74,0,0,1,.32.66.67.67,0,0,1-.39.57l-.3.15A.7.7,0,0,1,10.81,24.36Zm.3-.85-.29.14.28-.14Z"/><path class="cls-3" d="M27,22.61c-1,.57-1.51,2.08-.38,2.63C29,26.39,30.31,20.74,27,22.61ZM27.45,24a.35.35,0,0,1,.23-.66A.35.35,0,0,1,27.45,24Z"/><path d="M27.24,25.74a1.79,1.79,0,0,1-.79-.19,1.42,1.42,0,0,1-.84-1.28,2.32,2.32,0,0,1,1.2-2h0c1.32-.74,1.94-.35,2.2-.06a2.35,2.35,0,0,1-.29,2.69A1.87,1.87,0,0,1,27.24,25.74Zm-.09-2.83a1.65,1.65,0,0,0-.85,1.34.73.73,0,0,0,.45.67,1.08,1.08,0,0,0,1.4-.42,1.73,1.73,0,0,0,.32-1.8c-.2-.23-.68-.15-1.33.21Zm.41,1.43a.73.73,0,0,1-.23,0,.67.67,0,0,1-.43-.88.68.68,0,0,1,.88-.45.66.66,0,0,1,.45.5.74.74,0,0,1-.24.69A.66.66,0,0,1,27.57,24.34Zm0-.7h0Z"/><path class="cls-3" d="M25.86,21l.67,0a2.32,2.32,0,0,1,1.8.35.52.52,0,0,0,.53.13.53.53,0,0,0,.2-.11.48.48,0,0,0,0-.7A3.17,3.17,0,0,0,26.51,20l-.61,0a.52.52,0,0,0-.53.49A.49.49,0,0,0,25.86,21Z"/><path d="M28.71,21.87a.87.87,0,0,1-.62-.25c-.3-.31-.9-.28-1.54-.25l-.7,0a.85.85,0,0,1-.61-.27.82.82,0,0,1-.22-.6.87.87,0,0,1,.87-.82h.54a3.56,3.56,0,0,1,2.91.76.82.82,0,0,1,.23.6.85.85,0,0,1-.28.6.88.88,0,0,1-.59.23Zm-1.62-1.22a2,2,0,0,1,1.5.48.17.17,0,0,0,.17,0l.07,0a.15.15,0,0,0,.05-.11.12.12,0,0,0,0-.09,2.86,2.86,0,0,0-2.31-.55l-.63,0h0a.17.17,0,0,0-.17.15.12.12,0,0,0,0,.09.16.16,0,0,0,.11,0h0c.2,0,.4,0,.61,0Z"/><path class="cls-2" d="M11,23.19l-.3.15c-.4.2-.11.84.29.63l.3-.15C11.67,23.62,11.37,23,11,23.19Z"/><path d="M10.81,24.36a.64.64,0,0,1-.36-.11.74.74,0,0,1-.32-.66.67.67,0,0,1,.39-.57l.3-.15a.66.66,0,0,1,.67,0,.74.74,0,0,1,.32.66.67.67,0,0,1-.39.57l-.3.15A.7.7,0,0,1,10.81,24.36Zm.23-.82-.22.11Z"/><path class="cls-2" d="M27.68,23.31a.35.35,0,0,0-.23.66A.35.35,0,0,0,27.68,23.31Z"/><path d="M27.57,24.34a.73.73,0,0,1-.23,0,.67.67,0,0,1-.43-.88.68.68,0,0,1,.88-.45h0a.66.66,0,0,1,.45.5.74.74,0,0,1-.24.69A.66.66,0,0,1,27.57,24.34Z"/><path d="M32.36,7a14.36,14.36,0,0,0-6-4.67A29.26,29.26,0,0,0,22.63.59C18.74-.51,11,2.39,7.7,4.85A23.53,23.53,0,0,0,3.2,9.19c-3.82,6-2.76,13.89-2.59,22h0c-.07,1.42,0,3.26,1,4.08a1.79,1.79,0,0,0,1.63.34h0c1.4-.1,3.08.58,3.88-.49l0,0c2.58,4.51,7.74,9,12.07,8.68a12.79,12.79,0,0,0,3.29-.63c4-1.33,7-4.68,8.82-9.84,1.16,0,3.47,1,4.32,0A15.41,15.41,0,0,0,35.92,30a59.36,59.36,0,0,0,.3-7.09c0-1.45,0-2.91-.14-4C35.43,14.31,35.06,10.21,32.36,7Zm-30,27.33c-.23-.2-.59-.83-.54-2.78a16,16,0,0,1,.78,2.89A.48.48,0,0,1,2.36,34.33ZM7.61,8.22c.6-1.32,2.11-2.15,3.33-2.83l.51-.28a16.16,16.16,0,0,1,5-2l.1,0a5.28,5.28,0,0,1,3.09,0,.26.26,0,0,1-.2.49,4.89,4.89,0,0,0-2.79,0l-.1,0A15.74,15.74,0,0,0,11.7,5.56l-.51.29C10,6.48,8.61,7.27,8.09,8.43a.26.26,0,1,1-.48-.22Zm9-2.17c-2,.76-4.52,2.18-5,3.69a.26.26,0,0,1-.2.17.26.26,0,0,1-.14,0,.26.26,0,0,1-.16-.33c.74-2.17,4.59-3.72,5.35-4s2.44-.83,2.93-.41a.26.26,0,1,1-.34.4A4.85,4.85,0,0,0,16.63,6ZM19.16,7.3a20,20,0,0,0-2.61,1.87.26.26,0,0,1-.33-.4,20.47,20.47,0,0,1,2.68-1.91.26.26,0,0,1,.27.45ZM30.49,32.46l.16.05c-1.5,4.48-4.71,9.9-11.47,10.31-4,.24-8.9-4.1-11.27-8.3l.08,0c-.83-1.5-2-5.82-1.17-7,.51-.72,2.06-1.09,3.12-1.79a47.21,47.21,0,0,1,4.59-3.17c1.8-.93,3.76-1.67,5.35-2.68.74-.47,1.25-1.18,2-1.7s1.83-.85,2.54-1.3c2-1.24,3.66-3.29,5.12-4.24C31.05,19.37,32.12,26.89,30.49,32.46Z"/><path class="cls-1" d="M18.84,44.09c-4.36,0-9.18-4.22-11.75-8.46A3.44,3.44,0,0,1,4.56,36a8.27,8.27,0,0,0-1.25-.06h0a2.12,2.12,0,0,1-1.92-.42C.28,34.6.21,32.7.27,31.29v-.11c0-1.26-.07-2.52-.12-3.77C-.12,20.57-.37,14.11,2.91,9A23.82,23.82,0,0,1,7.49,4.57C10.85,2.09,18.64-.9,22.73.25a14.69,14.69,0,0,1,2.54,1.14c.41.21.82.43,1.22.62a14.77,14.77,0,0,1,6.15,4.76h0c2.56,3.05,3.07,6.79,3.66,11.12l.14,1a21.39,21.39,0,0,1,.12,2.61c0,.46,0,.93,0,1.4a45.31,45.31,0,0,1-.19,5.59c0,.47-.08,1-.11,1.53,0,.21,0,.53,0,.88,0,1.64-.1,2.26-.31,2.52-.74.91-2.23.59-3.42.34-.34-.07-.66-.14-.94-.18-1.87,5.08-5,8.46-8.94,9.8a13.17,13.17,0,0,1-3.38.65ZM7.17,34.45l.29.42C10,39.25,15,43.63,19.21,43.38a12.48,12.48,0,0,0,3.2-.61c3.9-1.31,6.79-4.54,8.6-9.62l.09-.24h.26a8.06,8.06,0,0,1,1.31.21c1,.22,2.26.48,2.73-.1a12.73,12.73,0,0,0,.15-2.1c0-.36,0-.69,0-.91,0-.56.08-1.06.11-1.54A44.78,44.78,0,0,0,35.87,23c0-.48,0-1,0-1.42A21,21,0,0,0,35.74,19l-.14-1c-.58-4.22-1.07-7.87-3.5-10.77a14,14,0,0,0-5.91-4.58c-.41-.19-.83-.41-1.25-.63A14.2,14.2,0,0,0,22.54.93C18.79-.13,11.2,2.71,7.91,5.13A23.1,23.1,0,0,0,3.5,9.37C.34,14.31.58,20.66.84,27.38c0,1.09.08,2.19.11,3.29H1v.52c0,.73-.14,3,.83,3.8a1.46,1.46,0,0,0,1.32.27l.1,0a8.6,8.6,0,0,1,1.4.06c1,.09,1.78.17,2.22-.41Zm11.68,8.74c-4,0-8.85-4.24-11.25-8.49l-.23-.41.1,0c-.83-1.79-1.89-5.69-.94-7a4.56,4.56,0,0,1,1.84-1.17,10,10,0,0,0,1.37-.7c.49-.32,1-.7,1.51-1.1a21.44,21.44,0,0,1,3.11-2.09c.68-.35,1.39-.68,2.08-1a27.25,27.25,0,0,0,3.24-1.67,6.4,6.4,0,0,0,1-.86,8.34,8.34,0,0,1,.93-.82A8.09,8.09,0,0,1,23.15,17a8.06,8.06,0,0,0,1-.5,20.84,20.84,0,0,0,2.94-2.41,18,18,0,0,1,2.17-1.83L29.7,12l.11.49c2,8.63,2.36,15.09,1.1,19.74l.17.06-.11.33c-1.53,4.58-4.82,10.12-11.78,10.55ZM8.44,34.75c2.39,4,7,8,10.71,7.72,6.41-.39,9.54-5.44,11.05-9.75l-.14,0,.09-.32c1.31-4.46,1-10.75-.9-19.2-.52.4-1.08.92-1.67,1.46a21.72,21.72,0,0,1-3,2.49,8.5,8.5,0,0,1-1.11.55A7.59,7.59,0,0,0,22,18.4a7.71,7.71,0,0,0-.85.76,7,7,0,0,1-1.12,1,28.25,28.25,0,0,1-3.32,1.72c-.68.31-1.38.64-2.05,1a20.56,20.56,0,0,0-3,2c-.54.41-1,.8-1.55,1.13a10.56,10.56,0,0,1-1.47.76,4.24,4.24,0,0,0-1.56.94c-.74,1,.36,5.16,1.19,6.67l.23.41Zm-5.34.11-.55-.08a.82.82,0,0,1-.42-.19c-.48-.41-.7-1.44-.66-3.06l0-1.23.62,1.06a6.31,6.31,0,0,1,.57,1.88c.08.39.15.76.25,1.08Zm8.24-24.6a.61.61,0,0,1-.58-.81c.77-2.26,4.45-3.81,5.56-4.23,2.56-1,3.1-.51,3.28-.35a.61.61,0,0,1-.74,1,6.64,6.64,0,0,0-2.11.53h0c-2.08.79-4.38,2.17-4.83,3.48a.61.61,0,0,1-.46.4Zm5-.69A.61.61,0,0,1,16,8.49a20.82,20.82,0,0,1,2.72-1.94.61.61,0,0,1,.9.68.61.61,0,0,1-.28.37h0a19.7,19.7,0,0,0-2.57,1.83.61.61,0,0,1-.27.13ZM16.44,9h0ZM19,7h0ZM7.84,8.94a.61.61,0,0,1-.56-.87c.65-1.43,2.22-2.29,3.48-3l.5-.28a16.57,16.57,0,0,1,5.1-2l.1,0a5.55,5.55,0,0,1,3.28,0A.61.61,0,0,1,19.28,4a4.64,4.64,0,0,0-2.59,0l-.1,0a15.35,15.35,0,0,0-4.72,1.85l-.52.29c-1.1.61-2.48,1.37-3,2.42A.61.61,0,0,1,8,8.92Z"/></g></g></svg>