<svg xmlns="http://www.w3.org/2000/svg" viewBox="0 0 638.05 128.59"><defs><style>.cls-1{fill:#fad561;}.cls-2{fill:#f6931e;}.cls-3{fill-rule:evenodd;}</style></defs><title>yellow-table</title><g id="Layer_2" data-name="Layer 2"><g id="Layer_1-2" data-name="Layer 1"><polygon class="cls-1" points="619.47 59.89 11.17 59.89 49.16 33.06 572.16 33.06 619.47 59.89"/><rect class="cls-2" x="9.46" y="59.89" width="610.01" height="59.08"/><polyline class="cls-1" points="0 126.59 10.01 58.07 28.34 128.59"/><polyline class="cls-1" points="608.47 126.61 618.92 58.68 638.05 128.59"/><g id="_0706-herbs" data-name="0706-herbs"><path class="cls-3" d="M428.16,40.63c.14-.09-.08-.34-.15-.38,0-.21-.22-.19-.39-.19-.14-.18-.28.12-.46.1a3,3,0,0,1-.27.34,7.55,7.55,0,0,1-.69.64c-.47.42-.91.85-1.38,1.27-1.79-.16-4.09.47-6.19.8s-3.77,0-5.67,0a3.26,3.26,0,0,0-1.48.53c-.06.28-.23.5-.16.86a3.53,3.53,0,0,0,.35,1,10.3,10.3,0,0,1,.81.86,3.09,3.09,0,0,1,.72.46,5.4,5.4,0,0,1,.78.38,8.56,8.56,0,0,1,1.24.28,5.64,5.64,0,0,1,1.41.11,27.8,27.8,0,0,0-3.09,3,17.57,17.57,0,0,0-1.38,1.61c-.47.53-1.11,1-1.14,1.77l.07.33a1.55,1.55,0,0,0,1.43.52A13.49,13.49,0,0,0,416.06,53c.5-.36,1-.71,1.49-1.09l.71-.57c.3-.16.39-.47.77-.58-.29,2.08.21,6.16,2,7.1a4.7,4.7,0,0,0,1.31,0c0-.16.2-.17.13-.37.19,0-.14-.4,0-.43l-.12-.53c.19-.05-.16-.44,0-.49a12.69,12.69,0,0,1,.07-1.88c.09-.56.14-1.16.25-1.71s.17-1.18.31-1.73a14.89,14.89,0,0,1,1-3.18,8.3,8.3,0,0,1,1.77-2.67c.17-.16,0-.52.2-.67a12.74,12.74,0,0,0,2.41-2.6A1.9,1.9,0,0,0,428.16,40.63Zm-8.22,6.71c-.15.05-.1.24-.21.32,0,.27-.2.48-.25.75a25,25,0,0,1-6.23,4.75c-.12,0-.15.15-.2,0s.05-.08,0-.15c1-1.06,2-2.16,3.11-3.17.6-.49,1.14-1,1.75-1.49a18,18,0,0,1,1.93-1.32C420.19,47,419.83,47.19,419.94,47.34Zm-.7-1.64a10,10,0,0,1-3.31.38l-.15,0c-.21,0-.44,0-.62,0,0,0,0-.06-.08-.05a1.51,1.51,0,0,1-.44-.11c-.07,0-.14-.1-.23-.09s-.11-.09-.16-.1-.1,0-.13,0a4.33,4.33,0,0,1-.74-.53,2.28,2.28,0,0,1-.19-.24c-.05-.06-.17-.06-.19-.24a39.55,39.55,0,0,0,6.3,0,6.61,6.61,0,0,1,1.4-.24l1.78-.39c.08.32-.38.28-.44.51a4.68,4.68,0,0,0-1,.15A9.64,9.64,0,0,0,419.24,45.69Zm3.79.9c-.2.1-.11.38-.31.48-.05.42-.3.72-.38,1.12-.28.75-.45,1.57-.66,2.36,0,.44-.17.84-.2,1.29s-.07.86-.22,1.22a2.32,2.32,0,0,1-.05.7,2.84,2.84,0,0,1-.07.64c.06.26,0,.42,0,.69-.11.16.11.52-.15.59a11.91,11.91,0,0,1-.11-6.82c.34-.52.79-1,1.13-1.49a3.19,3.19,0,0,0,.53-.74c.27-.19.22-.58.61-.69C423.33,46.3,423,46.31,423,46.59Z"/></g><g id="_0706-herbs-2" data-name="0706-herbs"><path class="cls-3" d="M554.75,49.28c-.6-.46-1.37-.12-2-.59a2.53,2.53,0,0,0-.44,0c-.17-.36,0-.64-.14-1a10,10,0,0,0,.72-1.77c.14-.57.55-1.17.13-1.89a.31.31,0,0,1-.25-.05c-.42.19-.26.5-.46.73s-.25.5-.38.75c-.19,0-.06-.3-.21-.44,0-.14-.14-.32-.16-.47-.24-.39-.52-.59-.76-.95-.27-.11-.5-.39-.84-.18a1.65,1.65,0,0,1,.36.56c-.27.13-.45-.23-.7-.19a.78.78,0,0,0-.7,0,2.55,2.55,0,0,0-.17.4c.3.43.71.36,1,.7a5.26,5.26,0,0,1,1,.7,5.77,5.77,0,0,1,.21,1.31c-.22-.07-.38-.4-.6-.47s-.19-.21-.28-.32-.15-.24-.27-.19c-.38-.35-.74-.79-1.27-.4,0,0,0,.08-.07.12,0,.59.67.91,1,1.3s.78.72,1.18,1c.14,0,.26.14.4.17s.26.06.3.24-.17,0-.24.08-.2,0-.28-.1a1.87,1.87,0,0,1-.59-.12c-.38-.11-.77-.19-1.15-.33a20.78,20.78,0,0,1-2.26-.69c-.07-.29.17-.52.12-.8.2-.22.12-.5.24-.74.13-.5.49-.95.06-1.56a1.46,1.46,0,0,0-.42-.09c-.64.4-.47,1-.78,1.45-.09,0,0-.08-.1-.15s-.06-.16,0-.22c-.09-.16,0-.3-.08-.45-.12-.32,0-.59-.16-.91a6.82,6.82,0,0,0-.4-1.83c-.11-.15-.21-.39-.35-.42-.1-.21-.28,0-.42-.09-.23.32,0,.73,0,1.09-.19.13-.27-.25-.45-.14a.71.71,0,0,0-.5.11c-.18.68.83,1.34,1.2,2.17,0,.15,0,.29.08.45-.33-.07-.6-.41-.93-.54a.67.67,0,0,0-1,.14c0,.44.49.73.78.86.32.3.65.51,1,.81,0,.08-.09.06-.13,0a.43.43,0,0,1-.2-.09c-.13-.07-.29,0-.4-.17a4,4,0,0,1-.77-.29,12.82,12.82,0,0,1-1.5-.75,1,1,0,0,1,.11-.94,7.72,7.72,0,0,1,.36-.88,7.7,7.7,0,0,1,.36-.88c0-.31.42-.55.11-.94-.55-.44-1,.43-1.21.79-.14-.55-.09-1.07-.27-1.63a1.84,1.84,0,0,0-.18-.82.55.55,0,0,0-.45-.57.52.52,0,0,0-.36.67,1.34,1.34,0,0,0,0,.79c-.22,0-.36-.36-.62-.17-.51.52.19,1.29.42,2a6.56,6.56,0,0,1,.64,2c-.3.1-.5-.24-.77-.29a5.58,5.58,0,0,1-.73-.46c-.48-.27-1-.57-1.43-.87-.16-.35.08-.62-.06-1a2.18,2.18,0,0,0-.06-1,2.51,2.51,0,0,0-.14-1c0-.3-.2-.79-.53-.81-.43.2-.38.5-.43.78a5.19,5.19,0,0,0,.08.89c-.25,0-.18-.38-.36-.56.05-.16-.25-.4-.23-.57l-.83-1.26c-.3-.29-.58-.69-1-.43,0,0,0,.06,0,.08-.26.21.05.54.09.81l.33.51c.14.12,0,.18.11.29l.33.51c.2.36.26.7.48,1.06-.29.14-.45-.35-.72-.32a1.58,1.58,0,0,0-.65-.44c-.41-.42-.87-.59-1.28-1a4.49,4.49,0,0,0-1.77-2.6,1,1,0,0,0-.57.23.64.64,0,0,0,.38.69,1.74,1.74,0,0,0,.31.59c-.4-.05-.73-.39-1.12-.5l-.57-.21c-.09,0-.18-.11-.3,0,0-.1-.3,0-.24.08-.21.07.06.25.1.37s.15.25.25.27a1.32,1.32,0,0,0,.57.42c.37.31.77.5,1.15.76,0,.17-.36,0-.49,0s-.34-.05-.54.06a3.29,3.29,0,0,0-1.11.07c-.41.23-.67.5-.36.88.17.07.39,0,.59-.1l2.38.11c.17-.11.31-.08.49-.25a9.73,9.73,0,0,1,1.18.82c.37.3.77.51,1.13.85.07.16-.13,0-.18,0s-.14,0-.22,0-.3,0-.42-.09a3.37,3.37,0,0,1-.9-.06c-.32.07-.6,0-.92,0a1.89,1.89,0,0,0-.94.11.56.56,0,0,0-.11.72c.13.06.26.17.42.09.13.08.31-.07.44,0a5,5,0,0,1,.82,0,9.47,9.47,0,0,1,1.67.13c0,.19-.44.31-.62.48a3.54,3.54,0,0,0-1.05,1.26,3.46,3.46,0,0,0,.84,0,8.24,8.24,0,0,1,.88-.43l1.21-.79c.21-.09.12-.24.29-.33.46-.18.8.23,1.17.46s.71.48,1.08.66c.71.51,1.46.82,2.17,1.33-.82.12-1.6,0-2.41.06a5.64,5.64,0,0,0-2.4.2c-.08.17-.21.33-.07.55a.53.53,0,0,0,.72.11c.21.1.47,0,.69.06a8.3,8.3,0,0,1,1.42.08c-.36.36-1,.67-.68,1.17.59.22,1.36-.4,2.1-.87.16,0,0,.37.23.57.7.07,1-.83,1.77-1.16.55.11,1,.51,1.57.63.5.34,1.05.39,1.55.72a17.85,17.85,0,0,1-2,.45,2.81,2.81,0,0,1-.94-.33,1.22,1.22,0,0,1-.5-.11c-.11,0-.43,0-.44.21-.22.15.06.42.2.52-.48.19-.9.15-1.38.32s-.93.53-.68.95.63.17,1,.08a7.38,7.38,0,0,0,1-.17c-.06.42-.56.76-.35,1.24.14.25.34.21.52.24.76-.5.8-1.14,1.27-1.7a2.8,2.8,0,0,1,.69-.16c.2,0,0,.45.25.49.48.13.84-.36,1.11-.73.7-.31,1.34-.3,2-.62a3.44,3.44,0,0,1,1,.24c.16.09.34.05.48.19s.32,0,.45.14-.19.12-.24.08c-.12.14-.18,0-.29.11a3.24,3.24,0,0,0-.55.15c-.36.06-.73.17-1.09.21a4.35,4.35,0,0,1-1.09.21c-.34.1-.94.3-.76.71s.51.08.75.16a3.93,3.93,0,0,1,.77-.14,2,2,0,0,1-.47.6c0,.12-.13.21-.07.33s0,.31.08.24c.16.15.37.05.59-.1s.34-.31.41-.48l.51-.33a.43.43,0,0,1,.09-.2c-.05-.07-.1-.14,0-.18a2.63,2.63,0,0,1,.77-.14,2.79,2.79,0,0,1,.77-.14c-.12.27-.52.47-.59.75a.93.93,0,0,0-.26.82,1.85,1.85,0,0,0,1-.44A11.19,11.19,0,0,1,549.71,50c.15-.1.09-.24.2-.35.45-.15.81.15,1.24.13a7.5,7.5,0,0,0,1.2.3c.41,0,.81.17,1.22.21a1.57,1.57,0,0,0,1.28-.26C554.88,49.77,555,49.57,554.75,49.28Z"/></g><path d="M368.34,52.49a1.53,1.53,0,0,1,2.42,1.08,2.43,2.43,0,0,1-2.46,2.51,2,2,0,0,1-1.53-1,1.67,1.67,0,0,1-.13-1.92,1.37,1.37,0,0,1,2.48.61c0,.91-1.3,1.33-1.34.41,0-.08-.14-.22-.19-.15l.13-.55c.08.67.66,1.57,1.43.95.45-.36.19-1-.27-.72-.78.54-1.3-.7-.53-1.24Z"/><path d="M371.17,45.13a1.31,1.31,0,0,0,1.44.58c.48-.08.65.48.55.89a2.89,2.89,0,0,1-3.44,2,1.48,1.48,0,0,1-1.15-1.6,2.54,2.54,0,0,1,1.8-1.84c.87-.2,1.06,1.19.19,1.39a.94.94,0,0,0-.73.78V46.8c.37.88,1.84.42,2.07-.53l.55.89a2.4,2.4,0,0,1-2.53-1.27c-.42-.74.83-1.49,1.25-.75Z"/><path d="M376,47.54a2,2,0,0,1,1.75.27.71.71,0,0,1,.22.8c-.33,1.42-2.09,2.23-3.09,1.5a.72.72,0,0,1-.14-1l.77-1.31c.49-.84,1.58-.15,1.08.69l-.77,1.31-.14-1c.39.28.9-.06,1-.56l.22.8a.79.79,0,0,0-.75-.15c-.87.23-1.06-1.16-.19-1.39Z"/><path d="M361.41,55.42l-1.25.41.15-1.43c.62.2,1.33-1.27.7-1.38-.31-.06-.7.38-.84.67a.68.68,0,0,0-.09.47c0-.07-.15,0,.14,0a3.33,3.33,0,0,1,.74.09c.37,0,.51.53.39.89a.82.82,0,0,1-.9.56,3.43,3.43,0,0,1-1.27-.2,1.27,1.27,0,0,1-.45-.78,2.32,2.32,0,0,1,.25-1.55,2.51,2.51,0,0,1,2.58-1.54c2.31.65.43,5-1.76,4.26-.63-.2-.55-1.2.15-1.43l1.25-.41c.88-.29,1.08,1.13.2,1.42Z"/><path d="M514.78,46.14a1.67,1.67,0,0,1-2.56.65,1.9,1.9,0,0,1,.36-3,2.27,2.27,0,0,1,1.81-.22c.56.16,1.3.5,1.29,1.17a1.42,1.42,0,0,1-2.31,1c-.6-.56.19-1.58.79-1,.05,0,.24.06.24,0l.24.43c-.48-.39-1.49-.65-1.7.18-.12.48.5.77.66.31.27-.78,1.45-.27,1.18.51Z"/><path d="M517.14,52.48a1.48,1.48,0,0,0-1.48.43c-.33.32-.81.05-1-.27a2.41,2.41,0,0,1,1.43-3.22c.6-.21,1.53-.23,1.89.39a1.93,1.93,0,0,1-.26,2.2c-.55.61-1.57-.17-1-.79a.72.72,0,0,0,.09-.91l.34.35c-.83-.36-1.69.75-1.28,1.5l-1-.27a2.73,2.73,0,0,1,2.77-.59c.79.25.28,1.43-.51,1.18Z"/><path d="M511.89,53.6a2.16,2.16,0,0,1-1.54.8.68.68,0,0,1-.67-.39,1.88,1.88,0,0,1,1.48-2.69.66.66,0,0,1,.72.56l.21,1.27c.14.82-1.14,1-1.28.16L510.6,52l.72.56a.6.6,0,0,0-.45.93l-.67-.39a.87.87,0,0,0,.68-.32c.53-.63,1.55.16,1,.79Z"/><path d="M518.38,40.39l.72-1,.77,1c-.61.22-.26,1.56.31,1.28.28-.14.31-.63.24-.9a.54.54,0,0,0-.22-.36c.06,0,.12-.08-.09.1a3.61,3.61,0,0,1-.63.35.66.66,0,0,1-.86-.36.67.67,0,0,1,.36-.86,3.77,3.77,0,0,1,1.12-.58,1.36,1.36,0,0,1,.84.25,1.85,1.85,0,0,1,.76,1.14A2.07,2.07,0,0,1,520.64,43c-2.21.87-3.41-3-1.28-3.73a.66.66,0,0,1,.77,1l-.72,1c-.51.68-1.54-.13-1-.81Z"/><path d="M301.05,50.25a1.67,1.67,0,0,0-1.26,2.32,1.9,1.9,0,0,0,3,.39,2.27,2.27,0,0,0,.66-1.7c0-.58-.17-1.39-.82-1.54a1.42,1.42,0,0,0-1.53,2c.4.72,1.58.21,1.18-.52,0-.06,0-.25.07-.23l-.36-.34c.26.56.26,1.61-.59,1.61-.5,0-.63-.67-.14-.71.82-.07.62-1.34-.2-1.27Z"/><path d="M295.49,46.4a1.48,1.48,0,0,1-.78,1.33c-.39.24-.25.77,0,1a2.41,2.41,0,0,0,3.47-.6c.36-.53.6-1.42.09-1.93a1.93,1.93,0,0,0-2.19-.29c-.73.38-.22,1.56.52,1.18a.72.72,0,0,1,.91.14l-.25-.41c.15.9-1.15,1.46-1.77.88l0,1a2.73,2.73,0,0,0,1.25-2.54c0-.83-1.31-.62-1.27.2Z"/><path d="M293.11,51.22A2.16,2.16,0,0,0,292,52.51a.68.68,0,0,0,.21.75,1.88,1.88,0,0,0,3-.77.66.66,0,0,0-.37-.83l-1.18-.52c-.76-.33-1.22.87-.47,1.2l1.18.52-.37-.83a.6.6,0,0,1-1,.21l.21.75a.87.87,0,0,1,.47-.58c.75-.36.23-1.54-.52-1.18Z"/><path d="M307.51,48.18l1.11-.46-.79-1c-.36.54-1.58-.14-1.17-.62.2-.24.69-.15.93,0a.54.54,0,0,1,.29.3c0-.07.1-.09-.12.06a3.61,3.61,0,0,0-.5.52.66.66,0,0,0,.13.92.67.67,0,0,0,.92-.13,3.77,3.77,0,0,0,.83-.94,1.36,1.36,0,0,0,0-.87,1.85,1.85,0,0,0-.92-1,2.07,2.07,0,0,0-2.62.42c-1.39,1.93,2,4,3.3,2.16a.66.66,0,0,0-.79-1L307,47a.66.66,0,0,0,.53,1.2Z"/><path d="M216.44,51.86a1.67,1.67,0,0,1,.9,2.48,1.9,1.9,0,0,1-3-.05,2.27,2.27,0,0,1-.4-1.78c.1-.57.37-1.35,1-1.4a1.42,1.42,0,0,1,1.22,2.2c-.5.65-1.59,0-1.09-.69,0-.06,0-.25,0-.24l.4-.28c-.34.52-.49,1.55.35,1.68.49.07.72-.57.24-.69-.81-.19-.42-1.41.39-1.23Z"/><path d="M222.51,48.88a1.48,1.48,0,0,0,.58,1.43c.35.29.13.8-.17,1a2.41,2.41,0,0,1-3.35-1.1c-.27-.58-.38-1.5.2-1.92a1.93,1.93,0,0,1,2.21,0c.67.49,0,1.58-.69,1.09a.72.72,0,0,0-.92,0l.31-.37c-.28.87.92,1.61,1.62,1.13l-.17,1a2.73,2.73,0,0,1-.87-2.7c.17-.81,1.39-.42,1.23.39Z"/><path d="M224.16,54a2.16,2.16,0,0,1,1,1.45.68.68,0,0,1-.32.71,1.88,1.88,0,0,1-2.83-1.2.66.66,0,0,1,.48-.77l1.25-.34c.8-.22,1.08,1,.29,1.25l-1.25.34.48-.77a.6.6,0,0,0,1,.35l-.32.71a.87.87,0,0,0-.38-.64c-.68-.47,0-1.56.69-1.09Z"/><path d="M210.36,48.87l-1-.62.93-.87c.28.58,1.58.1,1.24-.44-.17-.27-.66-.25-.92-.15a.54.54,0,0,0-.33.26c0-.06-.09-.11.11.07a3.61,3.61,0,0,1,.42.59.66.66,0,0,1-.27.89.67.67,0,0,1-.89-.27,3.77,3.77,0,0,1-.69-1.05,1.36,1.36,0,0,1,.16-.86,1.85,1.85,0,0,1,1.06-.87,2.07,2.07,0,0,1,2.53.8c1.09,2.11-2.6,3.7-3.58,1.65a.66.66,0,0,1,.93-.87l1,.62c.73.44,0,1.55-.7,1.11Z"/><g id="_1605-nachos" data-name="1605-nachos"><path class="cls-3" d="M203.15,38.45a11.19,11.19,0,0,1,2.23-.11c.54-.09,1.11-.15,1.68-.22.26,0,.42-.18.78-.11,0-.32.69.09.67-.22a3.73,3.73,0,0,0,2.68-.89A22.66,22.66,0,0,0,216,35.1a24.48,24.48,0,0,0,3.91-2.68c.47-.65,1.18-1.06,1.56-1.79a2.45,2.45,0,0,0,.45-.45c.06-.09,0-.24.11-.34s.19-.06.22-.11,0-.25.11-.34a1.14,1.14,0,0,0,.45-.67,7.23,7.23,0,0,0,1.45-1.9,3.45,3.45,0,0,0,.45-2.57,6.86,6.86,0,0,0-1.68-.89,33.58,33.58,0,0,0,.89-3.91V16.66c-.13,0-.09-.2-.11-.34a3.76,3.76,0,0,0-1.12-1,3.67,3.67,0,0,0-2.91,1c-.32,0-.28-.32-.45-.45s-.22-.3-.45-.34a7.6,7.6,0,0,0-.67-.89c-.49-.59-1-1.16-1.45-1.79-.32.09-.29-.16-.56-.11a3.21,3.21,0,0,0-2,1.23c-.45.11-.63.49-.89.78-.47.05-.51.53-.89.67-.73-.64-.9-1.86-1.9-2.23-.6,0-.55.57-1,.67-.24.28-.42.62-.67.89-.19.66-.52,1.19-.67,1.9-.55-.12-.66-.68-1.12-.89s-.76-.51-1.12-.78a15.62,15.62,0,0,0-2.79-1h-2.68c-.28.24-.78.27-1,.56-.47.05-.51.53-.89.67-.48-.56-.57-1.52-1.34-1.79-.61-.12-.7.27-1.12.34-.22.26-.78.19-1,.45a7.89,7.89,0,0,0-2.23.67c-1.64.26-2.53,1.27-4,1.68a4.76,4.76,0,0,1-1.12.78,6.3,6.3,0,0,0-3.24-.78,5.58,5.58,0,0,1-.89.56c-.06.17,0,.27-.11.45s-.22.3-.22.34a3.82,3.82,0,0,0,.11,1.45c0,.08.11.09.11.11.05.22,0,.56.11.78,0,.06.21.18.22.22s0,.24,0,.34.22.35.34.56.05.26.11.34.19.06.22.11,0,.23.11.34.39.46.56.67c-.25.23-.74.23-1,.45a3.54,3.54,0,0,0-.78.67,2.56,2.56,0,0,0,.22,1.45c.19.36.11,1,.45,1.23.23.85.89,1.27,1.23,2A17.45,17.45,0,0,0,188.51,32a22.85,22.85,0,0,0,3.8,2.79c1.15,1.05,2.87,1.52,4.13,2.46a11.68,11.68,0,0,0,3.8.67A19,19,0,0,0,203.15,38.45Zm-17.66-15h.22c0,.07,0,.13.11.11v.22h-.34Zm4.25-2.79a6,6,0,0,0,.67,1.45,4.73,4.73,0,0,0-.67,1c-.42.17-.15,1-.67,1.12a4.65,4.65,0,0,0-.45-.67c-.63-.15-.86-.71-1.34-1-.3-.49-.78-.78-1-1.34a5.3,5.3,0,0,1-1-1.34,2.79,2.79,0,0,1-.67-1.79c0-.13.12-.17.22-.22s.09.13.22.11A9.55,9.55,0,0,1,189.74,20.68Zm7.49-2.91c-.17.35-.06,1-.22,1.34s.34.53,0,.67c-.43-.43-1.11-.6-1.56-1-.66-.23-1.06-.73-1.9-.78-.66.16-.81.83-1.34,1.12,0,.39-.4.42-.45.78-.3.15-.22.67-.67.67,0-.53-.42-.55-.45-1-.33-.15-.45-.52-.78-.67-.07-.33-.72-.45-.45-.78a12.28,12.28,0,0,1,3.69-1.79c.55-.34,1.34-.45,1.9-.78a9.42,9.42,0,0,0,2-.89V15C197.06,15.93,197.26,16.74,197.23,17.78Zm2.46,5a9.64,9.64,0,0,0,.11,2c-3,0-6-.08-8.83-.34.13-.47.53-.66.67-1.12.37-.26.39-.88.78-1.12.29-.94,1-1.5,1.23-2.46h.22A55.73,55.73,0,0,0,199.68,22.81Zm7.93-4.25a20.9,20.9,0,0,0-.11,2.46,5.54,5.54,0,0,1-1.56-.67,42.63,42.63,0,0,0-4.81-2.24c-1.11.46-1.24,1.89-1.45,3.24a8.42,8.42,0,0,1-1.68-1,17.63,17.63,0,0,1,.89-3.91,5.89,5.89,0,0,0,.78-.67c.6-.08,1.07-.28,1.68-.34a11,11,0,0,1,4.69,1.34c.32.38.7.54,1,.89.09.11.11.3.22.45S207.72,18.3,207.62,18.56Zm1.56,5.14c.47.17.75.52,1.34.56.1.2.39.2.56.34s.58.09.56.45h-4.47c-1.77-.31-4.26.09-6-.22A22.59,22.59,0,0,1,201,22c-.08-.38.45-.14.34-.56-.41-.35-.2-1.38.11-1.68,0-.07,0-.13.11-.11s.12.17.22.22a11.1,11.1,0,0,0,1.9.89,1.74,1.74,0,0,1,.22.22s.18,0,.22,0a1.76,1.76,0,0,1,.22.22s.18,0,.22,0c.32.16.58.4.89.56A28.13,28.13,0,0,1,209.18,23.7Zm5.25-1.23a14.16,14.16,0,0,0,.78,2.57H213.1c-.24-.24-.29-.68-.56-.89a10.7,10.7,0,0,1-1.9-1.12c-.28-.24-.62-.42-.89-.67s-.42-.11-.45-.34c-.21,0-.48,0-.45-.34a8.4,8.4,0,0,0,.11-2c.27-1.51.73-2.84,1.12-4.25.14,0,.15-.14.33-.11a.53.53,0,0,0,.11.34c.48,1.31,1.23,2.35,1.79,3.58C213.14,20.19,213.57,21.54,214.44,22.47Zm4.36-5.36c-.14.49-.56.7-.89,1-.16.51-.62.72-.78,1.23a11.79,11.79,0,0,0-.78,1.23c-.28.39-.41.93-.78,1.23-.64-1.93-1.82-3.32-2.57-5.14a28.17,28.17,0,0,1,3.24-2.91c0,.16.18.19.22.34a11.73,11.73,0,0,0,1.12,1.56c.3.14.32.57.67.67C218.34,16.66,218.78,16.67,218.79,17.11Zm4,2.68a13.92,13.92,0,0,1-.78,1.9c-.21.68-.58,1.21-.78,1.9-.57.36-.83,1-1.56,1.23a22.72,22.72,0,0,1-4.13.22c.06-.32.27-.47.34-.78.38,0,.42-.33.56-.56.35-1,.83-1.93,1.23-2.91a8,8,0,0,0,1.23-1.56,7,7,0,0,0,1.34-1.45c.79-.33,1-1.19,2.23-1.12a.31.31,0,0,1,.22.34c.15,0,.1.2.22.22A21.23,21.23,0,0,1,222.82,19.79Zm-24,15.65a15.17,15.17,0,0,1-4-1.56c-1.26-.64-2.29-1.51-3.58-2.12-.61-.81-1.57-1.26-2.24-2a14.23,14.23,0,0,1-2.23-2.12,15.85,15.85,0,0,0-.78-1.68c7.67,1.24,17.2.94,25.82.89.35.05.39-.2.78-.11a47.33,47.33,0,0,0,10.73-1.12,9.23,9.23,0,0,1-1,1.45c-1.31,0-2.42.26-3.69.34-.58.09-1.16.18-1.79.22-.13.2-.58.09-.78.22s-.62.12-.56.56.76.36,1.12.56a9.34,9.34,0,0,0,2.35-.22c.53.08.77-.13,1.23-.11.25-.05.84-.35,1-.11a5.93,5.93,0,0,0-.67.78H219a6.79,6.79,0,0,1-1.34.22c-.2.06-.66-.14-.67.11-.23.07-.73-.14-.78.11-.92.16-2,.2-2.23,1,1.75.34,3.44-.26,5.14-.34.3.1-.26.25-.22.45a5.06,5.06,0,0,0-.56.45c-1.2,0-2.13.18-3.24.22-.91.28-2.34,0-2.46,1.12a2.44,2.44,0,0,0,1.56.34c.48,0,1.26-.3,1.68,0-.24.16-.6.22-.78.45-.48,0-.71-.26-1.23-.22h-1.79c-.43.24-1.28.07-1.34.67.21.53,1.24.25,1.56.67C208.79,35.82,203.42,35.61,198.79,35.43Zm17.66-19.78c0-.75-1.25-.47-1,.34A.71.71,0,0,0,216.45,15.65ZM203,17v-.67c-.13,0-.2,0-.22-.11C202.36,16.26,202.31,17.22,203,17Zm-7.26-.11c-.4-.06-.34.33-.34.67C196,17.65,195.9,17.19,195.77,16.88Zm-2.12.11c-.24,0-.24.28-.22.56C194,17.6,193.88,17.17,193.65,17Zm21.46.78a.77.77,0,0,0,1.23-.67C215.65,17.05,215.08,17.11,215.11,17.78Zm-9.28.67c.32-.23.23-.74,0-1C204.93,17.19,204.93,18.7,205.83,18.45Zm-14.19-.56c-.2-.21-.33,0-.56.11C191.1,18.34,191.68,18.23,191.64,17.89Zm12.07.22c-.09-.1-.31-.07-.34-.22-.2.1-.39.21-.34.56.1,0,.2.1.22.22C203.58,18.65,203.74,18.48,203.71,18.11Zm17.55,0c-.33-.28-.75.07-.78.45A.49.49,0,0,0,221.25,18.11Zm-10.84,1.45a.73.73,0,0,0,.56.11,1,1,0,0,0-.11-.67C210.67,19.15,210.42,19.24,210.41,19.56Zm-23.36.34h-.34C186.66,20.3,187.12,20.3,187.06,19.9Zm34.2.22c-.57-.12-.69.21-.89.45,0,.21.24.28.22.56A.61.61,0,0,0,221.25,20.12Zm-34,.89c-.09-.1-.31-.07-.34-.22-.19.14-.44.23-.45.56.1,0,.2.1.22.22Q187.32,21.61,187.28,21Zm25.37-.11c-.57,0-.61.44-.67.89.22,0,.14.3.45.22C213,22,212.92,21.19,212.65,20.91Zm-1.45.34a.49.49,0,0,0-.78.22c0,.28.17.35.34.45C211.12,21.91,211.18,21.59,211.2,21.24Zm-16.43.89c.53-.66-.52-1.5-.67-.56C194.15,21.94,194.27,22.22,194.77,22.13Zm-5.59-.22c.22-.94-.89-.71-1-.22S188.85,22.11,189.18,21.91Zm29.61,1.23c.59-.5,0-1.94-.67-1.23C218.07,22.6,218.13,23.17,218.79,23.14ZM204.6,21.91a.49.49,0,0,0-.78.22c0,.28.17.35.34.45C204.51,22.57,204.65,22.33,204.6,21.91Zm-8,1.56c.27-.3,0-.76-.22-.89C195.73,22.56,196,23.68,196.56,23.48ZM194.1,23a.47.47,0,0,0-.45.78h.45A.92.92,0,0,0,194.1,23Zm9.72.33c-.42-.4-.94,0-1,.56.11,0,.09.14.11.22C203.36,24.32,203.87,24,203.82,23.36Zm3,.45c0-.33-.21-.39-.34-.56-.17.06-.28.17-.45.22a1,1,0,0,0,.11.67C206.56,24.21,206.66,24,206.84,23.81Zm-40.46,4.47a47.31,47.31,0,0,0,1.12,8.38c.37.15.41.63.67.89,2,1.17,5,1.31,8.27,1.23a15.75,15.75,0,0,0,4-.78,7.3,7.3,0,0,0,1.68-.67c.46-.32,1.17-.39,1.56-.78a29.69,29.69,0,0,0,0-7.6,4.94,4.94,0,0,0-1.45-1.45c-.16-.13-.19-.33-.34-.45s-.19,0-.22,0a4.11,4.11,0,0,0-1.12-.78A10.42,10.42,0,0,0,176,25c-.18,0-.19-.11-.33-.11-3.69-.08-7.21,0-8.83,2,0,.33-.25.34-.22.67S166.57,28.17,166.38,28.28Zm10.84-.67a6.91,6.91,0,0,1-1.12.34c-.27-.28.28-.37.22-.78.15-.34-.42-.76.11-.78.3.22-.17,1.21.45,1.12,0-.21-.15-.67.22-.56S177.16,27.41,177.22,27.61Zm1-.11c-.33.16-.33-.5,0-.34Zm1.34.22c-.39.09-.43-.17-.78-.11.09-.25.06-.61.34-.67,0,.16.25.13.34.22A.73.73,0,0,0,179.57,27.72Zm1.79,1.9c-.19-.37.06-.5,0-1,.17,0,.1.27.11.45S181.6,29.64,181.36,29.62Zm0,5.36c0-.35.29-.38.56-.45C182,35,181.55,35.16,181.36,35Zm-.11-2.68c0-.26-.18-.42-.11-.78.23-.06.32-.28.67-.22v1.23c.14.27.35,1.42-.34,1.23-.25,0,0-.47-.11-.67C181.11,33,181.31,32.54,181.25,32.3Zm-.45-3.69c-.31.08-.23-.22-.45-.22,0-.29-.43-.09-.34-.45C180.33,27.48,181,27.89,180.8,28.62ZM180,36.55c0-.06.09-.13.11,0S180,36.68,180,36.55ZM179.57,32a.53.53,0,0,0,.34-.11c0,.14.14.16.11.34-.12.7.25,1.89-.22,2.24C179.8,33.53,179.58,32.85,179.57,32Zm-1.68,3.46c-.14-1-.26-2-.34-3.13.4-.07,1.07-.28,1.34-.11a42.62,42.62,0,0,1-.11,4.92,1,1,0,0,0-.67.11C177.73,36.93,177.95,36.05,177.89,35.43Zm-2.35-3.13h1c-.08,1.79.19,3.24.11,5h-.78C175.7,35.73,175.63,34,175.55,32.3Zm-3.35-1.56c.32-.6-.27-.91-.11-1.68.13,0,.12-.18.11-.34a2.87,2.87,0,0,0,.45-.34,4.08,4.08,0,0,1,.45-.34,3.29,3.29,0,0,1,2.57.34c-.11.59-.24,1.29.33,1.45.35-.09.4-.61.56-.78s.29-.09.34-.22a10,10,0,0,1,2.23-.11c.57.4,1.28.66,1.45,1.45C178.47,31,175,31,172.19,30.74Zm-4.13.22h.33c1.5,1,3.7,1.3,6.15,1.34v1.56a8.42,8.42,0,0,1,.11,2.12c.07.33.38,1.47-.22,1.45s-.22-.57-.45-.67c-.07-1.09.21-2.52-.67-2.79-.64.29-.21,1.65-.34,2.46-.08.41.19.48.11.89a2.79,2.79,0,0,1-1.12-.11c0-.8.12-1.76-.56-1.9,0,.18-.29.09-.22.34,0,.07-.28.43,0,.45-.1.31.23,1-.22,1-.85.18-.09-1.25-.89-1.12-.58-.06-.33.71-.78.78-.57-.32-.52-1.27-.67-2a3.18,3.18,0,0,1-.22-1.12c-.15-.34-.08-.89-.22-1.23A4.27,4.27,0,0,0,168.06,31Zm3.46-.34A8.22,8.22,0,0,1,169.4,30c-.07-.87,1.07-1.06,1.79-.78A2.14,2.14,0,0,0,171.52,30.63Zm-3.58-2.91c1.43-1.59,4.42-1.62,7.49-1.57a8.57,8.57,0,0,1,.22,1.23c-.46,0-.63-.34-1.12-.34H173.2c0,.13-.18.12-.34.11-.18.23-.54.28-.78.45s-.38.51-.78.56c-.33-.22-1.05-.06-1.56-.11-.39.39-1.14.43-1.12,1.23C168,29.17,167.91,28.5,167.95,27.72Zm34.76,4.36c.7.75,1.73-.1,2.46-.34.63-.49,1.45-.79,1.56-1.79-.11,0-.09-.14-.11-.22a.53.53,0,0,0-.33-.11c-.92.09-1.39.62-2.12.89S202.72,31.09,202.7,32.08Zm-3,.22a1.91,1.91,0,0,0,2-1.79c-.11-.22-.42-.26-.56-.45C200.27,30.36,199.13,31.29,199.68,32.3Zm-6.82,13.19c.41.56.9,1,1.34,1.56a4,4,0,0,1,1,.56c.34-.08.33.19.67.11-.08.3.53-.08.45.22a13.66,13.66,0,0,0,2.68-.11,6.22,6.22,0,0,0,4.47-3.69c-1-1.53-2.78-2.29-4-3.58-.88-.38-1.44-1.09-2.35-1.45A11.89,11.89,0,0,0,195,37.56c-.15,0-.18-.2-.34-.22-1.13-.2-1.08.78-1.68,1.12-.07.37-.35.55-.45.89a4.68,4.68,0,0,1-.34,1v3A13.15,13.15,0,0,0,192.87,45.49Zm1.45-6.59h.22a.57.57,0,0,1,.34.33c.72.28,1.21.8,1.9,1.12.52.52,1.24.84,1.79,1.34s1.12.89,1.79,1.23a1.84,1.84,0,0,0,.89.67c.16.36.69.35.78.78a6.25,6.25,0,0,1-3.46,2.12h-2.24a4.08,4.08,0,0,0-1-.45,5.91,5.91,0,0,0-.78-.67,6.16,6.16,0,0,1-1-2.57A7.22,7.22,0,0,1,194.32,38.9ZM176.22,42A5.13,5.13,0,0,0,178,46.94a2.12,2.12,0,0,1,.78.45,2.21,2.21,0,0,1,.78.34,9.83,9.83,0,0,0,7.93-2.35,7.62,7.62,0,0,0,1.34-3.13c0-1.47.08-3.32-.56-4.25,0,0-.1,0-.11,0a.79.79,0,0,0-.34-.22c-2.2.41-3.84,1.38-6,1.79-1,.34-2,.56-3,.89a4.56,4.56,0,0,1-1.45.45c-.28.35-.81.46-1,.89C176.35,41.93,176.3,42,176.22,42Zm1.12.34c1.13.09,1.62-.46,2.46-.67s1.59-.5,2.46-.67a21.39,21.39,0,0,0,4.58-1.79h.34a17.48,17.48,0,0,1,.11,3A9.11,9.11,0,0,1,186.5,44c-.63.48-1.55.69-2.12,1.23a24.63,24.63,0,0,0-2.46,1h-1.79c-.19-.22-.64-.18-.78-.45-.39,0-.42-.4-.78-.45A4.78,4.78,0,0,1,177.33,42.36Zm17.43-2.24c0,.49-.08,1,.33,1.12C196,41.17,195.63,39.62,194.77,40.13Zm-9.61,2.35c.51,0,.73-.39.67-1C185.28,40.83,184.57,42,185.16,42.47Zm11.4,1a.52.52,0,0,0-.22-1,.63.63,0,0,0-.11.45C196.1,43.34,196.46,43.28,196.56,43.48Zm-15.65-1a.78.78,0,0,0,0,.67c.37,0,.43-.32.45-.67Zm17.32.56c-.25.42-.17,1.33.56,1.12C199,43.74,199,42.82,198.23,43Zm-15.65,1.45H183a.73.73,0,0,0-.11-.56C182.73,44,182.53,44.13,182.59,44.49Zm13.41,1c.66.12.75-.48.56-.89C195.89,44.46,195.78,45.05,196,45.49Zm-11.18,3.35a10.66,10.66,0,0,0-.34,2.91c.19.22.12.7.22,1s.32.27.34.56a5.31,5.31,0,0,0,2.79,1.34,9.39,9.39,0,0,0,1.56.45,8,8,0,0,0,1.79.22,5,5,0,0,0,2.46-.78c.49-1.11.08-2.68-.11-3.8a3.11,3.11,0,0,1-.56-1.12c-1.31-1.34-2.42-2.87-4.92-3-.18,0-.19-.11-.34-.11-1.16.07-1.64.82-2.35,1.34A3.93,3.93,0,0,1,184.82,48.84Zm3-1a.8.8,0,0,1,.34.22,9.63,9.63,0,0,1,3.24,2.35,3.55,3.55,0,0,0,.67,1.12,3.5,3.5,0,0,1,0,2.35H190.3c-1.43-.43-3.12-.61-4.13-1.45,0-.09,0-.22-.11-.22C185.71,50.23,186,48,187.84,47.84Zm-1,3a.43.43,0,0,0,.78-.33C187.34,50.28,186.79,50.44,186.83,50.86Zm2.46.34a1,1,0,0,0,.67.11c.06-.23.28-.32.22-.67C189.83,50.39,189.13,50.57,189.29,51.19Z"/></g><g id="_3110-mai-tai" data-name="3110-mai-tai"><path class="cls-3" d="M409.86,32.81c-.23-.08-.4,0-.52-.3a3.24,3.24,0,0,0-.67-.3c-.06,0-.15,0-.15-.08h-1.57a2.29,2.29,0,0,1-.82.15c-.1.15-.39.11-.52.22s-.14.11-.3.07-.25.23-.22.07c.1-.52.29-1,.37-1.5V29.37c-.07-.47-.19-.91-.22-1.42-.31-.26-.24-.9-.75-1-.08-.17-.37.07-.45.15s-.29.21-.45.3a4.9,4.9,0,0,1-.67.82,4.78,4.78,0,0,1-.52,1c-.06.19-.07.42-.22.52a.42.42,0,0,1-.07.3c0,.08-.12.18-.15.07-.22-.33.14-.63.22-.9a3.57,3.57,0,0,1,.37-1,8.94,8.94,0,0,1,.67-1.94c1,.44,2,.75,3.06,1.12a12.44,12.44,0,0,0,3.59.67c.1-.22,0-.39,0-.75s-.39-.26-.37-.6c-.41-1.06-.95-2-1.42-3-.28-.46-.63-.86-.9-1.35s-.32-1.22-1.12-1.2c-.38.15-.8.24-1.2.37-.78,0-1.4.2-2.17.22a2.67,2.67,0,0,1-1,.22c0,.17-.4,0-.45.15s-.43,0-.52.15c-.68.12-1.24.36-1.87.52a6.62,6.62,0,0,0-1.64.82A15.75,15.75,0,0,0,399.7,25c.44.18.89.36,1.35.52a1.84,1.84,0,0,1,.67.3,1,1,0,0,1,.67.3,23.71,23.71,0,0,0-1,2.84c-.85-.82-1.53-1.81-3.14-1.87-.63.47-.41,1.78-.6,2.69a9.9,9.9,0,0,1-.07,1.94h-4a20.68,20.68,0,0,0-9,2.32c-.34.18-.87.18-1,.52s.12.94.15,1.42c.24,3.6.87,6.81,1.35,10.17.27,1.65.44,3.4.75,5,.06.91.32,1.63.37,2.54.18.29.12.83.22,1.2a4.3,4.3,0,0,0,.3,1.2A6.66,6.66,0,0,1,388,57c.29.09.47.27.75.37s.56.19.75.37c.6.14,1.13.37,1.72.52s1.34.21,2,.3h2.62c2.23-.33,4.31-.83,5.68-2,0-.06,0-.15.07-.15a41.74,41.74,0,0,0,1-4.93c.28-1.71.56-3.4.82-5.08s.49-3.44.82-5.08c0-.94.25-1.69.3-2.62a8.09,8.09,0,0,0,.15-1.35c.11-.38,0-1,.22-1.27.36,0,.64.19,1,.22a3.68,3.68,0,0,0,4-1.87A2.31,2.31,0,0,0,409.86,32.81Zm-9.27-8.75a1.7,1.7,0,0,1-.67-.15,2,2,0,0,1,1-.3A.81.81,0,0,1,400.59,24.07Zm5.53-1c0-.1.13-.12.15-.22s.07,0,.07.07c.41.56.68,1.26,1,1.87s.67,1.28,1,1.94a4,4,0,0,1-1-.3,2,2,0,0,1,.22-.9c-.08-.15-.13-.32-.3-.37-.55.05-.56.63-.75,1a3.76,3.76,0,0,1-.75-.22c.15-.55.49-.9.67-1.42.05-.2-.15-.15-.15-.3-.6-.1-.66.33-.9.6,0,.25-.24.26-.22.52s-.1.4-.45.3c-.17-.25.19-.47.3-.67A5.24,5.24,0,0,1,406.12,23Zm-2.24-.15a5.74,5.74,0,0,0,.9-.22c.29-.06,0,.29-.07.3,0,.22-.19.25-.22.45a5.16,5.16,0,0,1-.45.82,6.75,6.75,0,0,0-.15,1c-.38,0-.52-.18-.82-.22a3.38,3.38,0,0,1,.75-1.49A1.4,1.4,0,0,0,403.88,22.87Zm-1.57,1.79c-.24,0-.25-.2-.52-.15,0-.11.08-.2.15-.3a2.94,2.94,0,0,1,.37-.37c.12-.12.18-.26.45-.3s.17-.63.67-.52a3.1,3.1,0,0,1-.6.82C402.64,24.1,402.49,24.4,402.31,24.66Zm-1.12,7.92A5,5,0,0,1,401,35c-.23.11-.41,0-.6-.15s-.36-.23-.37-.52a6.87,6.87,0,0,0,1-1.79C401.13,32.5,401.17,32.53,401.19,32.59Zm-1.87-1.94c.15-.14.14-.46.22-.67a5.33,5.33,0,0,0,.22-.6c.12,0,.13.07.22.07a7.58,7.58,0,0,1,.9,1.79c-.05.27-.3.34-.3.67-.19.11-.14.45-.37.52a3.27,3.27,0,0,1-.3.67c-.13.17-.06.54-.37.52a19.33,19.33,0,0,1,.9-2.84.38.38,0,0,0-.22-.22c-.43,0-.41.44-.67.6s-.32.52-.45.82c-.2-.16,0-.52.07-.67A5,5,0,0,0,399.32,30.64Zm-.45-2.09a.35.35,0,0,0,.22.07c0,.24-.09.36-.3.37A.64.64,0,0,1,398.87,28.55Zm-12,5.83c.13,0,.31,0,.37-.15a2.82,2.82,0,0,0,.82-.22,2.57,2.57,0,0,0,.82-.22,1.63,1.63,0,0,0,.82-.15c1.27-.07,2.38-.31,3.74-.3,1.33-.17,3,0,4.41-.07.21.32.27.78.52,1,.1.4.45.55.52,1a35.21,35.21,0,0,1-5.76.22,55.06,55.06,0,0,1-6.58-.9C386.55,34.37,386.86,34.5,386.91,34.38ZM402,45.67c-.47,3.29-1.13,6.39-1.49,9.79a11.12,11.12,0,0,1-2.32.9,13.87,13.87,0,0,1-4.71.52c-.51-.06-1-.11-1.57-.15a6.79,6.79,0,0,1-1.35-.37,5.5,5.5,0,0,1-1.27-.45c-.31-.26-.94-.21-1-.67.52.08.8.4,1.27.52a4.31,4.31,0,0,0,1.5.3.59.59,0,0,0,.45-.6c0-.72-1-.53-1.5-.82a8,8,0,0,1-1.57-.67c0-.18.28,0,.3.07s.31,0,.37.15a2.06,2.06,0,0,0,.9.15.79.79,0,0,0,.52-.6c0-.55-.49-.66-.9-.82a10.26,10.26,0,0,0-1.27-.37c-.16-.22-.65-.09-.67-.45s.26,0,.45-.07a.67.67,0,0,0,.52.15,2,2,0,0,0,1,.22.8.8,0,0,0,.67-.9c0-.38-.26-.44-.37-.67l-1.42-.3c-.36-.21-1.2,0-1.2-.52-.05-.25.15-.12.22-.07s.2.05.3.07a1.9,1.9,0,0,1,.6.15,5.24,5.24,0,0,0,.9,0,.94.94,0,0,0,.6-.82,1.12,1.12,0,0,0-.52-.82c-.78-.08-1.75-.24-2.32-.3a3.91,3.91,0,0,1-.15-1.12c.18-.06.73,0,1.12,0l.45-.22c0-.24.2-.25.15-.52-.08-.87-1.09-.81-1.94-.9a6.49,6.49,0,0,1-.3-1.57c.59,0,1.07-.08,1.2-.52v-.3c-.08-.62-.81-.59-1.42-.67-.12-.33-.1-.79-.22-1.12s.33-.42.3-.82-.36-.44-.52-.67c-.25-1.45-.5-2.89-.75-4.34,3.45,1.37,8.36,1.86,13.08,1.49-.07.65-.33,1.11-.45,1.72s-.57,1-.37,1.57c.46,0,.54-.31.67-.6a7.48,7.48,0,0,0,.37-.9c.17-.65.43-1.21.6-1.87.86-.09,1.6-.29,2.47-.37s1.39-.46,2.17-.6C403.05,39.13,402.55,42.42,402,45.67Zm2.24-14.5c-.12.08-.08.32-.15.45a1.69,1.69,0,0,0-.15.45,4.91,4.91,0,0,0-.37.82,8,8,0,0,0-.45.75c-.24.13-.2.54-.6.52.12-.11.07-.38.07-.6s.09-.54-.07-.6c0-.23.2-.2.22-.37.21,0,.07-.28.22-.3a7.07,7.07,0,0,1,1.2-3.74c.06,0,.07,0,.07.07a14.21,14.21,0,0,1,.07,1.72A2.85,2.85,0,0,0,404.26,31.17Zm3.89,3.21c-.23,0-.34.16-.52.22s-.42.08-.52.22a4.51,4.51,0,0,1-2.39-.22,4.34,4.34,0,0,1,1.79-.9,5.28,5.28,0,0,1,2.39-.15C408.77,34,408.37,34.09,408.14,34.38ZM392,37.6a1.88,1.88,0,0,0-.67.6c-.05.11,0,.19-.07.3v.3a1.33,1.33,0,0,0,.6.82c.09,0,.21,0,.22.07a1.48,1.48,0,0,0,1-.22c.39,0,.48-.37.67-.6a1.59,1.59,0,0,0-.22-1A1.62,1.62,0,0,0,392,37.6Zm.07,1.2v-.37c.16-.16.84-.27,1,0C393.11,38.9,392.41,39,392.07,38.79Zm8.15,1.94a1.8,1.8,0,0,0-1.27.3,3.7,3.7,0,0,1-.37.6c-.16,1.26.59,1.83,1.64,1.64a1.76,1.76,0,0,0,.75-1.72c-.11-.06-.11-.24-.15-.37A6.91,6.91,0,0,0,400.22,40.74Zm-.67,1.72c-.2-.24.06-.5,0-.82a.57.57,0,0,1,.67.07C400.22,42.18,400.11,42.55,399.55,42.46Zm-9-.82a1.43,1.43,0,0,0-1.64.37,2,2,0,0,0-.37.82,1.9,1.9,0,0,0,.37,1.27,2.66,2.66,0,0,0,2.17-.45c0-.18.14-.25.15-.3A1.6,1.6,0,0,0,390.58,41.63Zm-.22,1.49a.63.63,0,0,1-.67-.07c-.08-.45.07-.68.52-.6A.62.62,0,0,1,390.35,43.13Zm6.43,2.32c-.13-.21-.42-.29-.52-.45-1.33-.14-1.78.94-1.5,2.17a1.38,1.38,0,0,0,2,.07,2.59,2.59,0,0,0,.07-1.49A1,1,0,0,0,396.78,45.45Zm-.75,1.2c-.13,0-.16.09-.3.07-.15-.17-.07-.56,0-.75H396C396.08,46.09,396,46.41,396,46.64ZM398.95,50c-.07-.13-.17-.29-.3-.15s-.26.39-.3.67a1.34,1.34,0,0,0,.37.75l.15.07a.89.89,0,0,0,.67-.15c.09,0,.17,0,.22-.07s0-.16.07-.15a1.28,1.28,0,0,0-.3-1A1.4,1.4,0,0,0,398.95,50Zm.15.67a.35.35,0,0,1-.07-.22.42.42,0,0,1,.3-.07C399.34,50.58,399.29,50.7,399.1,50.68Z"/></g><g id="_1606-guacamole" data-name="1606-guacamole"><path class="cls-3" d="M267.43,42.57c-.06,0-.09-.07-.08-.16-.21-.5-.51-.9-.73-1.38a10.67,10.67,0,0,0-6.32-2.92,32.43,32.43,0,0,0-4.86.41A3.61,3.61,0,0,0,255.2,37c-.33-.51-.66-1-1-1.54s-1.05-.73-1.46-1.22-1.13-.71-1.7-1.05a25,25,0,0,0-8.67-1.78c-.1,0-.11.1-.24.08a23.75,23.75,0,0,0-7.46,1.13,9.21,9.21,0,0,0-5,3.57c-.11.86-.26,1.68-.32,2.59a42,42,0,0,0,.57,5.43c.06.94.22,1.78.32,2.67a19.68,19.68,0,0,0,.41,2.67c.38.78,1.31,1,1.94,1.54a9.36,9.36,0,0,0,2.51,1,5.16,5.16,0,0,0,1.3.41,7,7,0,0,0,1.46.32,14,14,0,0,0,3.32.24c.63-.1,1.14-.32,1.78-.41a6.82,6.82,0,0,0,.65,1.86,12.13,12.13,0,0,0,3.16,2.43,7.77,7.77,0,0,0,1.94.81,2.78,2.78,0,0,0,1.05.32,2.9,2.9,0,0,0,1.13.32c2-.09,3.72-.44,5.67-.57a15.59,15.59,0,0,0,3.48-1.38c.49-.34,1-.69,1.46-1.05s1-.63,1.46-1.05a6.94,6.94,0,0,0,1.38-1.13c.45-.42.89-.84,1.3-1.3a.22.22,0,0,1,.16-.24,12,12,0,0,0,1.05-3c.23-1.12.51-2.19.73-3.32A13.1,13.1,0,0,0,267.43,42.57Zm-36.14-4.78c.12-.13.11-.38.24-.49.13-.35.42-.55.57-.89a13.55,13.55,0,0,1,2.76-2,33.4,33.4,0,0,1,9-1.13,22.92,22.92,0,0,1,3,.57c1,.13,1.69.64,2.67.81.51.38,1.22.56,1.78.89s1,.73,1.46,1.13c.18.58.58.94.49,1.78-.12.39-.48.55-.73.81-.24-.25-.13-.84-.32-1.13a1.15,1.15,0,0,0-.49-.57c0-.27-.52-.13-.49-.49-.49-.19-.66-.69-1.13-.89a1.83,1.83,0,0,1-.49-.16,3.13,3.13,0,0,0-1.22.16,8.41,8.41,0,0,1-1.54-1,.66.66,0,0,1-.49-.16h-1.13c-.21.14-.59.12-.73.32-.31,0-.34.31-.65.32s-.45-.2-.65-.32-.52-.13-.65-.32c-.42,0-.71-.15-1.13-.16s-.69.12-1.05.16a11.44,11.44,0,0,0-1.05.49,9.71,9.71,0,0,0-1.94-.73,3.94,3.94,0,0,0-2.19.4A2.77,2.77,0,0,0,234,36.41a2.59,2.59,0,0,0-2.59,1.86C231.22,38.19,231.19,38,231.29,37.79Zm16.21-.57c.68.21,1.09-.53,2-.32.45.09.63.45.89.73a3.28,3.28,0,0,1,1,.57,6.69,6.69,0,0,1,.32,1.54A16,16,0,0,1,249,40.87a8.17,8.17,0,0,0-1.38.08H246c-.28-.07-.31.12-.57.08h-2.11c-.28.06-.31-.12-.57-.08a34.74,34.74,0,0,1-5.83-.57c-.83-.25-1.7-.46-2.51-.73a7.52,7.52,0,0,1-1.13-.49,1.9,1.9,0,0,1-1.05-.49c.12-1.09,1-1.39,2.11-1.54.47-.15.56-.68.89-1,.31-.1.51-.3.81-.41a5.51,5.51,0,0,1,1.38-.08c.67.09,1,.51,1.7.57s.9-.29,1.38-.41c.11,0,.23,0,.24-.08.63,0,.79,0,1.38,0,0,.08.1.06.16.08.61.15.89.62,1.54.73s.83-.54,1.46-.65h1a3.17,3.17,0,0,1,1.05.73C247.61,36.64,247.14,37.14,247.5,37.22Zm-3.24,11.1a10.54,10.54,0,0,0-1.13,2.76c-1.17,0-2.31.55-3.57.24,0-.81.08-1.65-.65-1.7-.29.09-.55.21-.57.57a4.36,4.36,0,0,1-.16,1c-.25.06-.3-.08-.49-.08-.37.1,0-.55-.24-.57V48.89c0-.25-.29-.25-.41-.4-.87.08-.44,1.46-.65,2.19-.32,0-.47-.18-.73-.24-.15-.27.09-.75,0-1.22V47.84a6.48,6.48,0,0,0,.08-1.38c0-.5,0-.9-.41-1s-.53.39-.73.65c0,.44-.19.67-.16,1.13a7.75,7.75,0,0,0-.08,1.3c-.14.29,0,.88-.16,1.13-.43,0-.44-.37-.41-.81s0-.76,0-1.13q-.14-1.32-.16-2.76c-.12-.45-.18-1-.65-1.05-.56.06-.59.66-.73,1.13,0,1.24.09,2.35.16,3.48-.36.11,0-.49-.24-.49V47c-.11-.48-.17-1-.32-1.46,0-1.71.1-3.61-.08-5.19v-.24H232c2.57,1.46,5.94,2.11,9.72,2.35a16,16,0,0,1,2.43.08,12.46,12.46,0,0,1,2.11-.08c1.22-.08,2.26-.33,3.4-.49,0,.34-.43.27-.49.57a6.9,6.9,0,0,1-.57.41,6.6,6.6,0,0,1-1,1l-1.78,2.11A14.38,14.38,0,0,0,244.26,48.32Zm7.54,7.62c0-.09.08,0,.08,0S251.79,56,251.79,55.94Zm9-3.57c0-.09.08,0,.08,0S260.79,52.42,260.79,52.38Zm.49,2a1.87,1.87,0,0,0,.32-.73H262A1.35,1.35,0,0,1,261.27,54.4Zm.89-2.35c0-.18.2-.17.41-.16C262.51,52.06,262.33,52.22,262.17,52.05Zm3.32-5.75c0,.24-.18.25-.16.49a5.62,5.62,0,0,1-.49.89c-.27.65-.79,1-1.05,1.7a5.69,5.69,0,0,0-1.13,1,1.74,1.74,0,0,0-.65.41c-.22-.06-.16.16-.32.16s-.31,0-.32.16c-.67.14-1.47.15-2.19.24a19.08,19.08,0,0,0-3.65,1.3,26.55,26.55,0,0,1-3.16,1.7A15.34,15.34,0,0,1,248,55c-.32-.19-.8-.23-1.05-.49-.39-.1-.56-.41-.89-.57-.2-.31-.53-.5-.65-.89-.31-.18-.29-.69-.49-1a14.42,14.42,0,0,1,.41-2.27,18.34,18.34,0,0,1,2.51-3.48c1-1,2.05-1.89,3-2.92.7-.6,1.47-1.12,2.19-1.7.37,0,.48-.33.89-.32.17-.24.6-.21.81-.4a7.54,7.54,0,0,1,2-.32c0-.07,0-.08.08-.08,3.07-.23,6.2.19,7.7,1.7a8.33,8.33,0,0,1,1.13,3.48C265.46,45.78,265.66,46.23,265.49,46.3ZM244.1,37.38c-.66,0-1.37-.08-1.38.57.23.35.56.17,1.05.16s.54.59,1.13.57C245.22,38,244.52,37.62,244.1,37.38Zm-7.86.16c-.34.28-.88.36-.89,1,.33.37.83,0,1.13-.16s.64-.07.65-.41S236.7,37.51,236.24,37.55Zm4,.73a2.34,2.34,0,0,0-.81-.32c-.88,0-1.56.17-1.62,1,.56.49.88-.39,1.7-.16.44.12.8.69,1.38.41C241.1,38.63,240.47,38.43,240.21,38.28Zm6.48,1.86c.24.31.46,0,.81,0s.82.21,1.13,0C248.74,39,246.63,39.13,246.69,40.14Zm13.94,2.35c-.11-.1-.26-.14-.41-.24s0-.13-.08-.16-.19-.05-.24-.08a3.92,3.92,0,0,0-1-.4c-.35-.09-1.45-.44-1.78-.16a12.64,12.64,0,0,0-2.27.65,13.23,13.23,0,0,0-2.76,2.76c.06.25-.14.24-.08.49-.23,0,.06.44-.16.41a5.87,5.87,0,0,0,.65,3.16,7.49,7.49,0,0,0,1.38,1.3,4.91,4.91,0,0,0,2.92.32c.51-.14.89-.41,1.38-.57,1.66-1.31,3.27-2.67,3.32-5.59a4.42,4.42,0,0,1-.16-.81A6.64,6.64,0,0,0,260.63,42.49Zm-1.38,3.4a.22.22,0,0,0-.24.16.57.57,0,0,1-.49,0c-.33.1-.2.67-.57.73s-.29-.85-.81-.89-.46.62-.49,1.13c-.39-.31-.32-1.09-.89-1.22-.48.18-.35.68-.32,1.22-.32.13,0-.35-.24-.32.06-.25-.08-.3-.08-.49s-.07-.64-.41-.65c-.71,0-.45,1.11-.41,1.7a1.4,1.4,0,0,1-.49-1.22,4.19,4.19,0,0,1,1.38-1.86,4.28,4.28,0,0,1,.89-.73,4.2,4.2,0,0,1,1-.57h1a4.78,4.78,0,0,1,1.7.73c0,.25.22.21.24.4A2.35,2.35,0,0,1,259.25,45.89Z"/></g><g id="_3107-rocks-glass" data-name="3107-rocks-glass"><path class="cls-3" d="M157.73,36.4v-.66a3,3,0,0,0-.13-1.2,6.14,6.14,0,0,0-1.95-.78c-.77-.15-1.49-.34-2.26-.48-1.56-.29-3-.69-4.65-.9-2.18,0-3.88-.37-6.16-.24-.08,0-.09.08-.19.06a21.27,21.27,0,0,0-4,.6,6.38,6.38,0,0,0-.94.18c-.26.11-.57.18-.82.3s-.54.2-.88.24-.6.19-.75.42a3.27,3.27,0,0,0-.06,1.32c.11.14,0,.45.13.6s-.07.31.06.3-.08.35.06.36a25,25,0,0,0,.5,2.59,19.45,19.45,0,0,0,.5,2.53c.2.83.35,1.71.5,2.59.32,1.72.63,3.44.88,5.23a45,45,0,0,0,1.07,5.11c.2.25.32.58.5.84s.36.33.5.54.45.29.63.48c.18,0,.19.14.38.12,0,.14.27.06.31.18a1.46,1.46,0,0,1,.38.12c.11.07.37,0,.44.12.58.11,1.28.1,1.89.18,1.44,0,2.7-.11,4.15-.06.63-.15,1.25,0,1.82-.12s1.24-.14,1.82-.24c0-.13.33,0,.38-.12.22,0,.24-.09.44-.06s.52-.18.82-.24a7.88,7.88,0,0,0,1.45-.66c0-.15.1-.19.19-.24s.08-.25.19-.3c.07-.25.2-.45.25-.72a5.75,5.75,0,0,0,.25-.72c.13-.19.11-.53.25-.72.18-1.53.36-3.06.57-4.57.06-.79.18-1.51.25-2.28s.3-1.44.38-2.22c.32-1.4.4-3,.63-4.51,0-.84.18-1.52.13-2.4C157.81,36.88,157.69,36.56,157.73,36.4Zm-18.8-2.1c.13,0,.41.07.44-.06s.41.07.44-.06c.62,0,1.25-.09,1.82-.18,1.3,0,2.51-.17,3.9-.12a34,34,0,0,1,10,1.2c-.15.23-.67.12-.94.24a9.4,9.4,0,0,0-1.07.12c-2.3,0-4.71.06-6.92-.06a69.27,69.27,0,0,1-8.49-.84C138.26,34.34,138.7,34.41,138.93,34.3Zm2.33,19.6s0-.08.06-.06S141.27,53.91,141.26,53.89Zm1.38,1c0-.26-.15-.38-.13-.66-.07,0-.05-.11-.06-.18h.38A6.35,6.35,0,0,0,143,55.4C142.65,55.4,142.77,55,142.64,54.86Zm1.63.72c-.2-.09-.13-.44-.19-.66s-.05-.51-.13-.72V54h.38a1.08,1.08,0,0,1-.06.48C144.24,54.86,144.32,55.39,144.27,55.58Zm1.26.12a6.35,6.35,0,0,1-.25-1.68h1.07a4.27,4.27,0,0,0,.13,1.68Zm2-.06c-.22-.45-.25-1.08-.44-1.56a7.43,7.43,0,0,1,1.51-.06,6.43,6.43,0,0,0,.19,1.62ZM153.45,54a12.83,12.83,0,0,1-1,1c-.46.1-.91.21-1.38.3a1.42,1.42,0,0,1-.69.12c0,.13-.27,0-.38.06a.18.18,0,0,1-.25,0,7.37,7.37,0,0,0-.19-1.56,15.73,15.73,0,0,0,2.26-.3,5.23,5.23,0,0,0,1.82-.66s.23-.23.19-.06C153.7,53.29,153.59,53.67,153.45,54Zm.69-3.37a6.31,6.31,0,0,0-.44.66,5.33,5.33,0,0,1-2.07,1c-.85.17-1.8.24-2.7.36-1.41,0-2.73.07-4.21.06a18.42,18.42,0,0,0-2.33,0,5,5,0,0,1-1.63-.48c-.41-1.65-.8-3.33-1.19-5s-.8-3.32-1.07-5.11c-.19-.3.59-.14.88-.18s.21.16.31.24a.56.56,0,0,1,.25.24c.19.16.44.26.57.48s.39.3.63.42.53.27.38.48a2.43,2.43,0,0,0-1.45.72c-.15.8.28,1.53.31,2.34.14.11,0,.44.19.54,0,.25.11.34.13.54.17.29.26.68.44,1s.36.46.5.72c.16,0,.2.09.25.18.38.1.7.25,1.07.36a9.18,9.18,0,0,0,3.14-.54,1.27,1.27,0,0,1,.69.42c.33,0,.42.32.69.42a2.49,2.49,0,0,0,1.51.72,2,2,0,0,0,1.07-.6,3.54,3.54,0,0,0,.88-.78,2.4,2.4,0,0,0,.69-1,1.46,1.46,0,0,0,.5-1.14c0-.58-.38-.88-.57-1.32a20.38,20.38,0,0,0,1.45-4,8.88,8.88,0,0,0,1.95-.12C154.78,45.2,154.93,48.38,154.14,50.65Zm-8.24-4.57c-.1.28-.36.42-.57.6s-.41.33-.5.6c0,.5.33.69.44,1.08a20.32,20.32,0,0,0-2.51.6c-.35-.1-.41-.49-.63-.72s-.26-.63-.38-1a6.94,6.94,0,0,1-.5-2.1c.41-.21,1-.28,1.38-.48.18,0,.23.14.31.24a1.19,1.19,0,0,1,.38.18H144a4.6,4.6,0,0,0,1.32-1s0-.12.06-.18.23-.2.31-.3a2.71,2.71,0,0,1,.38-.42s.07,0,.06.06a7.09,7.09,0,0,0-.57,2.28C145.6,45.77,145.64,46,145.91,46.08ZM142.45,43c-.43-.23-.72-.59-1.13-.84.15-.14.56,0,.82-.06a16.68,16.68,0,0,1,3,0,1.26,1.26,0,0,1-.38.48,4.07,4.07,0,0,1-.38.48c-.27.28-.52.58-.82.84-.28-.07-.37-.33-.63-.42S142.54,43.18,142.45,43Zm-1.51-2.1c-.12-.11.05-.2.13-.3a.56.56,0,0,1,.25-.24c.22-.13.35-.34.57-.48.42-.28.68-.71,1.07-1,0-.07.13,0,.13-.12a7,7,0,0,1,1.19.54,5,5,0,0,0,.75.72c.1.37.44.5.5.9A39,39,0,0,0,140.94,40.85Zm9.43,4c-.09-.2-.34-.24-.5-.36a9.54,9.54,0,0,0-3.27,1.2,9.09,9.09,0,0,1,1.19-3.37c1.33,0,2.66.1,4,.18,0,.67-.3,1-.38,1.5-.23.38-.31.91-.57,1.26C150.56,45.26,150.6,44.94,150.37,44.88Zm.44,2.95a5.41,5.41,0,0,1-2,2.22,5.88,5.88,0,0,1-1.38-1.14c0-.26-.29-.32-.31-.6-.21-.1-.2-.41-.38-.54.13-.32.45-.49.69-.72s.46-.48.69-.72c.42-.1.76-.28,1.19-.36s.27.31.5.36c0,.25.29.28.31.54A6.15,6.15,0,0,1,150.81,47.82Zm4.4-6.91a6.8,6.8,0,0,1-2.45.3c-.43-.15-.69-.46-1.13-.6-.07,0-.11,0-.13-.06a11.46,11.46,0,0,0-3.21.06c-.49,0-.49.49-1.07.42-.26,0-.17-.28-.25-.42a3.53,3.53,0,0,0-.19-.42,9.65,9.65,0,0,0-1.26-1.68,10.73,10.73,0,0,0-1.07-.66,2.9,2.9,0,0,0-1.32-.42c-.88.12-1.27.71-1.76,1.2-.28.21-.54.44-.82.66s-.48.5-.75.72a8.62,8.62,0,0,0-.31.84,5.93,5.93,0,0,0-1.26.06,17.86,17.86,0,0,1-.57-4.93,62.94,62.94,0,0,0,8.8.9c2.25,0,4.82.18,7.1,0,.76-.06,1.46-.17,2.14-.24C155.51,38,155.37,39.48,155.21,40.91Zm-7.29,7.46c-.11.61.34,1,.88.78C149.1,48.54,148.35,47.93,147.92,48.36Z"/></g><g id="_3107-rocks-glass-2" data-name="3107-rocks-glass"><path class="cls-3" d="M591.84,33.07v-.73A3.41,3.41,0,0,0,591.7,31a6.3,6.3,0,0,0-2.05-.86c-.81-.17-1.57-.37-2.38-.53-1.65-.32-3.17-.76-4.9-1-2.3,0-4.09-.41-6.49-.26-.08,0-.09.08-.2.07a21.49,21.49,0,0,0-4.17.66,6.45,6.45,0,0,0-1,.2c-.27.12-.6.2-.86.33s-.57.22-.93.26-.63.21-.79.46a3.76,3.76,0,0,0-.07,1.46c.12.15,0,.5.13.66s-.08.34.07.33-.08.39.07.4a28.64,28.64,0,0,0,.53,2.85,22.29,22.29,0,0,0,.53,2.78c.21.92.36,1.89.53,2.85.33,1.89.67,3.79.93,5.76a51.55,51.55,0,0,0,1.13,5.63c.21.28.33.64.53.93s.38.37.53.6.48.32.66.53c.19,0,.2.15.4.13,0,.16.29.06.33.2a1.5,1.5,0,0,1,.4.13c.12.08.38,0,.46.13.61.12,1.35.11,2,.2,1.51,0,2.84-.12,4.37-.07.66-.17,1.32.05,1.92-.13s1.3-.15,1.92-.26c0-.15.35,0,.4-.13.23.05.25-.1.46-.07s.55-.2.86-.26a8.13,8.13,0,0,0,1.52-.73c0-.17.1-.21.2-.26s.08-.27.2-.33c.07-.28.21-.5.26-.79a6.54,6.54,0,0,0,.26-.79c.14-.21.12-.59.26-.79.19-1.68.38-3.37.6-5,.06-.86.19-1.66.26-2.52s.31-1.59.4-2.45c.33-1.54.42-3.33.66-5,0-.92.18-1.67.13-2.65C591.92,33.6,591.8,33.25,591.84,33.07ZM572,30.76c.14,0,.43.08.46-.07s.44.08.46-.07c.65-.05,1.31-.1,1.92-.2,1.37,0,2.64-.18,4.1-.13a34.27,34.27,0,0,1,10.52,1.32c-.16.26-.7.13-1,.26a9.48,9.48,0,0,0-1.13.13c-2.42,0-5,.06-7.28-.07a69.83,69.83,0,0,1-8.94-.93C571.34,30.8,571.8,30.88,572,30.76Zm2.45,21.58s0-.08.07-.07S574.51,52.35,574.49,52.33ZM576,53.39c0-.29-.15-.42-.13-.73-.08,0-.06-.12-.07-.2h.4a7.3,7.3,0,0,0,.13,1.52C576,54,576.09,53.56,576,53.39Zm1.72.79c-.21-.1-.14-.48-.2-.73s-.06-.56-.13-.79v-.2h.4a1.24,1.24,0,0,1-.07.53C577.64,53.4,577.72,54,577.67,54.19Zm1.32.13a7.29,7.29,0,0,1-.26-1.85h1.13a4.91,4.91,0,0,0,.13,1.85Zm2.12-.07c-.23-.5-.26-1.19-.46-1.72a7.48,7.48,0,0,1,1.59-.07,7.38,7.38,0,0,0,.2,1.79Zm6.22-1.79a13.85,13.85,0,0,1-1.06,1.12c-.48.11-1,.23-1.46.33a1.44,1.44,0,0,1-.73.13c0,.15-.28,0-.4.07a.18.18,0,0,1-.26,0,8.48,8.48,0,0,0-.2-1.72,15.88,15.88,0,0,0,2.38-.33,5.36,5.36,0,0,0,1.92-.73s.24-.26.2-.07C587.6,51.67,587.48,52.08,587.34,52.47Zm.73-3.71a7,7,0,0,0-.46.73,5.52,5.52,0,0,1-2.18,1.13c-.89.19-1.9.27-2.85.4-1.49,0-2.87.07-4.43.07a18.54,18.54,0,0,0-2.45,0,5.11,5.11,0,0,1-1.72-.53c-.43-1.82-.84-3.66-1.26-5.49s-.84-3.66-1.13-5.63c-.2-.34.62-.15.93-.2s.22.17.33.26a.6.6,0,0,1,.26.26c.2.17.46.29.6.53.29.09.42.33.66.46.09.2.55.29.4.53a2.52,2.52,0,0,0-1.52.79c-.16.88.3,1.68.33,2.58.14.12,0,.49.2.6,0,.28.12.37.13.6.18.32.27.74.46,1.06s.38.5.53.79c.17,0,.21.1.26.2.4.11.74.28,1.13.4a9.29,9.29,0,0,0,3.31-.6c.35,0,.51.28.73.46s.44.35.73.46a2.58,2.58,0,0,0,1.59.79,2.11,2.11,0,0,0,1.13-.66,3.78,3.78,0,0,0,.93-.86,2.64,2.64,0,0,0,.73-1.06,1.64,1.64,0,0,0,.53-1.26c0-.64-.4-1-.6-1.46a23.11,23.11,0,0,0,1.52-4.37,9,9,0,0,0,2.05-.13C588.73,42.77,588.89,46.26,588.06,48.76Zm-8.67-5c-.11.31-.38.46-.6.66s-.43.36-.53.66c0,.55.34.76.46,1.19a20.59,20.59,0,0,0-2.65.66c-.37-.11-.43-.54-.66-.79s-.27-.7-.4-1.06a7.93,7.93,0,0,1-.53-2.32c.44-.23,1-.31,1.46-.53.19,0,.25.15.33.27a1.23,1.23,0,0,1,.4.2h.66a4.88,4.88,0,0,0,1.39-1.13c0-.05,0-.14.07-.2s.24-.22.33-.33a3,3,0,0,1,.4-.46s.07,0,.07.07a8.1,8.1,0,0,0-.6,2.52C579.07,43.39,579.12,43.67,579.39,43.73Zm-3.64-3.44c-.45-.26-.76-.65-1.19-.93.16-.15.59,0,.86-.07a16.79,16.79,0,0,1,3.18,0,1.38,1.38,0,0,1-.4.53,4.45,4.45,0,0,1-.4.53c-.29.31-.55.64-.86.93-.3-.08-.39-.36-.66-.46C576.16,40.58,575.85,40.54,575.75,40.29ZM574.16,38c-.13-.12.06-.22.13-.33a.6.6,0,0,1,.26-.26c.23-.15.37-.38.6-.53.44-.31.72-.78,1.13-1.13,0-.07.13,0,.13-.13a7.21,7.21,0,0,1,1.26.6,5.38,5.38,0,0,0,.79.79c.1.4.47.55.53,1A39.23,39.23,0,0,0,574.16,38Zm9.93,4.43c-.09-.22-.36-.26-.53-.4a9.77,9.77,0,0,0-3.44,1.32,10.3,10.3,0,0,1,1.26-3.71c1.4.05,2.8.11,4.17.2,0,.73-.31,1.05-.4,1.65-.24.42-.32,1-.6,1.39C584.29,42.83,584.34,42.47,584.09,42.41Zm.46,3.24a5.87,5.87,0,0,1-2.12,2.45A6.27,6.27,0,0,1,581,46.84c0-.29-.31-.36-.33-.66-.23-.11-.21-.46-.4-.6.14-.36.48-.54.73-.79s.49-.53.73-.79c.44-.11.8-.31,1.26-.4s.28.34.53.4c0,.27.3.31.33.6A6.78,6.78,0,0,1,584.56,45.65ZM589.19,38a6.87,6.87,0,0,1-2.58.33c-.45-.17-.73-.5-1.19-.66-.08,0-.12,0-.13-.07a11.55,11.55,0,0,0-3.38.07c-.52,0-.52.54-1.13.46-.27,0-.18-.31-.26-.46a4,4,0,0,0-.2-.46A10.6,10.6,0,0,0,579,35.39a11.2,11.2,0,0,0-1.13-.73,3,3,0,0,0-1.39-.46c-.93.13-1.33.79-1.85,1.32-.3.23-.57.49-.86.73s-.51.55-.79.79a9.76,9.76,0,0,0-.33.93,6,6,0,0,0-1.32.07,20.52,20.52,0,0,1-.6-5.43,63.47,63.47,0,0,0,9.27,1c2.37,0,5.07.2,7.48,0,.8-.07,1.53-.19,2.25-.26C589.5,34.87,589.35,36.46,589.19,38Zm-7.68,8.21c-.11.67.36,1.08.93.86C582.75,46.44,582,45.77,581.51,46.24Z"/></g><g id="_3107-rocks-glass-3" data-name="3107-rocks-glass"><path class="cls-3" d="M319.15,19.64V19A2.88,2.88,0,0,0,319,17.9a5.33,5.33,0,0,0-1.74-.73c-.68-.14-1.33-.31-2-.45-1.39-.27-2.68-.64-4.14-.84-1.95,0-3.46-.35-5.49-.22-.07,0-.08.07-.17.06a18.18,18.18,0,0,0-3.53.56,5.47,5.47,0,0,0-.84.17c-.23.1-.51.17-.73.28s-.48.19-.78.22-.54.17-.67.39a3.18,3.18,0,0,0-.06,1.23c.1.13,0,.42.11.56s-.07.29.06.28-.07.33.06.34a24.23,24.23,0,0,0,.45,2.41,18.86,18.86,0,0,0,.45,2.35c.18.78.31,1.6.45,2.41.28,1.6.57,3.21.78,4.87a43.62,43.62,0,0,0,1,4.76c.18.24.28.54.45.78s.32.31.45.5.41.27.56.45c.16,0,.17.13.34.11s.24.05.28.17a1.26,1.26,0,0,1,.34.11c.1.07.33,0,.39.11.52.1,1.14.09,1.68.17,1.28,0,2.4-.1,3.7-.06.56-.14,1.11,0,1.62-.11s1.1-.13,1.62-.22c0-.13.3,0,.34-.11.19,0,.22-.08.39-.06s.46-.17.73-.22a6.88,6.88,0,0,0,1.29-.62c0-.14.09-.18.17-.22s.07-.23.17-.28c.06-.24.18-.42.22-.67a5.53,5.53,0,0,0,.22-.67c.12-.18.1-.5.22-.67.16-1.42.32-2.85.5-4.26.05-.73.16-1.4.22-2.13s.26-1.34.34-2.07c.28-1.31.35-2.82.56-4.2,0-.78.16-1.41.11-2.24C319.22,20.08,319.12,19.79,319.15,19.64Zm-16.75-2c.12,0,.37.07.39-.06s.37.07.39-.06c.55,0,1.11-.08,1.62-.17,1.16,0,2.23-.15,3.47-.11a29,29,0,0,1,8.9,1.12c-.14.22-.6.11-.84.22a8,8,0,0,0-1,.11c-2.05,0-4.2.05-6.16-.06a59.09,59.09,0,0,1-7.56-.78C301.81,17.72,302.2,17.79,302.41,17.68Zm2.07,18.26s0-.07.06-.06S304.5,36,304.48,35.94Zm1.23.9c0-.24-.13-.36-.11-.62-.07,0,0-.1-.06-.17h.34a6.18,6.18,0,0,0,.11,1.29C305.73,37.34,305.83,37,305.71,36.83Zm1.46.67c-.18-.09-.11-.41-.17-.62s0-.47-.11-.67V36h.34a1.05,1.05,0,0,1-.06.45C307.14,36.84,307.21,37.33,307.17,37.5Zm1.12.11a6.17,6.17,0,0,1-.22-1.57h1a4.16,4.16,0,0,0,.11,1.57Zm1.79-.06c-.2-.42-.22-1-.39-1.46A6.33,6.33,0,0,1,311,36a6.24,6.24,0,0,0,.17,1.51ZM315.34,36a11.72,11.72,0,0,1-.9,1c-.41.1-.81.2-1.23.28a1.22,1.22,0,0,1-.62.11c0,.12-.24,0-.34.06a.15.15,0,0,1-.22,0,7.17,7.17,0,0,0-.17-1.46,13.43,13.43,0,0,0,2-.28,4.53,4.53,0,0,0,1.62-.62s.2-.22.17-.06C315.57,35.38,315.47,35.72,315.34,36Zm.62-3.14a5.91,5.91,0,0,0-.39.62,4.67,4.67,0,0,1-1.85,1c-.75.16-1.6.22-2.41.34-1.26,0-2.43.06-3.75.06a15.7,15.7,0,0,0-2.07,0,4.33,4.33,0,0,1-1.46-.45c-.37-1.54-.71-3.1-1.06-4.65s-.71-3.09-1-4.76c-.17-.28.53-.13.78-.17s.19.15.28.22a.51.51,0,0,1,.22.22c.17.14.39.24.5.45s.35.28.56.39.47.25.34.45a2.13,2.13,0,0,0-1.29.67,10,10,0,0,0,.28,2.18c.12.1,0,.41.17.5,0,.23.1.31.11.5s.23.63.39.9.32.43.45.67c.14,0,.18.09.22.17.34.09.62.24,1,.34a7.86,7.86,0,0,0,2.8-.5c.3,0,.43.24.62.39s.38.3.62.39a2.18,2.18,0,0,0,1.34.67,1.79,1.79,0,0,0,1-.56,3.2,3.2,0,0,0,.78-.73,2.24,2.24,0,0,0,.62-.9,1.38,1.38,0,0,0,.45-1.06c0-.54-.34-.82-.5-1.23a19.55,19.55,0,0,0,1.29-3.7,7.58,7.58,0,0,0,1.74-.11C316.53,27.84,316.66,30.79,316,32.91Zm-7.34-4.26c-.09.26-.32.39-.5.56s-.37.31-.45.56c0,.47.29.64.39,1a17.44,17.44,0,0,0-2.24.56c-.32-.09-.36-.46-.56-.67s-.23-.59-.34-.9a6.71,6.71,0,0,1-.45-2c.37-.19.86-.26,1.23-.45.16,0,.21.13.28.22a1,1,0,0,1,.34.17h.56a4.13,4.13,0,0,0,1.18-1s0-.12.06-.17.2-.19.28-.28a2.49,2.49,0,0,1,.34-.39s.06,0,.06.06a6.85,6.85,0,0,0-.5,2.13C308.35,28.37,308.39,28.61,308.62,28.66Zm-3.08-2.91c-.38-.22-.64-.55-1-.78.13-.13.5,0,.73-.06a14.2,14.2,0,0,1,2.69,0,1.17,1.17,0,0,1-.34.45,3.77,3.77,0,0,1-.34.45c-.24.26-.46.54-.73.78-.25-.07-.33-.31-.56-.39S305.63,26,305.54,25.74Zm-1.34-2c-.11-.1,0-.19.11-.28a.51.51,0,0,1,.22-.22c.19-.12.32-.32.5-.45.37-.26.61-.66,1-1,0-.06.11,0,.11-.11a6.09,6.09,0,0,1,1.06.5,4.55,4.55,0,0,0,.67.67c.09.34.4.46.45.84A33.2,33.2,0,0,0,304.2,23.78Zm8.4,3.75c-.08-.18-.3-.22-.45-.34a8.27,8.27,0,0,0-2.91,1.12,8.72,8.72,0,0,1,1.06-3.14c1.19,0,2.37.09,3.53.17,0,.62-.27.89-.34,1.4-.21.35-.27.85-.5,1.18C312.77,27.89,312.81,27.59,312.6,27.53Zm.39,2.74a5,5,0,0,1-1.79,2.07A5.3,5.3,0,0,1,310,31.29c0-.24-.26-.3-.28-.56-.19-.09-.17-.39-.34-.5.12-.3.4-.46.62-.67s.41-.45.62-.67c.37-.09.67-.26,1.06-.34s.24.28.45.34c0,.23.26.27.28.5A5.73,5.73,0,0,1,313,30.28Zm3.92-6.44a5.81,5.81,0,0,1-2.18.28c-.38-.14-.62-.43-1-.56-.07,0-.1,0-.11-.06a9.77,9.77,0,0,0-2.86.06c-.44,0-.44.46-1,.39-.23,0-.15-.26-.22-.39a3.37,3.37,0,0,0-.17-.39,9,9,0,0,0-1.12-1.57,9.48,9.48,0,0,0-1-.62,2.51,2.51,0,0,0-1.18-.39c-.78.11-1.13.67-1.57,1.12-.25.2-.48.41-.73.62s-.43.47-.67.67a8.25,8.25,0,0,0-.28.78,5.06,5.06,0,0,0-1.12.06,17.36,17.36,0,0,1-.5-4.59,53.69,53.69,0,0,0,7.84.84c2,0,4.29.17,6.33,0,.67-.06,1.3-.16,1.9-.22C317.18,21.16,317.05,22.5,316.91,23.84Zm-6.5,6.94c-.1.57.3.92.78.73C311.47,30.95,310.8,30.38,310.42,30.78Z"/></g><g id="_3107-rocks-glass-4" data-name="3107-rocks-glass"><path class="cls-3" d="M50.91,35.09v-.68a3.2,3.2,0,0,0-.12-1.24,5.92,5.92,0,0,0-1.93-.81c-.76-.16-1.48-.35-2.24-.5-1.55-.3-3-.71-4.61-.93-2.16,0-3.84-.39-6.1-.25-.08,0-.09.08-.19.06a20.21,20.21,0,0,0-3.92.62,6.07,6.07,0,0,0-.93.19c-.26.12-.56.18-.81.31s-.54.21-.87.25-.6.19-.75.44a3.54,3.54,0,0,0-.06,1.37c.11.14,0,.47.12.62s-.07.32.06.31-.07.37.06.37a26.93,26.93,0,0,0,.5,2.68,21,21,0,0,0,.5,2.61c.2.86.34,1.77.5,2.68.31,1.78.63,3.56.87,5.41A48.47,48.47,0,0,0,32,53.89c.19.26.31.6.5.87s.36.35.5.56.45.3.62.5c.18,0,.19.14.37.12,0,.15.27.06.31.19a1.4,1.4,0,0,1,.37.12c.11.08.36,0,.44.12.57.11,1.27.1,1.87.19,1.42,0,2.67-.11,4.11-.06.63-.16,1.24.05,1.8-.12s1.23-.14,1.8-.25c0-.14.33,0,.37-.12.22,0,.24-.09.44-.06s.52-.19.81-.25A7.64,7.64,0,0,0,47.79,55c0-.16.1-.2.19-.25s.08-.25.19-.31c.07-.26.2-.47.25-.75a6.15,6.15,0,0,0,.25-.75c.13-.2.11-.55.25-.75.18-1.58.36-3.17.56-4.73.06-.81.18-1.56.25-2.36s.29-1.49.37-2.3c.31-1.45.39-3.13.62-4.67,0-.87.17-1.57.12-2.49C51,35.59,50.87,35.26,50.91,35.09ZM32.3,32.91c.13,0,.41.08.44-.06s.41.08.44-.06c.61-.05,1.23-.09,1.8-.19,1.29,0,2.48-.17,3.86-.12a32.22,32.22,0,0,1,9.9,1.24c-.15.24-.66.13-.93.25a8.92,8.92,0,0,0-1.06.12c-2.28,0-4.66.06-6.85-.06a65.66,65.66,0,0,1-8.4-.87C31.63,33,32.07,33,32.3,32.91ZM34.6,53.2s0-.08.06-.06S34.62,53.22,34.6,53.2Zm1.37,1c0-.27-.14-.4-.12-.68-.07,0-.05-.11-.06-.19h.37a6.87,6.87,0,0,0,.12,1.43C36,54.76,36.1,54.36,36,54.2Zm1.62.75c-.2-.09-.13-.45-.19-.68s-.05-.53-.12-.75v-.19h.37a1.17,1.17,0,0,1-.06.5C37.56,54.2,37.63,54.76,37.59,54.95Zm1.24.12a6.86,6.86,0,0,1-.25-1.74h1.06a4.62,4.62,0,0,0,.12,1.74Zm2-.06c-.22-.47-.25-1.12-.44-1.62a7,7,0,0,1,1.49-.06A6.94,6.94,0,0,0,42.07,55Zm5.85-1.68a13,13,0,0,1-1,1.06c-.45.11-.9.22-1.37.31a1.36,1.36,0,0,1-.68.12c0,.14-.26,0-.37.06a.17.17,0,0,1-.25,0,8,8,0,0,0-.19-1.62A14.93,14.93,0,0,0,45.06,53a5,5,0,0,0,1.8-.68s.22-.24.19-.06C46.92,52.58,46.81,53,46.67,53.33Zm.68-3.49a6.57,6.57,0,0,0-.44.68,5.19,5.19,0,0,1-2.05,1.06c-.84.18-1.78.25-2.68.37-1.4,0-2.7.07-4.17.06a17.43,17.43,0,0,0-2.3,0,4.81,4.81,0,0,1-1.62-.5c-.41-1.71-.79-3.44-1.18-5.17s-.79-3.44-1.06-5.29c-.19-.32.59-.14.87-.19s.21.16.31.25a.56.56,0,0,1,.25.25c.19.16.43.27.56.5s.39.31.62.44.52.27.37.5a2.37,2.37,0,0,0-1.43.75A11.08,11.08,0,0,0,33.73,46c.13.12,0,.46.19.56,0,.26.11.35.12.56.17.3.25.7.44,1s.36.47.5.75c.16,0,.19.1.25.19.37.1.69.26,1.06.37a8.73,8.73,0,0,0,3.11-.56c.33,0,.48.26.68.44s.42.33.68.44a2.42,2.42,0,0,0,1.49.75,2,2,0,0,0,1.06-.62,3.56,3.56,0,0,0,.87-.81,2.49,2.49,0,0,0,.68-1,1.54,1.54,0,0,0,.5-1.18c0-.6-.38-.91-.56-1.37a21.72,21.72,0,0,0,1.43-4.11,8.42,8.42,0,0,0,1.93-.12C48,44.21,48.14,47.49,47.36,49.84Zm-8.15-4.73c-.1.29-.36.43-.56.62s-.41.34-.5.62c0,.52.32.71.44,1.12a19.37,19.37,0,0,0-2.49.62c-.35-.1-.4-.51-.62-.75s-.26-.66-.37-1a7.46,7.46,0,0,1-.5-2.18c.41-.21,1-.29,1.37-.5.18,0,.23.14.31.25a1.15,1.15,0,0,1,.37.19h.62a4.59,4.59,0,0,0,1.31-1.06s0-.13.06-.19.22-.21.31-.31a2.76,2.76,0,0,1,.37-.44s.07,0,.06.06a7.62,7.62,0,0,0-.56,2.36C38.9,44.79,38.95,45.06,39.21,45.11Zm-3.42-3.24c-.42-.24-.72-.61-1.12-.87.15-.14.56,0,.81-.06a15.78,15.78,0,0,1,3,0,1.3,1.3,0,0,1-.37.5,4.19,4.19,0,0,1-.37.5c-.27.29-.52.6-.81.87-.28-.07-.36-.34-.62-.44S35.88,42.11,35.78,41.88ZM34.29,39.7c-.12-.11.05-.21.12-.31a.56.56,0,0,1,.25-.25c.21-.14.35-.35.56-.5.41-.29.67-.74,1.06-1.06,0-.07.12,0,.12-.12a6.77,6.77,0,0,1,1.18.56,5.06,5.06,0,0,0,.75.75c.1.38.44.51.5.93A36.88,36.88,0,0,0,34.29,39.7Zm9.34,4.17c-.09-.2-.34-.24-.5-.37a9.19,9.19,0,0,0-3.24,1.24,9.69,9.69,0,0,1,1.18-3.49c1.32.05,2.64.1,3.92.19,0,.69-.3,1-.37,1.56-.23.39-.3.94-.56,1.31C43.81,44.26,43.85,43.93,43.62,43.87Zm.44,3a5.52,5.52,0,0,1-2,2.3A5.89,5.89,0,0,1,40.7,48c0-.27-.29-.33-.31-.62-.21-.1-.19-.43-.37-.56.13-.33.45-.51.68-.75s.46-.5.68-.75c.42-.1.75-.29,1.18-.37s.27.32.5.37c0,.25.29.29.31.56A6.37,6.37,0,0,1,44.06,46.92Zm4.36-7.16a6.46,6.46,0,0,1-2.43.31c-.42-.16-.69-.47-1.12-.62-.07,0-.11,0-.12-.06a10.85,10.85,0,0,0-3.17.06c-.49,0-.49.51-1.06.44-.26,0-.17-.29-.25-.44a3.74,3.74,0,0,0-.19-.44,10,10,0,0,0-1.24-1.74,10.55,10.55,0,0,0-1.06-.68,2.78,2.78,0,0,0-1.31-.44c-.87.12-1.25.74-1.74,1.24-.28.22-.54.46-.81.68s-.48.52-.75.75a9.19,9.19,0,0,0-.31.87,5.62,5.62,0,0,0-1.24.06,19.29,19.29,0,0,1-.56-5.1,59.67,59.67,0,0,0,8.71.93c2.23,0,4.77.19,7,0,.75-.06,1.44-.18,2.12-.25C48.71,36.78,48.57,38.28,48.42,39.76ZM41.2,47.48c-.11.63.34,1,.87.81C42.36,47.66,41.62,47,41.2,47.48Z"/></g><g id="_3108-cocktail-glass" data-name="3108-cocktail-glass"><path class="cls-3" d="M294.5,35.95c-.2-.72-.31-1.53-.55-2.21s-.63-1.28-.92-1.94a7.57,7.57,0,0,0-5.16-3H286a12,12,0,0,1-3,.28,2,2,0,0,1-.74.28,14.7,14.7,0,0,0-1.57,1.11c-.32.45-.73.81-1,1.29a4.51,4.51,0,0,0-.46.74c-.14.26-.44.36-.37.83,0,.66.6.75.83,1.2.24.1.31.37.55.46,0,.24.51.31.28.55-1,0-1.69.15-2.58.18a4.68,4.68,0,0,1-1.29.09c-.24.25-1.05-.07-1.29.18a16.25,16.25,0,0,0-2.77.09,5.93,5.93,0,0,0-2.58.28c-.43.25-.56.79-.83,1.2a9.85,9.85,0,0,0,.28,2.4c.18.28.15.77.28,1.11-.07.28.16.27.09.55.18.06,0,.51.18.55.08.81.37,1.41.46,2.21a7.88,7.88,0,0,1,.28,1.11c-.07.28.16.27.09.55.18.06,0,.51.18.55.6,3.05,1.41,5.9,2,8.94.18.13.14.48.28.65s.25.36.28.64.18.47,0,.65c-.08.39.18.44.18.74a2.37,2.37,0,0,0,1.57.65,7.38,7.38,0,0,0,1.94.37c1.11,0,2.12,0,3.13.09a15.52,15.52,0,0,0,4.42-.65c1.13-2.13,1.39-5.12,1.84-7.93.27-1.36.46-2.8.64-4.24.12-.68.15-1.45.28-2.12a4.54,4.54,0,0,1,.37-2.12c.66.54,1.32,1.08,1.94,1.66.33-.05.23.33.55.28.1.21.45.16.55.37.55.06.48.75,1.2.65s1.08-.82,1.57-1.29c.14-.45.34-.83.46-1.29a3.42,3.42,0,0,1,.18-.64c.06-.25,0-.58.18-.74A28.39,28.39,0,0,0,294.5,35.95Zm-9.86,15.39a18.58,18.58,0,0,1-.37,2.4c0,.24,0,.53-.09.65s.11.54-.09.55c0,.25,0,.53-.09.65s.11.54-.09.55c0,.46-.19-.2-.46-.09-.06-.22-.57,0-.65-.18-2.44,0-4.87,0-7.1.18a11.22,11.22,0,0,1-.65-2.4c-.13-.36-.14-.84-.28-1.2a5.06,5.06,0,0,0-.37-1.11c-.34-1.66-1-3-1.2-4.79,2.18.09,4.67.19,6.91.09,1.05,0,2-.29,2.95-.28a3.85,3.85,0,0,1,2.4.18C285.14,48.11,285,49.8,284.63,51.34Zm-6-6.36c0-.37.76,0,.92-.28a3.07,3.07,0,0,0,1.11-.09c.83,0,1.44-.16,2.3-.09,0,.19.41,0,.46.18a.47.47,0,0,0,.28.28c-.41.3-1.27.15-1.94.18-.41-.14-1.08,0-1.48-.18Zm7.74-3c-.16.18-.11.57-.28.74v.74c-.26,0,.08.57-.18.55a2.36,2.36,0,0,1-.28,1.11c-.36.15,0-.4-.28-.37.07-.25-.18-.19-.18-.37s-.43-.37-.55-.64a2,2,0,0,1-.74-.46L282.7,43a35.55,35.55,0,0,0-5.35.55,12.06,12.06,0,0,0-2.49.46c-.74.25-1.35.62-2.12.83q-.65-3.64-1.29-7.28c3.67.24,7.1-.42,10.69-.55.56.14.76.65,1.2.92s.71.7,1.11,1c.68.71,1.47,1.29,2.12,2A8.63,8.63,0,0,0,286.38,41.94Zm0-3.87c-.3-.07-.4-.33-.65-.46V37h.92a4.66,4.66,0,0,0,.37,1.66C286.69,38.56,286.57,38.28,286.38,38.07Zm2-4.89c-.14-.78.09-1.93-.65-2.12-.68.18-.46,1.26-.74,1.84,0,.81-.2,1.45-.18,2.3h-1.29c-.19-.67-.39-1.33-.55-2-.32-.51-.27-1.39-1.11-1.38-.3.07-.42.32-.37.74a1.89,1.89,0,0,0,.18.92c0,.67.38,1.32.18,1.84-.4,0-.85.05-1-.18a4.87,4.87,0,0,0-.65-.55,9.68,9.68,0,0,0-1.29-1.11,3.72,3.72,0,0,1,1.11-1.29,5.92,5.92,0,0,1,1.57-.83,8.8,8.8,0,0,1,4.15-.65,4.64,4.64,0,0,1,2.95,1.57,4.83,4.83,0,0,1,1.57,2.95,2,2,0,0,0-.83-.09,2.11,2.11,0,0,1-.55.18q-.67.35-1.29.74c-.47.2-.68.67-1.29.74A20.42,20.42,0,0,1,288.41,33.18Zm.09,5.53c.15,0,.16.09.28.09s-.09.09-.09.18h-.18Zm3.5,4.15c-.4-.12-.58-.47-.92-.64s-.64-.41-.83-.74c-.32-.09-.55-.49-.83-.74-.07-.06-.21,0-.28-.09s-.5-.48-.55-.55.05-.1.09-.09c1.27.24,2.69.32,4,.55A9.2,9.2,0,0,1,292,42.86Zm.65-3.69a10.84,10.84,0,0,0-3.23-.46c.12-.31.13-.73.37-.92a1.72,1.72,0,0,0,.83-.46,4.89,4.89,0,0,0,1.57-1c0-.12.16-.14.18-.28s.09,0,.09.09A12.22,12.22,0,0,1,292.65,39.17Z"/></g><g id="_3108-cocktail-glass-2" data-name="3108-cocktail-glass"><path class="cls-3" d="M94.37,26.66c.13.14.11.44.16.65a3,3,0,0,1,.16.57c.11.41.29.75.41,1.14.43.41.62,1.07,1.39,1.14s.57-.52,1.06-.57c.09-.18.4-.14.49-.33.29,0,.2-.29.49-.24.55-.51,1.13-1,1.71-1.47a4,4,0,0,1,.33,1.88c.11.59.14,1.28.24,1.88.16,1.28.33,2.55.57,3.76.4,2.48.63,5.14,1.63,7a13.74,13.74,0,0,0,3.92.57c.9-.05,1.79-.11,2.78-.08a6.53,6.53,0,0,0,1.71-.33,2.1,2.1,0,0,0,1.39-.57c0-.27.23-.31.16-.65-.16-.15,0-.39,0-.57s.18-.37.24-.57.09-.46.25-.57c.55-2.69,1.26-5.21,1.8-7.92.18,0,0-.43.16-.49-.06-.25.14-.24.08-.49a7,7,0,0,1,.24-1c.08-.71.34-1.24.41-2,.18,0,0-.43.16-.49-.06-.25.14-.24.08-.49.11-.29.08-.73.24-1a8.72,8.72,0,0,0,.25-2.12c-.24-.36-.36-.84-.73-1.06a5.25,5.25,0,0,0-2.29-.24,14.39,14.39,0,0,0-2.45-.08c-.21-.23-.93.06-1.14-.16a4.14,4.14,0,0,1-1.14-.08c-.79,0-1.43-.2-2.29-.16-.21-.21.2-.27.24-.49.21-.08.28-.32.49-.41.2-.4.72-.48.73-1.06.06-.41-.2-.5-.33-.73a4,4,0,0,0-.41-.65c-.26-.42-.62-.74-.9-1.14a13,13,0,0,0-1.39-1,1.79,1.79,0,0,1-.65-.25,10.64,10.64,0,0,1-2.69-.25h-1.63a6.7,6.7,0,0,0-4.57,2.69c-.26.58-.6,1.09-.82,1.71s-.31,1.32-.49,2A25.14,25.14,0,0,0,94.37,26.66Zm8.08,4.73a3.41,3.41,0,0,1,2.12-.16c.83,0,1.68.2,2.61.24,2,.09,4.19,0,6.12-.08-.19,1.58-.76,2.78-1.06,4.24a4.48,4.48,0,0,0-.33,1c-.12.31-.13.75-.24,1.06a9.93,9.93,0,0,1-.57,2.12c-2-.18-4.13-.17-6.29-.16-.07.18-.52,0-.57.16-.24-.1-.37.49-.41.08-.18,0,0-.35-.08-.49s-.08-.35-.08-.57c-.18,0,0-.35-.08-.49s-.08-.36-.08-.57a16.44,16.44,0,0,1-.33-2.12C102.89,34.27,102.73,32.77,102.45,31.39ZM107,30c-.35.14-.94,0-1.31.16-.59,0-1.35.1-1.71-.16a.41.41,0,0,0,.25-.24c0-.14.39,0,.41-.16.77-.06,1.31.11,2,.08a2.72,2.72,0,0,0,1,.08c.15.21.79-.08.82.24Zm-5.55-3.51c.57-.65,1.28-1.17,1.88-1.8.35-.28.64-.61,1-.9s.56-.69,1.06-.82c3.18.12,6.22.7,9.47.49q-.57,3.23-1.14,6.45c-.69-.19-1.22-.52-1.88-.73a10.67,10.67,0,0,0-2.2-.41,31.48,31.48,0,0,0-4.73-.49l-1.06.16a1.74,1.74,0,0,1-.65.41c-.11.24-.38.33-.49.57s-.22.1-.16.33c-.22,0,.08.46-.25.33a2.09,2.09,0,0,1-.24-1c-.23,0,.07-.5-.16-.49V28c-.15-.15-.11-.49-.25-.65A7.65,7.65,0,0,0,101.47,26.49Zm-.41-2.12a4.12,4.12,0,0,0,.33-1.47h.82v.57c-.21.11-.31.34-.57.41S101.36,24.32,101.06,24.37Zm-1.14-1.63c-.54-.06-.72-.47-1.14-.65s-.75-.45-1.14-.65a1.86,1.86,0,0,1-.49-.16,1.78,1.78,0,0,0-.73.08,4.28,4.28,0,0,1,1.39-2.61,4.1,4.1,0,0,1,2.61-1.39,7.79,7.79,0,0,1,3.67.57,5.24,5.24,0,0,1,1.39.73,3.3,3.3,0,0,1,1,1.14,8.58,8.58,0,0,0-1.14,1,4.31,4.31,0,0,0-.57.49c-.14.21-.54.17-.9.16-.17-.47.19-1,.16-1.63a1.68,1.68,0,0,0,.16-.82c0-.37-.06-.59-.33-.65-.74,0-.7.77-1,1.23-.15.61-.32,1.2-.49,1.8h-1.14c0-.75-.14-1.33-.16-2-.24-.52,0-1.48-.65-1.63-.65.17-.45,1.19-.57,1.88A18.08,18.08,0,0,1,99.92,22.74Zm-.16,2h-.16c0-.08-.07-.1-.08-.16s.11-.1.24-.08Zm-3.67,1.39c1.13-.2,2.39-.28,3.51-.49,0,0,.12,0,.08.08s-.45.46-.49.49-.18,0-.25.08c-.25.22-.45.58-.73.65-.17.29-.5.42-.73.65s-.46.46-.82.57A8.14,8.14,0,0,1,96.08,26.09Zm.16-3.92s0-.1.08-.08.13.14.16.24a4.33,4.33,0,0,0,1.39.9,1.53,1.53,0,0,0,.73.41c.21.17.22.54.33.82a9.6,9.6,0,0,0-2.86.41A10.82,10.82,0,0,1,96.25,22.17Z"/></g><g id="_3108-cocktail-glass-3" data-name="3108-cocktail-glass"><path class="cls-3" d="M564.75,18.21c-.18-.64-.28-1.35-.49-2s-.56-1.13-.82-1.71a6.7,6.7,0,0,0-4.57-2.69h-1.63a10.64,10.64,0,0,1-2.69.25,1.79,1.79,0,0,1-.65.25,13,13,0,0,0-1.39,1c-.28.4-.64.72-.9,1.14a4,4,0,0,0-.41.65c-.12.23-.39.32-.33.73,0,.58.53.66.73,1.06.21.08.27.32.49.41,0,.22.45.28.24.49-.86,0-1.5.13-2.29.16a4.14,4.14,0,0,1-1.14.08c-.22.22-.93-.06-1.14.16a14.39,14.39,0,0,0-2.45.08,5.25,5.25,0,0,0-2.29.24c-.38.22-.5.7-.73,1.06a8.72,8.72,0,0,0,.25,2.12c.16.25.13.69.24,1-.06.25.14.24.08.49.16.06,0,.46.16.49.07.72.33,1.25.41,2a7,7,0,0,1,.24,1c-.06.25.14.24.08.49.16.06,0,.46.16.49.53,2.7,1.25,5.23,1.8,7.92.16.11.12.42.25.57s.22.32.24.57.16.42,0,.57c-.07.34.16.39.16.65a2.1,2.1,0,0,0,1.39.57,6.53,6.53,0,0,0,1.71.33c1,0,1.88,0,2.78.08a13.74,13.74,0,0,0,3.92-.57c1-1.88,1.23-4.54,1.63-7,.24-1.2.41-2.48.57-3.76.11-.6.13-1.28.24-1.88a4,4,0,0,1,.33-1.88c.58.48,1.17,1,1.71,1.47.29,0,.2.29.49.24.09.18.4.14.49.33.49.05.42.67,1.06.57s1-.73,1.39-1.14c.12-.4.3-.74.41-1.14a3,3,0,0,1,.16-.57c.05-.22,0-.51.16-.65A25.14,25.14,0,0,0,564.75,18.21ZM556,31.85a16.44,16.44,0,0,1-.33,2.12c0,.22,0,.47-.08.57s.1.48-.08.49c0,.22,0,.47-.08.57s.1.48-.08.49c0,.41-.17-.18-.41-.08-.05-.19-.5,0-.57-.16-2.16,0-4.32,0-6.29.16a9.93,9.93,0,0,1-.57-2.12c-.12-.32-.12-.75-.24-1.06a4.48,4.48,0,0,0-.33-1c-.3-1.47-.87-2.67-1.06-4.24,1.93.08,4.14.17,6.12.08.93,0,1.79-.26,2.61-.24a3.41,3.41,0,0,1,2.12.16C556.47,29,556.31,30.48,556,31.85Zm-5.31-5.63c0-.33.67,0,.82-.24a2.72,2.72,0,0,0,1-.08c.73,0,1.27-.15,2-.08,0,.17.36,0,.41.16a.41.41,0,0,0,.25.24c-.36.27-1.12.13-1.71.16-.36-.13-1,0-1.31-.16Zm6.86-2.69c-.14.16-.09.5-.25.65v.65c-.23,0,.07.5-.16.49a2.09,2.09,0,0,1-.24,1c-.32.13,0-.35-.25-.33.06-.22-.16-.16-.16-.33s-.38-.33-.49-.57a1.74,1.74,0,0,1-.65-.41l-1.06-.16a31.48,31.48,0,0,0-4.73.49,10.67,10.67,0,0,0-2.2.41c-.65.22-1.19.55-1.88.73q-.57-3.22-1.14-6.45c3.25.21,6.29-.37,9.47-.49.5.13.67.58,1.06.82s.63.62,1,.9c.6.63,1.3,1.15,1.88,1.8A7.65,7.65,0,0,0,557.56,23.52Zm0-3.43c-.26-.06-.36-.3-.57-.41v-.57h.82a4.12,4.12,0,0,0,.33,1.47C557.84,20.53,557.73,20.28,557.56,20.09Zm1.8-4.33c-.13-.69.08-1.71-.57-1.88-.61.16-.41,1.12-.65,1.63,0,.71-.18,1.29-.16,2h-1.14c-.17-.59-.34-1.18-.49-1.8-.28-.45-.24-1.23-1-1.23-.26.07-.37.28-.33.65a1.68,1.68,0,0,0,.16.82c0,.59.34,1.17.16,1.63-.36,0-.76,0-.9-.16a4.31,4.31,0,0,0-.57-.49,8.58,8.58,0,0,0-1.14-1,3.3,3.3,0,0,1,1-1.14,5.24,5.24,0,0,1,1.39-.73,7.79,7.79,0,0,1,3.67-.57,4.1,4.1,0,0,1,2.61,1.39,4.28,4.28,0,0,1,1.39,2.61,1.78,1.78,0,0,0-.73-.08,1.86,1.86,0,0,1-.49.16q-.59.31-1.14.65c-.42.18-.6.6-1.14.65A18.08,18.08,0,0,1,559.36,15.77Zm.08,4.9c.13,0,.14.08.24.08s-.08.08-.08.16h-.16Zm3.1,3.67c-.35-.11-.51-.41-.82-.57s-.56-.36-.73-.65c-.28-.08-.49-.44-.73-.65-.06-.05-.18,0-.25-.08s-.45-.42-.49-.49,0-.09.08-.08c1.12.21,2.38.29,3.51.49A8.14,8.14,0,0,1,562.54,24.34Zm.57-3.27a9.6,9.6,0,0,0-2.86-.41c.11-.27.11-.65.33-.82a1.53,1.53,0,0,0,.73-.41,4.33,4.33,0,0,0,1.39-.9c0-.11.14-.13.16-.24s.08,0,.08.08A10.82,10.82,0,0,1,563.12,21.07Z"/></g><g id="_3903-pot" data-name="3903-pot"><path class="cls-3" d="M373.38,16.85a3.17,3.17,0,0,0-1.3-2.28,6.56,6.56,0,0,0-3.58.43,12.85,12.85,0,0,0-.22-1.52,1.64,1.64,0,0,0,2-1c.06-2-1.22-2.77-2.17-3.8a17,17,0,0,0-3-1.52,22.18,22.18,0,0,0-3.37-1.3,41.55,41.55,0,0,0-7.82-1.52,7.41,7.41,0,0,1-2-.11A4.1,4.1,0,0,0,349.38,0a5.83,5.83,0,0,0-3.15.76,4.35,4.35,0,0,0-1.09,3.91,36.25,36.25,0,0,0-10.53,3.37c-.2.24-.89,0-1.09.22-.35.09-.47.39-.76.54-.12.35-.53.41-.76.65a8.17,8.17,0,0,0-1.63,1.09,8.07,8.07,0,0,0-1.52,1.19c-.38.53-1,.8-.87,1.85a.76.76,0,0,0,.54.54c.35,0,.83-.11.76.33v1.19c-.38,0-.51-.21-.76-.32a3.85,3.85,0,0,1-1.09-.11h-1.63c-.62-.07-.84.24-1.3.33a3.47,3.47,0,0,0-.65,2.93c.59,1.19,2.53,1,3.91,1.41a10.09,10.09,0,0,1,.87.65c.14.4.68.4.65,1,.21,1.89.28,3.92.43,5.87.37,3.83.37,8,.87,11.73a13.44,13.44,0,0,0,.65,2.5c.05.49.44.64.43,1.19a2.28,2.28,0,0,1,.65,1c.56.52,1.15,1,1.74,1.52a24.21,24.21,0,0,0,3.8,1.41c2.51,0,5.51.33,7.82-.11,3.59,0,7.21,0,10.53.22a21.36,21.36,0,0,0,9.12-1.74,1,1,0,0,1,.65-.43c2.42-2.28,3.23-6.18,3.37-10.75s0-9.43-.33-13.79C370.69,19.22,372.91,18.91,373.38,16.85Zm-44.2,1.52a9.31,9.31,0,0,0-3.48-.87c-.17-1,1.2-.53,2-.65a3.82,3.82,0,0,1,1.09-.11c0-.12.22-.07.22-.22s.19,0,.22.11ZM348.95,1.43a2.34,2.34,0,0,1,1,.11,1.58,1.58,0,0,1,.33,1.63c-.33.18-.54.48-1.09.43s-.74-.56-1-1C348.38,2.16,348.5,1.63,348.95,1.43Zm18.14,31.39a31.09,31.09,0,0,1-.43,5.1A13.23,13.23,0,0,1,365.24,42a7.73,7.73,0,0,1-1.85,1.41,30.45,30.45,0,0,0-4.13.87c-4.57.19-9.89-.18-14.44,0-.19-.46-.16-1.14-.33-1.63-.31-.31-.56-.68-1.19-.65-1,.25-.46,1.45-.43,2.39h-1.52c-.1-1-.2-1.9-.22-2.93s0-2-.87-2.17c-1,0-1,1.06-1,2.17v1.63c.24,0,0,.46.11.65s.15.65-.22.54c-.57.1-.59-.35-.54-.87v-1.3a18,18,0,0,1-.11-2.82,10.19,10.19,0,0,1-.11-1.52c-.07-.47.14-1.23-.11-1.52,0-1.1.06-2.16-.87-2.28-.69.21-.76,1.05-.76,2-.19,2.05-.08,4.41-.11,6.63-.09.45.15.91,0,1.09-.41-.06-.52-.42-.65-.76-.3-.13-.09-.78-.33-1,0-3.37-.15-6.66-.43-9.77,0-1.08.3-2-.65-2.28-.6.12-.64.81-.65,1.52a14.65,14.65,0,0,0-.11,2c-.24,2.33-.32,4.82-.33,7.38a10.89,10.89,0,0,1-.87-3.8c-.1-1.46-.16-3-.33-4.34-.06-3-.36-5.79-.54-8.69,0-.42.44-.35.65-.54a1.18,1.18,0,0,0,.54-.65v-1.2c-.2-.27-.2-.74-.65-.76-.09-.39-.78-.16-.87-.54-.1-1.89-.08-3.9-.22-5.76h3.26c.41.08.52-.13.87-.11,4.35,0,8.42-.19,12.82-.11.38.09.42-.16.76-.11,2.16,0,4.41.06,6.41-.11,1.82-.35,4.1-.25,6-.54h2.93a9.89,9.89,0,0,1,2.28-.11,29.21,29.21,0,0,1,.33,4.45c.11.36-.34.17-.54.22s-.27.16-.43.22c-.34.1-.36.51-.65.65a5,5,0,0,0-.11,1.41,2.28,2.28,0,0,0,2,1.41C367.18,25.26,367,29.12,367.08,32.81Zm-5.43-21.5c-2.84.28-5.77.46-8.58.76-3.38.06-6.83,0-10.1.22H340.8c-3.32.12-6.54.34-9.88.43,0-.44.57-.3,1-.33.43-.19.44-.79.87-1h5.76c.36,0,.54-.18,1-.11.2-.16.72,0,.87-.22.64,0,1.17-.21,1.3-.76,0-.29-.29-.37-.54-.43s-.56-.1-.87-.11a6.73,6.73,0,0,0-1.74.11c-.95,0-2.21.05-2.82,0a10,10,0,0,1,2.39-1.09c.47-.08.61.18,1.09.11h3.15c1,0,2.22.2,2.5-.65-.08-.93-1.32-.71-2.28-.76.28-.37,1-.33,1.52-.43a6.28,6.28,0,0,1,1.63-.22c.08-.24.61,0,.87-.11.38.09.42-.16.76-.11.56-.05,1.35.12,1.74-.11.56-.05.71.31,1.3.22.56.09.71-.23,1.19-.22a33,33,0,0,1,8.8,1.41,29.94,29.94,0,0,1,3.8,1.3,13.74,13.74,0,0,1,1.63.87c.41,0,.46.41.87.43,0,.36.58.22.54.65C365.28,11.17,363.62,11.39,361.65,11.31Zm8.58,6.08c-.56,0-.77.39-1.3.43-.15-.21-.1-.62-.22-.87.78-.14,1.69-.68,2.5-.43C371.16,17.08,370.52,17.06,370.23,17.39ZM355,27.27c-.25-.4-.58-.72-.87-1.09-.48-.2-.54-.84-1.19-.87-.41,0-.64.09-.65.43A5.3,5.3,0,0,0,353.72,28c.65.62.92,1.61,2.17,1.63.46-.29.3-.94.11-1.41C355.6,28,355.47,27.48,355,27.27Zm3.58.32c-.07-.07,0-.25-.11-.32s-.23,0-.33-.11-.2-.45-.54-.33h-.22c-.06.16-.16.27-.22.43a7.34,7.34,0,0,0,1.3,2.06c.42.63.91,1.65,1.85,1.41.43-1.06-.56-1.6-.87-2.28A9.71,9.71,0,0,0,358.61,27.6Z"/></g><g id="_2309-cake" data-name="2309-cake"><path class="cls-3" d="M474,38.37c-.28-.28-.32-.75-.64-1a2.54,2.54,0,0,1-.52-1.19,6.69,6.69,0,0,1-2.5-4.68c-.23-.06,0-.55-.15-.64.11-.38-.14-.46,0-.83s-.14-.46,0-.83c-.11-.2,0-.6-.14-.74a6.79,6.79,0,0,0-.8-2.77c-.34-.07-.16-.57-.57-.57,0-.36-.63-.24-.68-.58a11.83,11.83,0,0,0,0-1.87.51.51,0,0,1-.16-.53,14.7,14.7,0,0,0-1.45-2.41,6.3,6.3,0,0,0-4.8-2.07c-.33,0-.27-.28-.38-.45a2.32,2.32,0,0,0-.6-.26c-2.28-.31-5.29,0-6.2-1.47a1.91,1.91,0,0,1-.35-.76c0-.27.09-.58,0-.73.22-.19.06-.84.39-.9.12-.24.4-.63.18-.92-.16-.47-.69-.63-1.4-.64s-1.16.37-1.8.47a9.31,9.31,0,0,1-1.53.91,2.1,2.1,0,0,1-.67.56c-.2.25-.49.41-.68.67a9.5,9.5,0,0,0-2.14,3.14c-.77-.13-1.08.3-1.69.37a33.72,33.72,0,0,0-3,1.82A18.31,18.31,0,0,0,439.17,22a19.71,19.71,0,0,0-.79,1.9l-.12,1.34c.12.28.12.67.34.86.07.32.47.37.45.77-.35.18-.51.6-.52,1.2a9.89,9.89,0,0,0-.25,1.64c-.21.24-.25.69-.4,1a5.36,5.36,0,0,1-.49.89,16.54,16.54,0,0,1-1.09,1.77,6.3,6.3,0,0,0-1.8,1.61,10.11,10.11,0,0,0-.29,2.15c-.06.56.37.71.31,1.27a8,8,0,0,0-1,6.14,4.77,4.77,0,0,0,1.34,1.36,6.73,6.73,0,0,0,1.56,1.17c.4.49,1.11.72,1.56,1.17.68.25,1.1.73,1.78,1a7.42,7.42,0,0,0,1.78,1,.75.75,0,0,0,.3.13c.11,0,.05.09.09.11a9.09,9.09,0,0,0,1,.4c.54.2,1,.35,1.61.55.06,0,.06.09.2.12a3.52,3.52,0,0,1,.51.15l1.12.3c.5.15,1.05.24,1.63.35a30.46,30.46,0,0,0,10,.13,39.72,39.72,0,0,0,4.13-1A33.15,33.15,0,0,1,465.91,50a23.06,23.06,0,0,0,3.5-2.08,19.57,19.57,0,0,0,3-2.64,2.93,2.93,0,0,0,1.51-.7,10.86,10.86,0,0,0,.55-1.61l.12-1.34A11.58,11.58,0,0,0,474,38.37Zm-3.74.09c0,.46-.23.56-.19,1-.33,0-.31-.25-.26-.54s-.36-.4-.35-.76A.91.91,0,0,1,470.23,38.46Zm-1.32-.32c0,.1-.13.07-.22.08S468.82,38.15,468.91,38.14Zm-.32,2.46c.05.51-.53.28-.67.57a.67.67,0,0,0-.52.06l-1.24-.11a3.15,3.15,0,0,0,.59-.78c.28.18.44.46.89.49S468.12,40.5,468.59,40.6Zm-3.7-7.69c-.25-.11-.23-.45-.36-.65.36-.67.81-1.24,1.2-1.87.17.11.28.27.49.35C465.83,31.54,465.28,32.13,464.89,32.92Zm.06,5.3a1.39,1.39,0,0,1-.65-.89c.1,0,.09-.12.12-.2.36,0,.14.39.38.45C464.72,37.9,465.1,37.84,465,38.21Zm3.53-4.88c0,.06-.09.13-.11.09S468.46,33.3,468.49,33.33Zm-.72-4.94c.31,0,.23.38.26.65l-.41,0C467.57,28.68,467.76,28.63,467.77,28.39Zm-1-2.05a.67.67,0,0,1,.51.15c0,.39-.41.19-.46.48-.36-.09-.29.34-.64.26a2.1,2.1,0,0,1-.67.56c0,.26-.19.3-.25.5a1.37,1.37,0,0,1-.14-.74A3.73,3.73,0,0,0,466.81,26.34Zm-26.52-2.91a8.68,8.68,0,0,1,2.63-2.78,13.36,13.36,0,0,1,3.28-1.9c.46,0,.78.35,1.13.1s.52-.67.53-1.3a14.18,14.18,0,0,1,1.66-2.35,9,9,0,0,1,2.31-1.46.73.73,0,0,1,.33-.18c.21.24-.14.41-.07.82a11,11,0,0,0,.19,1.37c.76,2.22,3.51,3.19,6.69,3.07.4-.21,1.07-.09,1.38-.4.34-.06.12.35.27.44a1.78,1.78,0,0,1,.39.34,6.41,6.41,0,0,1,3.2,1.42A3.91,3.91,0,0,1,465.32,22c0,.06.1,0,.09.11s.21.31.27.44,0,.18,0,.21a2.63,2.63,0,0,1,.3,1.37,3.49,3.49,0,0,1-1.4,1.75c-.47,0-.65.37-1.17.31-.31.2-.76.23-.79.76s.6.58.86.9c-.41.72-1,1.26-1.41,2s-1.14,1.06-1.7,1.62c-.39,0-.54.34-1,.33-.22.19-.7.07-1,.23a3.43,3.43,0,0,0-1.24,0c-1.51-.26-3-.5-3.94-1.27-.39-.27-.55-.75-.84-1.11-.42-.15-.42.18-.74.14,0-.36-.27-.48-.57-.57a9.33,9.33,0,0,0-2.95.47c-.16,0-.33,0-.52.06s-.29.18-.33.18c-.45,0-1-.06-1.55,0a3.08,3.08,0,0,1-2.72-2.1l.07-.82c0-.63.54-.65.53-1.3-.06-.24-.28-.33-.48-.46-.88-.14-1.13.48-1.53.91-.55-.27-1.32-.35-1.59-.86S440.18,24,440.29,23.43ZM463,39.8c-.19.26-.33.59-.68.67.33-.55.72-1,1.07-1.57C463.52,39.12,463.13,39.64,463,39.8Zm-2-3.08c-.39.15-.42.71-.9.75.1-.31-.15-.32,0-.63.33-.63,1-.88,1.46-1.33.18,0,.19.1.19.22A3.29,3.29,0,0,0,460.93,36.73Zm.38,6.47c-.06.34-.38.38-.66.46,0-.39-.44-.46-.44-.87a1.47,1.47,0,0,0,.56-.47c.34-.06.12.35.27.44S461.3,43,461.31,43.19Zm-.85-9.41c-.22-.16-.2.19-.34.28s-.23-.05-.22.09c-.25-.34.33-.66.59-.78C460.8,33.46,460.38,33.58,460.46,33.78Zm-2.22,7.7c-.37-.11-.08-.76-.11-1.15C458.66,40.58,458.61,41.1,458.24,41.47Zm0-2.28c.28,0,.2.51,0,.63C458.05,39.78,458.27,39.38,458.23,39.19Zm.5,5c0,.1-.13.07-.21.09S458.65,44.23,458.73,44.21Zm-5.4-9.6a2.56,2.56,0,0,0,.25-1.64,7.61,7.61,0,0,1,1.6.66C455,34.45,454.05,34.42,453.33,34.62Zm.08,5.09c-.18-.09,0-.19,0-.31C453.62,39.49,453.44,39.59,453.41,39.71Zm2.37,3.84a2.62,2.62,0,0,1,.28-.81c.21.17,0,.68.24.85-.12.38.3.51,0,.73a7.79,7.79,0,0,1-1.31-.43C455.25,43.75,455.58,43.73,455.78,43.55Zm.13-2.69c.36-.08.13.33.16.53.23,0,0,.44,0,.63A.86.86,0,0,1,455.91,40.86Zm0-3.12c.42.09.54.43.44,1C455.81,38.68,455.75,38.28,455.86,37.74Zm.18-.92c-.22-.23,0-.9.1-1.13.15,0,.29,0,.32-.08.36-.08.13.33.16.53C456.58,36.54,456.17,36.52,456,36.82Zm-2.75,5.47c-.06.34-.49.25-.85.24C452.51,42.2,453,42.32,453.29,42.29Zm-.91-9.94c-.3,0-.68,0-.82-.17,0-.34.11-.47.17-.71A.94.94,0,0,1,452.38,32.36ZM451,37c-.08,0-.09-.11-.2-.12l0-.21C451.09,36.66,451.05,36.85,451,37Zm-1-5.27-.82-.07c.09-.61.68-.63,1.2-.73C450.27,31.17,450.21,31.51,450.05,31.74Zm.66,6.8a1.6,1.6,0,0,1-.11,1.24c-.71,0-.37-.53-.32-1.07A.46.46,0,0,0,450.71,38.54Zm.1,4.89c0,.1-.13.07-.21.09-.26.05-.84.54-.82-.07C450.18,43.51,450.36,43.31,450.81,43.43Zm-2.75-1.79-.72-.06,0-.52C447.84,41.05,448.23,41.1,448.06,41.63Zm0,2.28a.51.51,0,0,1-.71-.16c-.13-.42.45,0,.44-.27C447.94,43.58,448.11,43.66,448.07,43.92Zm-1.29-11.53.05-.62c.32.08.42-.19.62.05C447.34,32.15,447.3,32.56,446.78,32.39Zm.77,6.71c-.06-.48.61-.46.85-.24-.12.13-.13.37-.25.5A2.34,2.34,0,0,1,447.55,39.1ZM446.74,34c0,.27-.17.33-.44.27C446.29,34,446.47,34,446.74,34Zm-1.49,8.9c.25.11.54.18.47.56Q445.16,43.5,445.25,42.95Zm-.1-1.25.1-1.13.31,0C445.55,41.06,445.73,41.68,445.15,41.69Zm-.46-9.07c0,.13-.16.05,0,0,.09-.26.49-.18.56-.47.18-.13.17-.48.55-.37C445.77,32.48,445.33,32.68,444.68,32.63Zm-.61,4.72c0,.43-.3.47-.66.46l0-.52Zm-2.71-9.47c-.44-.24-1.48,0-1.4-.64C440.35,27.52,441.47,27.18,441.36,27.88Zm-1.26,1.34c.62.1,1.05,0,1.28-.41a1.8,1.8,0,0,1,.54,1,6.21,6.21,0,0,0-2,.24C440,29.74,439.93,29.36,440.1,29.22ZM435.61,44c-.5,0-.29-.59-.44-.87a11.74,11.74,0,0,1,.44-2.66c0-.17.11-.17.13-.3.18.2.45.32.57.57A14.8,14.8,0,0,0,435.61,44Zm.62-7.21c0-.44-.48-.42-.44-.87.3-.21.33-.75.89-.65l-.2,2.27C436.13,37.5,436.21,37.12,436.23,36.78Zm.95,8.28c-.3,0-.3-.26-.6-.26,0-.42.32-.45.47-.69a20.63,20.63,0,0,1,.76-2.84l.31,0A14.53,14.53,0,0,0,437.18,45.06Zm1.14-6c-.12-.25-.12-.6-.24-.85.12-1.54.08-2.93.29-4.54l.31,0a17.59,17.59,0,0,0-.3,4.64,2.12,2.12,0,0,0,.26.64c0,.19.5.39.16.53S438,39.25,438.32,39Zm1,4.76c-.09.42-.22.8-.31,1.22s-.14.37-.16.61.06.52-.24.39a14.13,14.13,0,0,1,1-4.58l.41,0C439.89,42.3,439.52,42.92,439.36,43.79Zm.88-6.57c-.41,0-.07-.58-.13-.84l.24-2.78c0-.12,0-.18.12-.2a.48.48,0,0,1,.32-.08c.43,0,0,.34.06.52s-.22.35-.17.71c-.2.33-.12,1-.32,1.32Zm2.43,9.13c-.09.27.06.83-.18.92-.13.39.11.67-.07.82-.69-.25-1.2-.64-1.9-.89a53.76,53.76,0,0,1,1.2-5.5c.25.37.29.9.51,1.29.22.58.72.92,1,1.44A12.1,12.1,0,0,1,442.67,46.36Zm.6-5.76a1,1,0,0,1-.13-.84c.3,0,.3.26.6.26l-.12,1.34C443.26,41.31,443.37,40.87,443.27,40.6Zm25.49,5.31a16.37,16.37,0,0,1-2.41,1.45c-.71.59-1.69.86-2.41,1.45a2.5,2.5,0,0,0-1.39.5,5,5,0,0,0-1.37.19c-.44,0,0-.16,0-.31.22,0,.08-.36.15-.51-.1-.49-.13-1-.74-1.1-.39-.12-.39.22-.64.26a1.94,1.94,0,0,0,.11,1.15c.13.23.73.39.46.66-2.06.21-3.93.63-6.08.72-.32-.95.29-2.67-.89-2.88-.67,0-.73.8-.76,1.59-.06.5.26,1.07.09,1.36-1.75-.12-3.42-.31-5-.54-.26-.8.26-2.26-.5-2.64-.84.47-.34,1.81-.11,2.48a19.57,19.57,0,0,1-3.53-1.13c-.13-.18.14-.59.09-1l.11-1.24c.16-.34.11-.92.31-1.22a9.37,9.37,0,0,0,4.17,1A7,7,0,0,0,453,44.45a5.66,5.66,0,0,0,4,2,9,9,0,0,0,4.22-.78c.1,0,.15-.15.22-.19s.29,0,.42-.07.13-.14.22-.19a11.31,11.31,0,0,0,1.67-1.31c.1-.09.11-.28.25-.5a2.94,2.94,0,0,0,.48-.79,12,12,0,0,0,1.3.53,5.25,5.25,0,0,0,5.45-1.81,5.43,5.43,0,0,0,.6-1c.11-.21.15-.68.29-1,.09,0,.09,0,.09.11a5,5,0,0,1,.41,2.42C471.72,43.68,470.08,44.61,468.75,45.91ZM451.36,21.37q1,.52,2,1.1c.69.34,1.59.51,2,1.1a1.93,1.93,0,0,1,0,.83c-.21.85-1.26.7-1.2,1.87,0,.25.32.3.37.55,1.25.17,1.68-.65,2.29-1.26a7,7,0,0,0,.34-1.53,3.57,3.57,0,0,0-.66-1.92c-.18-.17-.52-.2-.58-.46-.86-.26-1.43-.77-2.3-1-.59-.52-1.63-.67-1.84-1.51s.22-1.23.06-1.86l-.41,0a3.14,3.14,0,0,0-.87.44,3.75,3.75,0,0,0-.39,2.15A6.43,6.43,0,0,0,451.36,21.37Zm-3.79,5.48c.36-.45-.15-.86-.09-1.36l.05-.62a8.41,8.41,0,0,1,.65-1.5c.29-.11.34-.5.67-.56.12-.24.59-.41.37-.7s-.51-.45-.9-.39c0,0-.18.17-.22.19a.62.62,0,0,1-.32.08,6,6,0,0,0-1.57,2.56l-.12,1.34C446.33,26.38,446.74,27.18,447.57,26.86Z"/></g><path d="M120.44,46.77a1.36,1.36,0,0,1,2.49-.52,3.28,3.28,0,0,1-.58,4.07,1.57,1.57,0,0,1-1.75,0,2,2,0,0,1-1.14-1.8c.11-1.5,1.58-2.18,2.28-1,.53.86-.3,2.15-.84,1.28,0-.08-.23-.12-.23,0l-.2-.62c.43.6,1.37,1.1,1.64,0,.16-.65-.41-1.14-.6-.52-.32,1-1.4.17-1.09-.87Z"/><path d="M118.69,37.72a1.09,1.09,0,0,0,1.45-.38c.34-.39.78,0,.92.51.54,1.77-.42,3.79-1.63,4.22a1.32,1.32,0,0,1-1.77-.81,3.52,3.52,0,0,1,.43-3c.57-.77,1.48.46.9,1.23a1.3,1.3,0,0,0-.16,1.24l-.3-.52c.77.62,1.68-.79,1.35-1.88l.92.51a2,2,0,0,1-2.69.41c-.73-.45-.15-2,.58-1.55Z"/><path d="M123.79,36.92a1.77,1.77,0,0,1,1.53-.88c.3,0,.49.25.61.64.51,1.6-.44,3.55-1.63,3.49-.34,0-.61-.37-.64-.87l-.1-1.78c-.06-1.14,1.17-1.18,1.23,0l.1,1.78-.64-.87c.45,0,.68-.65.5-1.21l.61.64a.69.69,0,0,0-.67.34c-.56.8-1.46-.44-.9-1.23Z"/><path d="M116.55,54.17l-.76,1.22-.65-1.5c.6-.21.37-2.11-.2-1.81-.28.15-.35.82-.3,1.2a.91.91,0,0,0,.19.52c-.05-.05-.12.09.09-.13a3,3,0,0,1,.63-.4c.31-.2.69.19.79.61a1,1,0,0,1-.41,1.13c-.32.2-.75.62-1.11.63a1.16,1.16,0,0,1-.78-.46,3.07,3.07,0,0,1-.64-1.68c-.14-1.28.28-2.82,1.2-3.2,2.18-.88,3,4.57.92,5.32-.6.22-1.08-.82-.65-1.5l.76-1.22c.54-.86,1.46.4.92,1.26Z"/><g id="_2006-preserved-vegetables" data-name="2006-preserved-vegetables"><path class="cls-3" d="M506.89,25.27c-.18-.68-.38-1.33-.56-2-.16-.26-.32-.53-.44-.75s-.08-.23-.13-.31c-.21-.36-.5-.64-.69-1-.47-.64-1-1.17-1.51-1.82-.5-.31-1.1-.53-1.32-1.13a4.3,4.3,0,0,1-.06-1.07c.38,0,.8.14,1-.13a3.72,3.72,0,0,0,.19-2.26c0-.22,0-.38.19-.44v-.63c-.26-.36-.75-.41-1.25-.5-2.63.07-5.37,0-8.15,0-.08,0-.09.08-.19.06-.84,0-1.57.11-2.45.06a18.34,18.34,0,0,1-2.57.19c-.92,0-1.91-.07-2.38.38-.2.15-.09.62-.19.88s-.11.6-.25.82c0,.58-.2,1.49.13,1.88.12,0,.16.14.31.13s.41-.08.44.06h.44c.16.07.3-.19.38,0a1.29,1.29,0,0,1-.56,1.32c-.43.2-.72.53-1.13.75,0,.15-.21.17-.25.31s-.19.23-.38.25a3.44,3.44,0,0,1-.5.69c-.13.29-.32.52-.44.82a6.77,6.77,0,0,0-.63,1.88,15.68,15.68,0,0,0-.44,4.52c-.11,1.55-.06,3.25-.06,4.89s.11,3.33.06,4.83a5.06,5.06,0,0,0,1,2.13,6.41,6.41,0,0,0,2.76,1.19,17.78,17.78,0,0,0,3.51.5c0,.14.31,0,.44.06,2.48,0,5.08-.07,7.46.06,2.17-.34,4.56-.46,6.27-1.25a6.59,6.59,0,0,0,.94-1c.16-.15.18-.45.38-.56a1.22,1.22,0,0,0,.5-.5,6,6,0,0,1,.13-.63,1.29,1.29,0,0,1,.13-.63C506.83,33.44,507.07,29.14,506.89,25.27Zm-6.65-10.66h1.94a5.39,5.39,0,0,1,.06,1.13,12.13,12.13,0,0,1-1.94.06,6.34,6.34,0,0,0-.06-1Zm-2.7-.06h1.82c.11.11-.05.32-.06.5s.06.6-.06.75a10.38,10.38,0,0,1-1.82-.06A3.46,3.46,0,0,0,497.54,14.54Zm-1.57.19a.65.65,0,0,1,.13-.25.53.53,0,0,1,.38.06,6.15,6.15,0,0,1-.19,1.25h-.44A10.52,10.52,0,0,1,496,14.73Zm-2.07-.19h.63a2.11,2.11,0,0,0-.06,1.32,2.4,2.4,0,0,1-.69.06C493.82,15.46,493.9,15,493.91,14.54Zm-2.26,1c.15,0,0-.39.13-.44v-.5c.09,0,.18,0,.19-.06s.11.05.13.13c0,.29-.16.43-.13.75-.16.11,0,.57-.25.56S491.75,15.75,491.65,15.55Zm-1.82-.82h.25a4.47,4.47,0,0,1-.12.88c-.06.25.14.36,0,.5-.37.11-.27-.48-.19-.63S489.71,14.88,489.83,14.73Zm-1.44,0h.31a1.35,1.35,0,0,1-.06.56c-.07.39.23,1.15-.38,1A9.14,9.14,0,0,1,488.39,14.73Zm3.14,24.21a2.56,2.56,0,0,1-.56.25,3.76,3.76,0,0,1-1.44.13c-.27,0-.28.18-.5.19a4.22,4.22,0,0,1-2.7-3.26c0-.75-.06-1.48,0-2.07a4.83,4.83,0,0,1,3.45-1.94v.69c0,.29-.09-.07-.25,0,0-.14-.27,0-.38-.06a1.46,1.46,0,0,0-.82.63c-.24.22-.55.37-.5.88.1.74,1.13.35,1.57.19.12.15.12.42.25.56s.31.24.44.38a1,1,0,0,0,.88-1.07c.39,0,.44.27.88.19a.56.56,0,0,0,.38-.38c0-.85-.71-1-1.38-1.13.05-.35-.09-.76,0-.94a3.57,3.57,0,0,1,1.32.44,4.15,4.15,0,0,1,.82.56c0,.05.08.14.13.19s.11.09.13.12,0,.11,0,.13a.94.94,0,0,1,.13.13s0,.11,0,.13c.32.27.23,1.11.25,1.82-.09.34-.13.64-.25,1,0,0-.06,0-.06.06a2.94,2.94,0,0,1-.31.63,5.83,5.83,0,0,1-.56.82c-.08.1-.13.19-.19.25s-.17.05-.25.13a3.1,3.1,0,0,1-.31.31C491.58,38.92,491.57,38.89,491.52,38.94Zm13.92-1.76c-.19.52-.46,1-.63,1.51-.19.09-.26.28-.38.44a3.31,3.31,0,0,0-.44.38,42.8,42.8,0,0,1-5.71,1H496c-.35-.07-.79,0-1.13-.13h-3.07c.2-.23.59-.29.82-.5A5.59,5.59,0,0,0,494.78,36V35c-.09-.39-.09-.79-.19-1.13a3.61,3.61,0,0,0-.38-.75c0-.08,0-.07-.06-.13s-.18-.35-.31-.5a4.78,4.78,0,0,0-.75-.63c-.06,0-.12-.15-.19-.19s-.17,0-.25-.06a3.9,3.9,0,0,0-.44-.25c-.09,0-.22,0-.31-.06s-.16-.12-.19-.13-.43,0-.63-.06a1.47,1.47,0,0,0-.56-.06c-.22-.47-.21-1.17-.94-1.13-.4.19-.07.83-.06,1.19a6.47,6.47,0,0,0-2.07.69,2.38,2.38,0,0,0-.82.56c-.21,0-.27.19-.38.31s-.15.27-.38.25a28,28,0,0,1,.31-7.71c.7,0,1.37,0,1.57-.44-.16-.42-.63-.54-1.25-.5a10.58,10.58,0,0,1,.5-1.69c.84.09,2.12.18,2.63-.25-.17-.84-1.42-.59-2.38-.63a1.9,1.9,0,0,1,.5-.81c.56,0,1,.11,1.63.06.34-.06.69-.11,1-.19s.61-.15.75-.38a3.93,3.93,0,0,0-2.45-.5c-.13-.13.08-.24.19-.31s.16-.21.19-.38h1.07c.64-.11,1.42-.08,2.07-.19a.66.66,0,0,0,.19-.06c.2-.08.53-.14.63-.44-.06-.5-.63-.5-1.07-.63a13.27,13.27,0,0,0-2.63.19c-.08-.23-.24-.39-.31-.63,1.85-.28,4.14-.12,6.15-.25s4,0,6-.06a3.57,3.57,0,0,1-.13,1.13c-.35.07-.64.19-1,.25s-.63.16-.63.56.36.39.75.38a7.41,7.41,0,0,1,1-.13c.17,0,.16.13.19.25s.13.17.19.25a3.3,3.3,0,0,1,.38.44,21.24,21.24,0,0,1,1.82,1.38c.13.38.41.59.5,1a5.38,5.38,0,0,1,.56.94,7.3,7.3,0,0,1,.69,2.26C505.47,29.6,505.58,33.52,505.45,37.18ZM496.1,19.25c0-.58-1.12-.72-1.07,0C495.09,19.76,496.08,19.86,496.1,19.25Zm2,6V23.89c-.13-.08,0-.38-.19-.44,0-.22-.18-.28-.19-.5-.17-.06-.21-.25-.31-.38s-.37-.13-.38-.38c-.12-.86-.45-1.51-1.32-1.63-.2,0-.27.23-.44.31v.5c0,.07.29.24.13.31a8.91,8.91,0,0,0-1-.06c-1.27.07-1.91.76-2.95,1.07,0,.12-.17.17-.31.19a5.05,5.05,0,0,0-1.13,1.5c-.08.7-.33,1.22-.38,1.94a3.21,3.21,0,0,0,2.63,3.07c.18-.05.16.09.31.06H494a4.9,4.9,0,0,0,2.7-1.44A5.09,5.09,0,0,0,498.11,25.2Zm-1.82,1.32c-.24.3-.5.59-.75.88a5.22,5.22,0,0,1-1.82.88,4.27,4.27,0,0,1-1.69-.19.94.94,0,0,0,0-.5c-.09-.27-.3-.41-.38-.69s-.23-.48-.38-.69a3.53,3.53,0,0,1,.25-1.57c.21-.2.46-.37.69-.56s.21-.24.31-.31l.19-.13c.16-.13.45-.23.69-.38a2.39,2.39,0,0,1,1.44-.31c0,.21-.18.28-.13.56-.16,0-.19.19-.38.19s-.08.29-.19.38a.82.82,0,0,0,.38.5c.38,0,.43-.28.75-.31,0,.53.17.83.75.75s.13-1,.75-.94a3.51,3.51,0,0,1,0,1.32c-.15.13-.1.44-.25.56S496.33,26.29,496.29,26.52Zm5-3.32a.55.55,0,0,0,.44-.69,1.22,1.22,0,0,0-.25-.38s-.1,0-.13,0,0-.11-.06-.13c-.46-.24-.72.12-.82.5C500.66,22.84,500.82,23.18,501.31,23.2Zm3.14,2.51a1.37,1.37,0,0,0-.25-.69c0-.35-.27-.4-.31-.69-.37-.2-.6-.53-1.07-.63a3.85,3.85,0,0,0-1.51-.25s-.12,0-.13.06H501a1.46,1.46,0,0,0-.88.75,2.59,2.59,0,0,0-.63,1s0,.12-.06.13a9.66,9.66,0,0,0,0,1.44,26.61,26.61,0,0,1-.5,2.63c-.77,1.34-1.82,2.4-2.7,3.64a6.72,6.72,0,0,0-.56,3.2A2.28,2.28,0,0,0,497,37.56a5,5,0,0,0,2.32.25,5.91,5.91,0,0,0,1-.5c.2-.05.26-.24.5-.25a.91.91,0,0,1,.44-.31,4.29,4.29,0,0,1,.69-.69c.1-.21.29-.34.38-.56s.24-.42.44-.56a2,2,0,0,1,.38-.63,2.59,2.59,0,0,1,.38-.63,2.28,2.28,0,0,1,.25-.69,2.45,2.45,0,0,1,.25-.75,15.37,15.37,0,0,1,.44-1.51,10.59,10.59,0,0,0,.38-3.51A10.86,10.86,0,0,0,504.44,25.71Zm-.94,2.38a12.69,12.69,0,0,1-.88,4,10.58,10.58,0,0,1-1.69,3.14,5.8,5.8,0,0,1-1.07.82c-.21,0-.1-.23-.25-.25,0-.21-.23-.1-.25-.25-.17.08-.37.13-.31.44s.31.31.13.44c-.89.17-2,0-2.32-.56a2.28,2.28,0,0,1,.13-.94,2.69,2.69,0,0,1,.25-.82c-.06-.19.14-.11.25-.12a.28.28,0,0,1,.25-.13,17.73,17.73,0,0,0,2-3.32,10.68,10.68,0,0,0,1.44-3.89c0-.53,0-1.15,0-1.5.13,0,.12-.17.25-.19,1-.06,1.53.26,1.63,1.07-.43,0-.76.12-.82.5s.17.37.31.5c.35,0,.48-.14.82-.13A6.5,6.5,0,0,1,503.5,28.09Zm-15.87,0c.08.61.54.84,1.25.82.12-.18.3-.28.31-.56C489.06,27.74,487.81,27.24,487.63,28.09Zm14.36.63c.14.3.26.61.75.56.31-.28.13-.84-.06-1.13C502.26,27.95,502,28.27,502,28.72Zm-.94,1.82c-.33.11-.33.54-.44.88s.09.79.5.82.49-.43.5-.88S501.56,30.49,501.06,30.54Zm-1.63,3.32a.72.72,0,0,0,.25-.88C499.14,32.69,498.88,33.76,499.42,33.86ZM502.37,38a.71.71,0,0,0,.69.56c.13-.12.31-.2.31-.44C503.33,37.59,502.44,37.34,502.37,38Zm-3.64,1c-.21.14-.46.25-.44.63.1.19.19.39.44.44q.67,0,.63-.63A.63.63,0,0,0,498.74,39Z"/></g><g id="_3104-wine-decanter" data-name="3104-wine-decanter"><path class="cls-3" d="M102.51,46.67a7.68,7.68,0,0,0-1.71-2.92c-.43-.34-.77-.78-1.21-1.11s-1-.66-1.31-1.11c-.56-.22-.88-.66-1.41-.91a11,11,0,0,0-1.51-.91c-.89-.69-2-1.18-2.92-1.81q-1.11-1-2.12-2.12a15.36,15.36,0,0,0-.91-1.51c-.24-.6-.54-1.14-.81-1.71a20.66,20.66,0,0,1-1.31-6.75,21.65,21.65,0,0,1,1-7.05c.25-.39.27-1,.71-1.21a2,2,0,0,0,.4-1.61c-.44-1.47-2.17-1.66-3.73-2a27.06,27.06,0,0,0-5.64-.3c0,.08-.08.12-.2.1a14.91,14.91,0,0,0-4,.7,2.07,2.07,0,0,1-1,.2c-.37,0-.56.25-.91.3-.44.37-1.09.52-1.21,1.21-.1,1.48.66,2.09,1,3.12a11.14,11.14,0,0,1,1.11,3.12c.2,1.48.06,3.3.1,4.94A17.1,17.1,0,0,1,71.38,35a18.25,18.25,0,0,1-5.44,3.32c-1.92,1-3.85,2.05-5.64,3.22a12.67,12.67,0,0,0-3.22,4.23,4.54,4.54,0,0,0-.5,1.71,7.44,7.44,0,0,0-.2,2.12,2,2,0,0,1,.2.91.49.49,0,0,1,.2.5,6.29,6.29,0,0,0,2,2.22c.89.55,1.63,1.26,2.52,1.81.62.15,1.34.2,1.91.4a4.91,4.91,0,0,0,1.71.7c.08,0,.2,0,.2.1a29.29,29.29,0,0,1,3.32.5,9.61,9.61,0,0,0,3.42.5,28,28,0,0,0,7,1.21c.76-.18,1.8-.08,2.52-.3a27.83,27.83,0,0,0,9.57-1c1.39-.39,2.68-.88,4-1.31a35.25,35.25,0,0,0,3.73-1.71,15.61,15.61,0,0,0,2.22-2,5.64,5.64,0,0,0,.91-1.21,7.87,7.87,0,0,0,.7-1.41A9.31,9.31,0,0,0,102.51,46.67Zm-39.69-.6c.05.05-.07.13-.1.1S62.79,46,62.82,46.06Zm-.1,3.53c-.51,0-.7-.24-1-.4-.07-.31.1-.37.1-.6.37,0,.56.25.91.3ZM62,47.27c.44,0,1,0,.91.5C62.53,47.7,61.94,47.81,62,47.27Zm1.11-2.52c.26,0,.43,0,.4.3C63.26,45.08,63.09,45,63.12,44.75Zm.7-.71a.54.54,0,0,1,.6-.6C64.47,43.88,64.16,44,63.83,44Zm.5,6.24v-.2c.2,0,.32,0,.3.2ZM74.81,16.45c.38-.43,1.2-.41,1.81-.61l2.12-.3c1.47-.15,3.13-.09,4.73-.1a14.08,14.08,0,0,1,4,.81c0,.46-.53.48-.91.6s-.72.22-1,.4c-.74.2-1.61.27-2.42.4H79.85A21.74,21.74,0,0,1,74.81,16.45ZM73.9,35.38a4.7,4.7,0,0,0,1-2c1.21-1.44,1.74-3.57,2.12-5.84V23.7c-.13-1.58-.38-3-.6-4.53-.12,0-.08-.18-.1-.3s.07,0,.1,0a19.23,19.23,0,0,0,10.07.1c-.19.82-.48,1.53-.6,2.42,0,.42.17.63.1,1.11-.2,1.85-.06,4-.1,6a19.35,19.35,0,0,0,1.91,6.55c.45.79,1.26,1.22,1.61,2.11a9.41,9.41,0,0,0-1.51.1c-.35-.62-.85-1.1-1.21-1.71a.44.44,0,0,1-.4-.2c-.06-.14-.39,0-.4-.2a4.24,4.24,0,0,1-.91-.3c-.73,0-1.61-.32-2,.2a7.54,7.54,0,0,0,0,2,2.45,2.45,0,0,1-.91,0c-2.21-.06-4.92,0-7.25,0-.62.15-1.51,0-2.12.2C73,36.52,73.65,36.17,73.9,35.38ZM65.14,52.71c0-.15.09,0,.2,0A.1.1,0,0,1,65.14,52.71Zm.1-8.66c.07-.46,1.08-.35,1.11.1C66.06,44.36,65.55,44.13,65.24,44Zm1.81,4.73c-.07-.16-.49,0-.4-.3.34.13,1,0,1,.4C67.35,49,67.36,48.71,67.05,48.78Zm.6-4.33c0-.4.76-.16.7.1C68.15,44.49,67.7,44.68,67.66,44.45Zm2.22,6.85c-.15-.15-.57,0-.5-.4.52.12,1.31,0,1.31.6C70.26,51.59,70.2,51.31,69.87,51.3Zm1-6.25c.28-.21.93.07,1.31.1C71.83,45.45,71.25,45.09,70.88,45.05Zm1.91,7c0-.19-.29-.18-.2-.5a1.56,1.56,0,0,1,.81.2A.57.57,0,0,1,72.79,52Zm.71-5.14h.4c0,.21-.07.27-.1.4C73.54,47.3,73.47,47.13,73.5,46.87Zm.1,8.26c.28-.24.76.17,1.21.1C74.51,55.49,73.91,55.2,73.6,55.13Zm1.11-2.92a.66.66,0,0,1-.5-.1c.06-.25.47,0,.5.1C75.13,52.11,74.73,52.51,74.71,52.21Zm.5,3.22h-.3c0-.1.12-.08.2-.1h.3C75.41,55.43,75.29,55.41,75.21,55.43Zm.81,0h.2C76.24,55.71,75.47,55.4,76,55.43Zm-.5-8v-.3c.22-.15.92-.1.91.3Zm4.33,8.46H78.13c-.59-.08-1.13-.21-1.71-.3,0-.22.36,0,.5-.1.71.16,1.6.14,2.32.3h.7C80.1,55.89,80,55.94,79.85,55.93Zm-1-8c.11.32-.92.32-.81,0C78.22,48,78.7,47.72,78.84,48Zm-.7-.3c0-.1.12-.08.2-.1S78.21,47.65,78.13,47.67ZM79.34,53c-.43.06-.71,0-.6-.5C79.19,52.43,79.38,52.6,79.34,53Zm1.51-.2c.33-.06.47.07.7.1C81.53,53.06,80.73,53.15,80.85,52.81Zm-.2-4.43q-.33,0-.3-.3c.57-.07.83.18,1.31.2C81.52,48.51,81,48.32,80.65,48.38Zm3.93-5.14c-.55.42-1.43,0-2.32.1H79.74c-.8-.14-1.59-.29-2.42-.4-2.42,0-4.64-.13-6.85-.3-.18-.19-.61-.13-.81-.3s-.56-.11-.7-.3c-.62-.05-1.21-.14-1.41-.6-.07-.91.77-.91,1.21-1.31a15.07,15.07,0,0,0,1.61-.91c.63.09.87-.2,1.31-.3a105.47,105.47,0,0,1,11.68.1,11.41,11.41,0,0,1,.71,2.52C84.17,42.16,84.78,42.64,84.58,43.24Zm3,12.39c-.61-.08-.91.16-1.51.1v-.2c0-.12,0-.18.1-.2h2.42C88.4,55.56,87.86,55.45,87.6,55.63Zm3-6a2.78,2.78,0,0,0-.4.81,1.09,1.09,0,0,0-.5.6c-.4.34-.71.76-1.11,1.11a7,7,0,0,1-2.52-.4c.14-.77.32-1.49.4-2.32,0-2.48-.66-4.31-.81-6.65a16.78,16.78,0,0,1-.91-3.32c-.33-.38-.24-1.17-.6-1.51,0-.68-.39-1-.4-1.61.1,0,.08-.12.1-.2a.28.28,0,0,1,.2-.3c.37.07.72,0,1.11.1a3.41,3.41,0,0,1,1.11.3c1.13,1.59,1.66,3.78,3,5.14,0,.59.44.83.5,1.41.27.34.36.85.6,1.21C90.39,45.9,90.92,47.69,90.62,49.59Zm3-7.45a2.27,2.27,0,0,0-1,.2,2.52,2.52,0,0,0-1,.1.48.48,0,0,0-.6-.3A35.73,35.73,0,0,1,89,39a.48.48,0,0,1-.1-.3c.77.07,1.42.26,2.22.3.44.13.63.51.91.81a2.81,2.81,0,0,1,1.51.81,1.53,1.53,0,0,1,1.31.91A4.13,4.13,0,0,0,93.65,42.13ZM98.58,48c0-.21.14-.19.3-.2A.28.28,0,0,1,98.58,48Zm.4-3.12c-.06-.27-.42-.25-.4-.6.4.24.61.66,1,.91C99.36,45.47,99,45.08,99,44.85Z"/></g><g id="_0706-herbs-3" data-name="0706-herbs"><path class="cls-3" d="M335.78,52.67c0-.15-.22-.18-.26-.33-.43-.22-.84.12-1.26.13H333a1.43,1.43,0,0,1-.59-.07c-.18,0-.41,0-.53-.13a2.35,2.35,0,0,0-.07-1.06c-.79-2-2.49-3.06-4.69-3.63a17.16,17.16,0,0,0-2.31-.07c-.08,0-.09.08-.2.07a9,9,0,0,0-2,.46c-.26.16-.64.2-.79.46a.81.81,0,0,0-.53.73,1,1,0,0,0,.07.53s.11.09.13.13a2.83,2.83,0,0,0,.33.59c.18.41.52.67.73,1.06,1.66,1.53,3.38,3,6.61,3a3,3,0,0,1,.73-.13,13.13,13.13,0,0,1,1.39-.79c.16.13.5.08.66.2s.56.06.79.13h1.92a.87.87,0,0,1,.46-.13c.1-.12.28-.16.4-.26A.75.75,0,0,0,335.78,52.67Zm-6.34-1.32a1.32,1.32,0,0,1-.53-.26c-.4-.13-.55-.5-1.12-.46-.32.06-.31.63-.2.93l-1.92-.66a16,16,0,0,1-1.72-.79c-.18-.28-.47-.46-.59-.79a10.91,10.91,0,0,1,3.17-.26,5.49,5.49,0,0,1,2,.79A3,3,0,0,1,330,51.21C329.83,51.21,329.64,51.57,329.44,51.34Z"/></g><g id="_0706-herbs-4" data-name="0706-herbs"><path class="cls-3" d="M493.53,52.93l-.28-.92a3.3,3.3,0,0,0-1.4-1.26,2.13,2.13,0,0,1-.7-.22c-.27,0-.59,0-.79-.13a3.35,3.35,0,0,0,.67-2.28,4.09,4.09,0,0,0-.21-.69c-.13,0-.12-.26-.26-.23-.05-.17-.21-.15-.28-.29a2.22,2.22,0,0,0-1.84-.06s0,.05,0,.08-.12.11-.27.15c-.08.21-.28.36-.32.6-.2.17-.14.47-.3.66a9.87,9.87,0,0,1-.18,1.25,4.52,4.52,0,0,0-3.05-.94l-.92.28a2.61,2.61,0,0,0-.47.52,1.36,1.36,0,0,0,.1.72c.35.22,1-.18,1.54-.29,0,.08.15,0,.25,0a1.07,1.07,0,0,0,.53.09,4.11,4.11,0,0,1,1.37.77,2.57,2.57,0,0,0-.44.39c-.07.07-.15.06-.21.13s0,.11,0,.13-.12.07-.15.11a3.32,3.32,0,0,0-.16.3c-.05.08-.17.15-.19.19s0,.09,0,.11-.1,0-.11,0,0,.09,0,.11-.14.18-.18.24,0,.12,0,.19-.14.21-.16.3,0,.26,0,.38,0,0,0,.07,0,.08,0,.11-.08.11-.08.15c0,.3.15.57.15.89a3.71,3.71,0,0,0,.66,1.11c.23.1.47.2.72.28.18-.09.28,0,.42-.07a3.36,3.36,0,0,0,1.72-1.35c.2-.39.32-.82.5-1.22a5,5,0,0,0,1.48.92,3,3,0,0,0,1,.25,2.62,2.62,0,0,0,.78-.12,1.72,1.72,0,0,0,1.05-1.27C493.51,53,493.46,53,493.53,52.93Zm-5.82.87c-.32.31-.42.74-1,.89a1.76,1.76,0,0,1-.36-1.15,2.73,2.73,0,0,1,1.46-2c.13.12.21.33.37.39A5.75,5.75,0,0,1,487.7,53.79Zm1.18-3.69-.17.05a4.32,4.32,0,0,1,.4-2.14c.22-.08.34,0,.51,0C490,49,489.28,49.5,488.88,50.1ZM492.37,53c-.1.25-.39.31-.71.35-.33-.12-.68-.23-1-.38s-.4-.34-.6-.51l-.14-.46c-.12-.08-.18-.27-.34-.27s-.38-.06-.24-.18a3.55,3.55,0,0,1,2.53.47,3.49,3.49,0,0,1,.5.79C492.31,52.88,492.35,53,492.37,53Z"/></g></g></g></svg>