<svg xmlns="http://www.w3.org/2000/svg" viewBox="0 0 641.65 146.77"><defs><style>.cls-1{fill:#b7daef;}.cls-2{fill:#447eb2;}.cls-3{fill-rule:evenodd;}</style></defs><title>dinner-table</title><g id="Layer_2" data-name="Layer 2"><g id="Layer_1-2" data-name="Layer 1"><polygon class="cls-1" points="622.96 77.69 11.23 77.69 49.44 50.71 575.38 50.71 622.96 77.69"/><rect class="cls-2" x="9.51" y="77.69" width="613.44" height="59.41"/><polyline class="cls-1" points="0 144.76 10.07 75.85 28.5 146.77"/><polyline class="cls-1" points="611.89 144.78 622.41 76.47 641.65 146.77"/><g id="_3009-wine-glass" data-name="3009-wine-glass"><path class="cls-3" d="M61.44,67.6c0-.27-.24-.31-.27-.55-.33-.19-.49-.54-.82-.73s-.69-.35-.91-.64a4,4,0,0,1-1.09-.46,20.65,20.65,0,0,1-2.92-.73c0-1-.18-2-.18-3,0-1.76.17-3.58,0-5.19a7.19,7.19,0,0,1,1.37-2.37,19.74,19.74,0,0,1,2.19-1.64A15.48,15.48,0,0,0,63.53,42c0-1.79,0-3.61-.09-5.28-.13-.75-.12-1.64-.18-2.46-.15-.43,0-.64,0-1.18s-.21-.7-.18-1.18a5.31,5.31,0,0,0-1.91-2c-2.17-.65-5.09-.56-7.93-.55-.12,0-.13.12-.27.09-2.81,0-4.64.95-7,1.37a11,11,0,0,0-1.28.82,3.58,3.58,0,0,0-1.18.91c0,.23-.17.32-.27.46a14.86,14.86,0,0,0-.36,5.92,30.43,30.43,0,0,0,.64,6,17.81,17.81,0,0,0,1.64,5,8.33,8.33,0,0,0,3.19,3.55,7.9,7.9,0,0,0,2.37.73A5,5,0,0,1,52,56.3c.21.85,0,2.13.18,3,.07,1.06-.09,2.07-.09,3.1a8.59,8.59,0,0,1,0,2.28c-.23.19-.74.1-1,.27a2.61,2.61,0,0,0-1,.27c-.66.22-1.28.48-1.91.73-.21.33-.74.35-.91.73-.43.15-.63.52-.91.82A3.14,3.14,0,0,0,45.41,70c.15.09.1.39.18.55A4,4,0,0,1,46,71c.38.13.56.47,1,.55.18.33.7.33,1,.55a5.3,5.3,0,0,0,1.18.36,4.6,4.6,0,0,0,1.18.36,5.28,5.28,0,0,0,1.37.18c.92.14,2,.11,3,.18A13.44,13.44,0,0,0,60,72.06a7.51,7.51,0,0,0,1-1c.13-.21.32-.35.46-.55s.2-.52.36-.73a8.44,8.44,0,0,0-.09-1.73C61.53,68,61.65,67.63,61.44,67.6ZM55.88,51.47c.17-.11.58-.23.73-.09C56.54,51.88,56.1,51.7,55.88,51.47Zm1.73-2.19c0-.1.09-.05.09,0S57.61,49.34,57.61,49.29Zm2-1.18c.07.25-.18.18-.18.36a7.81,7.81,0,0,1-.46.64c-.16-.12-.36-.19-.36-.46a2.44,2.44,0,0,0,1-.82C59.94,47.75,59.71,48.07,59.62,48.1ZM61,45c-.23,0-.28-.14-.46-.18,0-.3.15-.45.09-.82a1.49,1.49,0,0,1,.64-.18C61.21,44.26,61.06,44.6,61,45Zm.36-5.47v-.18c.18,0,.29,0,.27.18ZM45.59,33.16c.22-.23.53-.38.73-.64l.91-.46c.26-.16.69-.16.91-.36a37.23,37.23,0,0,1,4.65-.64h2.46c.16,0,.24-.16.27,0h2.73c1.58.21,3.4.19,4.55.82-.08.52-.72.49-.91.91s-.66.56-.91.91a10.76,10.76,0,0,1-2.64,1c-.36.25-1,.18-1.46.36a16.15,16.15,0,0,0-1.64.18,52.55,52.55,0,0,1-8.2-.18c-.32-.23-.78-.31-1.09-.55s-.87-.22-1-.64S45.39,33.42,45.59,33.16ZM46,44.28c0-.1.09-.05.09,0S46,44.33,46,44.28Zm.18-.18c-.23-.18,0-.61.09-.82a6,6,0,0,0,.18-.82,3.84,3.84,0,0,0,.27-.82,6.43,6.43,0,0,0,.27-.73c0-.12.16-.14.18-.27s.16.09.27.09a7.28,7.28,0,0,1-.73,1.64C46.69,43,46.35,43.46,46.23,44.09Zm.64,4.55c.11.58-.28.2,0,0C46.76,48.17,47.14,48.54,46.86,48.65Zm1.64-6A12.28,12.28,0,0,0,48,44.37c-.19,0,0,.4-.18.46,0,.22-.17.2-.09.46-.16.21-.09.64-.27.82-.07.69-.28,1.24-.36,1.91-.28-.22.07-.59,0-.91a2.05,2.05,0,0,0,.18-.91c.2-.17.06-.67.27-.82a2.07,2.07,0,0,1,.18-.82c.18-1.22.57-2.22.82-3.37a.43.43,0,0,0,.09-.27c.29,0,.32.16.64.09,0,.4-.29.5-.36.82S48.66,42.4,48.5,42.64ZM49,51.56a1.43,1.43,0,0,0,.64-1c.28,0,.15.45.18.73.13.57.71.69.82,1.28A9.75,9.75,0,0,1,49,51.56Zm1.28-4.28a6,6,0,0,1,.18-.82,1.47,1.47,0,0,1-.18,1.46C49.93,47.88,50.18,47.49,50.23,47.28Zm.27-5.65c0,.11-.13.06,0,0,0-.25-.13-.68.27-.55C50.82,41.4,50.62,41.48,50.51,41.64Zm.64,2.19c.16,0,.21.16.18.36A.4.4,0,0,1,51.14,43.82Zm-6.56-5.56c-.22-.66-.12-1.64-.27-2.37.52.24,1,.56,1.46.82a19,19,0,0,0,6,.46h2.73a14.42,14.42,0,0,0,6.83-1.73c0-.1.18-.06.18-.18s.09,0,.09.09c0,.79,0,1.85,0,2.37-.38.08-.75.16-1.09.27-.07.27-.28.39-.46.55-.39,2.55-.82,5.07-1.37,7.47a9,9,0,0,1-.91,1.73,2.48,2.48,0,0,1-.55.73c-.21.14-.59.44-.82.27-.52,0-.28-.81-.55-1.09-.05-.19.11-.6-.09-.64.11-.29.1-.69.27-.91-.08-.26-.11-.56-.18-.82.2-.17,0-.71.18-.91-.06-.4.15-.51.09-.91.15-.18.1-.57.18-.82a6,6,0,0,0,.18-.82c.1-.9,1.08-2.22.36-3.19-.89-.17-1.67.41-2.46.64A26.58,26.58,0,0,1,44.59,38.26Zm9.84,11.2c.15,0,.18.6-.09.46C54.3,49.71,54.5,49.73,54.42,49.47Zm-2.19-7.38a1.65,1.65,0,0,1,.36.82C52,43.08,52.29,42.43,52.24,42.09Zm7.65,27.42a.46.46,0,0,0-.27.27l-.73.36c-.54.18-1.17.29-1.73.46a3,3,0,0,0-1.09.09H53.24a18.62,18.62,0,0,1-4.55-1,.25.25,0,0,0-.27-.18c-.15-.39-.59-.5-.55-1.09.24-.76,1.07-.94,1.82-1.18a17.12,17.12,0,0,1,2.37-.64c-.06.91.06,2-.46,2.46.21.33.73.36,1.18.46s.46-.33.73-.46.57-.16.64-.45a.49.49,0,0,0-.46-.55c.09-.28.54-.19.46-.64.12-.54-.58-.27-.55-.73-.15-.57.48-.37.46-.82s-.46-.39-.55-.73a38.76,38.76,0,0,1,.27-5.1A20.11,20.11,0,0,1,54,56.12c.21.13,0,.63.09.91v1c0,.29-.16.32-.09.64,0,1.26.23,2.39.18,3.73.36,1.58.29,3.59.64,5.19.07.47-.13.66-.09,1.09a.72.72,0,0,0,.73.55c.91-.07.49-1.82.46-2.55a6,6,0,0,1,3.83,1.37,3.45,3.45,0,0,1,.36,1C59.88,69.08,60,69.46,59.89,69.51Z"/></g><g id="_3009-wine-glass-2" data-name="3009-wine-glass"><path class="cls-3" d="M569.05,53.34c0-.23-.2-.26-.23-.45-.27-.16-.41-.45-.68-.61s-.57-.29-.76-.53a3.31,3.31,0,0,1-.91-.38,17.18,17.18,0,0,1-2.42-.61c0-.82-.15-1.64-.15-2.5,0-1.46.14-3,0-4.32A6,6,0,0,1,565,42a16.41,16.41,0,0,1,1.82-1.36,12.87,12.87,0,0,0,3.94-8.56c0-1.49,0-3-.08-4.39-.11-.62-.1-1.37-.15-2-.13-.36,0-.54,0-1s-.17-.58-.15-1A4.41,4.41,0,0,0,568.83,22a24.94,24.94,0,0,0-6.59-.45c-.1,0-.1.1-.23.08-2.34,0-3.86.79-5.83,1.14a9.12,9.12,0,0,0-1.06.68,3,3,0,0,0-1,.76c0,.19-.14.27-.23.38a12.35,12.35,0,0,0-.3,4.92,25.3,25.3,0,0,0,.53,5,14.81,14.81,0,0,0,1.36,4.17,6.92,6.92,0,0,0,2.65,3,6.57,6.57,0,0,0,2,.61A4.16,4.16,0,0,1,561.18,44c.17.71,0,1.77.15,2.5s-.08,1.72-.08,2.57a7.15,7.15,0,0,1,0,1.89c-.19.16-.62.09-.83.23a2.17,2.17,0,0,0-.83.23c-.55.18-1.06.4-1.59.61-.18.28-.62.29-.76.61-.36.12-.53.43-.76.68a2.61,2.61,0,0,0-.76,2c.13.08.08.32.15.45a3.34,3.34,0,0,1,.3.38c.32.11.47.39.83.45.15.28.58.28.83.45a4.41,4.41,0,0,0,1,.3,3.82,3.82,0,0,0,1,.3,4.38,4.38,0,0,0,1.14.15c.77.12,1.67.09,2.5.15a11.17,11.17,0,0,0,4.39-.91,6.24,6.24,0,0,0,.83-.83c.11-.17.26-.29.38-.45s.17-.44.3-.61a7,7,0,0,0-.08-1.44C569.13,53.67,569.23,53.37,569.05,53.34Zm-4.62-13.4c.14-.09.49-.19.61-.08C565,40.27,564.62,40.12,564.43,39.94Zm1.44-1.82c0-.09.08,0,.08,0S565.87,38.16,565.87,38.12Zm1.67-1c.06.21-.15.15-.15.3A6.51,6.51,0,0,1,567,38c-.13-.1-.3-.16-.3-.38a2,2,0,0,0,.83-.68C567.81,36.84,567.62,37.1,567.54,37.13Zm1.14-2.57c-.19,0-.23-.12-.38-.15,0-.25.13-.38.08-.68a1.24,1.24,0,0,1,.53-.15C568.86,33.94,568.74,34.22,568.68,34.56ZM569,30v-.15c.15,0,.24,0,.23.15Zm-13.1-5.3c.18-.19.44-.32.61-.53l.76-.38c.22-.13.57-.14.76-.3a30.94,30.94,0,0,1,3.86-.53h2c.13,0,.2-.13.23,0h2.27c1.31.17,2.82.16,3.79.68-.07.44-.6.41-.76.76s-.55.46-.76.76a8.94,8.94,0,0,1-2.2.83c-.3.2-.86.15-1.21.3a13.43,13.43,0,0,0-1.36.15,43.67,43.67,0,0,1-6.82-.15c-.27-.19-.65-.26-.91-.45s-.73-.18-.83-.53S555.71,24.93,555.88,24.71Zm.38,9.24c0-.09.08,0,.08,0S556.26,34,556.26,34Zm.15-.15c-.19-.15,0-.51.08-.68a5,5,0,0,0,.15-.68,3.19,3.19,0,0,0,.23-.68,5.34,5.34,0,0,0,.23-.61c0-.1.13-.12.15-.23s.13.07.23.08a6.05,6.05,0,0,1-.61,1.36C556.79,32.93,556.51,33.27,556.41,33.8Zm.53,3.79c.09.49-.23.17,0,0C556.86,37.19,557.17,37.5,556.94,37.59Zm1.36-5a10.21,10.21,0,0,0-.45,1.44c-.16,0,0,.33-.15.38,0,.18-.14.17-.08.38-.13.17-.07.53-.23.68-.06.57-.23,1-.3,1.59-.23-.19.06-.49,0-.76a1.71,1.71,0,0,0,.15-.76c.16-.14,0-.56.23-.68a1.72,1.72,0,0,1,.15-.68c.15-1,.48-1.85.68-2.8a.36.36,0,0,0,.08-.23c.24,0,.27.14.53.08,0,.33-.24.41-.3.68S558.43,32.39,558.3,32.59Zm.38,7.42a1.19,1.19,0,0,0,.53-.83c.24,0,.13.38.15.61.11.47.59.57.68,1.06A8.11,8.11,0,0,1,558.68,40Zm1.06-3.56a5,5,0,0,1,.15-.68,1.22,1.22,0,0,1-.15,1.21C559.48,37,559.7,36.62,559.74,36.45Zm.23-4.7c0,.09-.11,0,0,0,0-.21-.11-.56.23-.45C560.22,31.56,560.06,31.63,560,31.76Zm.53,1.82c.13,0,.17.13.15.3A.33.33,0,0,1,560.5,33.58ZM555,29c-.18-.55-.1-1.36-.23-2,.43.2.8.46,1.21.68a15.82,15.82,0,0,0,5,.38h2.27A12,12,0,0,0,569,26.61c0-.08.15-.05.15-.15s.07,0,.08.08c0,.66,0,1.54,0,2-.31.07-.62.14-.91.23-.06.22-.23.33-.38.45-.33,2.12-.68,4.22-1.14,6.21a7.52,7.52,0,0,1-.76,1.44,2.06,2.06,0,0,1-.45.61c-.18.11-.49.36-.68.23-.43,0-.23-.67-.45-.91,0-.16.09-.5-.08-.53.09-.24.09-.57.23-.76-.06-.21-.09-.47-.15-.68.17-.14,0-.59.15-.76-.05-.33.13-.43.08-.76.13-.15.08-.47.15-.68a5,5,0,0,0,.15-.68c.08-.75.9-1.84.3-2.65-.74-.14-1.39.34-2,.53A22.1,22.1,0,0,1,555,29Zm8.18,9.31c.12,0,.15.5-.08.38C563.12,38.47,563.29,38.48,563.22,38.27Zm-1.82-6.13a1.37,1.37,0,0,1,.3.68C561.24,33,561.45,32.42,561.41,32.14Zm6.36,22.8a.38.38,0,0,0-.23.23l-.61.3c-.45.15-1,.24-1.44.38a2.51,2.51,0,0,0-.91.08h-2.35a15.48,15.48,0,0,1-3.79-.83.21.21,0,0,0-.23-.15c-.13-.33-.49-.42-.45-.91.2-.63.89-.78,1.51-1a14.24,14.24,0,0,1,2-.53c-.05.75.05,1.67-.38,2,.18.28.61.3,1,.38s.38-.27.61-.38.47-.13.53-.38a.41.41,0,0,0-.38-.45c.07-.23.45-.15.38-.53.1-.45-.48-.23-.45-.61-.12-.48.4-.31.38-.68s-.38-.32-.45-.61a32.22,32.22,0,0,1,.23-4.24,16.72,16.72,0,0,1,.15-3.26c.17.1,0,.53.08.76v.83c0,.24-.14.27-.08.53,0,1,.19,2,.15,3.1.3,1.31.24,3,.53,4.32.06.39-.11.55-.08.91a.6.6,0,0,0,.61.45c.76-.06.41-1.51.38-2.12a5,5,0,0,1,3.18,1.14,2.86,2.86,0,0,1,.3.83C567.76,54.57,567.9,54.89,567.77,54.93Z"/></g><g id="_3101-wine" data-name="3101-wine"><path class="cls-3" d="M509.61,44c.42-4.23.22-9.07.27-13.68a13.1,13.1,0,0,0-2.15-6.57c-.68-.8-1.34-1.61-2-2.41a6.5,6.5,0,0,1-2-2.41c-.06-3,.19-6.27-.27-8.85a7.21,7.21,0,0,1-1.07-1.21c-.43,0-.59-.3-1.07-.27-.25-.2-.89,0-1.07-.27a1.49,1.49,0,0,0,.27-1.07c.77-.26,2-.07,2.82-.27,0,.49-.11,1.19.13,1.47.06.47-.22,1.29.4,1.21.85,0,1.16-.63,1.21-1.47a3.23,3.23,0,0,0-.4-2.15c-.53-.54-1.85-.3-2.41-.8-.07-1.8.89-3.19.54-4.83a8,8,0,0,0-.94-.4,24.68,24.68,0,0,1-3.22.27,5.62,5.62,0,0,1-1.47.54c-.35.32-.86.48-1.21.8-.07,1.59.09,3,.13,4.43-.12.39-.2.15-.54.13-.2.16-.6.12-.54.54a4.81,4.81,0,0,0-.54,2.41,3.87,3.87,0,0,0,.8.81.76.76,0,0,1,1.07.4c0,2.73,0,5.33-.13,7.91-1.09,1.68-1.81,3.73-3.22,5.09a27.17,27.17,0,0,0-2.41,6.84A68.06,68.06,0,0,0,490,39c.15.84.19,1.78.27,2.68A29.8,29.8,0,0,1,490,45c0,3-.1,6.18.13,9a66.91,66.91,0,0,0,.67,8.58c2,2.61,5.69,3.51,10.19,3.62a26.75,26.75,0,0,0,4.42-.67c.74-.11,1.25-.44,2-.54.15-.3.66-.24.8-.54.44,0,.72-.17.8-.54.46-.08.08-1,.4-1.21.08-.24-.16-.79.13-.8-.08-.28-.33-.38-.27-.8.37-2.49-.09-5.82.27-8.31C509.51,49.85,510,46.81,509.61,44ZM499.15,3.22a3.52,3.52,0,0,1,.4-1.07h1.07a18.75,18.75,0,0,0-.4,3.22h-.54c-.5,0-.24-.84-.54-1.07Zm.13,3.89c0,.54.45,1.16.27,1.47h-1.07a4.76,4.76,0,0,0-.13-1.34C498.52,7.06,498.93,7.11,499.29,7.11Zm-6.7,24c.3-.2.89-.09,1.07-.4a21.6,21.6,0,0,0,2.28-2.15,11.47,11.47,0,0,0,1.34-1.47,1.56,1.56,0,0,0,.4-1.34c-.86-.29-1.58.63-2.41.81,0,.16-.19.08,0,0,1-1.15,2.65-1.73,3.22-3.35a.66.66,0,0,0-.27-.67c0-.32-.64-.08-.54-.54.71-.34,1.05.45,1.88.4.6-.11,1.07-.35,1.21-.94,0-.79-.76-.76-1.07-1.21a2.06,2.06,0,0,1-1.34-.94,62.82,62.82,0,0,0,0-8.85,16,16,0,0,0,3.49-.27,3.86,3.86,0,0,0-.13,1.47c.28,2.31.06,5.12.13,7.64.14.44.14,1,.4,1.34s.69.57,1.21.67a27,27,0,0,0,2.41,3.62,10.45,10.45,0,0,1,1.74,4.42V32c-2.4,1.67-6.64,1.49-10.73,1.47,0-.45.67-.74.27-1.21a.68.68,0,0,0-.4-.4c-.73-.15-.88.28-1.21.54s-.16,1.09-.94.94c-.25,0-.28-.1-.13-.27a.68.68,0,0,0,.4-.4c.21-.32.58-.49.8-.8A3,3,0,0,0,497,30c-.07-.33-.33-.48-.54-.67-1.6.28-2.27,1.48-3.35,2.28a6.54,6.54,0,0,0-.54,1.07C492.24,32.37,492.77,31.75,492.58,31.11ZM495.93,63c-.78,0-1.09-.43-1.74-.54-.35-.32-1.14-.2-1.07-.94.46.19.9.45,1.34.67a7.74,7.74,0,0,1,1.47.8C496.65,62.87,496.09,63.42,495.93,63Zm11.4-.67a26.67,26.67,0,0,1-8.58,1.34c-.3-.37.6-.4.4-1.07-.16-.51-.7-.64-1.21-.8a10.07,10.07,0,0,0-1.47-.54c-.81-.53-1.84-.84-2.68-1.34,0-.27-.36-.26-.4-.54-.16,0-.08-.2,0,0,1.38.5,2.34,1.41,4.29,1.34.41-.22.93-.32.94-.94s-.64-.79-1.07-1.07c-.74,0-1.11-.41-1.88-.4a4.48,4.48,0,0,0-1.61-.54c-.38-.38-1.24-.28-1.34-.94.54-.14,1.33.52,2,.67a5,5,0,0,0,2.41.54c.39-.1.58-.41.8-.67-.21-1.31-1.62-1.42-2.68-1.88a7.82,7.82,0,0,0-1.74-.54,1.1,1.1,0,0,0-.8-.27c-.21-.19-.12-.69-.13-1.07,1,.27,2.57,1.34,3.35.27,0-1-1-1-1.61-1.34a8.8,8.8,0,0,1-1.21-.27c-.52,0-.63-.44-.54-1.07,1,.33,1.57,1,2.82,1.07a1.35,1.35,0,0,0,1.07-.94,16.32,16.32,0,0,0,2.55.54h2.68a13.94,13.94,0,0,0,3.08-.67,4.25,4.25,0,0,0,1.34-.54c.55,0,.93-.68,1.34-.4A85.7,85.7,0,0,0,507.33,62.34Zm-14.88-12.6c.41-.5.45.41,0,0Zm15.15-2.41a15.08,15.08,0,0,1-5.5,2.28,13.82,13.82,0,0,1-9.65-2.68c.12-4.28-.7-7.75-.13-11.8v-.4a40.18,40.18,0,0,0,11.53.94c.35,0,.61-.23.94-.13a18.46,18.46,0,0,0,2.68-.81C507.24,39.13,507.92,43.27,507.6,47.33Zm-8-9.39c.32.08,1-.17,1.07.13-.05.35-.4.4-.4.8.43.37,1,0,1.21-.27a2.51,2.51,0,0,0-.13-1.07c-.24-.25-.82-.16-.94-.54s.25-.29.13-.67c-.72-.69-1.64.18-1.48,1.21A2.3,2.3,0,0,1,499.55,37.94Zm-.67,2.28a5.86,5.86,0,0,1-.54-.67c-1.43-.22-1.66.75-1.88,1.74.16,0,.15.21.13.4a.68.68,0,0,1,.4.4,2.29,2.29,0,0,0,1.34-.13A2.15,2.15,0,0,0,498.88,40.22Zm3.75-.4c-.34.57-.41,1.75.13,2.14a1.39,1.39,0,0,0,1.47-2.28A1.92,1.92,0,0,0,502.64,39.82Zm-2.82,1.34c.42,1.66,2.55.92,2-.8A1.11,1.11,0,0,0,499.82,41.16Zm.27,1.47c-.93-.63-2,.13-1.74,1.47.38.2.53.63,1.21.54C500.34,44.35,500.42,43.41,500.09,42.63Zm2.95.67c-.64-.78-1.83-.27-1.47,1.07.32,0,.25.47.67.4.63,0,.81-.44.94-.94C503.13,43.66,503,43.59,503,43.31Zm-2.95,3.62c.4.14.39.68,1.07.54.17,0,.19-.17.4-.13a2.41,2.41,0,0,0,.27-1.61C501.15,44.85,499.65,45.47,500.09,46.93Z"/></g><g id="_2401-cake-stand" data-name="2401-cake-stand"><path class="cls-3" d="M361,23a15.24,15.24,0,0,0-2.67-2.84,7.9,7.9,0,0,0-3.95-1,20.33,20.33,0,0,0-4.16-1c-.27-.17-.15-.72-.43-.87,0-.46-.39-.55-.53-.87a3.35,3.35,0,0,0-1.81-.33c-.22.21-.67.19-.75.55-.38.08-.2.74-.64.76a37.65,37.65,0,0,0-4.91-.22c-.42-.67-.78-1.38-1.92-1.31-1,.13-1.05,1.18-1.92,1.42-1.77-.18-3.83.11-5.87,0-.24-.16-.2-.59-.43-.76a.89.89,0,0,0-.75-.44c-.8-.12-1.07.29-1.49.55a4.73,4.73,0,0,1-.53.44c-.1.26,0,.69-.43.66a44.11,44.11,0,0,0-5.34,1.31c-.45-.12-.63-.52-1.07-.66a3,3,0,0,0-1.49-.22c0,.13-.17.12-.32.11-.39.11-.53.48-.85.66-.17.38-.32.76-.75.87-1.08.13-2,.45-3,.66a24.34,24.34,0,0,0-3,2,7,7,0,0,0-.43,4.69,7.25,7.25,0,0,0,1,1c.21.11.46.19.53.44.26.06.55.09.53.44a26.74,26.74,0,0,1-1.39,5.57,3.87,3.87,0,0,0-2,1.42,15,15,0,0,1,.11,2.62A18.36,18.36,0,0,0,311.77,41,11.89,11.89,0,0,0,313.58,42a19.11,19.11,0,0,0,2.13.76,46.72,46.72,0,0,0,4.91,1c1.71.25,3.63.29,5.44.44,1.62.34,3.62.3,5.34.55,0,2.27,0,4.53.11,6.66-.15,1.34-.44,2.53-.64,3.82a7,7,0,0,0-.43,1.86,4.54,4.54,0,0,1-.53,1.75,5.71,5.71,0,0,0-1.71-.11A27.93,27.93,0,0,0,324,59.84a6.47,6.47,0,0,0-1.71,1c-.45.45-1.08.71-1.07,1.64.13,1.29,1.18,1.63,2,2.18a10797.1,10797.1,0,0,0,3,1.31c1.21.11,2.24.4,3.41.55,1.83.05,3.61.16,5.55.11a16.56,16.56,0,0,1,4.06-.33,11.83,11.83,0,0,0,3.95-1.09c1.18-.53,2.46-1,2.67-2.51V62a3.08,3.08,0,0,0-1.6-1.75A5.6,5.6,0,0,0,342.18,59c-.22-.17-.71-.08-1-.22a14.94,14.94,0,0,1-2.88-.11c-.56-3.39.06-7.23.21-10.59a22.53,22.53,0,0,1,.11-3.49c1.7-.26,3.79-.13,5.55-.33a22.2,22.2,0,0,0,2.56-.33c.58.08.83-.17,1.39-.11.34-.16,1,0,1.28-.22a33.9,33.9,0,0,0,9.5-2.29c.07-.22.28-.29.53-.33a4.88,4.88,0,0,1,.75-.76c.23-.27.4-.61.64-.87,0-.5.19-.89.21-1.42a5.73,5.73,0,0,0-.64-2.29c-.28-.08-.23-.5-.53-.55-.08-.31-.72-.07-.64-.55.11-1.93.17-3.9.32-5.79.37-.17.79-.14,1.07-.33s.33-.6.64-.76A7.75,7.75,0,0,0,361,23ZM313,38.88c-.47-.21-.63-.74-.64-1.42.17,0,.18.1.32.11C312.87,38,313.4,38.27,313,38.88ZM349.33,17.7a.9.9,0,0,1-.85,1.42C347.65,18.69,348.3,17.12,349.33,17.7Zm-8.64-.33c0,.44,0,.8-.32.87C339.36,18.21,340.09,16.66,340.69,17.37Zm-19.32,2.07c.43.46.45,1.65-.21,1.86a.92.92,0,0,1-1.07-.55C320,19.86,320.52,19.08,321.37,19.45Zm-6.62,20.2a2.38,2.38,0,0,1-.64-.22c-.08-.41.13-.52.11-.87H315A6,6,0,0,1,314.75,39.64Zm0-2.95c.19-2.75,1.16-4.71,1.17-7.64a4.62,4.62,0,0,1,1.71-.66c.62,2,1.74,3.46,4.59,3.17.23-.25.72-.32,1-.44,0,0,.06-.19.11-.22s.29,0,.43-.11.31-.38.53-.55c0,0,.16,0,.21,0s.07-.19.11-.22.16,0,.21,0,.06-.19.11-.22.23,0,.32,0,.16-.2.21-.22a10.66,10.66,0,0,1,1.39-.11c.21.29.06,1,.11,1.42.37,1.4,1.87,1.66,3.74,1.53a3.4,3.4,0,0,0,1.39-.76c.46.07.51.57,1,.66a5.61,5.61,0,0,0,1.49,0c.31-.19.68-.32.85-.66.39-.15.4-.68.85-.76h.53c1.38.33.46,3,1.28,3.93.18.44.76.46,1.07.76-.16.53,0,1.37-.21,1.86,0,.71,0,1.42.53,1.53,1-.3.36-2.26.53-3.38,2.24.28,2-1.85,1.92-3.71a2.08,2.08,0,0,0,1.07-.55c.32.27-.08.71,0,1.09v1.2c.09.31-.15.28-.11.55v3.06a4.35,4.35,0,0,0,.32,1.09,6.52,6.52,0,0,0-1.39.33,17,17,0,0,1-1.92,1c-.68-.14-.87-.78-1.39-1.09h-1.07c-1.38.37-2.3,1.22-4.16,1.09-.73-.13-.82-.91-1.6-1a2.84,2.84,0,0,0,.43-.87c-.07-1,.19-1.7.11-2.73-.09-.31.15-.28.11-.55,0-.75.17-1.77-.32-2.07-.4,0-.58.28-.53.76a4.64,4.64,0,0,0-.11,1.31c-.22.68-.16,1.66-.32,2.4v1.42c.12,0,.26.18.11.22-.34.19-1,.06-1.39.22s-.87.57-1.39.76-.5-.36-.75-.55-.55-.31-.75-.55c-1.21,0-2.39,0-3,.55-.53-.48-.65-1.38-1.39-1.64a2.93,2.93,0,0,0,.32-.87V34.95c-.09-.31.15-.28.11-.55V33.2c-.19-.42,0-1.29-.32-1.53-.14,0-.15-.14-.32-.11-.32.29-.13,1.11-.32,1.53a17.83,17.83,0,0,1-.21,2.73v1.31a6.71,6.71,0,0,0-2.67.76c-.38-.49-.43-1.31-.85-1.75a.47.47,0,0,1-.43-.22A6.48,6.48,0,0,0,316,36C315.58,36.23,315.22,36.52,314.75,36.7Zm2.35,1.64c-.21.08,0,.61-.21.65.05.34-.19.39-.11.76-.21,0,0,.5-.43.33-.43,0-.12-.68-.21-1V37.9a1.3,1.3,0,0,1,1-.22C317,38,317.33,38.1,317.1,38.33Zm21.88,24a1,1,0,0,0,.43-.44c.26-.6-.45-.85-.43-1.53a5,5,0,0,1,4.38,1.09c-.24.38-.48.74-.75,1.09-2.7.44-5,1.33-7.79,1.64h-4.06c-.3.09-.28-.15-.53-.11h-1.07a13.07,13.07,0,0,1-2.56-.44c-.59-.38-1.43-.51-1.71-1.2.09-.46.55-.53,1-.66a1.74,1.74,0,0,1,1.07-.44,7.89,7.89,0,0,1,2.35-.76,1.93,1.93,0,0,0-.11,1.42c.4.39,1.09.11,1.6,0,.83-.5.9-1.77,1.39-2.62.13-1.18.56-2,.64-3.27a3.41,3.41,0,0,1,.64-1c0-.35-.28-.36-.21-.76a4.8,4.8,0,0,1,.32-1.42c0-.33.37-.27.64-.33.08-.25.41-.24.43-.55a.84.84,0,0,0-.43-.87c-.42,0-.64-.21-.53-.76s.67-.12.85-.33.5-.29.53-.66-.36-.51-.53-.76c-.4,0-1,.11-1-.33-.1-.61.76-.24,1-.55a.88.88,0,0,0,1-.55c0-1-1.76-.16-2-.87-.09-.41.5-.14.75-.22H335a.68.68,0,0,1,.53-.11c.27-.16.6-.26.64-.66.12,0,.19,0,.21.11-.11,3.93-.61,7.45-.53,11.57a26.74,26.74,0,0,1,.75,3.06,12.72,12.72,0,0,0,.85,1.64C338,62,338.2,62.46,339,62.35Zm-3-17.69h.32a1,1,0,0,1,.11.66A1,1,0,0,1,336,44.67Zm20.81-5.13a81.25,81.25,0,0,1-9.39,1.64c-.33.2-.74.33-1.07.55-1.73.19-3.55.29-5.34.44a72.4,72.4,0,0,0-8.33.22c-2-.17-4-.29-5.87-.55-2.06-.07-3.68-.6-5.66-.76h-1.49c-.15-.17-.43-.22-.32-.66-.19-.1-.18-.4-.43-.44-.71-.22-.37.64-1,.55-.26-.3-.1-.7-.21-1.31.36,0,.46.19.64.33.4-.08.51.13.85.11,1-.09,1.24-.92,2.35-.87.52,0,.43.73.75,1,0,.57.37.71.64,1,1.58.27,1.64-1,3.1-.87.82.14.85,1.1,1.6,1.31h.85c.87-.17,1.07-1,2-1.09.53-.07.64.29.85.55a5.59,5.59,0,0,1,.75.65,7,7,0,0,0,2.45.22c.25-.15.61-.18.85-.33a3.8,3.8,0,0,0,1.07-.76c.35-.22.52-.63,1.07-.66,1,.06,1,1.24,1.92,1.42,1.41.06,1.94-.78,2.77-1.31a.68.68,0,0,0,.53-.11c.17,0,.41.05.43-.11.66.16,1,.69,1.71.76,1.11-.1,1.41-1,2.13-1.53,1.54-.19,2.33.38,3.63.44,1.45-.12,1.61-1.56,2.88-1.86,1-.07.93.94,1.81,1a2,2,0,0,0,1.17-.22c.35-.11.33-.6.85-.55A4.38,4.38,0,0,1,356.8,39.53Zm-13-8.62a1.47,1.47,0,0,1,1.71.44c0,.43-.24.63-.32,1a40.72,40.72,0,0,0-.11,4.26c.16.35.14.87.53,1,.72-.07.58-1.45.43-2.07a23.3,23.3,0,0,0-.11-3.38,4.08,4.08,0,0,0,2.35.11c.38-.15.61-.47,1-.66a1,1,0,0,1,.43-.44c0-.1.29-.48.32-.22a57.13,57.13,0,0,0-.21,6.66,5.45,5.45,0,0,0-3.42.11c-.6.22-.78.87-1.39,1.09-.52,0-.59-.56-1.28-.44,0-.35.28-.37.21-.76V32.11C344,31.61,343.54,31.24,343.78,30.91Zm7,.76c.09-.38-.2-.46,0-.66.55.05,1.32-.12,1.71.11-.05.6,0,1.43-.11,2.18a8.58,8.58,0,0,0,0,1.42c0,.36-.1.89.32,1,.68,0,.28-1,.53-1.42V30.91a5.61,5.61,0,0,0,2.67-2.4,2,2,0,0,1,1.07.33c-.15,1.12-.14,2.41-.32,3.49v1.2c-.26,1.16.06,2.9-.85,3.38-.56-.19-.74-.77-1.28-1a3.61,3.61,0,0,0-1.92.22c-.51.06-.45.71-1,.76-.24.3-.59.48-.85.76a3.7,3.7,0,0,1-.11-1.53A34.74,34.74,0,0,1,350.83,31.67Zm7.9-5.35c-.67.22-1.74,0-2.45.22a1.06,1.06,0,0,0-.75.44,1.62,1.62,0,0,0-.85.22,2.91,2.91,0,0,0-1.07,1.09,4.53,4.53,0,0,1-1.28.76c-.66,0-.93-.43-1.49-.55s-.57.29-1.07.22c-.46.3-.72.79-1.17,1.09s-.58.93-1.28,1-.75-.47-1.07-.76c-.22-.06-.34-.23-.53-.33,0-.26-.47-.11-.53-.33a5.5,5.5,0,0,0-1.71.22,8.58,8.58,0,0,0-2.67,1.86c-.21.8,0,2.05-.43,2.62A2.61,2.61,0,0,1,339.3,34c-.34-.38-.18-1.28-.21-2a6.76,6.76,0,0,0-.75-2c-.28,0-.32-.33-.64-.33,0-.26-.47-.11-.53-.33a5.73,5.73,0,0,0-1.81.22c-.67.3-.79,1.16-1.6,1.31-.78-.11-.7-1.11-1.6-1.09s-1,.83-1.71,1a2.23,2.23,0,0,1-1.92-.22c-.19-.58,0-.88-.11-1.53s-.7-.81-1.17-1.09a7,7,0,0,0-3.2.44c-.7.33-1,1-1.6,1.31-.61,0-.92-.23-1.49-.22-.74-.73-.87-2.09-1.49-2.95a2.25,2.25,0,0,0-1-.11.61.61,0,0,0-.64-.33c-1-.09-1.51.42-2.45.44-.36,0-.18-.47-.32-.66a4.86,4.86,0,0,0-.43-.55c0-.34.25-.62,0-.87.08-.52-.51-.36-.53-.76.88-1.1,2.49-1.46,4.06-1.86.44,0,.37.56.64.76s.55.38.75.66a5.29,5.29,0,0,0,1.49.11,2.67,2.67,0,0,0,1.81-2.84c1.67-.4,3.5-.64,5.23-1,.56,0,.62.53,1.17.55h.85c.69-.06.81-.7,1.39-.87,2,0,3.88-.18,6-.11.31.78.53,1.64,1.39,1.86a2,2,0,0,0,1.17-.22,4.1,4.1,0,0,0,1.28-1.64,30.41,30.41,0,0,1,4.7.22,3,3,0,0,0,1,1.42c.15,0,.3,0,.32.11a2.84,2.84,0,0,0,2.24-.87c.89.22,1.87.34,2.77.55a21.43,21.43,0,0,1,2.45,0c0,.13.24.12.32.22s.17.67.43.87c.53.19.87.57,1.39.76C357.78,23.43,358.88,24.24,358.72,26.32Zm-5.55-5.13c-.07,0-.13,0-.11.11h-.32c-.15.21-.52.35-.75.66-.08.11-.13.4-.21.55s-.09,0-.11,0,0,.18,0,.22c-.11.21-.2.19-.21.44a6.46,6.46,0,0,0-.11,1.31,4.59,4.59,0,0,0,.21,1s.19.07.21.11,0,.24.11.33.35.24.43.44.44.06.53.22a3.07,3.07,0,0,0,2.45-1c.27-.26.59-.48.64-.87a3.09,3.09,0,0,0-.64-2.95A3.31,3.31,0,0,0,353.17,21.19Zm.53,2.95c-.39,0-.49-.37-.64-.66a.9.9,0,0,1,1.71-.55C354.8,23.73,354.44,24.13,353.71,24.14Zm-9-1.53h-1.39c-.07,0-.13,0-.11.11H343a3.36,3.36,0,0,0-2,2.84c.13,1.18,1,1.63,1.71,2.18h1.49c.39-.26.92-.37,1.17-.76a1.9,1.9,0,0,0,.85-1.2,3.29,3.29,0,0,0,0-1.75A3.6,3.6,0,0,0,344.74,22.61Zm-.32,2.84c-.74.15-1.07-.61-.75-1.2h.53a1.48,1.48,0,0,1,.53.65C344.68,25.13,344.52,25.26,344.42,25.45Zm-15.16-2.29c-.11-.09-.24-.29-.32-.33a2.86,2.86,0,0,0-1.39-.11,2.65,2.65,0,0,0-1.92,1.75,3.3,3.3,0,0,0,.43,1.86,2.79,2.79,0,0,0,2,.55,4.39,4.39,0,0,0,1.39-1.09c.07-.11,0-.2.11-.33s.2-.15.21-.22a3.87,3.87,0,0,0-.21-1.86A1.58,1.58,0,0,1,329.27,23.16Zm-.43,1.75c-.16.17-.55.1-.85.11a1.87,1.87,0,0,0-.32-.44.74.74,0,0,1,1-.87l.32.33A1.31,1.31,0,0,1,328.84,24.9Zm5.55-1.64a2.84,2.84,0,0,0-1.6,1.53c-.13,1.59.17,2.74,1.07,3.28.33-.08.39.11.64.11.71.07,1-.33,1.49-.44.62-.78,1.43-1.37,1.39-2.84-.12-.61-.55-.89-.85-1.31A4.9,4.9,0,0,0,334.39,23.27ZM335.67,26a.87.87,0,0,1,.11-1.31.68.68,0,0,1,.75.55C336.5,25.76,336.29,26.08,335.67,26ZM317,29.16c0,.14-.19.1-.21.22-.26.14-.21.58-.43.76-.06.85-.21,1.6-.32,2.4s-.4,2,.53,2c.51,0,.42-.59.64-.87.06-1.43.22-2.76.32-4.15C317.28,29.46,317.33,29.11,317,29.16Zm8.64,8.41c.52-.19.38-1.07.53-1.64V34.62c0-.26.19-.24.11-.55-.08-.78.16-1.22.11-2a2.08,2.08,0,0,0,.11-.87c0-.35.11-.84-.32-.76H326c0,.16-.18.18-.21.33a30.93,30.93,0,0,0-.64,6C325.32,37,325.14,37.65,325.64,37.57ZM355,35.71c.61-.24.43-1.47.43-2.4s.24-2.2-.43-2.4h-.21c0,.16-.18.18-.21.33-.07.4.14,1.09-.11,1.31-.07.37.14,1-.11,1.2C354.38,34.59,354.16,35.69,355,35.71Zm-35.86.44c0-.21.35-.08.32-.33.22,0,0-.48.21-.55V33.75c0-.26.19-.24.11-.55-.08-.81.24-1.39-.21-1.75h-.32c0,.14-.19.1-.21.22a7.28,7.28,0,0,0-.32,2.84C318.5,35.07,318.53,36.07,319.13,36.15Zm15.69,2.51c.61,0,.47-.83.64-1.31V33.64c-.24,0,0-.58-.21-.65s-.18-.18-.32-.22c0,.14-.14.15-.11.33s-.12.24-.11.44C334.89,35.3,334.29,37.22,334.82,38.66Zm13-1.64c.48-.09.28-.88.32-1.42-.2-.38,0-1.12-.21-1.53s.09-1.26-.43-1.31h-.21c0,.14-.14.15-.11.33.07.44-.1.62-.11,1v1.09C347.32,35.81,347,37,347.84,37Zm-19.74.44c.9.08.53-1.13.75-1.75-.09-.89.22-2.19-.21-2.73h-.32a1.86,1.86,0,0,1-.32.44,1.83,1.83,0,0,1-.11.76C328,35.22,327.41,36.83,328.09,37.46Z"/></g><g id="_1607-roasted-chicken" data-name="1607-roasted-chicken"><path class="cls-3" d="M217.2,26.27c.1.28.57-.06.6-.24.3-.1.38-.42.6-.6,0-.14,0-.34.12-.36V23.74c-.44-1.08-1.26-1.8-1.69-2.89V19.28c.31-.33.51-.77.84-1.09.11-.53.76-.53.6-1.33-.45-.33-1,.06-1.57,0a3.87,3.87,0,0,0-1.93,3.74c.24,1.81,1.36,2.74,2,4.1C217,25.23,216.54,26.29,217.2,26.27Zm-11.09-.84c-.09.73-.76,1.05-.48,1.81.58.53,1.27,0,1.57-.36s.32-.68.48-.84a4.26,4.26,0,0,1,.12-1.21,1,1,0,0,1-.12-.72c-.36-.44-.52-1.09-1-1.45-.26-.55-.72-.89-.84-1.57s.22-1,.24-1.57a4.79,4.79,0,0,1,1-1c.19-.5,1-.39.84-1.21-1-.42-1.71.36-2.41.6a4.78,4.78,0,0,0-1.45,3.74C204.35,23.33,205.87,23.73,206.11,25.43Zm5.55,1.33c0,.51-.35.61-.48,1a1.13,1.13,0,0,0,.12,1.21c.09,0,.24,0,.24.12,1.19.07,1.37-.88,1.81-1.57V26.15c-.33-.31-.41-.88-.84-1.08-.23-.46-.79-.58-.84-1.21s.19-.62.12-1.09a2.31,2.31,0,0,0,.48-.72c.23-.17.53-.27.48-.72a1.07,1.07,0,0,0-1.21-.24,9,9,0,0,0-1.45,2.17v1.33a.53.53,0,0,1,.24.48C210.71,25.73,211.54,26,211.65,26.75Zm32.19,14c-.32-.29-.3-.9-.72-1.08-.21-.43-.69-.6-1-1-.09,0-.24,0-.24-.12-.34,0-.5-.22-.84-.24-.23-.18-.8,0-1-.24.13-2.22-.64-3.54-2.89-3.38-1.7.41-2.7,2.09-2.17,4.34-.72.4-1.54.72-2.29,1.08a16.92,16.92,0,0,1-2.41,1h-1.45c-.21-.47-.89-.47-1-1.09.49-.47,1.07-.85,1.57-1.33s.74-1.19,1.45-1.45a2.08,2.08,0,0,0,2.89-.84,3.08,3.08,0,0,0,.6-2,8.37,8.37,0,0,1-.36-1c-.32-.17-.46-.51-.84-.6s-.82-.14-1.08-.36a3.17,3.17,0,0,0-1.08-2,4,4,0,0,0-1.69-.36,3.06,3.06,0,0,1-1,.24c-.15.33-.62.35-.72.72-.34.14-.37.59-.6.84,0,.51-.12,1.24.12,1.57a10.83,10.83,0,0,0,.48,1.21c-.7.55-1.49,1-2.17,1.57-2.53-4.41-8.51-5.92-15.31-5.67-1.09.37-2.23.67-3.25,1.08-.06,0-.17.21-.24.24s-.36.07-.48.12-.21.06-.36.12-.24.19-.36.24a42.06,42.06,0,0,0-7.11,3.86,24.63,24.63,0,0,0-8.32,9.16c-.09,1.2-.68,1.89-.84,3a3.13,3.13,0,0,0-.36,1.57c-.27.05,0,.64-.24.72.1.42-.18.46-.12.84a26.4,26.4,0,0,0,.24,4.94c-.66.3-1.26.67-1.93,1a15.48,15.48,0,0,0-1.45,1.69c-.06.11-.2.16-.24.24-.13.25-.12.54-.24.84,0,.06-.21.17-.24.24a3.54,3.54,0,0,0-.12.48,5.75,5.75,0,0,0-.24,1.93c0,.16.17.23.12.48a7.89,7.89,0,0,0,4,3.74,20.85,20.85,0,0,0,5.91,1.93c4.3.92,9.36,1.09,14.34,1.33,5.26,0,10.53.09,14.95-.72a66,66,0,0,0,6.51-1.33c2-.65,3.59-1.64,5.42-2.41a7.83,7.83,0,0,1,1.08-.84c.13-.1.24-.28.36-.36s.33,0,.48-.12.23-.28.36-.36c1.38-.88,2.7-1.74,2.89-3.74,0-.56-.24-.8-.24-1.33a7.89,7.89,0,0,1-.84-1.21,9.2,9.2,0,0,0-2.17-1.33,3.46,3.46,0,0,0-1.33-.36c-.25-.35-1.11-.09-1.45-.36a9.94,9.94,0,0,0,.84-1.93c-.1-.42.18-.46.12-.84a4.57,4.57,0,0,0-.48-2.41c-.08-.89-.7-1.23-1-1.93a15.59,15.59,0,0,0-1.57-1.21c-.38-.54-.94-.9-1.21-1.57.23-.61.77-.92,1.21-1.33a19.36,19.36,0,0,1,5.67-.84,6.31,6.31,0,0,0,1.69.72,3.69,3.69,0,0,0,3.74-1.81A7.5,7.5,0,0,0,243.84,40.74Zm-14.1,1.93c-.07.21.15.71-.12.72s-.33.24-.36.48v1.45c-.43,0-.3-.33-.72-.12a4.59,4.59,0,0,0-.12,1.33c-2,2.85-4.27,5.45-7.59,7-.26-.5,0-1.53-.84-1.45s-.14,1.31-.48,1.81c-1,0-.25-1.84-1.21-1.93-.54-.06-.34.63-.6.84.07.55-.21.75-.12,1.33h-1c-.18-.23,0-.8-.24-1-.07-.29.15-.87-.12-1,0-.75-.05-1.39-.6-1.57-.61.11-.62.82-.72,1.45-.34.35-.09,1.27-.36,1.69-.69-.16-.42-1.27-.48-2s.22-1.82-.36-2c-.62,0-.28,1-.6,1.33.09.78-.18,1.19-.12,1.93-1.22,0-.75-1.74-.84-2.89s.91-2.36.12-3c-.79,0-1,.62-1.21,1.21a7,7,0,0,0-.48,1.81c-.56-.29-.38-1.31-.6-1.93V46.76a9.63,9.63,0,0,0,.36-1.81c.36-.4.75-.78,1.09-1.21a14.12,14.12,0,0,1,4.1-1.45c1.39-.06,2.71-.18,4.22-.12s3,.19,4.34.48Zm-1.93-6.39c.33-.51,1.14-.55,1.33-1.21-.19-1-1-1.44-.72-2.89.49-.36,1-.91,1.81-.6a19.76,19.76,0,0,1,1,2.17c.63,0,1.11-.31,1.57.12.07.06,0,.11.12.12s.13.22.24.48a1.76,1.76,0,0,1-.12,1.09c-.17.24-.61.41-.72.6-.66-.06-1.58.13-2-.12-.76.24-1.07.94-1.57,1.45s-.86,1.07-1.57,1.33a5.93,5.93,0,0,0-.84-1.45A4.39,4.39,0,0,1,227.81,36.28Zm9.76,22.3c.31.62,1.13.72,1.08,1.69.12.68-.46.67-.6,1.08-.4.2-.65.55-1.08.72a22.11,22.11,0,0,1-2.29,1.33c-.56,0-.8.41-1.21.6s-.78.42-1.33.48a18.06,18.06,0,0,0-2.53,1.09,41.54,41.54,0,0,1-5.79,1.33,33.49,33.49,0,0,1-6.27,1H205.75c-.42.1-.46-.18-.84-.12H203.1c-3.4-.29-7-.42-9.89-1.21a19.9,19.9,0,0,1-4.1-1.45,7.17,7.17,0,0,1-1.57-1.21c-.32-.13-.41-.48-.72-.6-.11-.22-.6-.67-.24-1,0-.56.22.09.36.12,0,.28.37.27.48.48.73,0,.85.52,1.45.6h1.21c.61-.28,1.19-.58,1.21-1.45,0-1.12-.92-1.41-1.81-1.69a4.8,4.8,0,0,0-2.41.48,4.26,4.26,0,0,1,2.65-2.17c0,.56.52.68.6,1.21a2.8,2.8,0,0,1,.84,1.09,18.71,18.71,0,0,0,3.38,2.65,4.68,4.68,0,0,1,1.57.48h1.21a4.89,4.89,0,0,0,1.33.72c-.08.29-.74,0-.84.24a.69.69,0,0,0-.36.72c0,.7.45.91,1.21.84.25,0,.24-.33.48-.36a1.89,1.89,0,0,0-.24-1.21c-.15,0-.07-.17,0,0,.37,0,.47.25.72.36s.56.16.72.36a4.57,4.57,0,0,1,1.81.12c1.07-.45,1.31-1.74,1.57-3,.43-.07.58.14.84.24a1.6,1.6,0,0,1,.84.24c1.35.05,2.56.26,4,.24.48,0,.72.24,1.21.24h.84a36.06,36.06,0,0,0,8.08-2.17c.41.11.88.16,1.33.24,4,.18,7.06-.26,9-1.93a8.27,8.27,0,0,0,1.33-1.33c.58-.34.83-1,1.33-1.45A16.32,16.32,0,0,1,237.57,58.58Zm-49.3,3.13c0-.1,0-.11.12-.12.65,0,1.5-.13,1.57.48A1.57,1.57,0,0,1,188.27,61.71ZM232.39,49.9a11.65,11.65,0,0,1,1,1.81c.36,2.85-1.52,3.47-3.38,4.1-.13-.48-.17-1-.84-1,0-.67-.06-1.22-.72-1.21s-.48,1-.6,1.57a3.5,3.5,0,0,0-.24,1.57.68.68,0,0,0,1,.24,1.89,1.89,0,0,0,.24,1.21c0,.46-.62.34-.72.72-.43,0-.54.34-1,.36a7.17,7.17,0,0,1-2,.6,1.26,1.26,0,0,0-.48-1.33c-.65-.17-.64.33-1.08.36,0-.38-.08-.72-.48-.72-1.12,0-1,1.29-1.57,1.81-.53,0,.06-.65,0-1,.24-.27.1-.91,0-1.21-.19,0-.21-.11-.36-.12-.72-.08-.81.48-1.08.84a2.7,2.7,0,0,1-.24.72c-.07.25.15.79-.12.84H219c-.32-.57.46-1,.36-1.69,0-.35-.28-.45-.48-.6-.75,0-.87.57-1.21,1-.09.59-.39,1-.48,1.57a8.9,8.9,0,0,1-2.29.6c-.09-1.16.35-2.84-.84-2.89-.84,0-.6,1.17-1,1.69a11.37,11.37,0,0,0-.12,1.69,2.34,2.34,0,0,1-1.33.36,15.74,15.74,0,0,1-.12-2.65c-.17-.72-.18-1.59-1.21-1.45a.38.38,0,0,0-.24.24,2.3,2.3,0,0,1-.12.24c0,.19.11.16.12.24a11.3,11.3,0,0,1-.36,1.57c.09.65-.19.93-.12,1.57h-1.08v-2c0-.68.13-1.49-.48-1.57-1-.09-.84.93-1.08,1.57a4.25,4.25,0,0,0-.12,1.21c-.31.09.09.89-.36.84-.68,0-.26-1.05-.24-1.45-.22-1.05.48-2.31-.24-2.77-.71.17-.68,1.09-.84,1.81-.16.28-.05.83-.24,1.08s.06.5,0,.72-.13.2-.24.36a.57.57,0,0,0-.36-.12c-.49.06,0-.26-.12-.6.24-.08,0-.67.24-.72a4.91,4.91,0,0,1,.24-1.57,4,4,0,0,1,.12-1.45V54.72a5.54,5.54,0,0,1-.12-1.57c-.3-1.63-.43-3.42-1.45-4.34a2.74,2.74,0,0,0-1.57,1.33,3.33,3.33,0,0,0-1,1.93c-.45.52-.45,1.48-.84,2a20,20,0,0,1-.6,2.17c-.47-.37-.66-1-1.08-1.45s-.51-1.18-1.33-1.21c-.29.15,0,.73.12.84-.09.45.21.52.12,1a16.69,16.69,0,0,0,.6,1.57c.27.5.7.83,1,1.33-.17.73-.52,2,.36,2.17.47-.05.51-.54.6-1s.29-.76.36-1.21a16.81,16.81,0,0,0,.84-2.29c.57-1.52,1-3.13,1.69-4.58.41.19.13,1.08.36,1.45v4.7a46.1,46.1,0,0,1-1.33,6.15c-.14,0-.21,0-.24.12-1.07,0-1.44-.65-2-1.09-1.05,0-1.41-.76-2-1.21a1.43,1.43,0,0,0,.24-1.57c-.77-.21-.57,1.05-1.08.72-.44-.65.35-1.35,0-1.93-.57-.36-.57.33-1.08.36-.75-1.78-1.9-3.16-2-5.55-1.52.1-.54,2.78-.72,3.62-.52-.17-.52-.85-1.45-.6a12.48,12.48,0,0,0-.24-2.29c-.13-.53.41-.4.36-.84s-.15-.49-.36-.6v-1c.69-.12,1.46-.15,1.57-.84.05-.41-.36-.36-.48-.6-.32-.14-.71.23-.72,0-.1-.42.18-.46.12-.84.75-.37,1.92-.33,2.29-1.09-.13-.59-1.07-.74-1.69-.48,0-.76.8-.72,1.45-.84.44-.29,1.23-.22,1.33-.84-.06-.95-1-.61-1.81-.6a22.69,22.69,0,0,1,1.08-2.17c.36-.68,1-1.13,1.33-1.81,1.64-1.18,3-2.63,4.94-3.5,1.71-1.07,3.6-1.94,5.18-3.13.37-.23.55-.66.84-1a23.3,23.3,0,0,1,5.42-1.69,21.78,21.78,0,0,1,2.77,0,18.35,18.35,0,0,1,8,2.65A14.6,14.6,0,0,1,224.91,38a18.48,18.48,0,0,0,2.29,3c0,.2-.74.2-.72,0-.21-.07-.71.15-.72-.12-1.7-.07-3.26-.28-4.82-.48h-4.82a12.8,12.8,0,0,0-5.18,1.57A21.29,21.29,0,0,0,209,43.63a12.17,12.17,0,0,0-.72,1.69c-.14.66-.22,1.39-.36,2v1.08a12.69,12.69,0,0,0,3,5.91,10,10,0,0,0,2.89,1.57c1,.44,2.61.36,3.86.6h1.81a6.67,6.67,0,0,0,2.29-.6,4.19,4.19,0,0,0,1.93-1c1.35-.58,2.1-1.76,3.25-2.53q.93-1.24,1.81-2.53a18.4,18.4,0,0,1,1.57-2.77c.54.14.58.78,1.08,1A10.57,10.57,0,0,0,232.39,49.9Zm9.76-7.59c0,.25-.33.24-.36.48a6.06,6.06,0,0,1-1.93.36c-.38.06-.39-.26-.36-.6a13.76,13.76,0,0,0-7,.84,2.15,2.15,0,0,1-1.21-1.45,26.44,26.44,0,0,0,2.89-1.08c.81-.52,1.88-.77,2.41-1.57a10.46,10.46,0,0,1-.24-2.29,1.48,1.48,0,0,1,2-.84c1,1.25-.05,2.78-.12,4.34,1,.11,1-.75,1.69-1a2.53,2.53,0,0,1,2.53,2.17C242.27,41.78,242.44,42.26,242.15,42.3Zm-25.68-6.87c.2-1-.79-1.11-1.45-.84-.38,0-.72.08-.72.48C214.16,36,216.11,35.74,216.48,35.43Zm-6.51,2c-.3-.62-1.83-.41-1.81.36C208.37,38.62,210,38.35,210,37.48Zm-8.32,1.21c.3.7,1.76.3,1.69-.48C203.06,37.52,201.58,37.91,201.65,38.69Zm-3.25,2c-.49.48-1.27.66-1.33,1.57.09,0,.14.1.12.24a1.21,1.21,0,0,0,1.45-.36,1.65,1.65,0,0,0,.84-1.21c-.21-.11-.35-.29-.6-.36C198.85,40.79,198.59,40.73,198.39,40.74Zm3.86.84c-.6.52-1.59.66-1.45,1.93.5.48,1.13,0,1.57-.24.34-.42,1-.55.84-1.45A1.34,1.34,0,0,0,202.25,41.58ZM223,44.35h-.24c-.17.15-.12.52-.12.84.26.53.86,1.28,1.69.84A1.07,1.07,0,0,0,224,45C223.67,44.71,223.5,44.37,223,44.35Zm-4.46,1.93H218a1.1,1.1,0,0,0-.24,1,2.63,2.63,0,0,0,.6,1c.3,0,.3.32.6.36s.32,0,.48,0a2.07,2.07,0,0,1,.36-.48c0-.53-.3-.74-.48-1.08C219,46.85,219,46.28,218.53,46.28Zm3.26,1.08a2.38,2.38,0,0,0-.36,2.41c.29,0,.26.22.6.12C222.83,49.61,222.67,47.42,221.78,47.37Zm15.43,12.18c-.22-1-1.3-1.19-2.53-1.21-.8.33-1.92.33-2,1.33C232.59,62,237.25,61.61,237.21,59.54Zm-1.69,0c0,.56-1.23.4-1.57.24C234.23,59.45,234.94,59.56,235.52,59.54Zm-3.74,2.89c0,.25.33.24.36.48.83.1,1.15-.29,1.21-1a2.91,2.91,0,0,0-.48-.48C232.2,61.48,231.76,61.72,231.79,62.43Zm-2.29.72a1.28,1.28,0,0,0-2.17.72c0,1.48,2.38,1.07,2.29-.24C229.44,63.62,229.51,63.35,229.5,63.16Zm-15.19,1.57c-.4-.18-.59-.31-1,0-.26.47,0,.92.12,1.33a5,5,0,0,0,2.41,1,4.85,4.85,0,0,0,3.25-.72,2.33,2.33,0,0,0,.24-1.45C218.58,63.34,215.41,63.85,214.31,64.72Zm1,.84c0-.28.53-.12.6-.36.6.07,1.89-.53,2,.24A5.31,5.31,0,0,1,215.27,65.57Zm-22.54-1.21a1.13,1.13,0,0,0,1.81,1.08c0-.28.19-.45.12-.84C194.42,64.07,193.1,63.7,192.73,64.36Zm29.65.84a1.29,1.29,0,0,0,1.33.84,1.17,1.17,0,0,0,.72-1.69C223.8,63.66,222.21,64,222.38,65.21Zm-13.14.36a1.53,1.53,0,0,0,.36,1.33c.37-.09.35.21.72.12a1,1,0,1,0-1.08-1.45Zm-4.58-.36a1.63,1.63,0,0,0-.6,1.08c.14,0,.13.19.12.36a5,5,0,0,0,.72.48c.65-.15,1.27-.34,1.21-1.21C205.94,65.37,205.48,65.11,204.66,65.21Z"/></g><g id="_0110-grape" data-name="0110-grape"><path class="cls-3" d="M405.27,58.32a5.2,5.2,0,0,0-1.18-1.12l-.23-.12-.23-.12c-.07,0-.08,0-.12,0a8.06,8.06,0,0,0-.85-.42,5,5,0,0,0-.92-.14c-.16,0-.33-.12-.46-.13s-.24.17-.4,0a1.78,1.78,0,0,0-.77.73,6.11,6.11,0,0,0-1.07-1c-.12-.14.23-.26.3-.39a.53.53,0,0,1,.24-.34.4.4,0,0,1,.18-.4.22.22,0,0,1,.06-.29,1.65,1.65,0,0,1,0-.69c-.14-.16-.09-.31-.1-.46a.67.67,0,0,1-.22-.47c-.15-.18-.4-.36-.39-.53A6.58,6.58,0,0,0,397,51.15c-.35.05-.69-.12-1,0a2.25,2.25,0,0,0-1.12.95,3.94,3.94,0,0,0-2.62-1c-.21-.2,0-.38-.1-.58a4.81,4.81,0,0,1-.21-.58l-.73-.77a4.1,4.1,0,0,0-2.8-.59,2.11,2.11,0,0,0-.84-.88,5.92,5.92,0,0,0,.6-1.13,3.8,3.8,0,0,0-1.3-2.91,3.16,3.16,0,0,0-1.59-.62,2.22,2.22,0,0,1-.7.21,2.61,2.61,0,0,0-.95,3.25c-.21.1-.42-.17-.62-.3-.21.08-.41-.27-.63-.19-.14-.35-.09-.75-.2-1.15A5.58,5.58,0,0,0,381,43.27a4.19,4.19,0,0,0-3.66-.55,9.57,9.57,0,0,0-.94.67c-.25.2-.23.42-.53.62a3.44,3.44,0,0,0-.12,2.47,1.68,1.68,0,0,1-.8,0c-.25.1-.5,0-.75.15a3.22,3.22,0,0,0-1.57.59l-.83.78c0,.17-.17.34-.3.51a2.63,2.63,0,0,0,.79,2.84c.12.14-.23.26-.3.39s-.14.26-.3.39a2.92,2.92,0,0,1-1-.43c-.63-.08-1.25-.38-1.89-.45A12.32,12.32,0,0,0,367,51q-.95-.08-1.89-.11c-.61,0-1.23.13-1.84.07a2.07,2.07,0,0,1-1,.15,2.59,2.59,0,0,1-.93.21c-.62.16-1.24.43-1.85.53a24.48,24.48,0,0,0-3.79,1.91l-1,1a2.9,2.9,0,0,0,0,.8c.31.46.64.47,1,.66.45.45.89,1.06,1.35,1.18.31-.06.62-.29.93-.32l2.12-2a6.73,6.73,0,0,1,2-1.15c.33-.28.66-.16,1-.38.33,0,.66-.22,1-.15,0,.32-.42.27-.59.56a7.22,7.22,0,0,0-.83,1.13c-1.4.79-2.82,2.43-4.23,3.57-.66.48-1.33.88-2,1.33,0,.23-.37.45-.48.68a2.36,2.36,0,0,0,0,.69c.43.59.87.52,1.3.78.19.37-.06.73-.09,1.09s-.17.72-.2,1.09c-.13.71-.6,1.4.12,2.13.62.43,1.27-.06,1.9-.12,1-.63,1.91-1.36,2.87-2.05.18.22.12.42.39.64-.08.19.27.39.22.58.32.47.45.83,1,.77a1.3,1.3,0,0,0,.54-1,1.86,1.86,0,0,0,1-.32,8,8,0,0,0,1.66-2c.07-.15.12-.13.24-.34a7.68,7.68,0,0,0,.43-1.08c0-.11.06-.07.06-.17a5,5,0,0,0,.19-.63c0-.13.17-.52.19-.74s0-.4,0-.57,0-.49,0-.75a3.58,3.58,0,0,0,0-.4,6.52,6.52,0,0,0-1.19-2.79,11,11,0,0,0-1-.95,3.93,3.93,0,0,1,1.8-.59c.58-.14,1.15,0,1.73-.19.51.13,1-.08,1.55.21.27,0,.54-.33.81-.09s-.3.24-.47.22a.36.36,0,0,1-.35.11c-.1.08-.2.24-.29.16-.38.42-.78.62-.95,1,0,0,.06.05,0,.11s0,.27-.07.4-.11.07-.12.11a4,4,0,0,0,0,.52c0,.15,0,.33,0,.46s.13.17.16.29,0,.19,0,.23a6.33,6.33,0,0,0,.88,1.52,5.73,5.73,0,0,0,1,.72,2.74,2.74,0,0,0-1.27,2.32,5.86,5.86,0,0,0-2.69,1.77.67.67,0,0,1-.24.45,8.7,8.7,0,0,1-.2,1c.05.17.14.35,0,.52a4,4,0,0,0,.88,1.4c.26.17.52.46.79.48.24.23.5.12.74.31.52,0,1,0,1.55,0a4.23,4.23,0,0,0,4.21,1.6c.24-.22.47-.22.7-.44a2.78,2.78,0,0,0,.7-2.57c.27,0,.53.31.8.25.26.23.54,0,.8.25.67-.08,1.34,0,2,0a1.84,1.84,0,0,1,.47-.22c.26-.18.19-.38.47-.56,0-.29.16-.57.08-.86.1-.28-.17-.58,0-.86.29.09.56.39.85.42.28.2.57.11.85.31a8.24,8.24,0,0,0,.94,1.58c.24.25.49.32.73.65a6.37,6.37,0,0,0,1.2.43,5.79,5.79,0,0,0,1.15,0,.67.67,0,0,1,.47-.22,4.26,4.26,0,0,0,1.13-1.41c-.1-.25.17-.49.08-.75.14-.23-.07-.46,0-.69a2.94,2.94,0,0,0,.93-.32,5.27,5.27,0,0,0,.77-.84c.29,0,.22.38.5.53a3.5,3.5,0,0,0,2.85,1,3.08,3.08,0,0,0,1.11-.72,13.15,13.15,0,0,0,1.13.83c.08,0,.26,0,.4.07s.28.16.4.18.23-.1.34,0a1.34,1.34,0,0,0,.69,0c.09-.08.2,0,.34,0s.08-.12.12-.11a.47.47,0,0,0,.23,0,3.09,3.09,0,0,0,1-.55c1.17-1.16,1-2.35.21-3.56a3.09,3.09,0,0,0,.7-.56,4,4,0,0,0,1.58,1.08A3.6,3.6,0,0,0,404,61.4l1.06-1c0-.23.2-.45.25-.68a6.88,6.88,0,0,0,.13-.69A2.23,2.23,0,0,1,405.27,58.32Zm-48.33-3c-.1-.16.27-.3.36-.45.27,0,.55-.41.81-.32C357.73,54.8,357.32,55.65,356.95,55.35Zm6.73,8.85a1.52,1.52,0,0,1-.33-.7c.17,0,.34.25.51.42A.46.46,0,0,0,363.67,64.2Zm1.74-2.89c-.52-.59-1-.9-1.57-1.54-.4-.24-.79-.68-1.18-.89s-.82-.79-1.25-.38c-.29.24-.13.49-.08.75a3.39,3.39,0,0,0,.73.65,5,5,0,0,0,1,.89l.9.94c.26.4.76.58.84.88l-.41.39c-.51-.41-1-.9-1.52-1.25-.23,0-.37.28-.47.45-.34-.13-.68-.29-1,0s-.1.57-.42.85a9.68,9.68,0,0,0-2.1,1.33c-.19-.25,0-.5.08-.75a1.74,1.74,0,0,1,.19-.74c-.09-.19,0-.38,0-.57s0-.61-.21-.93-.82-.4-.72-.88c.06,0,.11,0,.17-.05a19.8,19.8,0,0,0,3.17-2.68,1.51,1.51,0,0,1,.57.36c.44.32.78.56,1.18.89a14.62,14.62,0,0,1,1.4,1.36.53.53,0,0,1,.34.24c.19,0,.38.22.57.13C365.7,60.94,365.51,61.13,365.41,61.31Zm.44-1.54a10.81,10.81,0,0,0-3.38-2.85l.41-.39a25.59,25.59,0,0,1,3.1,2.32C365.86,59.16,366.08,59.47,365.86,59.77Zm-.39-2.88c-.48-.56-1-.61-1.47-1.07l.53-.5.5.53C365.1,56.19,365.71,56.55,365.47,56.89ZM391.9,53a.87.87,0,0,1,1.21-.14c.08.25,0,.5,0,.75-.11.25.18.5-.08.75C392.55,54.35,391.79,53.44,391.9,53Zm-6.33,4.55c.17-.09.34,0,.52,0,.25.53.62.43,1,.72.64.73,1.41,1.45.92,2.15a1.46,1.46,0,0,1-.87.27c-.29,0-.58.1-.86-.08a14.88,14.88,0,0,0-1.18-1.12A2.49,2.49,0,0,0,385.57,57.53Zm-.19-12.71a1.5,1.5,0,0,1,.73.77c-.36.12-.41.49-.7.56A.88.88,0,0,1,385.39,44.82ZM385,49.46a6.5,6.5,0,0,1,.2-1.09c.13.11.27,0,.4,0a2.67,2.67,0,0,1,1.62,1.94,3.45,3.45,0,0,1-1.82,1.27c-.46-.52-.62-.67-1.12-1.18A9.56,9.56,0,0,0,385,49.46Zm-1.73,2.43c-.2.11.31.24.11.35.22.14-.05.27.16.41-.4.41-.38.83-.84,1.24a8.61,8.61,0,0,0-1.17-1.35c-.27-.08-.53-.41-.8-.37-.28-.26-.57-.12-.85-.31.07-.25.44-.49.42-.74.25,0,.41.15.63.19,0,0,.13-.06.17-.05s.15.12.23.12.08-.1.12-.11.14.06.17.06c.27,0,.44-.08.69-.1s.21,0,.34,0Zm-3.11,2.39a2.16,2.16,0,0,1-1.41,1.23c-1.14-.51-.18-1.93.74-2.05C379.69,53.73,380.1,54,380.14,54.28ZM380,50.14a.22.22,0,0,1,.29-.05A.22.22,0,0,1,380,50.14ZM381,48l.59-.56a11.24,11.24,0,0,0,1.06,1.23c-.09.17.3.35,0,.52.1.14-.27.23-.35.22-.16.18-.31,0-.47.22-.33.06-.65,0-1,.26-.23-.2.18-.38,0-.57a5.5,5.5,0,0,1-.09-.81A.81.81,0,0,0,381,48Zm-2.78-3.75a2.55,2.55,0,0,1,.92-.09c.08,0,.16.1.23.12a1,1,0,0,1,.34.12A2.32,2.32,0,0,1,380.76,46c-.44.53-.72,1.05-1.19,1.58-.3-.35-.61-.2-.91-.48-.18-.45-.27-.89-.48-1.33a4.27,4.27,0,0,0,0-.75C378.25,44.73,378,44.47,378.22,44.23Zm-1.51,5a1.8,1.8,0,0,1,1.91-.47c.08.06.15.18.23.12a7.65,7.65,0,0,0,1,1c-.44.1-.9.68-1.35.94a2,2,0,0,1-1.65-.79s0-.25-.05-.29a1.05,1.05,0,0,1-.11-.35C376.68,49.36,376.76,49.31,376.71,49.25Zm1.64,10c.22.47.55.93.31,1.39C378,60.52,377.52,59.46,378.34,59.24Zm-.46-6.74c-.23.15-.48.6-.7.56,0-.29-.33-.58-.38-.87A7.58,7.58,0,0,0,377.89,52.5ZM373,49a2.53,2.53,0,0,1,1.23-.83,1.63,1.63,0,0,1,1.21,0c-.25.2-.17.42-.42.62a.22.22,0,0,1-.06.29,6.07,6.07,0,0,0,.09,1c0,.34.45.7.43,1a3.37,3.37,0,0,1-.85-.54,2.15,2.15,0,0,1-1.65-.79c.05-.15-.09-.31-.1-.46A.36.36,0,0,0,373,49Zm1.24,3.19a3.75,3.75,0,0,0,.8.25c.57.55,1.09,1.1.88,1.63s-.7.32-1,.55c-.53-.1-1.07.05-1.6-.39s-.35-.7-.43-1A1.64,1.64,0,0,1,374.27,52.23Zm-3.49,3.65a1.6,1.6,0,0,1,1.34-.6c.22.26.45.29.68.48-.28.34,0,.69-.14,1-.45.45-.9.9-1.35.94A2.39,2.39,0,0,1,370.79,55.88Zm-.38,10.34c-.65.18-1.83-.1-1.93-1.08.2-.86,1.41-1.51,2.12-1.78a5,5,0,0,0,1.46,1.19C371.3,64.93,371.09,65.65,370.4,66.21Zm3.24,1.52a2.23,2.23,0,0,1-1.47-.84c0-.76,1.08-1.48,1.69-1,.24.22-.08.42.16.64C373.82,66.9,373.86,67.32,373.64,67.74Zm.71-5a1.77,1.77,0,0,1-2.73-1.11,2.32,2.32,0,0,1,1.17-.89c.37-.09.73.12,1.1-.14a4.52,4.52,0,0,1,1.06,1.12C374.68,62,374.58,62.36,374.35,62.7Zm.65,1.63s.12-.06.11,0S375,64.38,375,64.32Zm1.51-2.89c-.06-.22-.21-.4-.27-.64a4.26,4.26,0,0,0-1.75-1.37,3.23,3.23,0,0,1,.36-.57c.43-.16.89.86,1.36.84.14.29.14.58.26.87.29.38.45.83.89,1.06-.24.29-.46.19-.7.44C376.43,61.89,376.56,61.63,376.51,61.43ZM379.34,65a1.27,1.27,0,0,1-1.44.25,1.5,1.5,0,0,1-1.3-.9,1.84,1.84,0,0,1,1.81-1.28c.27.31.7.63.67.94a.67.67,0,0,1,.22.47C379.4,64.67,379.48,64.84,379.34,65Zm.91-2a3.39,3.39,0,0,0-.61-.76.46.46,0,0,1,.52-.16C380.13,62.4,380.33,62.72,380.26,63Zm.63-4.29-.84-.88a4.37,4.37,0,0,1-.68-.36c-.19.11-.38-.15-.57,0-.18-.13-.51.11-.51-.19.07-.07,0-.15.12-.23a4.18,4.18,0,0,0,3.75-.42c.38.47.22.93.19,1.38A1.85,1.85,0,0,1,380.89,58.73Zm2.95,3.81a2.43,2.43,0,0,1-1.86.64,3.26,3.26,0,0,1-.43-1c.18-.28.26-.57.42-.85s0-.46,0-.69.18,0,.29.06c.37.07.78-.21,1.15,0C384.14,61.32,384.23,61.94,383.83,62.54Zm.41-6.89a3.9,3.9,0,0,0-1-.66s-.06-.08,0-.11a1.77,1.77,0,0,0,1.1-.14c.47-.27.94-.9,1.41-1s1.37.63,1.52,1.25a1.34,1.34,0,0,1-1.46.71A9.29,9.29,0,0,1,384.24,55.65Zm2.2,10.46c-.66.3-1.3-.29-1.94-.74.07-.07,0-.15.12-.23a2.76,2.76,0,0,0,1.94-1.5c.47.59.16,1.15.3,1.73C386.67,65.62,386.71,65.87,386.44,66.11Zm2.52-4a1.44,1.44,0,0,1-.43,1,2,2,0,0,1-.86-.08c-.3-.24-.61-.18-.91-.37.06-.11.07-.23.12-.34a2.74,2.74,0,0,0,2.38-.8C389.55,61.75,389.14,61.95,389,62.15ZM390,54.88l-.71.67c.06.1-.1.19-.18.28a3.18,3.18,0,0,0-.14,1s-.07.15-.06.17.11.08.11.12,0,.24,0,.34a4.27,4.27,0,0,0,.44.93c0,.06.05.07,0,.11l.78.83c-.14.06-.28.4-.41.28.05-.36-.32-.74-.37-1.1l-.84-.88a2.35,2.35,0,0,1-.73-.65c.2-.18.39-.18.59-.44a2.41,2.41,0,0,0-.54-3.64c0-.19-.2-.39-.22-.58l.77-.73A7.07,7.07,0,0,0,389,50.2a1.29,1.29,0,0,1,1.42.67c0,.33-.45.64-.31,1,0,.15.18.31.33.47a2.53,2.53,0,0,0,.23,2.13C390.48,54.73,390.25,54.63,390,54.88Zm3.14,7.67c-.35.36-.71.72-1.05.66-.87-.77-1.29-1.53-1-2.27a1.74,1.74,0,0,1,1.05-.66c.16.36.38.4.67.71A2.07,2.07,0,0,1,393.15,62.55Zm-.3-3.86a2.24,2.24,0,0,0-.55-.82c-.34-.21-.69.19-1,.09a2.29,2.29,0,0,1-.6-1.22,1.18,1.18,0,0,1,1.4-.65c.56.69,1.56,1.38,1.61,2.05C393.39,58.4,393.12,58.46,392.84,58.69Zm1.33-2.49c-.12-.16.22-.09.29,0s.3.1.46-.1a1.82,1.82,0,0,0,.47-.22,2,2,0,0,0,.62-1.71c0-.33-.23-.66-.26-1,.25-.2.51-.59.76-.61.33.2.06.38.33.58a5,5,0,0,1,1,.89c0,.27.08.54.09.81a3.13,3.13,0,0,1-1.17.77c-.57.63-1.32.95-1.71,1.62A11.33,11.33,0,0,0,394.17,56.2Zm3.16,6.75a5.2,5.2,0,0,0-1.28.54c-.19-.19-.38-.2-.56-.47a6.17,6.17,0,0,0,.1-1.55,3.68,3.68,0,0,0-.37-1.1c-.15-.18-.4-.36-.39-.53s-.54-.36-.27-.52l.12-.11c.23.29.29.58.49.88C396,61,397.67,61.84,397.33,62.95Zm1-3.71a6.2,6.2,0,0,1-1.33.37,1.6,1.6,0,0,1-.77-1.28c.33-.59,1.08-1.14,1.58-1.05.29.3.36.58.72.88A1.45,1.45,0,0,1,398.29,59.24Zm4.36.23-.41.39c-.29.08-.58.19-.87.27a2.79,2.79,0,0,1-.87.15c.26-.36.12-.73.32-1.08,0-.35,0-.69-.09-1,.12-.05.23-.05.35-.11.27,0,.53.28.8.25a2.24,2.24,0,0,1,.79.6A2,2,0,0,1,402.65,59.46Z"/></g><g id="_3009-wine-glass-3" data-name="3009-wine-glass"><path class="cls-3" d="M437.46,65.68c0-.24-.21-.27-.24-.48-.29-.17-.43-.48-.72-.64s-.61-.31-.8-.56a3.51,3.51,0,0,1-1-.4,18.23,18.23,0,0,1-2.57-.64c0-.88-.16-1.74-.16-2.65,0-1.55.15-3.16,0-4.58a6.35,6.35,0,0,1,1.21-2.09,17.43,17.43,0,0,1,1.93-1.45,13.67,13.67,0,0,0,4.18-9.09c0-1.58,0-3.19-.08-4.67-.12-.66-.1-1.45-.16-2.17-.14-.38,0-.57,0-1s-.18-.62-.16-1a4.69,4.69,0,0,0-1.69-1.77,26.49,26.49,0,0,0-7-.48c-.1,0-.11.1-.24.08-2.48,0-4.1.83-6.19,1.21a9.67,9.67,0,0,0-1.13.72,3.16,3.16,0,0,0-1,.8c0,.21-.15.28-.24.4a13.12,13.12,0,0,0-.32,5.23,26.87,26.87,0,0,0,.56,5.31,15.73,15.73,0,0,0,1.45,4.42,7.35,7.35,0,0,0,2.82,3.14,7,7,0,0,0,2.09.64,4.42,4.42,0,0,1,1.13,1.85c.18.75,0,1.88.16,2.65.06.93-.08,1.83-.08,2.73a7.59,7.59,0,0,1,0,2c-.2.17-.66.09-.88.24a2.31,2.31,0,0,0-.88.24c-.58.2-1.13.43-1.69.64-.19.29-.66.31-.8.64-.38.13-.56.46-.8.72a2.77,2.77,0,0,0-.8,2.17c.13.08.09.34.16.48a3.54,3.54,0,0,1,.32.4c.34.12.49.42.89.48.16.29.62.29.88.48a4.68,4.68,0,0,0,1,.32,4.06,4.06,0,0,0,1,.32,4.66,4.66,0,0,0,1.21.16c.81.12,1.78.1,2.65.16a11.86,11.86,0,0,0,4.67-1,6.63,6.63,0,0,0,.89-.88c.11-.18.28-.31.4-.48s.18-.46.32-.64a7.45,7.45,0,0,0-.08-1.53C437.54,66,437.65,65.71,437.46,65.68Zm-4.91-14.24c.15-.1.52-.2.64-.08C433.14,51.8,432.74,51.64,432.55,51.45Zm1.53-1.93c0-.09.08,0,.08,0S434.08,49.56,434.08,49.52Zm1.77-1c.06.22-.16.16-.16.32a6.9,6.9,0,0,1-.4.56c-.14-.1-.32-.17-.32-.4a2.15,2.15,0,0,0,.88-.72C436.13,48.16,435.93,48.44,435.85,48.47Zm1.21-2.73c-.2,0-.25-.13-.4-.16,0-.26.14-.4.08-.72a1.31,1.31,0,0,1,.56-.16C437.26,45.08,437.13,45.38,437.06,45.74Zm.32-4.83v-.16c.16,0,.25,0,.24.16Zm-13.92-5.63c.2-.21.47-.34.64-.56l.8-.4c.23-.14.61-.14.8-.32a32.88,32.88,0,0,1,4.1-.56H432c.14,0,.21-.14.24,0h2.41c1.4.19,3,.16,4,.72-.07.46-.64.44-.8.8s-.58.49-.8.8a9.5,9.5,0,0,1-2.33.88c-.32.22-.91.16-1.29.32a14.24,14.24,0,0,0-1.45.16,46.39,46.39,0,0,1-7.24-.16c-.28-.2-.69-.27-1-.48s-.77-.19-.88-.56S423.29,35.51,423.46,35.28Zm.4,9.81c0-.09.08,0,.08,0S423.86,45.14,423.87,45.09Zm.16-.16c-.2-.16,0-.54.08-.72a5.32,5.32,0,0,0,.16-.72,3.39,3.39,0,0,0,.24-.72,5.67,5.67,0,0,0,.24-.64c0-.11.14-.13.16-.24s.14.08.24.08a6.43,6.43,0,0,1-.64,1.45C424.44,44,424.14,44.37,424,44.93Zm.56,4c.09.52-.25.18,0,0C424.5,48.53,424.83,48.86,424.59,49ZM426,43.64a10.84,10.84,0,0,0-.48,1.53c-.17,0,0,.35-.16.4,0,.19-.15.18-.08.4-.14.18-.08.57-.24.72-.06.61-.25,1.09-.32,1.69-.24-.2.06-.52,0-.8a1.81,1.81,0,0,0,.16-.8c.17-.15.05-.59.24-.72a1.82,1.82,0,0,1,.16-.72c.16-1.08.51-2,.72-3a.38.38,0,0,0,.08-.24c.25,0,.28.15.56.08,0,.35-.26.44-.32.72S426.17,43.43,426,43.64Zm.4,7.88a1.26,1.26,0,0,0,.56-.88c.25,0,.14.4.16.64.12.5.63.61.72,1.13A8.61,8.61,0,0,1,426.44,51.53Zm1.13-3.78a5.3,5.3,0,0,1,.16-.72,1.29,1.29,0,0,1-.16,1.29C427.29,48.28,427.52,47.93,427.57,47.75Zm.24-5c0,.1-.12,0,0,0,0-.22-.11-.6.24-.48C428.08,42.55,427.91,42.62,427.81,42.76Zm.56,1.93c.14,0,.18.14.16.32A.35.35,0,0,1,428.37,44.69Zm-5.79-4.91c-.19-.59-.11-1.45-.24-2.09.46.22.85.49,1.29.72a16.8,16.8,0,0,0,5.31.4h2.41a12.73,12.73,0,0,0,6-1.53c0-.09.16-.05.16-.16s.08,0,.08.08c0,.7,0,1.63,0,2.09-.33.07-.66.14-1,.24-.06.24-.24.35-.4.48-.35,2.25-.72,4.48-1.21,6.6a8,8,0,0,1-.8,1.53,2.19,2.19,0,0,1-.48.64c-.19.12-.52.39-.72.24-.46,0-.25-.72-.48-1,0-.17.1-.53-.08-.56.1-.25.09-.61.24-.8-.07-.23-.09-.5-.16-.72.18-.15,0-.63.16-.8-.06-.35.14-.45.08-.8.14-.16.09-.5.16-.72a5.29,5.29,0,0,0,.16-.72c.09-.8,1-2,.32-2.82-.79-.15-1.48.36-2.17.56A23.47,23.47,0,0,1,422.58,39.78Zm8.69,9.89c.13,0,.16.53-.08.4C431.15,49.89,431.33,49.9,431.27,49.68Zm-1.93-6.51a1.45,1.45,0,0,1,.32.72C429.16,44,429.38,43.46,429.34,43.16Zm6.76,24.21a.41.41,0,0,0-.24.24l-.64.32c-.48.16-1,.26-1.53.4a2.67,2.67,0,0,0-1,.08h-2.49a16.44,16.44,0,0,1-4-.88.22.22,0,0,0-.24-.16c-.14-.35-.52-.44-.48-1,.22-.67.94-.83,1.61-1a15.12,15.12,0,0,1,2.09-.56c-.06.8.06,1.77-.4,2.17.19.3.65.32,1,.4s.41-.29.64-.4.5-.14.56-.4a.43.43,0,0,0-.4-.48c.08-.24.48-.16.4-.56.1-.48-.51-.24-.48-.64-.13-.51.42-.33.4-.72s-.41-.34-.48-.64a34.23,34.23,0,0,1,.24-4.5,17.76,17.76,0,0,1,.16-3.46c.18.11,0,.56.08.8v.88c0,.25-.14.28-.08.56,0,1.11.2,2.11.16,3.3.32,1.4.26,3.17.56,4.58.06.41-.11.58-.08,1a.63.63,0,0,0,.64.48c.81-.06.43-1.61.4-2.25a5.31,5.31,0,0,1,3.38,1.21,3,3,0,0,1,.32.88C436.09,67,436.23,67.32,436.09,67.37Z"/></g><g id="_3009-wine-glass-4" data-name="3009-wine-glass"><path class="cls-3" d="M181.58,53.92c0-.23-.2-.26-.23-.45-.27-.16-.41-.45-.68-.61s-.57-.29-.76-.53A3.31,3.31,0,0,1,179,52a17.18,17.18,0,0,1-2.42-.61c0-.82-.15-1.64-.15-2.5,0-1.46.14-3,0-4.32a6,6,0,0,1,1.14-2,16.4,16.4,0,0,1,1.82-1.36,12.87,12.87,0,0,0,3.94-8.56c0-1.49,0-3-.08-4.39-.11-.62-.1-1.37-.15-2-.13-.36,0-.54,0-1s-.17-.58-.15-1a4.41,4.41,0,0,0-1.59-1.67,24.94,24.94,0,0,0-6.59-.45c-.1,0-.1.1-.23.08-2.34,0-3.86.79-5.83,1.14a9.11,9.11,0,0,0-1.06.68,3,3,0,0,0-1,.76c0,.19-.14.27-.23.38a12.35,12.35,0,0,0-.3,4.92,25.3,25.3,0,0,0,.53,5A14.81,14.81,0,0,0,168,39.23a6.92,6.92,0,0,0,2.65,3,6.57,6.57,0,0,0,2,.61,4.16,4.16,0,0,1,1.06,1.74c.17.71,0,1.77.15,2.5s-.08,1.72-.08,2.57a7.15,7.15,0,0,1,0,1.89c-.19.16-.62.09-.83.23a2.17,2.17,0,0,0-.83.23c-.55.18-1.06.4-1.59.61-.18.28-.62.29-.76.61-.36.12-.53.43-.76.68a2.61,2.61,0,0,0-.76,2c.13.08.08.32.15.45a3.34,3.34,0,0,1,.3.38c.32.11.47.39.83.45.15.28.58.28.83.45a4.41,4.41,0,0,0,1,.3,3.82,3.82,0,0,0,1,.3,4.39,4.39,0,0,0,1.14.15c.77.12,1.67.09,2.5.15a11.17,11.17,0,0,0,4.39-.91,6.24,6.24,0,0,0,.83-.83c.11-.17.26-.29.38-.45s.17-.44.3-.61a7,7,0,0,0-.08-1.44C181.66,54.25,181.76,53.95,181.58,53.92ZM177,40.52c.14-.09.49-.19.61-.08C177.51,40.85,177.14,40.7,177,40.52Zm1.44-1.82c0-.09.08,0,.08,0S178.4,38.74,178.4,38.7Zm1.67-1c.06.21-.15.15-.15.3s-.26.35-.38.53c-.13-.1-.3-.16-.3-.38a2,2,0,0,0,.83-.68C180.33,37.42,180.15,37.68,180.07,37.72Zm1.14-2.57c-.19,0-.23-.12-.38-.15,0-.25.13-.38.08-.68a1.24,1.24,0,0,1,.53-.15C181.39,34.52,181.27,34.8,181.2,35.14Zm.3-4.54v-.15c.15,0,.24,0,.23.15Zm-13.1-5.3c.18-.19.44-.32.61-.53l.76-.38c.22-.13.57-.14.76-.3a31,31,0,0,1,3.86-.53h2c.13,0,.2-.13.23,0h2.27c1.31.17,2.82.16,3.79.68-.07.44-.6.41-.76.76s-.55.46-.76.76a8.94,8.94,0,0,1-2.2.83c-.3.2-.86.15-1.21.3a13.41,13.41,0,0,0-1.36.15,43.67,43.67,0,0,1-6.82-.15c-.27-.19-.65-.26-.91-.45s-.73-.18-.83-.53S168.24,25.51,168.4,25.29Zm.38,9.24c0-.09.08,0,.08,0S168.78,34.58,168.78,34.53Zm.15-.15c-.19-.15,0-.51.08-.68a5,5,0,0,0,.15-.68,3.19,3.19,0,0,0,.23-.68,5.33,5.33,0,0,0,.23-.61c0-.1.13-.12.15-.23s.13.07.23.08a6.05,6.05,0,0,1-.61,1.36C169.32,33.51,169,33.85,168.93,34.38Zm.53,3.79c.09.49-.23.17,0,0C169.38,37.77,169.69,38.08,169.46,38.17Zm1.36-5a10.21,10.21,0,0,0-.45,1.44c-.16,0,0,.33-.15.38,0,.18-.14.17-.08.38-.13.17-.07.53-.23.68-.06.57-.23,1-.3,1.59-.23-.19.06-.49,0-.76a1.71,1.71,0,0,0,.15-.76c.16-.14,0-.56.23-.68a1.72,1.72,0,0,1,.15-.68c.15-1,.48-1.85.68-2.8a.36.36,0,0,0,.08-.23c.24,0,.27.14.53.08,0,.33-.24.41-.3.68S171,33,170.83,33.17Zm.38,7.42a1.19,1.19,0,0,0,.53-.83c.24,0,.13.38.15.61.11.47.59.57.68,1.06A8.11,8.11,0,0,1,171.21,40.59ZM172.27,37a5,5,0,0,1,.15-.68,1.22,1.22,0,0,1-.15,1.21C172,37.53,172.22,37.2,172.27,37Zm.23-4.7c0,.09-.11,0,0,0,0-.21-.11-.56.23-.45C172.75,32.14,172.59,32.21,172.49,32.34Zm.53,1.82c.13,0,.17.13.15.3A.33.33,0,0,1,173,34.16Zm-5.45-4.62c-.18-.55-.1-1.36-.23-2,.43.2.8.46,1.21.68a15.82,15.82,0,0,0,5,.38h2.27a12,12,0,0,0,5.68-1.44c0-.08.15-.05.15-.15s.07,0,.08.08c0,.66,0,1.54,0,2-.31.07-.62.14-.91.23-.06.22-.23.33-.38.45-.33,2.12-.68,4.22-1.14,6.21a7.52,7.52,0,0,1-.76,1.44,2.06,2.06,0,0,1-.45.61c-.18.11-.49.36-.68.23-.43,0-.23-.67-.45-.91,0-.16.09-.5-.08-.53.09-.24.09-.57.23-.76-.06-.21-.09-.47-.15-.68.17-.14,0-.59.15-.76-.05-.33.13-.43.08-.76.13-.15.08-.47.15-.68a5,5,0,0,0,.15-.68c.08-.75.9-1.84.3-2.65-.74-.14-1.39.34-2,.53A22.1,22.1,0,0,1,167.57,29.54Zm8.18,9.31c.12,0,.15.5-.08.38C175.64,39,175.81,39.06,175.75,38.85Zm-1.82-6.13a1.37,1.37,0,0,1,.3.68C173.76,33.54,174,33,173.93,32.72Zm6.36,22.8a.38.38,0,0,0-.23.23l-.61.3c-.45.15-1,.24-1.44.38a2.51,2.51,0,0,0-.91.08h-2.35a15.48,15.48,0,0,1-3.79-.83.21.21,0,0,0-.23-.15c-.13-.33-.49-.42-.45-.91.2-.63.89-.78,1.51-1a14.24,14.24,0,0,1,2-.53c-.05.75.05,1.67-.38,2,.18.28.61.3,1,.38s.38-.27.61-.38.47-.13.53-.38a.41.41,0,0,0-.38-.45c.07-.23.45-.15.38-.53.1-.45-.48-.23-.45-.61-.12-.48.4-.31.38-.68s-.38-.32-.45-.61a32.22,32.22,0,0,1,.23-4.24,16.72,16.72,0,0,1,.15-3.26c.17.1,0,.53.08.76V46c0,.24-.14.27-.08.53,0,1,.19,2,.15,3.1.3,1.31.24,3,.53,4.32.06.39-.11.55-.08.91a.6.6,0,0,0,.61.45c.76-.06.41-1.51.38-2.12a5,5,0,0,1,3.18,1.14,2.86,2.86,0,0,1,.3.83C180.29,55.15,180.43,55.47,180.29,55.51Z"/></g><g id="_0706-herbs" data-name="0706-herbs"><path class="cls-3" d="M261.19,62.53a4.73,4.73,0,0,0-.27-1.29c-.15,0-.21-.17-.39,0-.07-.18-.36.22-.43,0l-.5.22c-.09-.17-.4.24-.49.07a12.78,12.78,0,0,1-1.87.3c-.57,0-1.17.09-1.74.1s-1.19.06-1.77,0a15,15,0,0,1-3.33-.31,8.35,8.35,0,0,1-3-1.21c-.19-.13-.51.08-.7-.06a12.81,12.81,0,0,0-3-1.85,1.91,1.91,0,0,0-.91.47c-.12-.12-.32.15-.35.23-.2.08-.14.25-.11.42-.15.18.17.25.19.44a3,3,0,0,1,.39.2,7.58,7.58,0,0,1,.76.55c.5.38,1,.72,1.53,1.11.2,1.79,1.29,3.93,2,5.94s.72,3.72,1.13,5.59a3.27,3.27,0,0,0,.82,1.35c.29,0,.53.13.88,0a3.55,3.55,0,0,0,.88-.54,10.35,10.35,0,0,1,.69-1,3.11,3.11,0,0,1,.31-.81,5.44,5.44,0,0,1,.22-.84,8.6,8.6,0,0,1,0-1.28A5.67,5.67,0,0,1,252,69a28,28,0,0,0,3.53,2.45,17.65,17.65,0,0,0,1.87,1c.62.36,1.16.91,2,.76l.31-.14a1.55,1.55,0,0,0,.23-1.51,13.56,13.56,0,0,0-2.5-3.13c-.46-.42-.9-.86-1.37-1.25l-.7-.58c-.22-.27-.54-.3-.73-.64C256.71,65.83,260.63,64.52,261.19,62.53Zm-10.55,8.74c0,.07-.07.16,0,.24s-.07.12-.07.18.06.09.05.12a4.35,4.35,0,0,1-.37.83,2.27,2.27,0,0,1-.19.23c0,.06,0,.18-.19.23a39.77,39.77,0,0,0-1.25-6.21,6.65,6.65,0,0,1-.51-1.33l-.74-1.68c.3-.15.36.32.59.33a4.7,4.7,0,0,0,.35,1,9.69,9.69,0,0,0,1.29,1.58,10.08,10.08,0,0,1,1,3.18c0,.06,0,.14,0,.15,0,.21.12.42.12.61,0,0-.06,0,0,.09A1.52,1.52,0,0,1,250.63,71.27Zm7.46-.1c0,.11.18.11.08.19s-.09,0-.15,0c-1.25-.81-2.53-1.55-3.75-2.43-.6-.49-1.22-.92-1.82-1.43a18.05,18.05,0,0,1-1.69-1.63c-.12-.29.12,0,.25-.11.08.14.25.05.36.14.28,0,.51.11.79.1A25.11,25.11,0,0,1,258.09,71.18Zm-5.76-6.67c-.58-.23-1.11-.58-1.69-.81a3.21,3.21,0,0,0-.83-.38c-.24-.22-.62-.1-.8-.46.32-.24.4.12.67,0,.14.17.4,0,.54.21.42,0,.77.15,1.18.15.79.13,1.63.13,2.46.18.45,0,.86,0,1.31-.06s.87-.11,1.25,0a2.33,2.33,0,0,1,.7-.09,2.85,2.85,0,0,1,.64-.06c.25-.11.43,0,.68-.15.18.07.49-.21.61,0A12,12,0,0,1,252.33,64.51Z"/></g><g id="_0706-herbs-2" data-name="0706-herbs"><path class="cls-3" d="M546.07,56.66a4.39,4.39,0,0,0-1.47-.11c-.26-.15-.45.06-.71-.09-.17,0-.62.19-.65,0,.51-.35,1-.59,1.54-1a1.75,1.75,0,0,0,.76-.56c.13,0,.23-.19.33-.36s.42-.39.13-.49c.09-.17-.27-.24-.31-.11-.16-.12-.28,0-.4,0s-.51.17-.76.27c-.52.13-1,.58-1.49.65a2.32,2.32,0,0,0,.42-.78.85.85,0,0,0,.51-.91,1.26,1.26,0,0,0-.76-.31c-1.06.44-2.08,2.31-2.39,3.43-.56.5-1.17.72-1.72,1.27a2.11,2.11,0,0,0-.87.58c-.36,0-.57.61-1,.42.29-.48.38-.93.65-1.4l.45-.67c.13-.14,0-.23.16-.38l.45-.67c.05-.36.47-.79.13-1.07,0,0-.07-.06,0-.11-.55-.35-.93.17-1.34.56l-1.12,1.67c0,.23-.38.54-.31.76-.25.23-.16.68-.49.74a6.91,6.91,0,0,0,.11-1.18c-.05-.38,0-.78-.56-1-.44,0-.76.68-.71,1.07a3.34,3.34,0,0,0-.2,1.32,2.91,2.91,0,0,0-.09,1.29c-.19.46.13.82-.09,1.29-.64.4-1.27.78-1.92,1.14a7.43,7.43,0,0,1-1,.6c-.35.06-.63.51-1,.38a8.73,8.73,0,0,1,.87-2.61c.32-.89,1.26-1.91.58-2.61-.34-.26-.53.25-.83.22a1.79,1.79,0,0,0,0-1,.69.69,0,0,0-.47-.89.73.73,0,0,0-.6.76,2.45,2.45,0,0,0-.25,1.09c-.25.74-.18,1.43-.38,2.16-.33-.49-.86-1.65-1.61-1.07-.42.51.07.84.13,1.25a10.28,10.28,0,0,1,.47,1.18,10.29,10.29,0,0,1,.47,1.18,1.35,1.35,0,0,1,.13,1.25,17.07,17.07,0,0,1-2,1,5.27,5.27,0,0,1-1,.38c-.15.2-.36.14-.54.22a.57.57,0,0,1-.27.11c-.06.06-.22.09-.18,0,.42-.4.87-.68,1.29-1.07.39-.17,1.09-.55,1-1.14a.89.89,0,0,0-1.32-.2c-.45.17-.82.63-1.25.71.12-.22.06-.4.11-.6.51-1.11,1.86-2,1.63-2.88a1,1,0,0,0-.67-.16c-.24-.15-.35.35-.6.18,0-.48.3-1,0-1.45-.18.06-.42-.17-.56.11-.19,0-.32.36-.47.56a9.07,9.07,0,0,0-.56,2.43c-.16.42-.06.79-.22,1.2-.06.2,0,.38-.11.6.08.08,0,.2,0,.29s0,.24-.13.2c-.41-.63-.18-1.39-1-1.94a1.94,1.94,0,0,0-.56.11c-.57.81-.09,1.41.07,2.07.16.32.05.69.31,1-.07.38.26.68.16,1.07a27.65,27.65,0,0,1-3,.89c-.51.18-1,.28-1.54.42a2.49,2.49,0,0,1-.78.16c-.11.12-.27,0-.38.13-.08-.07-.38.14-.31-.11s.17-.34.4-.31.35-.2.54-.22c.54-.42,1.06-.88,1.58-1.36s1.32-.93,1.34-1.72c0,0-.13-.09-.09-.16-.71-.53-1.19,0-1.7.51-.15-.08-.21.28-.36.25-.13.14-.27.18-.38.42-.29.09-.51.53-.8.62a7.68,7.68,0,0,1,.29-1.74,7,7,0,0,1,1.38-.91c.43-.44,1-.34,1.38-.91a3.4,3.4,0,0,0-.22-.54,1,1,0,0,0-.94,0c-.34,0-.57.42-.94.25a2.19,2.19,0,0,1,.49-.74c-.44-.29-.76.08-1.12.22-.33.47-.7.74-1,1.25,0,.2-.23.43-.22.62-.21.18,0,.58-.29.58-.16-.34-.35-.66-.49-1s0-.73-.6-1a.41.41,0,0,1-.33.07c-.56,1,0,1.76.16,2.52A13.25,13.25,0,0,0,515,67c-.21.47,0,.84-.2,1.32a3.38,3.38,0,0,0-.58,0c-.8.62-1.83.15-2.63.76-.37.38-.18.65-.16,1a2.09,2.09,0,0,0,1.69.36c.55-.06,1.08-.22,1.63-.27a10,10,0,0,0,1.61-.38c.57,0,1-.36,1.65-.16.16.14.07.33.27.47a14.91,14.91,0,0,1,1.67,1.7,2.46,2.46,0,0,0,1.34.6,1.24,1.24,0,0,0-.33-1.09c-.09-.37-.63-.65-.78-1a3.72,3.72,0,0,1,1,.2,3.5,3.5,0,0,1,1,.2c.07.06,0,.15-.07.25a.57.57,0,0,1,.11.27l.67.45c.08.24.41.42.54.65.29.2.57.33.78.13.09.1.16-.25.11-.31s-.11-.29-.09-.45a2.68,2.68,0,0,1-.62-.8,5.24,5.24,0,0,1,1,.2c.33-.09.74.23,1-.2s-.56-.82-1-1a5.79,5.79,0,0,1-1.45-.29c-.47,0-1-.21-1.45-.29a4.3,4.3,0,0,0-.74-.2c-.14-.13-.23,0-.38-.16-.06,0-.41,0-.31-.11s.39-.16.6-.18c.2-.18.44-.13.65-.24a4.58,4.58,0,0,1,1.27-.31c.94.43,1.79.43,2.72.85.35.49.82,1.15,1.47,1,.29-.05.07-.6.33-.65a3.72,3.72,0,0,1,.91.22c.62.75.67,1.61,1.67,2.28.24,0,.51,0,.69-.31.29-.64-.37-1.09-.45-1.65a9.83,9.83,0,0,0,1.38.25c.47.13,1,.43,1.32-.09s-.31-.9-.89-1.27-1.2-.19-1.83-.45c.19-.13.55-.49.27-.69,0-.27-.44-.27-.58-.29a1.63,1.63,0,0,1-.67.13,3.74,3.74,0,0,1-1.25.42,23.74,23.74,0,0,1-2.68-.63c.67-.43,1.41-.49,2.07-.94.72-.16,1.37-.69,2.1-.82,1,.44,1.41,1.65,2.34,1.56.33-.26.1-.71.31-.76,1,.63,2,1.47,2.79,1.18.38-.66-.42-1.08-.89-1.56a11.05,11.05,0,0,1,1.9-.09c.29-.09.63.06.91-.07a.71.71,0,0,0,1-.13c.18-.29,0-.51-.09-.74a7.51,7.51,0,0,0-3.19-.29c-1.08-.08-2.12.06-3.21-.11.95-.67,2-1.07,2.9-1.74.49-.24,1-.62,1.45-.87s1-.85,1.56-.6c.22.13.11.33.38.45l1.61,1.07a11,11,0,0,1,1.16.58,4.61,4.61,0,0,0,1.12.07,4.71,4.71,0,0,0-1.38-1.7c-.24-.22-.77-.39-.82-.65a12.6,12.6,0,0,1,2.23-.16,6.6,6.6,0,0,1,1.09,0c.17-.1.41.1.58,0,.22.11.38,0,.56-.11a.75.75,0,0,0-.13-1,2.52,2.52,0,0,0-1.25-.16c-.42-.09-.8.05-1.23,0a4.49,4.49,0,0,1-1.2.07c-.16.17-.39,0-.56.11-.11,0-.19,0-.29,0s-.34.15-.25-.07c.49-.44,1-.72,1.52-1.11a12.94,12.94,0,0,1,1.58-1.07c.24.23.42.19.65.33,1.06,0,2.11-.07,3.17-.11.27.07.55.23.78.13C547,57.33,546.62,57,546.07,56.66Z"/></g><path d="M414.32,62.51a1.54,1.54,0,0,1,2.5.91,2.45,2.45,0,0,1-2.28,2.7,2,2,0,0,1-1.61-.88,1.68,1.68,0,0,1-.26-1.92,1.37,1.37,0,0,1,2.53.43c.11.91-1.2,1.43-1.32.51,0-.08-.16-.21-.2-.13l.09-.56c.13.67.78,1.53,1.5.85.42-.4.11-1.05-.33-.7-.74.6-1.35-.61-.62-1.21Z"/><path d="M416.63,54.92a1.31,1.31,0,0,0,1.49.47c.48-.11.69.44.62.85a2.9,2.9,0,0,1-3.3,2.27c-.63-.15-1.39-.7-1.27-1.52a2.56,2.56,0,0,1,1.68-2c.85-.27,1.15,1.11.29,1.38a1,1,0,0,0-.68.84l0-.54c.43.86,1.87.29,2-.69l.62.85a2.41,2.41,0,0,1-2.63-1.09c-.47-.71.73-1.56,1.2-.85Z"/><path d="M421.63,57a2,2,0,0,1,1.78.14.71.71,0,0,1,.28.79c-.22,1.45-1.93,2.39-3,1.73a.73.73,0,0,1-.21-1l.68-1.37c.43-.88,1.57-.26,1.14.61l-.68,1.37-.21-1c.41.25.9-.12,1-.63l.28.79a.8.8,0,0,0-.76-.1c-.85.3-1.15-1.08-.29-1.38Z"/><path d="M407.58,65.95l-1.22.5.05-1.45c.64.15,1.25-1.37.6-1.44-.32,0-.67.43-.8.73a.68.68,0,0,0-.06.48c0-.07-.15,0,.14,0a3.35,3.35,0,0,1,.75,0c.37,0,.55.5.46.86a.82.82,0,0,1-.86.62,3.45,3.45,0,0,1-1.29-.11,1.28,1.28,0,0,1-.51-.75,2.34,2.34,0,0,1,.14-1.57c.43-1,1.47-1.94,2.47-1.73,2.37.48.79,4.94-1.45,4.4-.64-.15-.63-1.17.05-1.45l1.22-.5c.86-.36,1.16,1.06.3,1.41Z"/><path d="M479.87,58.49a1.68,1.68,0,0,1-2.57.65,1.91,1.91,0,0,1,.36-3,2.28,2.28,0,0,1,1.82-.22c.56.16,1.31.51,1.3,1.18a1.43,1.43,0,0,1-2.32,1c-.6-.57.19-1.59.8-1,.05,0,.24.06.24,0l.24.43c-.48-.39-1.5-.65-1.71.18-.12.48.5.78.66.31.27-.79,1.46-.27,1.19.51Z"/><path d="M482.25,64.86a1.48,1.48,0,0,0-1.49.43c-.33.32-.81.05-1-.27a2.42,2.42,0,0,1,1.44-3.24c.6-.22,1.54-.23,1.9.39a1.94,1.94,0,0,1-.26,2.21c-.55.62-1.58-.17-1-.8a.72.72,0,0,0,.09-.92l.34.35c-.84-.37-1.7.76-1.29,1.51l-1-.27a2.75,2.75,0,0,1,2.79-.59c.79.25.28,1.43-.51,1.19Z"/><path d="M477,66a2.18,2.18,0,0,1-1.54.81.68.68,0,0,1-.68-.39,1.89,1.89,0,0,1,1.49-2.71.66.66,0,0,1,.72.56l.21,1.28c.14.82-1.15,1-1.28.16l-.21-1.28.72.56a.6.6,0,0,0-.45.93l-.68-.39a.87.87,0,0,0,.68-.32c.53-.64,1.56.16,1,.8Z"/><path d="M483.49,52.71l.72-1,.77,1c-.61.22-.26,1.57.31,1.29.28-.14.31-.63.24-.91a.54.54,0,0,0-.23-.36c.06,0,.12-.08-.09.1a3.63,3.63,0,0,1-.63.36.67.67,0,0,1-.86-.36.68.68,0,0,1,.36-.86,3.79,3.79,0,0,1,1.12-.58,1.36,1.36,0,0,1,.84.25,1.86,1.86,0,0,1,.77,1.15,2.09,2.09,0,0,1-1.06,2.45c-2.22.87-3.43-3-1.28-3.75a.67.67,0,0,1,.77,1l-.72,1c-.51.68-1.55-.13-1-.81Z"/><path d="M307.78,64.62A1.68,1.68,0,0,0,306.52,67a1.91,1.91,0,0,0,3,.39,2.28,2.28,0,0,0,.66-1.71c0-.59-.17-1.4-.82-1.55a1.43,1.43,0,0,0-1.54,2c.4.72,1.59.21,1.18-.52,0-.06,0-.25.07-.23l-.36-.34c.26.56.26,1.61-.6,1.62-.5,0-.63-.68-.14-.72.83-.07.62-1.35-.2-1.28Z"/><path d="M302.19,60.75a1.48,1.48,0,0,1-.79,1.34c-.39.24-.25.78,0,1a2.42,2.42,0,0,0,3.49-.6c.36-.53.6-1.43.09-1.94a1.94,1.94,0,0,0-2.21-.29c-.73.38-.22,1.57.52,1.18a.72.72,0,0,1,.91.14L304,61.2c.15.9-1.15,1.46-1.78.88l0,1a2.75,2.75,0,0,0,1.26-2.55c0-.83-1.32-.62-1.28.2Z"/><path d="M299.79,65.59a2.18,2.18,0,0,0-1.16,1.3.68.68,0,0,0,.22.75,1.89,1.89,0,0,0,3-.78.66.66,0,0,0-.37-.84l-1.19-.52c-.76-.33-1.23.87-.47,1.21l1.19.52-.37-.84a.6.6,0,0,1-1,.21l.22.75a.87.87,0,0,1,.48-.58c.75-.36.23-1.55-.52-1.18Z"/><path d="M314.28,62.54l1.11-.46-.8-1c-.36.54-1.58-.14-1.17-.62.2-.24.69-.15.94,0a.54.54,0,0,1,.29.31c0-.07.11-.09-.12.06a3.63,3.63,0,0,0-.5.53.67.67,0,0,0,.14.93.68.68,0,0,0,.93-.14,3.79,3.79,0,0,0,.84-.94,1.36,1.36,0,0,0,0-.88,1.86,1.86,0,0,0-.92-1,2.09,2.09,0,0,0-2.63.42c-1.39,1.94,2,4.06,3.32,2.17a.67.67,0,0,0-.8-1l-1.11.46a.66.66,0,0,0,.53,1.21Z"/><path d="M161.07,62.78a1.68,1.68,0,0,1,.91,2.49,1.91,1.91,0,0,1-3-.05,2.28,2.28,0,0,1-.4-1.79c.1-.58.37-1.36,1-1.41a1.43,1.43,0,0,1,1.22,2.21c-.5.66-1.6,0-1.09-.69,0-.06,0-.25,0-.24l.4-.29c-.34.52-.5,1.56.35,1.69.49.07.72-.58.24-.69-.81-.19-.42-1.42.39-1.23Z"/><path d="M167.17,59.78a1.48,1.48,0,0,0,.58,1.44c.35.3.14.8-.17,1a2.42,2.42,0,0,1-3.36-1.11c-.28-.58-.39-1.51.2-1.93a1.94,1.94,0,0,1,2.22,0c.67.49,0,1.59-.69,1.09a.72.72,0,0,0-.92,0l.31-.38c-.28.87.92,1.62,1.63,1.13l-.17,1a2.75,2.75,0,0,1-.87-2.71c.17-.81,1.4-.42,1.23.39Z"/><path d="M168.83,64.92a2.18,2.18,0,0,1,1,1.45.68.68,0,0,1-.32.71,1.89,1.89,0,0,1-2.84-1.21.66.66,0,0,1,.49-.77l1.25-.34c.8-.22,1.09,1,.29,1.26l-1.25.34.49-.77a.6.6,0,0,0,1,.35l-.32.71a.87.87,0,0,0-.39-.65c-.69-.47,0-1.56.69-1.09Z"/><path d="M155,59.76l-1-.62.94-.87c.28.59,1.59.1,1.25-.44-.17-.27-.66-.25-.92-.15a.54.54,0,0,0-.33.26c0-.06-.09-.11.11.07a3.63,3.63,0,0,1,.42.59.67.67,0,0,1-.27.9.68.68,0,0,1-.9-.27,3.79,3.79,0,0,1-.69-1.06,1.36,1.36,0,0,1,.17-.86,1.86,1.86,0,0,1,1.07-.88,2.09,2.09,0,0,1,2.54.81c1.09,2.12-2.62,3.72-3.6,1.66a.67.67,0,0,1,.94-.87l1,.62c.73.44,0,1.56-.7,1.12Z"/><g id="_1805-porrige" data-name="1805-porrige"><path class="cls-3" d="M127.22,35.22c.84.12,1-.43,1.35-.84,0-.13,0-.31.08-.34V33c-.3-1.1-1-1.83-1.35-2.86V28.75c.14-.17.18-.44.34-.59.33,0,.3-.31.42-.5-.18-.33-.35-.66-.93-.59-1.1.41-1.49,1.54-1.51,3,.17,1.37,1,2.08,1.35,3.28C127,34,126.82,34.92,127.22,35.22Zm-5,.17c.36-.8-.34-1.14-.42-1.77s.14-.81.08-1.35c.13-.37.51-.75.25-1.26-.18-.07-.25-.26-.5-.25s-.91.38-.92.67c0,.09-.07,0-.08.08a2.86,2.86,0,0,0-.17.59,4.56,4.56,0,0,0,.08,2.61A1.35,1.35,0,0,0,122.25,35.39Zm9.67,1.35c1.09-.17,1-1.48,1-2.78-.18-.08,0-.47-.25-.5a.59.59,0,0,0-.5-.34c-.31,0-.38.24-.59.34,0,.1,0,.24-.08.25C131.72,34.83,131,36.38,131.93,36.74Zm10.26,7.15a6.09,6.09,0,0,0-1.51-1.35,2.72,2.72,0,0,0-1.43-.08,2.08,2.08,0,0,0-.76-1,10.59,10.59,0,0,0-1.18-.25,8,8,0,0,0-.17-2A4.22,4.22,0,0,0,136,37.66a3.65,3.65,0,0,0-1.93-.76h-.84c-.11,0-.12.11-.25.08a3.71,3.71,0,0,0-1.93.67c-.35.1-.55.35-.84.5s-.42.48-.76.59a2,2,0,0,0-1.09-.5h-1c-.11,0-.16.12-.34.08a6.74,6.74,0,0,0-1.26.59,3.31,3.31,0,0,0-1.35-1c-.05-.12-.32,0-.34-.17a11,11,0,0,0-1.85.08c-.35.24-.81.36-1.18.59a6.59,6.59,0,0,1-1.09.76,1.54,1.54,0,0,0-1-.34,4.75,4.75,0,0,0-3.28,1.35c-.33.4-.6.85-.93,1.26s-.23,1.06-.59,1.35c-.3-.17-.91,0-1.35-.08-.17.11-.48.08-.67.17a3.34,3.34,0,0,0-1.26.84c-.46.27-.65.81-1,1.18a8.32,8.32,0,0,1-.42,1.18,5.09,5.09,0,0,1-1,.17A9.94,9.94,0,0,0,105.52,48a4.6,4.6,0,0,0,0,1.77c0,.27,0,.32.17.42s0,.14,0,.17.23.2.17.34a6.17,6.17,0,0,0,2.61,1.93,5.75,5.75,0,0,0,1.6.67c.49.27,1.24.27,1.6.67a9.66,9.66,0,0,0,.17,1.51,20.27,20.27,0,0,0,.76,2A6.52,6.52,0,0,0,113.93,59a12.64,12.64,0,0,0,5,1.35c1.76.37,3.79.48,5.72.67,1.92,0,3.38,0,5.21,0,2.08-.19,3.87-.67,6-.84.15-.16.51-.11.67-.25.36,0,.45-.22.84-.17a3.68,3.68,0,0,1,1.43-.5,14.39,14.39,0,0,1,1.35-.59,10.81,10.81,0,0,1,1.09-.84A11,11,0,0,0,142.35,56a21.44,21.44,0,0,0,.59-2.94c.27-.06.25-.42.34-.67.66-.54,1.15-1.26,2.19-1.43a20,20,0,0,1,1.77-1.35,4.49,4.49,0,0,1,.67-.84,12.06,12.06,0,0,0,.93-2.94C148.1,43.76,144.88,43.43,142.19,43.88ZM114,56.33a3.27,3.27,0,0,1-.76-1.68,5.58,5.58,0,0,1,.76.17A5.5,5.5,0,0,0,114,56.33Zm2.1,1.26c-.27-.1-.29-.44-.5-.59.16-.21.51.1.76.08a5.71,5.71,0,0,1,.34,1A.51.51,0,0,1,116.12,57.59Zm2.69,1.09c-.08-.51-.49-.69-.59-1.18.27-.14.69.17,1.18.08a4.4,4.4,0,0,1,.42,1.18A5.06,5.06,0,0,0,118.81,58.68Zm23-7.06a1.44,1.44,0,0,1-.25.34,9.58,9.58,0,0,1-1.68,4.63,6.11,6.11,0,0,1-2.44,1.18,11.83,11.83,0,0,1-1.51.34,3.14,3.14,0,0,1-.76.17c-.16.12-.56,0-.67.17a58.77,58.77,0,0,1-6.39.84c-1.21,0-2.43,0-3.53-.08-.37.06-.18-.44-.42-.5a.59.59,0,0,0-.5-.34c-.46,0-.37.48-.5.76-.54-.08-1.13-.1-1.68-.17-.13-.41-.48-.59-.5-1.09.51-.14,1.2-.09,1.51-.42,0-.31-.41-.16-.42-.42-.26,0-.33-.18-.5-.25a3.89,3.89,0,0,0-1.18-.34,11.69,11.69,0,0,0-2.69-.42,3.08,3.08,0,0,0-.76-.34c-.43,0-.55.23-.93.25s-.52.36-.76.17c0-.35-.15-.53-.08-.92.72.06,1.42.15,2.1.25.9-.06,2.12.21,2.44-.42-.1-.77-.89-.84-1.6-1s-1.49-.19-2.19-.34a5.84,5.84,0,0,1-2.1-.5c-.61-.23-1.12-.56-1.77-.76.1-.26.29.09.5,0,.06.17.47,0,.5.17.46,0,.7.2,1.18.17,0,.19.45,0,.51.17.29-.07.32.13.59.08.46,0,.7.2,1.18.17a44.92,44.92,0,0,0,4.71.59h1.6a54,54,0,0,0,11.6-.93,8.38,8.38,0,0,0,1.68.08c1.11-.12,2.07-.39,3.11-.59a12.5,12.5,0,0,1,1.43-.42c.45-.19,1-.31,1.43-.5C142.28,51.39,142,51.66,141.85,51.62Zm4.79-3.87c-.92.39-1.82.88-2.78,1.26-.11,0-.29.15-.34.17s-.15,0-.17,0-.2.08-.42.17c-.06,0-.21.15-.25.17s-.3,0-.42.08-.2.15-.25.17c-.26.09-.5.08-.76.17,0,0,0,.08-.08.08s-.15.05-.25.08c-1.65.53-3.6,1-5.47,1.51-.48-.11-.93-.25-1.43-.34-3,0-5.51.44-8.33.59h-3.28a76.43,76.43,0,0,1-8.24-1A25.8,25.8,0,0,1,110.4,50a15.82,15.82,0,0,1-1.68-.59c-.4-.36-1.06-.45-1.51-.76,0-.26.3-.26.5-.34a.84.84,0,0,1,.5-.25,6.26,6.26,0,0,1,1.09-.5c.35,0,.11.56.42.59a.59.59,0,0,0,.59.34c.43.06.52-.21.76-.34a8.36,8.36,0,0,0,.08-1.85,4.9,4.9,0,0,0,.42-.93,8.37,8.37,0,0,1,1-.84,3.86,3.86,0,0,1,1.09-.08c.78.09,1,.76,1.93.67.17,0,.16-.23.34-.25.24-.63-.26-1-.34-1.51a3.4,3.4,0,0,1,3.28-2.94c-.06.23.4-.06.34.17.2,0,.18.15.42.08a1,1,0,0,0,.76.17c.5-.09.47-.71.84-.93a4.11,4.11,0,0,1,2.35-.76c.11.14.37.13.5.25a3.74,3.74,0,0,0,.42.34,1.08,1.08,0,0,0,.67.76c.47.1.51-.22.76-.34a1.49,1.49,0,0,0,.67-.34,5.43,5.43,0,0,1,1.43-.17c.39,0,.2.53.42.67a7,7,0,0,0,.59.42c.57,0,.74-.56,1.09-.84.16-.12.48-.22.59-.5a4.88,4.88,0,0,1,2.1-.84c.15,0,.18-.1.34-.08a7.1,7.1,0,0,1,1.35.17,3.84,3.84,0,0,1,.92.84,3.44,3.44,0,0,1,.17,1.35c0,.52-.36.7-.34,1.26.14,1,1.36.51,2.35.59.1.43.17.89.5,1.09.54.15,1.22-.1,1.85.08.28.19.47.48.76.67a5.35,5.35,0,0,1-.08,2.94c.12.38.31.7.76.76.86,0,.86-.82,1.09-1.43V45.48c.26-.11.86.07,1.35,0h1.51c.56.31,1.25.48,1.51,1.09C147,47.17,146.36,47.17,146.64,47.75ZM133.86,44a4.9,4.9,0,0,0-1.09,0,3.19,3.19,0,0,0-.5-1.09c-.11-.08-.31-.08-.34-.25-.1,0-.24,0-.25-.08a3.82,3.82,0,0,0-1.93.5c-.51.22-1.26.63-.92,1.43.94.48,1.35-.77,2.52-.59a5.41,5.41,0,0,0,.25,1,2.47,2.47,0,0,0,1.85.59,1.5,1.5,0,0,1,.67.93c.14.11.13.37.25.5a3.5,3.5,0,0,0,.5.34,1.33,1.33,0,0,0,.84-.42C135.81,45.16,134.84,44.56,133.86,44ZM123.6,45.73c-.13,0-.31,0-.34-.08-1,0-2,.07-1.93,1.18.09.14.6.29.76.08a2.8,2.8,0,0,0,1,.08c.43.22.66.63,1.26.67a1,1,0,0,0,.59-.59C124.82,46.31,124.12,46.11,123.6,45.73Zm-9.76,2.61s-.05-.13-.17-.08c-.41-.26-.28-1.06-.93-1.09a.81.81,0,0,0-.67.59,1.58,1.58,0,0,0,.17.93c.06.07,0,.08.08.17a2.14,2.14,0,0,0,.92.59c.06,0,.05.07.08.08a6.51,6.51,0,0,0,2.19.17c.33-.2.71-.36.67-.93a1.4,1.4,0,0,0-.42-.17C115.27,48.39,114.24,48.53,113.85,48.34Zm5.89.67c-.31-.11-.43-.41-.93-.34s-.38.35-.5.59c.19,0,0,.46.25.42,0,.25.19.31.34.42a3.44,3.44,0,0,0,1.09.34c1.08,0,2.14,0,2.27-1C122,48.53,120.67,49.15,119.73,49Zm3.87,1.68a.78.78,0,0,0,.92.59c.35-.27.23-.77,0-1.09C124.12,50,123.47,50.08,123.6,50.7ZM134,63.81c-.89,0-1.68-.12-2.52-.17-4.78-.52-10.52-.08-15.56-.34a2,2,0,0,1-.67-.92c-.22-.06-.18-.38-.42-.42-.06-.22-.38-.18-.42-.42-.35,0-.46-.32-.84-.34-.2-.22-.7-.14-.93-.34h-1.6c-2.28.3-4.19,1-5.13,2.61a4.9,4.9,0,0,0,.17,2.78,6.3,6.3,0,0,0,1.77,1.93,1.5,1.5,0,0,1,.67.34,1.14,1.14,0,0,1,.67.17,10.3,10.3,0,0,0,3.28-.34,5.11,5.11,0,0,0,1.35-.5c.55-.07.79-.44,1.26-.59a3.83,3.83,0,0,1,.76-.76,2.49,2.49,0,0,1,.59-1c.12.19.59,0,.84.08,2.22,0,4.35,0,6.48.08a16.32,16.32,0,0,0,2.61.34,5.16,5.16,0,0,0,1.18.42c.32,0,.53,0,.59.25a1.66,1.66,0,0,1,.59.25,15.38,15.38,0,0,0,2.94.42c.09.19.53,0,.76.08s.53,0,.67.17a15.85,15.85,0,0,0,1.6.08c.18-.19.46-.27.59-.51a5.86,5.86,0,0,0,.42-.76c.07-.61.55-1.22.25-1.93C135.64,63.94,134.84,63.87,134,63.81Zm-19.59,1.51a11.06,11.06,0,0,1-4,.5,5.54,5.54,0,0,0-.76-.17c-.34-.27-.84-.4-1.09-.76-.13,0-.24-.1-.34-.17a1.37,1.37,0,0,1-.59-.67c0-.3.3-.37.5-.5,0,0,0-.08.08-.08s.56-.35.84-.42a9.61,9.61,0,0,1,1.93-.5,21.42,21.42,0,0,1,2.27.25,3,3,0,0,1,1.43,2.1C114.54,65,114.39,65.06,114.43,65.33Zm19,.59a4.57,4.57,0,0,1-.84-.17c-1.26,0-2.38-.14-3.53-.25q-.28,0-.25-.25l5.3.42C134.12,66,133.71,66,133.44,65.92Z"/></g><g id="_3009-wine-glass-5" data-name="3009-wine-glass"><path class="cls-3" d="M474.11,52.95c0-.23-.2-.26-.23-.45-.27-.16-.41-.45-.68-.61s-.57-.29-.76-.53a3.31,3.31,0,0,1-.91-.38,17.18,17.18,0,0,1-2.42-.61c0-.82-.15-1.64-.15-2.5,0-1.46.14-3,0-4.32a6,6,0,0,1,1.14-2,16.4,16.4,0,0,1,1.82-1.36,12.87,12.87,0,0,0,3.94-8.56c0-1.49,0-3-.08-4.39-.11-.62-.1-1.37-.15-2-.13-.36,0-.54,0-1s-.17-.58-.15-1a4.41,4.41,0,0,0-1.59-1.67,24.94,24.94,0,0,0-6.59-.45c-.1,0-.1.1-.23.08-2.34,0-3.86.79-5.83,1.14a9.12,9.12,0,0,0-1.06.68,3,3,0,0,0-1,.76c0,.19-.14.27-.23.38a12.35,12.35,0,0,0-.3,4.92,25.3,25.3,0,0,0,.53,5,14.81,14.81,0,0,0,1.36,4.17,6.92,6.92,0,0,0,2.65,3,6.57,6.57,0,0,0,2,.61,4.16,4.16,0,0,1,1.06,1.74c.17.71,0,1.77.15,2.5s-.08,1.72-.08,2.57a7.14,7.14,0,0,1,0,1.89c-.19.16-.62.09-.83.23a2.17,2.17,0,0,0-.83.23c-.55.18-1.06.4-1.59.61-.18.28-.62.29-.76.61-.36.12-.53.43-.76.68a2.61,2.61,0,0,0-.76,2c.13.08.08.32.15.45a3.34,3.34,0,0,1,.3.38c.32.11.47.39.83.45.15.28.58.28.83.45a4.41,4.41,0,0,0,1,.3,3.82,3.82,0,0,0,1,.3,4.39,4.39,0,0,0,1.14.15c.77.12,1.67.09,2.5.15a11.17,11.17,0,0,0,4.39-.91,6.24,6.24,0,0,0,.83-.83c.11-.17.26-.29.38-.45s.17-.44.3-.61a7,7,0,0,0-.08-1.44C474.18,53.28,474.29,53,474.11,52.95Zm-4.62-13.41c.14-.09.49-.19.61-.08C470,39.88,469.67,39.73,469.49,39.54Zm1.44-1.82c0-.09.08,0,.08,0S470.93,37.77,470.93,37.72Zm1.67-1c.06.21-.15.15-.15.3s-.26.35-.38.53c-.13-.1-.3-.16-.3-.38a2,2,0,0,0,.83-.68C472.86,36.45,472.67,36.71,472.6,36.74Zm1.14-2.57c-.19,0-.23-.12-.38-.15,0-.25.13-.38.08-.68a1.24,1.24,0,0,1,.53-.15C473.92,33.54,473.8,33.83,473.73,34.16Zm.3-4.54v-.15c.15,0,.24,0,.23.15Zm-13.1-5.3c.18-.19.44-.32.61-.53l.76-.38c.22-.13.57-.14.76-.3a31,31,0,0,1,3.86-.53h2c.13,0,.2-.13.23,0h2.27c1.31.17,2.82.16,3.79.68-.07.44-.6.41-.76.76s-.55.46-.76.76a8.94,8.94,0,0,1-2.2.83c-.3.2-.86.15-1.21.3a13.41,13.41,0,0,0-1.36.15,43.67,43.67,0,0,1-6.82-.15c-.27-.19-.65-.26-.91-.45s-.73-.18-.83-.53S460.77,24.53,460.93,24.32Zm.38,9.24c0-.09.08,0,.08,0S461.31,33.6,461.31,33.56Zm.15-.15c-.19-.15,0-.51.08-.68a5,5,0,0,0,.15-.68,3.19,3.19,0,0,0,.23-.68,5.35,5.35,0,0,0,.23-.61c0-.1.13-.12.15-.23s.13.07.23.08a6.05,6.05,0,0,1-.61,1.36C461.85,32.53,461.56,32.88,461.46,33.41Zm.53,3.79c.09.49-.23.17,0,0C461.91,36.79,462.22,37.1,462,37.19Zm1.36-5a10.21,10.21,0,0,0-.45,1.44c-.16,0,0,.33-.15.38,0,.18-.14.17-.08.38-.13.17-.07.53-.23.68-.06.57-.24,1-.3,1.59-.23-.19.06-.49,0-.76a1.71,1.71,0,0,0,.15-.76c.16-.14,0-.56.23-.68a1.72,1.72,0,0,1,.15-.68c.15-1,.48-1.85.68-2.8a.36.36,0,0,0,.08-.23c.24,0,.27.14.53.08,0,.33-.24.41-.3.68S463.48,32,463.36,32.2Zm.38,7.42a1.19,1.19,0,0,0,.53-.83c.24,0,.13.38.15.61.11.47.59.57.68,1.06A8.11,8.11,0,0,1,463.73,39.62Zm1.06-3.56a5,5,0,0,1,.15-.68,1.22,1.22,0,0,1-.15,1.21C464.54,36.56,464.75,36.23,464.79,36.06Zm.23-4.7c0,.09-.11,0,0,0,0-.21-.11-.56.23-.45C465.28,31.16,465.12,31.23,465,31.36Zm.53,1.82c.13,0,.17.13.15.3A.33.33,0,0,1,465.55,33.18Zm-5.45-4.62c-.18-.55-.1-1.36-.23-2,.43.2.8.46,1.21.68a15.82,15.82,0,0,0,5,.38h2.27A12,12,0,0,0,474,26.21c0-.08.15-.05.15-.15s.07,0,.08.08c0,.66,0,1.54,0,2-.31.07-.62.14-.91.23-.06.22-.23.33-.38.45-.33,2.12-.68,4.22-1.14,6.21a7.52,7.52,0,0,1-.76,1.44,2.06,2.06,0,0,1-.45.61c-.18.11-.49.36-.68.23-.43,0-.23-.67-.45-.91,0-.16.09-.5-.08-.53.09-.24.09-.57.23-.76-.06-.21-.09-.47-.15-.68.17-.14,0-.59.15-.76-.05-.33.13-.43.08-.76.13-.15.08-.47.15-.68a5,5,0,0,0,.15-.68c.08-.75.9-1.84.3-2.65-.74-.14-1.39.34-2,.53A22.1,22.1,0,0,1,460.1,28.56Zm8.18,9.31c.12,0,.15.5-.08.38C468.17,38.07,468.34,38.09,468.28,37.88Zm-1.82-6.13a1.37,1.37,0,0,1,.3.68C466.29,32.57,466.51,32,466.46,31.74Zm6.36,22.8a.38.38,0,0,0-.23.23l-.61.3c-.45.15-1,.24-1.44.38a2.51,2.51,0,0,0-.91.08h-2.35a15.48,15.48,0,0,1-3.79-.83.21.21,0,0,0-.23-.15c-.13-.33-.49-.42-.45-.91.2-.63.89-.78,1.51-1a14.24,14.24,0,0,1,2-.53c-.05.75.05,1.67-.38,2,.18.28.61.3,1,.38s.38-.27.61-.38.47-.13.53-.38a.41.41,0,0,0-.38-.45c.07-.23.45-.15.38-.53.1-.45-.48-.23-.45-.61-.12-.48.4-.31.38-.68s-.38-.32-.45-.61a32.22,32.22,0,0,1,.23-4.24,16.72,16.72,0,0,1,.15-3.26c.17.1,0,.53.08.76V45c0,.24-.14.27-.08.53,0,1,.19,2,.15,3.1.3,1.31.24,3,.53,4.32.06.39-.11.55-.08.91a.6.6,0,0,0,.61.45c.76-.06.41-1.51.38-2.12a5,5,0,0,1,3.18,1.14,2.86,2.86,0,0,1,.3.83C472.82,54.18,473,54.49,472.82,54.54Z"/></g><g id="_3009-wine-glass-6" data-name="3009-wine-glass"><path class="cls-3" d="M96.61,41.2a12.87,12.87,0,0,0,3.94-8.56c0-1.49,0-3-.08-4.39-.11-.62-.1-1.37-.15-2-.13-.36,0-.54,0-1s-.17-.58-.15-1a4.41,4.41,0,0,0-1.59-1.67A24.94,24.94,0,0,0,92,22.11c-.1,0-.1.1-.23.08-2.34,0-3.86.79-5.83,1.14a9.11,9.11,0,0,0-1.06.68,3,3,0,0,0-1,.76c0,.19-.14.27-.23.38a12.35,12.35,0,0,0-.3,4.92,25.3,25.3,0,0,0,.53,5,14.81,14.81,0,0,0,1.36,4.17,6.92,6.92,0,0,0,2.65,3,6.57,6.57,0,0,0,2,.61,4.16,4.16,0,0,1,1.06,1.74c.17.71,0,1.77.15,2.5S91,48.75,91,49.61a7.14,7.14,0,0,1,0,1.89c-.19.16-.62.09-.83.23a2.17,2.17,0,0,0-.83.23c-.55.18-1.06.4-1.59.61-.18.28-.62.29-.76.61-.36.12-.53.43-.76.68a2.61,2.61,0,0,0-.76,2c.13.08.08.32.15.45a3.34,3.34,0,0,1,.3.38c.32.11.47.39.83.45.15.28.58.28.83.45a4.41,4.41,0,0,0,1,.3,3.82,3.82,0,0,0,1,.3,4.39,4.39,0,0,0,1.14.15c.77.12,1.67.09,2.5.15a11.17,11.17,0,0,0,4.39-.91,6.25,6.25,0,0,0,.83-.83c.11-.17.26-.29.38-.45s.17-.44.3-.61A7,7,0,0,0,99,54.3c-.15,0,0-.35-.23-.38,0-.23-.2-.26-.23-.45-.27-.16-.41-.45-.68-.61s-.57-.29-.76-.53a3.31,3.31,0,0,1-.91-.38,17.17,17.17,0,0,1-2.42-.61c0-.82-.15-1.64-.15-2.5,0-1.46.14-3,0-4.32a6,6,0,0,1,1.14-2A16.41,16.41,0,0,1,96.61,41.2Zm-1-2.5c0-.09.08,0,.08,0S95.62,38.74,95.62,38.7Zm1.67-1c.06.21-.15.15-.15.3s-.26.35-.38.53c-.13-.1-.3-.16-.3-.38a2,2,0,0,0,.83-.68C97.56,37.42,97.37,37.68,97.29,37.72Zm1.14-2.57c-.19,0-.23-.12-.38-.15,0-.25.13-.38.08-.68a1.24,1.24,0,0,1,.53-.15C98.61,34.52,98.49,34.8,98.43,35.14Zm.3-4.54v-.15c.15,0,.24,0,.23.15Zm-13.1-5.3c.18-.19.44-.32.61-.53l.76-.38c.22-.13.57-.14.76-.3a31,31,0,0,1,3.86-.53h2c.13,0,.2-.13.23,0h2.27c1.31.17,2.82.16,3.79.68-.07.44-.6.41-.76.76s-.55.46-.76.76a9,9,0,0,1-2.2.83c-.3.2-.86.15-1.21.3a13.41,13.41,0,0,0-1.36.15,43.67,43.67,0,0,1-6.82-.15c-.27-.19-.65-.26-.91-.45s-.73-.18-.83-.53S85.46,25.51,85.63,25.29ZM86,34.53c0-.09.08,0,.08,0S86,34.58,86,34.53Zm.15-.15c-.19-.15,0-.51.08-.68a5,5,0,0,0,.15-.68,3.2,3.2,0,0,0,.23-.68,5.34,5.34,0,0,0,.23-.61c0-.1.13-.12.15-.23s.13.07.23.08a6.05,6.05,0,0,1-.61,1.36C86.54,33.51,86.26,33.85,86.16,34.38Zm.53,3.79c.09.49-.23.17,0,0C86.61,37.77,86.92,38.08,86.69,38.17Zm1.36-5a10.22,10.22,0,0,0-.45,1.44c-.16,0,0,.33-.15.38,0,.18-.14.17-.08.38-.13.17-.07.53-.23.68-.06.57-.24,1-.3,1.59-.23-.19.06-.49,0-.76a1.71,1.71,0,0,0,.15-.76c.16-.14,0-.56.23-.68a1.72,1.72,0,0,1,.15-.68c.15-1,.48-1.85.68-2.8a.36.36,0,0,0,.08-.23c.24,0,.27.14.53.08,0,.33-.24.41-.3.68S88.18,33,88.05,33.17Zm.38,7.42a1.19,1.19,0,0,0,.53-.83c.24,0,.13.38.15.61.11.47.59.57.68,1.06A8.11,8.11,0,0,1,88.43,40.59ZM89.49,37a5,5,0,0,1,.15-.68,1.22,1.22,0,0,1-.15,1.21C89.23,37.53,89.45,37.2,89.49,37Zm.23-4.7c0,.09-.11,0,0,0,0-.21-.11-.56.23-.45C90,32.14,89.81,32.21,89.72,32.34Zm.53,1.82c.13,0,.17.13.15.3A.33.33,0,0,1,90.25,34.16Zm3.56,21.13c.76-.06.41-1.51.38-2.12a5,5,0,0,1,3.18,1.14,2.86,2.86,0,0,1,.3.83c-.16,0,0,.33-.15.38a.38.38,0,0,0-.23.23l-.61.3c-.45.15-1,.24-1.44.38a2.51,2.51,0,0,0-.91.08H92a15.48,15.48,0,0,1-3.79-.83.21.21,0,0,0-.23-.15c-.13-.33-.49-.42-.45-.91.2-.63.89-.78,1.51-1a14.24,14.24,0,0,1,2-.53c-.05.75.05,1.67-.38,2,.18.28.61.3,1,.38s.38-.27.61-.38.47-.13.53-.38a.41.41,0,0,0-.38-.45c.07-.23.45-.15.38-.53.1-.45-.48-.23-.45-.61-.12-.48.4-.31.38-.68s-.38-.32-.45-.61a32.23,32.23,0,0,1,.23-4.24,16.73,16.73,0,0,1,.15-3.26c.17.1,0,.53.08.76V46c0,.24-.14.27-.08.53,0,1,.19,2,.15,3.1.3,1.31.24,3,.53,4.32.06.39-.11.55-.08.91A.6.6,0,0,0,93.81,55.29ZM91.16,32.72a1.37,1.37,0,0,1,.3.68C91,33.54,91.2,33,91.16,32.72ZM93,38.85c.12,0,.15.5-.08.38C92.87,39,93,39.06,93,38.85Zm1.14-2c.09-.24.09-.57.23-.76-.06-.21-.09-.47-.15-.68.17-.14,0-.59.15-.76-.05-.33.13-.43.08-.76.13-.15.08-.47.15-.68a5,5,0,0,0,.15-.68c.08-.75.9-1.84.3-2.65-.74-.14-1.39.34-2,.53a22.1,22.1,0,0,1-8.18-.83c-.18-.55-.1-1.36-.23-2,.43.2.8.46,1.21.68a15.82,15.82,0,0,0,5,.38H93a12,12,0,0,0,5.68-1.44c0-.08.15-.05.15-.15s.07,0,.08.08c0,.66,0,1.54,0,2-.31.07-.62.14-.91.23-.06.22-.23.33-.38.45C97.34,31.88,97,34,96.53,36a7.52,7.52,0,0,1-.76,1.44,2.06,2.06,0,0,1-.45.61c-.18.11-.49.36-.68.23-.43,0-.23-.67-.45-.91C94.14,37.18,94.28,36.84,94.11,36.81Zm.08,3.71c.14-.09.49-.19.61-.08C94.74,40.85,94.37,40.7,94.18,40.52Z"/></g><g id="_3009-wine-glass-7" data-name="3009-wine-glass"><path class="cls-3" d="M594.54,56.35a13.67,13.67,0,0,0,4.18-9.09c0-1.58,0-3.19-.08-4.67-.12-.66-.1-1.45-.16-2.17-.14-.38,0-.57,0-1s-.18-.62-.16-1a4.69,4.69,0,0,0-1.69-1.77,26.49,26.49,0,0,0-7-.48c-.1,0-.11.1-.24.08-2.48,0-4.1.83-6.19,1.21a9.67,9.67,0,0,0-1.13.72,3.16,3.16,0,0,0-1,.8c0,.21-.15.28-.24.4a13.12,13.12,0,0,0-.32,5.23,26.87,26.87,0,0,0,.56,5.31,15.72,15.72,0,0,0,1.45,4.42,7.35,7.35,0,0,0,2.82,3.14,7,7,0,0,0,2.09.64,4.42,4.42,0,0,1,1.13,1.85c.18.75,0,1.88.16,2.65.06.93-.08,1.83-.08,2.73a7.59,7.59,0,0,1,0,2c-.2.17-.66.09-.88.24a2.31,2.31,0,0,0-.88.24c-.58.2-1.13.43-1.69.64-.19.29-.66.31-.8.64-.38.13-.56.46-.8.72a2.77,2.77,0,0,0-.8,2.17c.13.08.09.34.16.48a3.54,3.54,0,0,1,.32.4c.34.12.49.42.88.48.16.29.62.29.88.48a4.68,4.68,0,0,0,1,.32,4.06,4.06,0,0,0,1,.32,4.66,4.66,0,0,0,1.21.16c.81.12,1.78.1,2.65.16a11.86,11.86,0,0,0,4.67-1,6.62,6.62,0,0,0,.88-.88c.11-.18.28-.31.4-.48s.18-.46.32-.64a7.45,7.45,0,0,0-.08-1.53c-.16-.05-.05-.38-.24-.4,0-.24-.21-.27-.24-.48-.29-.17-.43-.48-.72-.64s-.61-.31-.8-.56a3.51,3.51,0,0,1-1-.4,18.23,18.23,0,0,1-2.57-.64c0-.88-.16-1.74-.16-2.65,0-1.55.15-3.16,0-4.58a6.35,6.35,0,0,1,1.21-2.09A17.43,17.43,0,0,1,594.54,56.35Zm-1-2.65c0-.09.08,0,.08,0S593.49,53.74,593.49,53.69Zm1.77-1c.06.22-.16.16-.16.32a6.91,6.91,0,0,1-.4.56c-.14-.1-.32-.17-.32-.4a2.15,2.15,0,0,0,.88-.72C595.54,52.34,595.34,52.61,595.26,52.65Zm1.21-2.73c-.2,0-.25-.13-.4-.16,0-.26.14-.4.08-.72a1.31,1.31,0,0,1,.56-.16C596.67,49.25,596.54,49.55,596.47,49.91Zm.32-4.83v-.16c.16,0,.25,0,.24.16Zm-13.92-5.63c.2-.21.47-.34.64-.56l.8-.4c.23-.14.61-.14.8-.32a32.88,32.88,0,0,1,4.1-.56h2.17c.14,0,.21-.14.24,0h2.41c1.4.19,3,.16,4,.72-.07.46-.64.44-.8.8s-.58.49-.8.8a9.5,9.5,0,0,1-2.33.88c-.32.22-.91.16-1.29.32a14.24,14.24,0,0,0-1.45.16,46.39,46.39,0,0,1-7.24-.16c-.28-.2-.69-.27-1-.48s-.77-.19-.88-.56S582.7,39.68,582.87,39.46Zm.4,9.81c0-.09.08,0,.08,0S583.28,49.31,583.28,49.27Zm.16-.16c-.2-.16,0-.54.08-.72a5.33,5.33,0,0,0,.16-.72,3.39,3.39,0,0,0,.24-.72,5.67,5.67,0,0,0,.24-.64c0-.11.14-.13.16-.24s.14.08.24.08a6.43,6.43,0,0,1-.64,1.45C583.85,48.18,583.55,48.55,583.44,49.11Zm.56,4c.09.52-.25.18,0,0C583.91,52.7,584.24,53,584,53.13Zm1.45-5.31a10.84,10.84,0,0,0-.48,1.53c-.17,0,0,.35-.16.4,0,.19-.15.18-.08.4-.14.18-.08.57-.24.72-.06.61-.25,1.09-.32,1.69-.24-.2.06-.52,0-.8a1.81,1.81,0,0,0,.16-.8c.17-.15.05-.59.24-.72a1.82,1.82,0,0,1,.16-.72c.16-1.08.51-2,.72-3a.38.38,0,0,0,.08-.24c.25,0,.28.15.56.08,0,.35-.26.44-.32.72S585.58,47.61,585.45,47.82Zm.4,7.88a1.26,1.26,0,0,0,.56-.88c.25,0,.14.4.16.64.12.5.63.61.72,1.13A8.61,8.61,0,0,1,585.85,55.7ZM587,51.92a5.29,5.29,0,0,1,.16-.72,1.29,1.29,0,0,1-.16,1.29C586.7,52.45,586.93,52.1,587,51.92Zm.24-5c0,.1-.12,0,0,0,0-.22-.11-.6.24-.48C587.49,46.73,587.32,46.8,587.22,46.94Zm.56,1.93c.14,0,.18.14.16.32A.35.35,0,0,1,587.78,48.87Zm3.78,22.44c.81-.06.43-1.61.4-2.25a5.31,5.31,0,0,1,3.38,1.21,3,3,0,0,1,.32.88c-.17,0,0,.35-.16.4a.41.41,0,0,0-.24.24l-.64.32c-.48.16-1,.26-1.53.4a2.67,2.67,0,0,0-1,.08h-2.49a16.44,16.44,0,0,1-4-.88.22.22,0,0,0-.24-.16c-.14-.35-.52-.44-.48-1,.22-.67.94-.83,1.61-1a15.12,15.12,0,0,1,2.09-.56c-.06.8.06,1.77-.4,2.17.19.3.65.32,1,.4s.41-.29.64-.4.5-.14.56-.4a.43.43,0,0,0-.4-.48c.08-.24.48-.16.4-.56.1-.48-.51-.24-.48-.64-.13-.51.42-.33.4-.72s-.41-.34-.48-.64a34.23,34.23,0,0,1,.24-4.5,17.76,17.76,0,0,1,.16-3.46c.18.11,0,.56.08.8v.88c0,.25-.14.28-.08.56,0,1.11.2,2.11.16,3.3.32,1.4.26,3.17.56,4.58.06.41-.11.58-.08,1A.63.63,0,0,0,591.56,71.31Zm-2.81-24a1.45,1.45,0,0,1,.32.72C588.57,48.21,588.79,47.64,588.75,47.34Zm1.93,6.52c.13,0,.16.53-.08.4C590.56,54.06,590.74,54.08,590.68,53.85Zm1.21-2.17c.1-.25.09-.61.24-.8-.07-.23-.09-.5-.16-.72.18-.15,0-.63.16-.8-.06-.35.14-.45.08-.8.14-.16.09-.5.16-.72a5.29,5.29,0,0,0,.16-.72c.09-.8,1-2,.32-2.82-.79-.15-1.48.36-2.17.56A23.47,23.47,0,0,1,582,44c-.19-.59-.11-1.45-.24-2.09.46.22.85.49,1.29.72a16.81,16.81,0,0,0,5.31.4h2.41a12.73,12.73,0,0,0,6-1.53c0-.09.16-.05.16-.16s.08,0,.08.08c0,.7,0,1.63,0,2.09-.33.07-.66.14-1,.24-.06.24-.24.35-.4.48-.35,2.25-.72,4.48-1.21,6.6a8,8,0,0,1-.8,1.53,2.19,2.19,0,0,1-.48.64c-.19.12-.52.39-.72.24-.46,0-.25-.72-.48-1C591.92,52.08,592.06,51.72,591.88,51.68Zm.08,3.94c.15-.1.52-.2.64-.08C592.55,56,592.16,55.82,592,55.62Z"/></g><g id="_3010-wine" data-name="3010-wine"><path class="cls-3" d="M276.91,55.12c.07-2.73-.07-5.26-.13-7.87-.21-.78-.22-1.76-.39-2.58-.11-5.7.25-12.09-.26-17a39,39,0,0,0-2.84-6.19,13,13,0,0,1-1.68-2.19,37.3,37.3,0,0,1-.9-7c-.09-.48.45-.32.64-.52s.39-.38.39-.77c-.27-.63,0-1.84-.26-2.45-.17-.22-.27-.51-.65-.52-.2-.23-.88,0-.77-.52.12-1.46.09-3.63-.65-4.64-.41,0-.55-.23-1-.13-.16,0-.18.17-.39.13a12.51,12.51,0,0,1-2.19,0,9.6,9.6,0,0,0-1.55.9c.09,1.41-.53,2.69-.13,4-.54.19-1.28.18-1.68.52a4.86,4.86,0,0,0-.26,3.09c.24.19.32.54.64.64.2.27,1-.08.9.52,0,2.06.1,3.52,0,5.42-.3.26-.21.9-.52,1.16a5.67,5.67,0,0,1-.52,1.16c-.35.77-.91,1.32-1.29,2.06A17.65,17.65,0,0,0,259.37,27c-1,3.47-1.1,7.93-1.16,12.38.12.44.17.95.26,1.42-.07,4.84.39,9.15.26,14.06.18,1.32.32,2.69.52,4,.47.52,1.07.91,1.55,1.42a30.57,30.57,0,0,0,6.71.77,23.67,23.67,0,0,0,5.29-.9,12.92,12.92,0,0,0,2.19-.9c.56,0,.66-.37,1.16-.39.28-.24.77-.26.77-.77.3-.22,0-1,.13-1.42A7.75,7.75,0,0,0,276.91,55.12Zm-7-45.39c0,.85-1.23.49-1.93.64-.36.11-.8.15-1.16.26a3.23,3.23,0,0,1-.13-1.29,3.24,3.24,0,0,1,1.29.13C268.63,9.57,269.73,9.21,269.95,9.72Zm-2.06-5.29v.77c.16.42-.42.1-.26.52-.11.41.33.27.39.52a4.29,4.29,0,0,1-.13,1.55h-2.19a10.87,10.87,0,0,0-.39-3.1A3.31,3.31,0,0,1,267.88,4.43Zm-2.71,4.9h.39c.08.51.38,1.17,0,1.42C265,10.67,265.19,9.92,265.18,9.33Zm-4.64,23.21a19,19,0,0,1,1.68-8c1.06-2.16,2.63-3.81,3.22-6.45a50.78,50.78,0,0,0-.13-5.42V12.3c1.41.36,3-.21,4.39.13,0,1-.17,1.89-.26,2.84a15.09,15.09,0,0,0,.65,4.64A15.74,15.74,0,0,0,271.37,22c.08.48.48.63.52,1.16.33.19.25.78.64.9.3.77.75,1.4,1,2.19.1.22.17.42.26.65s.23.45.26.52c.15.32.48.64.39,1.16a54,54,0,0,0-7.48.64c-1.62,0-3.46-.19-4.26.65-.1,1.13.16,1.9.13,3A4.69,4.69,0,0,1,260.53,32.55Zm2.58,14.57c0-.58-.32-.8-.39-1.29a19.14,19.14,0,0,1,.39-3.09c.26.34.07,1.14.26,1.55v.77c.1.45-.19.49-.13.9,0,1.16.16,2.25.26,3.35C262.82,49,263,47.9,263.11,47.12Zm3,11.48h-.39v-.26c.11,0,.12-.05.13-.13h.26Zm-.13-7.74c.05-.31-.24-.28-.13-.64h.9A1,1,0,0,1,265.95,50.86Zm8,6.45a2.3,2.3,0,0,1-1.93.77,4.62,4.62,0,0,1-2.32.39c-.52-.42-1.16-1-.9-1.81.72-.44,2.07-.25,2.71-.77.36-.29.4-.89.64-1.29.08-.6-.17-1.54.13-1.93,0-.32.2-.4.39-.52h.77C274.39,53,274.1,55.73,273.95,57.31Zm-6.06-6.83c.27-.3,1.11-.09,1.42,0C269.21,51.18,268.18,50.71,267.88,50.47Zm6.71-3a38.6,38.6,0,0,0-3.87.65,31.89,31.89,0,0,1-3.74-.26c-.62-.1-.83.2-1.42.13a10.41,10.41,0,0,1-.26-2.19c-.09-.39.13-.47.13-.77,0-2.85-.05-5.62-.26-8.25V35c-.18-.55-.05-1.41-.26-1.93,0-.65-.32-1.42-.13-1.8,3.41.06,6.31-.4,9.8-.26,0,2.31.21,4.43.13,6.83-.31-.54-.27-1.45-1-1.55s-.61.68-1.16.77a1.91,1.91,0,0,0-1.68-1.42c-.78,0-.91.72-1.16,1.29-.49-.15-.41-.88-.9-1-.23.07-.76-.16-.77.13-.43,0-.71-.65-1.16-.26s-.12,1.51-.13,2.19c.27.16.08.78.39.9,0,.44.38.48.65.65a.83.83,0,0,0,.9-.65c.46.14.51.69,1,.77.87-.2,1.06-1.09,1.29-1.93.74.43.44,1.89,1.55,1.93.66.06.86-.35,1.16-.65s.87-.25.9-.77c.3.22,0,1,.13,1.42v1.55c.11.37-.18.34-.13.65Zm.13,4.26c0-.15.13-.07.13,0S274.72,51.84,274.72,51.76ZM267,5.47c0-.59-.41-.67-.77-.52v.52A.63.63,0,0,0,267,5.47Zm-.39,1.68c.53.05.81-.13.77-.64C267,5.57,265.86,6.58,266.59,7.14Zm22.18,38c.56,0,.66-.37,1.16-.39,1-.72,2.14-1.38,3.1-2.19.06-.41.49-.45.52-.9.39-.08.25-.69.64-.77.12-.87.62-1.36.64-2.32a10.06,10.06,0,0,0,.52-2.58V33.45a2.77,2.77,0,0,1-.13-1.16c-.12-.36,0-.91-.26-1.16-.15-1.65-.77-2.84-1-4.39-.49-.63-.88-1.36-1.42-1.93-1.82-.9-5-1.11-7.61-.77a10.1,10.1,0,0,0-4.39.9c-2.52,2.17-2.83,6.54-2.71,11.35a11.44,11.44,0,0,0,3,6.83,20.61,20.61,0,0,0,2.32,1.29c.86.39,2,.54,2.45,1.29.05,2.87.15,5.7.39,8.38a7.74,7.74,0,0,1-3,2.19c-1,.53-2.84.26-3.1,1.55,0,1.42,1.33,1.51,2.19,2.06a35.37,35.37,0,0,0,7.87.52c1.08-.21,2.06-.52,3.1-.77.71-.63,2.07-.59,2.06-1.93a.62.62,0,0,0-.64-.65,1.2,1.2,0,0,0-.77-.52c-.62-.29-1.29-.52-1.93-.77-.48-.38-1.29-.43-1.81-.77s-1.45-.35-1.81-.9V51.89c-.31-.46.07-1.62-.26-2.06a17.5,17.5,0,0,0-.13-2.19c.1-.83-.35-1.44.13-1.93C287.88,45.24,288.55,45.44,288.78,45.19ZM284,25.2a24.74,24.74,0,0,1,3-.13,20.46,20.46,0,0,1,3.61-.13,5.43,5.43,0,0,0,1.16.39c.13.38.65.38.52,1-.29,1.25-1.95.9-3.35.9h-4.26c-1-.3-2.6,0-2.84-1C281.87,25.22,283.12,25.39,284,25.2Zm4.13,31.47a24.14,24.14,0,0,1,2.32.9c-.09.47-1,.14-1.29.39h-2.84a8,8,0,0,0-2.06-.13c.63-.62,1.61-.88,2.06-1.68a.63.63,0,0,0,.64-.26C287.63,55.88,287.69,56.46,288.13,56.66Zm-1.55-23.08h-3.22a22.93,22.93,0,0,0-3.48-.26,21.39,21.39,0,0,1,.52-5.67c3,1.2,8.3,1.35,12,.64a23,23,0,0,1,.9,4.77c-.24.23-.85.09-1.29.13,0,1.41.2,2.72.13,4.26-.35,1.2-.43,2.67-2.06,2.58-1.08-.61-.62-2-.52-3.35a28.77,28.77,0,0,1,.13-3.09C288.91,33.49,287.83,33.58,286.58,33.58Zm-14.7,8.51c-1.06,0-2.18-.11-2.32.77a1.27,1.27,0,0,0,1.16.65h1.93c.58-.23,1.54-.09,1.55-.9S272.61,42,271.88,42.09Zm-.52,3.48c.1,0,.15.11.13.26.79,0,1.61.07,1.68-.64C272.9,44.56,271.25,44.67,271.37,45.57Z"/></g><g id="_0706-herbs-3" data-name="0706-herbs"><path class="cls-3" d="M461.64,66.21c-.15-.27-.54-.3-.8-.47a9.05,9.05,0,0,0-2.06-.46c-.11,0-.11-.06-.2-.07a17.26,17.26,0,0,0-2.33.07c-2.21.58-3.92,1.66-4.72,3.65a2.37,2.37,0,0,0-.07,1.06c-.12.11-.35.09-.53.13a1.44,1.44,0,0,1-.6.07h-1.26c-.42,0-.83-.35-1.26-.13,0,.15-.22.18-.27.33a.76.76,0,0,0,.33.86c.11.11.3.14.4.27a.87.87,0,0,1,.47.13h1.93c.23-.08.55-.07.8-.13s.51-.07.66-.2a13.21,13.21,0,0,1,1.4.8,3,3,0,0,1,.73.13c3.24,0,5-1.45,6.64-3,.2-.39.55-.65.73-1.06a2.84,2.84,0,0,0,.33-.6s.11-.09.13-.13a1,1,0,0,0,.07-.53A.82.82,0,0,0,461.64,66.21Zm-2.19,1.59a16.05,16.05,0,0,1-1.73.8l-1.93.66c.12-.3.13-.87-.2-.93-.57,0-.73.34-1.13.47a1.33,1.33,0,0,1-.53.27c-.21.22-.39-.13-.6-.13a3,3,0,0,1,1.46-1.4,5.52,5.52,0,0,1,2.06-.8A11,11,0,0,1,460,67C459.92,67.34,459.64,67.52,459.45,67.8Z"/></g><g id="_0706-herbs-4" data-name="0706-herbs"><path class="cls-3" d="M85.58,68.42l-.29-.92a3.31,3.31,0,0,0-1.4-1.27,2.15,2.15,0,0,1-.7-.22c-.27,0-.59,0-.8-.13a3.37,3.37,0,0,0,.68-2.29,4.11,4.11,0,0,0-.21-.69c-.13,0-.12-.26-.26-.23-.05-.17-.21-.15-.28-.29a2.23,2.23,0,0,0-1.85-.06s0,.05,0,.08-.12.11-.27.15c-.08.22-.28.37-.32.6-.2.17-.14.47-.3.66A9.92,9.92,0,0,1,79.36,65a4.55,4.55,0,0,0-3.07-.94l-.92.29a2.63,2.63,0,0,0-.47.52,1.37,1.37,0,0,0,.1.73c.35.22,1-.18,1.55-.29,0,.08.16,0,.25,0a1.07,1.07,0,0,0,.53.09,4.13,4.13,0,0,1,1.38.77,2.58,2.58,0,0,0-.45.39c-.07.07-.15.06-.21.13s0,.11,0,.13-.12.07-.16.11a3.34,3.34,0,0,0-.16.3c-.05.08-.17.15-.19.19s0,.09,0,.12-.1,0-.12,0,0,.09,0,.12-.15.18-.18.24,0,.13,0,.19-.14.21-.16.3,0,.26,0,.38,0,0,0,.08,0,.08,0,.12-.08.11-.08.15c0,.3.15.57.15.9a3.73,3.73,0,0,0,.66,1.12c.24.1.47.2.72.28.18-.09.28,0,.42-.07a3.38,3.38,0,0,0,1.73-1.36c.21-.39.33-.82.5-1.23a5.07,5.07,0,0,0,1.49.93,3,3,0,0,0,1,.25,2.63,2.63,0,0,0,.78-.12,1.73,1.73,0,0,0,1.06-1.28C85.57,68.54,85.52,68.45,85.58,68.42Zm-5.86.87c-.33.31-.42.74-1,.89A1.77,1.77,0,0,1,78.32,69a2.75,2.75,0,0,1,1.47-2c.13.12.21.34.37.39A5.78,5.78,0,0,1,79.73,69.29Zm1.18-3.72-.17.05a4.35,4.35,0,0,1,.41-2.15c.22-.08.34,0,.51,0C82,64.51,81.32,65,80.91,65.58Zm3.51,3c-.11.25-.39.31-.71.35-.34-.12-.68-.23-1-.38s-.4-.34-.6-.51L82,67.52c-.12-.08-.18-.27-.34-.27s-.38-.06-.24-.18a3.57,3.57,0,0,1,2.55.47,3.51,3.51,0,0,1,.5.79C84.36,68.37,84.41,68.46,84.42,68.53Z"/></g></g></g></svg>