<svg xmlns="http://www.w3.org/2000/svg" viewBox="0 0 669.06 4.68"><defs><style>.cls-1{fill:#231f20;}</style></defs><title>divider</title><g id="Layer_2" data-name="Layer 2"><g id="Layer_1-2" data-name="Layer 1"><path class="cls-1" d="M537.77,4.51a1.84,1.84,0,0,1-1.88-1.77,2.21,2.21,0,0,1,2.07-2,2.27,2.27,0,0,1,2.18,1.85C540.18,3.61,539,4.52,537.77,4.51Z"/><path class="cls-1" d="M517,2.75a2.11,2.11,0,0,1-2,1.93,1.81,1.81,0,0,1-1.82-1.8c0-1.11.79-2.26,1.65-2.27A2.46,2.46,0,0,1,517,2.75Z"/><path class="cls-1" d="M549.21,4.53A1.93,1.93,0,0,1,547.33,3,2.5,2.5,0,0,1,549.69.77a1.59,1.59,0,0,1,1.66,1.64A2.2,2.2,0,0,1,549.21,4.53Z"/><path class="cls-1" d="M451.14,4.41c-1.12,0-1.8-.64-1.74-1.53a2.52,2.52,0,0,1,2.35-2,1.84,1.84,0,0,1,1.86,1.8A2.16,2.16,0,0,1,451.14,4.41Z"/><path class="cls-1" d="M560.9,2.31a3.11,3.11,0,0,1-3.11,2.07,2,2,0,0,1-1.28-2.26A2.16,2.16,0,0,1,559.08,1C559.87,1.21,560.75,1.48,560.9,2.31Z"/><path class="cls-1" d="M504.82,4.42A1.67,1.67,0,0,1,503,2.67,2.07,2.07,0,0,1,504.94.88a2.44,2.44,0,0,1,2.28,2C507.19,3.78,506.16,4.42,504.82,4.42Z"/><path class="cls-1" d="M528.42,2.57c.05.76-1.13,1.88-2.07,2a1.75,1.75,0,0,1-1.86-1.72,1.94,1.94,0,0,1,1.79-2.1A2.24,2.24,0,0,1,528.42,2.57Z"/><path class="cls-1" d="M473.5,2.58a1.75,1.75,0,0,1-1.66,1.93,2.3,2.3,0,0,1-2.18-1.79c-.08-.85,1-1.91,2-1.95A1.76,1.76,0,0,1,473.5,2.58Z"/><path class="cls-1" d="M482.24.9c1.19,0,2,.56,2.07,1.5a2.08,2.08,0,0,1-2,2,1.94,1.94,0,0,1-2.06-1.87C480.24,1.61,481.06.95,482.24.9Z"/><path class="cls-1" d="M495.42,2.45a2,2,0,0,1-1.93,2A1.49,1.49,0,0,1,491.76,3,1.91,1.91,0,0,1,493.49.8,1.7,1.7,0,0,1,495.42,2.45Z"/><path class="cls-1" d="M463.2,2.79a2.07,2.07,0,0,1-2.33,1.56,1.54,1.54,0,0,1-1.44-1.8,1.7,1.7,0,0,1,2-1.59A1.87,1.87,0,0,1,463.2,2.79Z"/><path class="cls-1" d="M666.68,4.51a1.84,1.84,0,0,1-1.88-1.77,2.21,2.21,0,0,1,2.07-2,2.27,2.27,0,0,1,2.18,1.85C669.09,3.61,667.94,4.52,666.68,4.51Z"/><path class="cls-1" d="M646,2.75a2.11,2.11,0,0,1-2,1.93,1.81,1.81,0,0,1-1.82-1.8c0-1.11.79-2.26,1.65-2.27A2.46,2.46,0,0,1,646,2.75Z"/><path class="cls-1" d="M580.05,4.41c-1.12,0-1.8-.64-1.74-1.53a2.52,2.52,0,0,1,2.35-2,1.84,1.84,0,0,1,1.86,1.8A2.16,2.16,0,0,1,580.05,4.41Z"/><path class="cls-1" d="M567.72,2.87a2.62,2.62,0,0,1,2.37-2A1.73,1.73,0,0,1,572,2.57a2.32,2.32,0,0,1-2.42,1.87C568.53,4.37,567.69,3.64,567.72,2.87Z"/><path class="cls-1" d="M633.73,4.42a1.67,1.67,0,0,1-1.8-1.75A2.07,2.07,0,0,1,633.85.88a2.44,2.44,0,0,1,2.28,2C636.1,3.78,635.08,4.42,633.73,4.42Z"/><path class="cls-1" d="M657.33,2.57c.05.76-1.13,1.88-2.07,2a1.75,1.75,0,0,1-1.86-1.72,1.94,1.94,0,0,1,1.79-2.1A2.24,2.24,0,0,1,657.33,2.57Z"/><path class="cls-1" d="M602.41,2.58a1.75,1.75,0,0,1-1.66,1.93,2.3,2.3,0,0,1-2.18-1.79c-.08-.85,1-1.91,2-1.95A1.76,1.76,0,0,1,602.41,2.58Z"/><path class="cls-1" d="M611.16.9c1.19,0,2,.56,2.07,1.5a2.08,2.08,0,0,1-2,2,1.94,1.94,0,0,1-2.06-1.87C609.16,1.61,610,.95,611.16.9Z"/><path class="cls-1" d="M624.34,2.45a2,2,0,0,1-1.93,2A1.49,1.49,0,0,1,620.67,3,1.91,1.91,0,0,1,622.41.8,1.7,1.7,0,0,1,624.34,2.45Z"/><path class="cls-1" d="M592.11,2.79a2.07,2.07,0,0,1-2.33,1.56,1.54,1.54,0,0,1-1.44-1.8,1.7,1.7,0,0,1,2-1.59A1.87,1.87,0,0,1,592.11,2.79Z"/><path class="cls-1" d="M313.06,4.29a1.84,1.84,0,0,1-1.88-1.77,2.21,2.21,0,0,1,2.07-2,2.27,2.27,0,0,1,2.18,1.85C315.48,3.4,314.32,4.31,313.06,4.29Z"/><path class="cls-1" d="M292.34,2.54a2.11,2.11,0,0,1-2,1.93,1.81,1.81,0,0,1-1.82-1.8c0-1.11.79-2.26,1.65-2.27A2.46,2.46,0,0,1,292.34,2.54Z"/><path class="cls-1" d="M324.5,4.31a1.93,1.93,0,0,1-1.88-1.51A2.5,2.5,0,0,1,325,.55a1.59,1.59,0,0,1,1.66,1.64A2.2,2.2,0,0,1,324.5,4.31Z"/><path class="cls-1" d="M226.44,4.2c-1.12,0-1.8-.64-1.74-1.53a2.52,2.52,0,0,1,2.35-2,1.84,1.84,0,0,1,1.86,1.8A2.16,2.16,0,0,1,226.44,4.2Z"/><path class="cls-1" d="M336.19,2.1a3.11,3.11,0,0,1-3.11,2.07,2,2,0,0,1-1.28-2.26A2.16,2.16,0,0,1,334.38.74C335.17,1,336,1.27,336.19,2.1Z"/><path class="cls-1" d="M280.12,4.2a1.67,1.67,0,0,1-1.8-1.75A2.07,2.07,0,0,1,280.24.66a2.44,2.44,0,0,1,2.28,2C282.48,3.56,281.46,4.2,280.12,4.2Z"/><path class="cls-1" d="M303.72,2.36c.05.76-1.13,1.88-2.07,2a1.75,1.75,0,0,1-1.86-1.73,1.94,1.94,0,0,1,1.79-2.1A2.24,2.24,0,0,1,303.72,2.36Z"/><path class="cls-1" d="M248.79,2.37a1.75,1.75,0,0,1-1.66,1.93A2.3,2.3,0,0,1,245,2.51c-.08-.85,1-1.91,2-1.95A1.76,1.76,0,0,1,248.79,2.37Z"/><path class="cls-1" d="M257.54.68c1.19,0,2,.56,2.07,1.5a2.08,2.08,0,0,1-2,2,1.94,1.94,0,0,1-2.06-1.87C255.54,1.4,256.36.73,257.54.68Z"/><path class="cls-1" d="M270.72,2.24a2,2,0,0,1-1.93,2,1.49,1.49,0,0,1-1.74-1.51A1.91,1.91,0,0,1,268.79.59,1.7,1.7,0,0,1,270.72,2.24Z"/><path class="cls-1" d="M238.5,2.57a2.07,2.07,0,0,1-2.33,1.56,1.54,1.54,0,0,1-1.44-1.8,1.7,1.7,0,0,1,2-1.59A1.87,1.87,0,0,1,238.5,2.57Z"/><path class="cls-1" d="M442,4.29a1.84,1.84,0,0,1-1.88-1.77,2.21,2.21,0,0,1,2.07-2,2.27,2.27,0,0,1,2.18,1.85C444.39,3.4,443.24,4.31,442,4.29Z"/><path class="cls-1" d="M421.26,2.54a2.11,2.11,0,0,1-2,1.93,1.81,1.81,0,0,1-1.82-1.8c0-1.11.79-2.26,1.65-2.27A2.46,2.46,0,0,1,421.26,2.54Z"/><path class="cls-1" d="M355.35,4.2c-1.12,0-1.8-.64-1.74-1.53a2.52,2.52,0,0,1,2.35-2,1.84,1.84,0,0,1,1.86,1.8A2.16,2.16,0,0,1,355.35,4.2Z"/><path class="cls-1" d="M343,2.66a2.62,2.62,0,0,1,2.37-2,1.73,1.73,0,0,1,1.87,1.72,2.32,2.32,0,0,1-2.42,1.87C343.83,4.16,343,3.43,343,2.66Z"/><path class="cls-1" d="M409,4.2a1.67,1.67,0,0,1-1.8-1.75A2.07,2.07,0,0,1,409.15.66a2.44,2.44,0,0,1,2.28,2C411.4,3.56,410.37,4.2,409,4.2Z"/><path class="cls-1" d="M432.63,2.36c.05.76-1.13,1.88-2.07,2a1.75,1.75,0,0,1-1.86-1.73,1.94,1.94,0,0,1,1.79-2.1A2.24,2.24,0,0,1,432.63,2.36Z"/><path class="cls-1" d="M377.71,2.37a1.75,1.75,0,0,1-1.66,1.93,2.3,2.3,0,0,1-2.18-1.79c-.08-.85,1-1.91,2-1.95A1.76,1.76,0,0,1,377.71,2.37Z"/><path class="cls-1" d="M386.46.68c1.19,0,2,.56,2.07,1.5a2.08,2.08,0,0,1-2,2,1.94,1.94,0,0,1-2.06-1.87C384.45,1.4,385.27.73,386.46.68Z"/><path class="cls-1" d="M399.64,2.24a2,2,0,0,1-1.93,2A1.49,1.49,0,0,1,396,2.76,1.91,1.91,0,0,1,397.7.59,1.7,1.7,0,0,1,399.64,2.24Z"/><path class="cls-1" d="M367.41,2.57a2.07,2.07,0,0,1-2.33,1.56,1.54,1.54,0,0,1-1.44-1.8,1.7,1.7,0,0,1,2-1.59A1.87,1.87,0,0,1,367.41,2.57Z"/><path class="cls-1" d="M88.37,3.9a1.84,1.84,0,0,1-1.88-1.77,2.21,2.21,0,0,1,2.07-2A2.27,2.27,0,0,1,90.75,2C90.78,3,89.63,3.91,88.37,3.9Z"/><path class="cls-1" d="M67.65,2.14a2.11,2.11,0,0,1-2,1.93,1.81,1.81,0,0,1-1.82-1.8c0-1.11.79-2.26,1.65-2.27A2.46,2.46,0,0,1,67.65,2.14Z"/><path class="cls-1" d="M99.81,3.91A1.93,1.93,0,0,1,97.93,2.4,2.5,2.5,0,0,1,100.29.15,1.59,1.59,0,0,1,102,1.79,2.2,2.2,0,0,1,99.81,3.91Z"/><path class="cls-1" d="M1.74,3.8C.62,3.76-.06,3.16,0,2.27a2.52,2.52,0,0,1,2.35-2,1.84,1.84,0,0,1,1.86,1.8A2.16,2.16,0,0,1,1.74,3.8Z"/><path class="cls-1" d="M111.5,1.7a3.11,3.11,0,0,1-3.11,2.07,2,2,0,0,1-1.28-2.26A2.16,2.16,0,0,1,109.69.34C110.47.6,111.35.87,111.5,1.7Z"/><path class="cls-1" d="M55.42,3.8a1.67,1.67,0,0,1-1.8-1.75A2.07,2.07,0,0,1,55.54.27a2.44,2.44,0,0,1,2.28,2C57.79,3.17,56.76,3.8,55.42,3.8Z"/><path class="cls-1" d="M79,2c.05.76-1.13,1.88-2.07,2a1.75,1.75,0,0,1-1.86-1.72A1.94,1.94,0,0,1,76.88.12,2.24,2.24,0,0,1,79,2Z"/><path class="cls-1" d="M24.1,2A1.75,1.75,0,0,1,22.44,3.9a2.3,2.3,0,0,1-2.18-1.79c-.08-.85,1-1.91,2-1.95A1.76,1.76,0,0,1,24.1,2Z"/><path class="cls-1" d="M32.85.29c1.19,0,2,.56,2.07,1.5a2.08,2.08,0,0,1-2,2,1.94,1.94,0,0,1-2.06-1.87C30.84,1,31.66.33,32.85.29Z"/><path class="cls-1" d="M46,1.84a2,2,0,0,1-1.93,2,1.49,1.49,0,0,1-1.74-1.51A1.91,1.91,0,0,1,44.1.19,1.7,1.7,0,0,1,46,1.84Z"/><path class="cls-1" d="M13.8,2.17a2.07,2.07,0,0,1-2.33,1.56A1.54,1.54,0,0,1,10,1.93,1.7,1.7,0,0,1,12,.34,1.87,1.87,0,0,1,13.8,2.17Z"/><path class="cls-1" d="M217.28,3.9a1.84,1.84,0,0,1-1.88-1.77,2.21,2.21,0,0,1,2.07-2A2.27,2.27,0,0,1,219.66,2C219.7,3,218.54,3.91,217.28,3.9Z"/><path class="cls-1" d="M196.56,2.14a2.11,2.11,0,0,1-2,1.93,1.81,1.81,0,0,1-1.82-1.8c0-1.11.79-2.26,1.65-2.27A2.46,2.46,0,0,1,196.56,2.14Z"/><path class="cls-1" d="M130.66,3.8c-1.12,0-1.8-.64-1.74-1.53a2.52,2.52,0,0,1,2.35-2,1.84,1.84,0,0,1,1.86,1.8A2.16,2.16,0,0,1,130.66,3.8Z"/><path class="cls-1" d="M118.32,2.26a2.62,2.62,0,0,1,2.37-2A1.73,1.73,0,0,1,122.56,2a2.32,2.32,0,0,1-2.42,1.87C119.13,3.76,118.29,3,118.32,2.26Z"/><path class="cls-1" d="M184.34,3.8a1.67,1.67,0,0,1-1.8-1.75A2.07,2.07,0,0,1,184.46.27a2.44,2.44,0,0,1,2.28,2C186.7,3.17,185.68,3.8,184.34,3.8Z"/><path class="cls-1" d="M207.94,2c.05.76-1.13,1.88-2.07,2A1.75,1.75,0,0,1,204,2.22a1.94,1.94,0,0,1,1.79-2.1A2.24,2.24,0,0,1,207.94,2Z"/><path class="cls-1" d="M153,2a1.75,1.75,0,0,1-1.66,1.93,2.3,2.3,0,0,1-2.18-1.79c-.08-.85,1-1.91,2-1.95A1.76,1.76,0,0,1,153,2Z"/><path class="cls-1" d="M161.76.29c1.19,0,2,.56,2.07,1.5a2.08,2.08,0,0,1-2,2,1.94,1.94,0,0,1-2.06-1.87C159.76,1,160.58.33,161.76.29Z"/><path class="cls-1" d="M174.94,1.84a2,2,0,0,1-1.93,2,1.49,1.49,0,0,1-1.74-1.51A1.91,1.91,0,0,1,173,.19,1.7,1.7,0,0,1,174.94,1.84Z"/><path class="cls-1" d="M142.72,2.17a2.07,2.07,0,0,1-2.33,1.56A1.54,1.54,0,0,1,139,1.93a1.7,1.7,0,0,1,2-1.59A1.87,1.87,0,0,1,142.72,2.17Z"/></g></g></svg>