<svg xmlns="http://www.w3.org/2000/svg" viewBox="0 0 52.69 182.34"><defs><style>.cls-1{fill:#a7d390;}.cls-2{fill:#de2348;}.cls-3{fill:#f6931e;}.cls-4{fill:#447eb2;}</style></defs><title>border-right</title><g id="Layer_2" data-name="Layer 2"><g id="Layer_1-2" data-name="Layer 1"><path class="cls-1" d="M2.93,23.1A30.11,30.11,0,0,1,17.27,2.81,1.5,1.5,0,0,0,15.76.22,33,33,0,0,0,0,22.3c-.38,1.89,2.51,2.69,2.89.8Z"/><path class="cls-2" d="M1.25,167.09l15.21,14.82c1.38,1.35,3.51-.77,2.12-2.12L3.37,165c-1.38-1.35-3.51.77-2.12,2.12Z"/><path class="cls-3" d="M8.36,79.56A44.64,44.64,0,0,0,33.24,83.4c1.89-.25,1.91-3.25,0-3A41.91,41.91,0,0,1,9.88,77c-1.74-.8-3.27,1.78-1.51,2.59Z"/><path class="cls-4" d="M8.19,59.17A122.43,122.43,0,0,0,40,43.63c1.58-1.08.08-3.68-1.51-2.59A119.64,119.64,0,0,1,7.39,56.28c-1.83.59-1,3.49.8,2.89Z"/><path class="cls-4" d="M11.86,124.3a83.11,83.11,0,0,0,39.75,2.27c1.9-.35,1.09-3.24-.8-2.89a79.8,79.8,0,0,1-38.16-2.27c-1.85-.57-2.64,2.33-.8,2.89Z"/><path class="cls-1" d="M16.8,102.83l11.88,1.67c1.89.27,2.7-2.62.8-2.89L17.59,99.94c-1.89-.27-2.7,2.62-.8,2.89Z"/><path class="cls-3" d="M10.22,144.84l19.12,9.74c1.72.87,3.24-1.71,1.51-2.59l-19.12-9.74c-1.72-.87-3.24,1.71-1.51,2.59Z"/><path class="cls-2" d="M5.89,43.16A56.5,56.5,0,0,1,23,33.59c1.81-.64,1-3.54-.8-2.89A60.82,60.82,0,0,0,3.76,41c-1.5,1.22.64,3.33,2.12,2.12Z"/></g></g></svg>