<svg xmlns="http://www.w3.org/2000/svg" viewBox="0 0 94.66 93.33"><defs><style>.cls-1{fill:#fff;}.cls-2,.cls-4{fill:none;stroke:#000;}.cls-2{stroke-linecap:round;stroke-linejoin:round;stroke-width:0;}.cls-3{fill-rule:evenodd;}.cls-4{stroke-miterlimit:10;stroke-width:0.96px;}</style></defs><title>logo</title><g id="Layer_2" data-name="Layer 2"><g id="Layer_1-2" data-name="Layer 1"><ellipse class="cls-1" cx="47.27" cy="47.36" rx="45.16" ry="45.06"/><path d="M1.65,47.54a12.35,12.35,0,0,1-1-3.81,4.92,4.92,0,0,1,.69-2.83c.58-1,1.11-2,1.61-3a13.29,13.29,0,0,0,.86-2c.23-.78.34-1.6.5-2.4.33-1.61.63-3.23,1-4.83A23.27,23.27,0,0,1,7,23.6a10.73,10.73,0,0,1,2.64-3.38c.54-.46,1.07-1,1.64-1.38.74-.56,1.53-1,2.29-1.59A15.09,15.09,0,0,0,17.07,14c.33-.46.67-.91,1-1.37.58-.82,1.13-1.66,1.72-2.48a4.36,4.36,0,0,1,2.37-1.95,10.78,10.78,0,0,1,2.34-.31.82.82,0,0,0,.79-.52,9,9,0,0,1,2.44-3.07,4.07,4.07,0,0,1,2.37-.8c.76,0,1.51-.05,2.27,0a13.81,13.81,0,0,0,3.08-.16,14.5,14.5,0,0,0,1.78-.47c1.14-.36,2.26-.77,3.4-1.13.78-.24,1.57-.43,2.36-.63s1.7-.47,2.57-.62,2-.24,2.93-.33a9.06,9.06,0,0,1,3.32.41,11.59,11.59,0,0,1,1.52.54c1.51.65,3,1.32,4.49,2a11,11,0,0,0,3.35,1c1,.13,2.06.2,3.09.35,1.21.17,2.42.33,3.6.6A3.81,3.81,0,0,1,69.94,6.8c.22.3.38.65.59,1a.4.4,0,0,0,.24.13c1,.19,1.94.32,2.88.57a3.51,3.51,0,0,1,1.61,1.12,28.06,28.06,0,0,1,2.14,3.33,12.69,12.69,0,0,0,1.9,2.42c1.2,1.07,2.44,2.09,3.62,3.17.85.77,1.65,1.6,2.46,2.42.61.63,1.21,1.28,1.78,1.94a12.26,12.26,0,0,1,1.67,2.53A13.11,13.11,0,0,1,89.93,29c.14.81.17,1.65.26,2.47.12,1,.28,2.09.4,3.14a12.26,12.26,0,0,0,1.1,3.56c.43,1,.93,1.94,1.35,2.92A16.19,16.19,0,0,1,94,43.7a2.88,2.88,0,0,1-.53,2.15,2.14,2.14,0,0,1-.26.37c-.18.19-.12.35,0,.55.38.77.76,1.53,1.1,2.32a3.41,3.41,0,0,1,0,2.71,20.47,20.47,0,0,1-1.05,2c-.4.74-.83,1.47-1.21,2.22a11.62,11.62,0,0,0-.72,1.7c-.22.7-.36,1.44-.53,2.16-.38,1.64-.7,3.3-1.15,4.92-.38,1.35-.91,2.66-1.36,4a8.27,8.27,0,0,1-1.4,2.55,21.42,21.42,0,0,1-2.11,2.16,16.65,16.65,0,0,1-1.71,1.35c-.73.52-1.49,1-2.23,1.48a13.67,13.67,0,0,0-3.7,3.58c-.25.37-.56.7-.82,1.07-.37.53-.75,1.06-1.17,1.55A8.56,8.56,0,0,1,73,84.8a4.47,4.47,0,0,1-1.69.48,2.2,2.2,0,0,0-.85.21c-.21.13-.31.42-.47.63a7,7,0,0,1-2.88,2.59,6.62,6.62,0,0,1-2.21.39c-.72,0-1.44,0-2.15.08a15.92,15.92,0,0,0-2.61.37c-1.16.31-2.29.75-3.43,1.16s-2.07.77-3.11,1.13A24.5,24.5,0,0,1,48.87,93a16.37,16.37,0,0,1-2.87.21,10.64,10.64,0,0,1-3.6-.83C40.61,91.68,38.81,91,37,90.3a10.83,10.83,0,0,0-3.52-.63c-.4,0-.8-.08-1.2-.11-.74-.05-1.49-.06-2.23-.15a7.76,7.76,0,0,1-2.76-.53A3.27,3.27,0,0,1,26,87.49c-.14-.25-.25-.51-.41-.75a.51.51,0,0,0-.34-.16c-.94-.1-1.89-.12-2.81-.3A3.45,3.45,0,0,1,20.31,85c-.81-1-1.53-2.14-2.25-3.23a10.78,10.78,0,0,0-2.14-2.41c-1.08-.89-2.2-1.74-3.28-2.64-.88-.74-1.73-1.52-2.57-2.31a24.7,24.7,0,0,1-1.89-1.88,26,26,0,0,1-1.76-2.33A10.52,10.52,0,0,1,5,66.58c-.18-.79-.24-1.61-.37-2.42-.16-1-.33-2-.49-3A13.31,13.31,0,0,0,3,57.53c-.46-1-1-2-1.42-2.93A18.53,18.53,0,0,1,.13,51,2,2,0,0,1,.4,49.46C.78,48.82,1.21,48.21,1.65,47.54ZM26.28,85.42a5.35,5.35,0,0,0,1.4,2.33,2.23,2.23,0,0,0,.81.31c1.62.16,3.24.26,4.85.43a16.36,16.36,0,0,1,3.26.51c1.82.58,3.6,1.31,5.36,2.05a11.91,11.91,0,0,0,7.48.74,50.83,50.83,0,0,0,6.21-1.91c1.22-.45,2.44-.94,3.68-1.34a17.3,17.3,0,0,1,4.6-.57,19,19,0,0,0,2.16-.16,4,4,0,0,0,2.45-1.69c.37-.47.68-1,1-1.49.08-.12.17-.31.29-.33.35-.07.71-.07,1.06-.11A3,3,0,0,0,73,83.31c.74-.89,1.44-1.81,2.13-2.73a20.06,20.06,0,0,1,3.92-4.38c1.28-.94,2.59-1.83,3.88-2.75a10.72,10.72,0,0,0,3.9-4.33,29.2,29.2,0,0,0,1.4-3.73c.56-2,1-4.06,1.47-6.1a13.4,13.4,0,0,1,1.1-3.47c.62-1.15,1.27-2.28,1.92-3.42a3.29,3.29,0,0,0,.58-2.49A6.12,6.12,0,0,0,92,47.21c-.45-.5-.45-.55-.09-1.13a13.52,13.52,0,0,0,.75-1.24,1.48,1.48,0,0,0,.1-1.29c-.56-1.31-1.11-2.64-1.69-3.95a16.43,16.43,0,0,1-1.51-4.17c-.3-2-.51-4-.76-6a10.83,10.83,0,0,0-2.29-5.52,41.73,41.73,0,0,0-5.26-5.28c-1-.87-2-1.72-3-2.64a18,18,0,0,1-3-4.37,4.22,4.22,0,0,0-3.35-2.39c-.6-.07-1.21-.13-1.81-.22a.65.65,0,0,1-.42-.19C69.32,8.2,69,7.56,68.6,7A2.16,2.16,0,0,0,67.09,6c-1.37-.19-2.74-.37-4.11-.53a17,17,0,0,1-5.11-1.13L53.13,2.22a11.28,11.28,0,0,0-6.92-.74,51.76,51.76,0,0,0-7.29,2,15.64,15.64,0,0,1-4.76,1.11c-1.08,0-2.16,0-3.23,0a3.75,3.75,0,0,0-3.31,1.36c-.53.69-1,1.45-1.45,2.18-.23.36-.43.73-.64,1.09A6.21,6.21,0,0,0,23.75,9a3.24,3.24,0,0,0-2.58,1.19c-1,1.35-1.93,2.74-2.95,4.06a15.29,15.29,0,0,1-2.17,2.44C14.61,18,13,19,11.52,20.18a11.18,11.18,0,0,0-3.29,3.64A19.28,19.28,0,0,0,6.54,28.5c-.5,2.19-1,4.39-1.39,6.59A12.18,12.18,0,0,1,4,38.34c-.55,1.07-1.13,2.13-1.71,3.19A4.17,4.17,0,0,0,2,44.65c.28,1,.6,1.91.92,2.86a.57.57,0,0,1-.12.68c-.26.26-.48.56-.73.83a2.41,2.41,0,0,0-.34,3c.43.84.84,1.68,1.22,2.54a25.05,25.05,0,0,1,2.32,6c.31,1.85.59,3.71.9,5.56a10.8,10.8,0,0,0,2.74,5.51,52.3,52.3,0,0,0,6.72,5.95,13,13,0,0,1,2.64,2.51c.76,1.06,1.49,2.14,2.21,3.23a3.63,3.63,0,0,0,2.1,1.77,18.73,18.73,0,0,0,2.49.32C25.45,85.45,25.88,85.42,26.28,85.42Z"/><path class="cls-2" d="M.06,51a14.88,14.88,0,0,0,1.18,3l.28.59c.24.51.48,1,.73,1.51s.46.95.69,1.43a13.19,13.19,0,0,1,1.15,3.57q.11.68.22,1.37c.09.56.18,1.12.27,1.68,0,.28.08.57.12.85A15.37,15.37,0,0,0,5,66.59a10.66,10.66,0,0,0,1.4,3.68,25.61,25.61,0,0,0,1.76,2.33,22.94,22.94,0,0,0,1.76,1.76l.14.13c.85.79,1.69,1.57,2.58,2.31.58.49,1.18,1,1.76,1.43s1,.81,1.51,1.22A10.7,10.7,0,0,1,18,81.85c.77,1.17,1.47,2.22,2.26,3.24a3.54,3.54,0,0,0,2.15,1.27,16.73,16.73,0,0,0,1.86.21l1,.08a.43.43,0,0,1,.28.13,4.16,4.16,0,0,1,.26.45l.15.29A3.36,3.36,0,0,0,27.26,89a5.63,5.63,0,0,0,2.16.47l.63.06c.48.06,1,.08,1.43.1l.8,0,.49,0c.24,0,.48.05.72.06a10.81,10.81,0,0,1,3.49.62c1.62.6,3.33,1.27,5.39,2.12a10.72,10.72,0,0,0,3.63.83h.39a19.06,19.06,0,0,0,2.5-.22,24.16,24.16,0,0,0,4.76-1.21l1.71-.62,1.4-.51.82-.29c.85-.31,1.72-.63,2.6-.86a13.9,13.9,0,0,1,2.31-.34l.29,0c.47,0,.94-.05,1.41-.06l.74,0a6.75,6.75,0,0,0,2.23-.39A7,7,0,0,0,70,86.22l0-.05a2.35,2.35,0,0,0,.16-.25,1,1,0,0,1,.29-.36,1.81,1.81,0,0,1,.71-.18h.11A4.52,4.52,0,0,0,73,84.87a5.93,5.93,0,0,0,1.71-1.7c.15-.2.31-.4.47-.6.41-.49.79-1,1.17-1.56.12-.17.25-.33.38-.49s.3-.38.44-.58a13.58,13.58,0,0,1,3.68-3.55l1-.65c.41-.27.84-.54,1.25-.83a17,17,0,0,0,1.71-1.36A21.66,21.66,0,0,0,87,71.37a8.33,8.33,0,0,0,1.41-2.58c.15-.45.32-.91.48-1.35.31-.86.63-1.75.88-2.64.31-1.11.56-2.25.8-3.35.11-.52.23-1,.35-1.57l.12-.53c.12-.54.24-1.09.41-1.62A11.31,11.31,0,0,1,92.11,56c.25-.5.53-1,.8-1.49l.4-.73.33-.58a12,12,0,0,0,.73-1.42,3.5,3.5,0,0,0,0-2.77c-.3-.69-.64-1.37-1-2l-.14-.29c-.1-.2-.13-.32,0-.46a1.87,1.87,0,0,0,.24-.33l0,0a2.91,2.91,0,0,0,.54-2.21,15.11,15.11,0,0,0-.87-2.41l-.07-.17c-.23-.54-.48-1.07-.73-1.59s-.42-.89-.62-1.34a12.29,12.29,0,0,1-1.1-3.53c-.06-.56-.14-1.13-.21-1.69s-.13-1-.19-1.45c0-.31-.06-.63-.09-.94,0-.5-.09-1-.17-1.53a13.2,13.2,0,0,0-1.1-3.67,12.42,12.42,0,0,0-1.68-2.54c-.56-.65-1.15-1.3-1.79-2-.79-.81-1.6-1.65-2.45-2.42-.66-.6-1.35-1.2-2-1.77s-1.07-.92-1.6-1.39a10.54,10.54,0,0,1-1.64-2l-.25-.37c-.28-.42-.54-.86-.78-1.3a10.73,10.73,0,0,0-1.36-2,3.61,3.61,0,0,0-1.65-1.14c-.64-.17-1.31-.29-2-.4l-.93-.17a.33.33,0,0,1-.19-.09c-.08-.13-.16-.27-.24-.4A5.66,5.66,0,0,0,70,6.75l0-.05A3.78,3.78,0,0,0,67.89,5c-1.13-.26-2.3-.42-3.43-.57l-.18,0c-.55-.08-1.11-.13-1.65-.19L61.19,4a10.87,10.87,0,0,1-3.32-1c-1.58-.76-3.16-1.45-4.5-2A11.73,11.73,0,0,0,51.84.44,9.23,9.23,0,0,0,48.5,0l-.65.06c-.75.07-1.53.14-2.29.27s-1.3.28-1.93.45L43,1l-.43.11c-.63.16-1.29.32-1.93.52s-1.22.4-1.81.6l-1.59.53a14.62,14.62,0,0,1-1.77.46,13.59,13.59,0,0,1-3.06.16c-.73,0-1.47,0-2.18,0h-.09a4.14,4.14,0,0,0-2.42.81,9.12,9.12,0,0,0-2.47,3.1.74.74,0,0,1-.72.48,10.81,10.81,0,0,0-2.36.31,4.42,4.42,0,0,0-2.42,2c-.35.49-.7,1-1,1.48l-.69,1c-.28.4-.57.8-.85,1.18l-.14.19a14.86,14.86,0,0,1-3.45,3.27l-1,.68c-.43.29-.88.59-1.3.91s-.79.64-1.16,1l-.48.42A10.74,10.74,0,0,0,7,23.56a23.1,23.1,0,0,0-1.74,5C5,29.74,4.72,30.9,4.5,32l-.28,1.41c-.05.26-.1.51-.15.77a14.88,14.88,0,0,1-.36,1.62,13.36,13.36,0,0,1-.85,2c-.54,1.1-1.07,2.08-1.61,3a5,5,0,0,0-.7,2.87,12.4,12.4,0,0,0,1,3.8l-.38.56c-.3.45-.59.87-.85,1.32A2.1,2.1,0,0,0,.06,51Z"/><path class="cls-2" d="M.47,49.5A2,2,0,0,0,.21,51a14.78,14.78,0,0,0,1.17,3l.28.59c.24.5.48,1,.73,1.51s.46,1,.69,1.43A13.35,13.35,0,0,1,4.25,61.1q.11.68.22,1.36c.09.56.18,1.12.27,1.68,0,.28.08.58.12.86a15.24,15.24,0,0,0,.25,1.55,10.53,10.53,0,0,0,1.38,3.63,25.44,25.44,0,0,0,1.75,2.32A22.87,22.87,0,0,0,10,74.26l.14.13c.85.79,1.68,1.56,2.57,2.3.58.48,1.18,1,1.76,1.42s1,.81,1.52,1.22a10.85,10.85,0,0,1,2.15,2.43c.77,1.17,1.46,2.22,2.25,3.23a3.38,3.38,0,0,0,2.05,1.22,16.74,16.74,0,0,0,1.84.21l1,.08a.57.57,0,0,1,.39.2,4.24,4.24,0,0,1,.27.47l.15.28a3.22,3.22,0,0,0,1.3,1.37,5.5,5.5,0,0,0,2.1.46l.63.06c.47.05,1,.08,1.42.1l.8,0,.49,0c.23,0,.47.05.71.06a11,11,0,0,1,3.55.63c1.62.6,3.34,1.27,5.39,2.12a10.56,10.56,0,0,0,3.57.82A16.43,16.43,0,0,0,48.86,93a24,24,0,0,0,4.73-1.2l1.71-.62,1.4-.51.82-.29c.85-.31,1.73-.63,2.61-.86a14,14,0,0,1,2.33-.34l.29,0c.47,0,1-.05,1.42-.06l.73,0a6.61,6.61,0,0,0,2.18-.38,6.77,6.77,0,0,0,2.8-2.51l0-.05a2.22,2.22,0,0,0,.15-.23,1.13,1.13,0,0,1,.34-.42,1.92,1.92,0,0,1,.77-.2h.11A4.39,4.39,0,0,0,73,84.73a5.81,5.81,0,0,0,1.66-1.66c.15-.2.31-.41.47-.6.41-.49.78-1,1.16-1.55.12-.17.26-.34.39-.5s.3-.37.43-.57a13.73,13.73,0,0,1,3.72-3.6l1-.65c.41-.27.84-.54,1.24-.83a16.78,16.78,0,0,0,1.7-1.35,21.52,21.52,0,0,0,2.11-2.15,8.17,8.17,0,0,0,1.38-2.53c.15-.45.32-.91.48-1.36.31-.86.63-1.74.88-2.63.31-1.1.56-2.24.8-3.34.11-.53.23-1.05.35-1.57l.12-.53c.12-.54.24-1.1.41-1.64A11.44,11.44,0,0,1,92,56c.25-.51.53-1,.81-1.5l.4-.73.33-.58a11.92,11.92,0,0,0,.72-1.4,3.34,3.34,0,0,0,0-2.65c-.3-.68-.63-1.37-1-2l-.14-.29a.5.5,0,0,1,0-.64,1.74,1.74,0,0,0,.22-.31l0-.05a2.73,2.73,0,0,0,.52-2.09A15,15,0,0,0,93,41.33L93,41.16c-.23-.53-.48-1.07-.73-1.58s-.42-.89-.62-1.34a12.43,12.43,0,0,1-1.11-3.58c-.06-.56-.14-1.13-.21-1.68s-.13-1-.19-1.46c0-.32-.06-.64-.09-1,0-.5-.08-1-.17-1.51a13.06,13.06,0,0,0-1.09-3.62,12.27,12.27,0,0,0-1.66-2.51c-.55-.65-1.15-1.3-1.78-1.94-.79-.81-1.61-1.65-2.45-2.42-.66-.6-1.35-1.2-2-1.77s-1.07-.92-1.6-1.4a10.66,10.66,0,0,1-1.66-2.07L77.34,13c-.29-.42-.54-.87-.79-1.31a10.62,10.62,0,0,0-1.34-2,3.47,3.47,0,0,0-1.58-1.1c-.64-.17-1.3-.29-1.94-.4L70.76,8a.48.48,0,0,1-.29-.16c-.09-.13-.17-.27-.24-.41a5.51,5.51,0,0,0-.34-.55l0-.05a3.66,3.66,0,0,0-2-1.67c-1.12-.25-2.29-.42-3.42-.57l-.18,0c-.55-.08-1.11-.13-1.65-.19l-1.44-.16a11,11,0,0,1-3.37-1c-1.57-.76-3.15-1.45-4.49-2A11.59,11.59,0,0,0,51.8.6,9.06,9.06,0,0,0,48.51.19l-.65.06c-.75.07-1.53.14-2.28.27S44.29.8,43.66,1L43,1.13l-.43.11c-.63.16-1.29.32-1.92.52s-1.22.4-1.81.6l-1.59.53a14.8,14.8,0,0,1-1.79.47,13.8,13.8,0,0,1-3.1.16l-.75,0c-.48,0-1,0-1.42,0h-.09a4,4,0,0,0-2.33.78,9,9,0,0,0-2.42,3,.89.89,0,0,1-.86.56,10.63,10.63,0,0,0-2.32.31,4.28,4.28,0,0,0-2.33,1.92c-.35.49-.7,1-1,1.48l-.69,1c-.28.4-.57.8-.86,1.18l-.14.19a15,15,0,0,1-3.49,3.31l-1,.68c-.43.29-.87.59-1.29.9s-.78.64-1.15,1l-.48.42A10.58,10.58,0,0,0,7.1,23.63a23,23,0,0,0-1.73,5c-.27,1.13-.5,2.29-.72,3.41q-.14.71-.28,1.41c-.05.26-.1.51-.15.77a14.94,14.94,0,0,1-.36,1.64A13.49,13.49,0,0,1,3,37.94c-.55,1.1-1.07,2.09-1.61,3A4.81,4.81,0,0,0,.7,43.73a12.34,12.34,0,0,0,1,3.79l0,0,0,0-.4.6C1,48.64.73,49.06.47,49.5Z"/><path class="cls-2" d="M2.39,41.57A4.06,4.06,0,0,0,2,44.63c.23.8.5,1.59.76,2.37l.16.49a.65.65,0,0,1-.14.77c-.14.14-.27.29-.4.45s-.22.26-.33.38a2.34,2.34,0,0,0-.32,3c.5,1,.89,1.8,1.23,2.54.2.45.41.9.62,1.33a17.75,17.75,0,0,1,1.7,4.65c.15.91.3,1.82.44,2.73s.3,1.88.46,2.83a10.65,10.65,0,0,0,2.72,5.47,51.57,51.57,0,0,0,6.58,5.83l.13.1a13.12,13.12,0,0,1,2.65,2.53c.72,1,1.41,2,2.22,3.23A3.51,3.51,0,0,0,22.56,85a14.86,14.86,0,0,0,2,.28l.43,0a7.39,7.39,0,0,0,.87,0h.44l0,.06a5.38,5.38,0,0,0,1.36,2.28,2.15,2.15,0,0,0,.78.3l2.2.19c.87.07,1.77.14,2.65.24l.55.05a13.13,13.13,0,0,1,2.73.46c1.84.59,3.66,1.34,5.37,2.05a11.79,11.79,0,0,0,7.43.73,50.31,50.31,0,0,0,6.2-1.91l1.09-.41c.85-.32,1.72-.65,2.59-.94a15.72,15.72,0,0,1,4.2-.56l.77,0a15.27,15.27,0,0,0,1.8-.14,3.94,3.94,0,0,0,2.4-1.66c.24-.31.46-.64.67-1l.34-.52.05-.08c.08-.13.16-.26.28-.28a5.44,5.44,0,0,1,.72-.08l.35,0A2.87,2.87,0,0,0,73,83.26c.71-.86,1.39-1.74,2.13-2.72l.43-.58A17.42,17.42,0,0,1,79,76.14c.76-.56,1.55-1.11,2.32-1.64l1.57-1.1a10.7,10.7,0,0,0,3.87-4.3,28.67,28.67,0,0,0,1.39-3.72c.53-1.88,1-3.83,1.38-5.71l.11-.51a13,13,0,0,1,1.08-3.36c.48-.91,1-1.81,1.51-2.69l.42-.73a3.22,3.22,0,0,0,.57-2.43,5.94,5.94,0,0,0-1.31-2.67c-.48-.52-.48-.61-.09-1.22l.14-.21a10.63,10.63,0,0,0,.61-1,1.39,1.39,0,0,0,.1-1.22l-.61-1.43c-.35-.83-.71-1.68-1.08-2.51l-.27-.6a13.69,13.69,0,0,1-1.24-3.59c-.2-1.36-.37-2.74-.52-4.08-.08-.65-.15-1.31-.24-2a10.81,10.81,0,0,0-2.27-5.48,42.08,42.08,0,0,0-5.25-5.27L80.44,18c-.73-.63-1.49-1.29-2.19-2a18.28,18.28,0,0,1-3-4.39,4.15,4.15,0,0,0-3.29-2.35H71.8c-.55-.06-1.13-.13-1.69-.21a.75.75,0,0,1-.48-.23c-.17-.26-.33-.54-.49-.81s-.4-.68-.62-1a2.08,2.08,0,0,0-1.45-.91c-1.65-.23-2.92-.39-4.11-.53a17.17,17.17,0,0,1-5.13-1.14L53.09,2.29a11.14,11.14,0,0,0-6.87-.73,51.87,51.87,0,0,0-7.28,2l-.18.06a15.16,15.16,0,0,1-4.61,1c-1.24,0-2.27,0-3.24,0A3.66,3.66,0,0,0,27.67,6c-.4.52-.77,1.1-1.11,1.65l-.33.53c-.16.25-.3.5-.44.75s-.53.18-.55.18h-.11c-.45,0-.91,0-1.36,0a3.11,3.11,0,0,0-2.52,1.16c-.4.54-.8,1.1-1.18,1.64-.57.8-1.16,1.63-1.77,2.42a15.31,15.31,0,0,1-2.18,2.45c-1,.81-2,1.56-3,2.29l-1.57,1.16A10.9,10.9,0,0,0,8.3,23.86a19.3,19.3,0,0,0-1.69,4.65c-.44,1.91-.86,3.94-1.38,6.58a12.25,12.25,0,0,1-1.14,3.28c-.44.85-.9,1.7-1.35,2.52Z"/><path class="cls-2" d="M1.89,44.67c.23.8.5,1.6.76,2.38l.16.49a.5.5,0,0,1-.1.6,6.12,6.12,0,0,0-.41.46c-.1.12-.21.25-.33.37a2.49,2.49,0,0,0-.35,3.13c.5,1,.89,1.79,1.22,2.54.2.45.42.9.62,1.34a17.64,17.64,0,0,1,1.69,4.61c.15.91.3,1.82.44,2.73s.3,1.89.46,2.83a10.8,10.8,0,0,0,2.75,5.55,51.67,51.67,0,0,0,6.6,5.85l.13.1a13,13,0,0,1,2.62,2.5c.72,1,1.4,2,2.21,3.23a3.7,3.7,0,0,0,2.15,1.8,14.91,14.91,0,0,0,2.07.28l.43,0a7.66,7.66,0,0,0,.89,0h.31a5.33,5.33,0,0,0,1.42,2.32,2.28,2.28,0,0,0,.84.32l2.21.19c.87.07,1.76.14,2.64.24l.55.05a13,13,0,0,1,2.69.45c1.83.59,3.65,1.33,5.35,2a12.54,12.54,0,0,0,4.9,1,11.66,11.66,0,0,0,2.63-.3A50.4,50.4,0,0,0,55.67,90l1.09-.41c.84-.32,1.72-.65,2.59-.93a15.59,15.59,0,0,1,4.15-.55l.77,0a15.47,15.47,0,0,0,1.82-.15,4.09,4.09,0,0,0,2.5-1.72c.25-.31.47-.65.68-1l.34-.51.06-.09c.05-.08.12-.2.18-.21a5.34,5.34,0,0,1,.7-.08l.36,0a3,3,0,0,0,2.18-.9c.72-.86,1.39-1.75,2.13-2.73l.43-.58a17.31,17.31,0,0,1,3.47-3.79c.76-.56,1.55-1.11,2.31-1.64L83,73.52a10.84,10.84,0,0,0,3.93-4.37,28.82,28.82,0,0,0,1.4-3.74c.53-1.89,1-3.84,1.38-5.72l.11-.51a12.92,12.92,0,0,1,1.06-3.32c.48-.9,1-1.81,1.5-2.69l.42-.73a3.4,3.4,0,0,0,.59-2.55,6.08,6.08,0,0,0-1.34-2.73c-.43-.47-.43-.49-.08-1l.14-.21a10.72,10.72,0,0,0,.61-1,1.54,1.54,0,0,0,.1-1.35l-.61-1.43c-.35-.83-.71-1.68-1.08-2.52l-.27-.6a13.57,13.57,0,0,1-1.23-3.55c-.2-1.35-.36-2.74-.52-4.07-.08-.65-.15-1.31-.24-2a11,11,0,0,0-2.3-5.56,42.24,42.24,0,0,0-5.27-5.29l-.76-.66c-.73-.63-1.49-1.29-2.19-2a17.9,17.9,0,0,1-3-4.35,4.3,4.3,0,0,0-3.41-2.43h-.13c-.55-.06-1.12-.13-1.68-.21a.6.6,0,0,1-.37-.16c-.17-.26-.33-.53-.48-.8s-.4-.69-.62-1A2.23,2.23,0,0,0,67.1,6c-1.65-.23-2.92-.39-4.11-.53a17,17,0,0,1-5.08-1.13L53.16,2.15a11.3,11.3,0,0,0-7-.75,52.06,52.06,0,0,0-7.3,2l-.18.06a15,15,0,0,1-4.56,1c-1.23,0-2.26,0-3.23,0A3.82,3.82,0,0,0,27.55,5.9c-.41.53-.77,1.1-1.12,1.66l-.33.53c-.16.25-.31.51-.45.76A14.68,14.68,0,0,1,23.75,9a3.34,3.34,0,0,0-2.63,1.22c-.4.54-.8,1.1-1.18,1.64-.57.8-1.16,1.63-1.76,2.42A15.18,15.18,0,0,1,16,16.67c-1,.8-2,1.56-3,2.28l-1.57,1.17a11.05,11.05,0,0,0-3.31,3.67,19.47,19.47,0,0,0-1.7,4.69c-.44,1.92-.87,3.95-1.39,6.59A12.1,12.1,0,0,1,4,38.31c-.44.84-.9,1.7-1.34,2.52l-.36.67A4.22,4.22,0,0,0,1.89,44.67Z"/><path d="M27.63,5.94A3.37,3.37,0,0,1,28.74,5a3.91,3.91,0,0,1,1.41-.4c.49-.05,1,0,1.47,0h1.47c.49,0,1,0,1.47,0A10,10,0,0,0,36,4.33a25.51,25.51,0,0,0,2.81-.85c1.85-.64,3.72-1.24,5.63-1.7a24.12,24.12,0,0,1,2.9-.55,11.79,11.79,0,0,1,3,0,10.7,10.7,0,0,1,2.84.82l2.68,1.2,1.34.6c.45.2.89.41,1.34.58a13.86,13.86,0,0,0,2.82.67l5.83.74a2.32,2.32,0,0,1,1.38.72,4.3,4.3,0,0,1,.45.62l.38.63.37.63.1.15,0,.07,0,0a.7.7,0,0,0,.27.09L71.62,9c.24,0,.49.05.74.1a4.51,4.51,0,0,1,.74.21,4.1,4.1,0,0,1,1.3.81,5.34,5.34,0,0,1,.95,1.19l.73,1.28A17.51,17.51,0,0,0,77.69,15a18.2,18.2,0,0,0,2.07,2c1.48,1.28,3,2.55,4.39,3.93.7.69,1.39,1.4,2,2.15a12.39,12.39,0,0,1,1.71,2.45,11.1,11.1,0,0,1,1,2.82c.11.49.17,1,.23,1.47l.19,1.46.37,2.91c.07.48.12,1,.2,1.45A9.13,9.13,0,0,0,90.25,37c.32.9.76,1.78,1.15,2.68l1.16,2.7.29.68.14.34a1.68,1.68,0,0,1,.13.42,1.73,1.73,0,0,1-.1.86,4.41,4.41,0,0,1-.35.7c-.13.22-.26.43-.4.63a4.7,4.7,0,0,0-.34.58c0,.07,0,0,0,.11a1.93,1.93,0,0,0,.2.24,5.39,5.39,0,0,1,.48.6,6.07,6.07,0,0,1,.69,1.37c.09.24.16.48.23.72a2.9,2.9,0,0,1,.13.79A3.43,3.43,0,0,1,93.28,52c-.23.46-.48.88-.71,1.3l-1.44,2.56a10.1,10.1,0,0,0-.95,2.69c-.43,1.9-.84,3.83-1.33,5.73A26.2,26.2,0,0,1,88,67.12c-.17.46-.36.92-.55,1.38s-.37.91-.62,1.36A9.41,9.41,0,0,1,85,72.24a20.33,20.33,0,0,1-2.34,1.84l-2.4,1.7c-.39.28-.81.56-1.19.85a10.54,10.54,0,0,0-1.06,1,22.4,22.4,0,0,0-1.85,2.23c-.58.79-1.19,1.56-1.79,2.34l-.91,1.16a2.79,2.79,0,0,1-.56.58,2.67,2.67,0,0,1-.74.38,6.5,6.5,0,0,1-1.52.26,5.77,5.77,0,0,0-.69.08c-.06,0,0,0,0,0s0,0,0,0l-.08.12-.21.31c-.27.4-.52.83-.84,1.24a6.73,6.73,0,0,1-1.06,1.11,3.53,3.53,0,0,1-1.43.71,10.22,10.22,0,0,1-1.51.16,19.74,19.74,0,0,0-5.73.7c-.92.31-1.83.66-2.75,1s-1.85.68-2.78,1-1.88.59-2.83.85a16.53,16.53,0,0,1-2.93.57,12.51,12.51,0,0,1-5.88-1c-1.81-.76-3.61-1.51-5.46-2.1a14.33,14.33,0,0,0-2.84-.46l-2.93-.27-1.46-.13-.73-.07a2,2,0,0,1-.8-.26L27.52,88a1.24,1.24,0,0,1-.2-.15,2.35,2.35,0,0,1-.28-.31,5.51,5.51,0,0,1-.43-.65A6.77,6.77,0,0,1,26,85.48l.27.21h-.75a7,7,0,0,1-.78,0c-.5,0-1-.09-1.51-.16-.25,0-.51-.08-.76-.14a2.75,2.75,0,0,1-.77-.31,4.09,4.09,0,0,1-1.16-1.1c-.6-.85-1.14-1.66-1.71-2.49L18,80.22a8.07,8.07,0,0,0-1-1.09c-.71-.68-1.51-1.27-2.3-1.9s-1.57-1.26-2.34-1.9-1.52-1.32-2.25-2a22.74,22.74,0,0,1-2.06-2.24A11.28,11.28,0,0,1,6.53,68.4a10.51,10.51,0,0,1-.47-1.46c-.12-.5-.19-1-.27-1.5l-.47-3L5.07,61a11.18,11.18,0,0,0-.3-1.45A18.43,18.43,0,0,0,3.7,56.76L3.06,55.4c-.21-.46-.42-.92-.64-1.36l-.65-1.35a7.39,7.39,0,0,1-.59-1.43,2.4,2.4,0,0,1,.15-1.59A2.87,2.87,0,0,1,1.78,49L2,48.71l.24-.28.26-.29a.86.86,0,0,0,.2-.24c.07-.13,0-.35-.1-.6l-.46-1.44-.23-.72c-.07-.24-.16-.47-.21-.73a4.24,4.24,0,0,1,0-1.56,4.49,4.49,0,0,1,.51-1.47l.71-1.32.71-1.32a13.74,13.74,0,0,0,.66-1.34,13.81,13.81,0,0,0,.83-2.85l.63-2.94a39.34,39.34,0,0,1,1.5-5.84,15,15,0,0,1,1.33-2.72,10.82,10.82,0,0,1,2-2.24c.77-.66,1.59-1.23,2.4-1.83s1.62-1.18,2.41-1.8a13.62,13.62,0,0,0,1.14-1,13.64,13.64,0,0,0,1-1.12c.63-.78,1.23-1.58,1.82-2.39s1.17-1.63,1.77-2.44a2.7,2.7,0,0,1,1.16-.93A4.51,4.51,0,0,1,23.77,9a4.5,4.5,0,0,0-1.46.32,2.68,2.68,0,0,0-1.15.93c-.59.81-1.16,1.63-1.74,2.45s-1.18,1.62-1.8,2.41a13.72,13.72,0,0,1-1,1.13,13.71,13.71,0,0,1-1.14,1c-.78.63-1.59,1.23-2.4,1.82s-1.62,1.18-2.37,1.84a10.65,10.65,0,0,0-2,2.22,14.79,14.79,0,0,0-1.29,2.69A39.18,39.18,0,0,0,6,31.66L5.4,34.61a14.12,14.12,0,0,1-.83,2.92,13.71,13.71,0,0,1-.67,1.36L3.2,40.22l-.71,1.33A4.15,4.15,0,0,0,2,42.91a3.89,3.89,0,0,0,0,1.43c0,.23.14.47.21.71l.23.71L3,47.19c0,.12.08.23.12.37a.75.75,0,0,1,0,.49,1.15,1.15,0,0,1-.27.35l-.24.27L2.32,49l-.25.28a2.49,2.49,0,0,0-.38.58,2,2,0,0,0-.11,1.34,7.06,7.06,0,0,0,.57,1.34l.66,1.36c.23.45.43.91.64,1.36l.65,1.36A18.83,18.83,0,0,1,5.2,59.41a11.63,11.63,0,0,1,.32,1.49l.24,1.48.49,3c.08.5.15,1,.27,1.46A10,10,0,0,0,7,68.22a10.79,10.79,0,0,0,1.48,2.53,22.29,22.29,0,0,0,2,2.18c.72.69,1.47,1.35,2.23,2S14.26,76.18,15,76.8s1.59,1.22,2.34,1.93a8.61,8.61,0,0,1,1,1.16l.85,1.24c.57.82,1.14,1.68,1.7,2.47a3.55,3.55,0,0,0,1,1,2.19,2.19,0,0,0,.62.25c.23.05.47.1.72.13.48.07,1,.11,1.48.15a6.38,6.38,0,0,0,.73,0h.75a.27.27,0,0,1,.27.2h0a6.31,6.31,0,0,0,.57,1.27,5,5,0,0,0,.38.58,1.81,1.81,0,0,0,.21.23l.1.07.16.08a1.48,1.48,0,0,0,.59.2l.73.06,1.46.13,2.93.26a14.81,14.81,0,0,1,3,.48c1.89.6,3.71,1.35,5.51,2.11a11.91,11.91,0,0,0,5.6.94,16,16,0,0,0,2.83-.55c.94-.25,1.87-.53,2.8-.84s1.84-.64,2.76-1,1.83-.7,2.77-1a11.4,11.4,0,0,1,2.95-.59c1-.08,2-.1,2.94-.15a9.78,9.78,0,0,0,1.41-.15,2.9,2.9,0,0,0,1.17-.59,6.15,6.15,0,0,0,1-1c.29-.37.54-.78.81-1.19l.2-.3a1.65,1.65,0,0,1,.13-.19.66.66,0,0,1,.13-.12.53.53,0,0,1,.2-.08,6.3,6.3,0,0,1,.77-.08,6,6,0,0,0,1.37-.22,2,2,0,0,0,.56-.29,2.24,2.24,0,0,0,.45-.48l.9-1.15c.6-.77,1.2-1.53,1.79-2.32a23,23,0,0,1,1.91-2.29,11.15,11.15,0,0,1,1.12-1c.4-.31.8-.57,1.2-.86l2.4-1.69a19.77,19.77,0,0,0,2.28-1.78,8.81,8.81,0,0,0,1.76-2.22c1.76-3.45,2.42-7.35,3.32-11.16a10.67,10.67,0,0,1,1-2.83L92.07,53a5.64,5.64,0,0,0,1-2.55,2.33,2.33,0,0,0-.11-.65c-.06-.23-.13-.46-.21-.68a5.52,5.52,0,0,0-.62-1.25,4.81,4.81,0,0,0-.44-.54,2.32,2.32,0,0,1-.26-.33.64.64,0,0,1-.06-.59,4.56,4.56,0,0,1,.4-.69c.13-.21.27-.41.39-.61a1.85,1.85,0,0,0,.38-1.19,1.12,1.12,0,0,0-.09-.28l-.14-.34-.29-.68-1.15-2.7c-.38-.89-.82-1.78-1.16-2.72a9.42,9.42,0,0,1-.4-1.46c-.08-.5-.13-1-.19-1.47l-.36-2.92-.18-1.46c-.06-.49-.12-1-.22-1.43a10.61,10.61,0,0,0-.95-2.7,11.91,11.91,0,0,0-1.64-2.37c-.63-.74-1.3-1.45-2-2.13-1.39-1.37-2.87-2.64-4.35-3.93a18.58,18.58,0,0,1-2.11-2.09,17.9,17.9,0,0,1-1.64-2.47L75,11.5a5,5,0,0,0-.87-1.11A3.72,3.72,0,0,0,73,9.65a4.14,4.14,0,0,0-.67-.19c-.23,0-.47-.07-.71-.1l-1.46-.18A1,1,0,0,1,69.69,9a.47.47,0,0,1-.11-.1l-.06-.09-.1-.16L69.05,8l-.37-.63a4,4,0,0,0-.41-.57,2,2,0,0,0-1.17-.62l-5.83-.77a14.15,14.15,0,0,1-2.88-.71c-.47-.18-.91-.39-1.35-.6l-1.34-.61c-1.8-.78-3.51-1.8-5.45-2.05a11.6,11.6,0,0,0-2.91-.06,24,24,0,0,0-2.88.52c-1.91.44-3.78,1-5.63,1.65A25.59,25.59,0,0,1,36,4.4a10.12,10.12,0,0,1-1.46.2c-.49,0-1,0-1.47,0H31.62c-.49,0-1,0-1.47,0a3.89,3.89,0,0,0-1.4.39A3.36,3.36,0,0,0,27.63,5.94Z"/><path d="M79,45.65c0-.51-.05-1-.11-1.53s-.17-1-.25-1.51c-.18-1-.38-2-.62-3a27.09,27.09,0,0,0-.93-2.92c-.18-.48-.34-1-.54-1.44s-.44-.92-.68-1.37c-.48-.9-1-1.79-1.52-2.66-.26-.44-.52-.88-.82-1.3s-.61-.82-.92-1.22c-.63-.8-1.28-1.59-2-2.33-.35-.37-.72-.73-1.09-1.07s-.78-.66-1.17-1c-.79-.65-1.56-1.32-2.37-1.94a24.49,24.49,0,0,0-2.58-1.64,28.44,28.44,0,0,0-2.75-1.36c-.92-.43-1.89-.76-2.85-1.12a28.19,28.19,0,0,0-2.94-.84c-.5-.13-1-.26-1.49-.35s-1-.12-1.52-.19l-1.53-.17c-.51-.06-1-.12-1.52-.15a25.29,25.29,0,0,0-3.05,0,33.8,33.8,0,0,0-6,.94c-1,.24-2,.53-2.93.86A23,23,0,0,0,34,19.46a53.16,53.16,0,0,0-5.29,3.05,12.56,12.56,0,0,0-1.19.92c-.39.34-.79.66-1.18,1s-.77.66-1.14,1-.71.72-1,1.09c-.68.75-1.33,1.54-2,2.34a27.08,27.08,0,0,0-1.75,2.48c-.53.86-1,1.76-1.47,2.67a19,19,0,0,0-1.2,2.78c-.33,1-.62,1.93-.89,2.92a21,21,0,0,0-.62,3l-.28,3a17.89,17.89,0,0,0-.07,3c.07,1,.19,2,.35,3a25.51,25.51,0,0,0,.59,3q.1.36.21.72l.26.72.52,1.44L18.36,59c.18.47.38.93.6,1.38s.5.88.74,1.32.5.88.78,1.31a29.68,29.68,0,0,0,1.71,2.51A38.74,38.74,0,0,0,26.39,70c.76.67,1.56,1.31,2.38,1.9s1.69,1.12,2.57,1.65a14.62,14.62,0,0,0,1.32.74c.45.23.92.45,1.38.65.91.44,1.88.77,2.83,1.15a14.71,14.71,0,0,0,2.91.85c1,.2,2,.41,3,.58a20.86,20.86,0,0,0,3,.34c1,0,2,0,3.06,0a29.42,29.42,0,0,0,6-.79c1-.24,2-.54,2.94-.85a26,26,0,0,0,2.85-1.1c.46-.21.91-.46,1.37-.68s.91-.46,1.36-.71a14.4,14.4,0,0,0,1.3-.81L66,72a32.47,32.47,0,0,0,4.66-4,25.13,25.13,0,0,0,2-2.33c.61-.82,1.18-1.67,1.74-2.52a24.55,24.55,0,0,0,2.76-5.46,25.77,25.77,0,0,0,1.53-5.93c.1-1,.17-2,.25-3.06,0-.51.1-1,.1-1.53S79,46.16,79,45.65Zm0,0c0,.51,0,1,0,1.54s-.06,1-.1,1.53c-.08,1-.15,2-.24,3.06a25.8,25.8,0,0,1-1.51,5.94,24.61,24.61,0,0,1-2.75,5.48c-.56.86-1.13,1.71-1.74,2.53a25.22,25.22,0,0,1-2,2.35,33.88,33.88,0,0,1-4.65,4L64.82,73a14.57,14.57,0,0,1-1.3.83c-.45.25-.9.49-1.36.72s-.9.48-1.37.7a26.23,26.23,0,0,1-2.86,1.14c-1,.33-1.95.64-2.95.89a29.71,29.71,0,0,1-6.1.86c-1,0-2,.07-3.08.05a21.23,21.23,0,0,1-3.08-.32c-1-.16-2-.36-3-.55a15.11,15.11,0,0,1-3-.84c-1-.37-1.93-.69-2.87-1.13-.48-.2-.94-.42-1.4-.65A15.14,15.14,0,0,1,31.07,74c-.88-.53-1.76-1.05-2.61-1.65A30.06,30.06,0,0,1,26,70.39a39.26,39.26,0,0,1-4.28-4.46A30.13,30.13,0,0,1,20,63.37c-.28-.43-.53-.89-.79-1.33s-.54-.88-.77-1.35-.44-.95-.63-1.43l-.53-1.45-.52-1.45-.26-.72q-.12-.37-.23-.75a26.11,26.11,0,0,1-.61-3c-.16-1-.3-2-.36-3.08a18.48,18.48,0,0,1,.08-3.11l.29-3.07a21.58,21.58,0,0,1,.64-3c.28-1,.57-2,.92-3a19.57,19.57,0,0,1,1.24-2.85c.48-.91,1-1.82,1.5-2.7a27.62,27.62,0,0,1,1.8-2.52c.64-.81,1.3-1.6,2-2.36.35-.38.7-.76,1.08-1.12s.78-.69,1.17-1,.79-.64,1.18-1a13.06,13.06,0,0,1,1.25-.94,53.56,53.56,0,0,1,5.37-3,23.43,23.43,0,0,1,2.88-1.12c1-.32,2-.61,3-.84a34.14,34.14,0,0,1,6.1-.89,25.59,25.59,0,0,1,3.09,0c.51,0,1,.1,1.54.16l1.53.18c.51.07,1,.1,1.53.2s1,.24,1.5.37a28.38,28.38,0,0,1,3,.87c1,.37,1.93.71,2.85,1.16a28.59,28.59,0,0,1,2.74,1.39,24.62,24.62,0,0,1,2.58,1.68c.42.3.79.65,1.19,1l1.18,1c.39.33.79.65,1.17,1s.74.71,1.1,1.08c.7.75,1.35,1.54,2,2.35.31.4.63.81.92,1.23s.55.86.81,1.3c.52.88,1,1.77,1.51,2.67.24.45.48.91.67,1.38s.36,1,.53,1.44A27.12,27.12,0,0,1,78,39.59c.24,1,.43,2,.61,3,.08.5.19,1,.25,1.51S79,45.14,79,45.65Z"/><path d="M79,45.65c0,.7,0,1.37,0,2-.08,1.3-.16,2.61-.31,3.91a25.25,25.25,0,0,1-1.45,5.86,25.32,25.32,0,0,1-2.54,5.25,44,44,0,0,1-2.8,4A28.22,28.22,0,0,1,68.64,70a45.5,45.5,0,0,1-4.16,3.14,30.63,30.63,0,0,1-3.07,1.69,28.33,28.33,0,0,1-4.82,1.87,28.85,28.85,0,0,1-5.09,1.08c-1.24.15-2.5.21-3.76.24a24.69,24.69,0,0,1-3.46-.1c-1.54-.19-3.08-.5-4.61-.8a17.47,17.47,0,0,1-2.19-.56c-.91-.3-1.81-.67-2.7-1q-.76-.3-1.49-.66c-.64-.31-1.28-.61-1.88-1-1.08-.66-2.17-1.3-3.18-2.05a30.56,30.56,0,0,1-3-2.57A41.1,41.1,0,0,1,22.1,65.9a30.38,30.38,0,0,1-2-2.89c-.44-.67-.84-1.37-1.22-2.08A16.27,16.27,0,0,1,18,59c-.43-1.15-.87-2.29-1.25-3.46a19,19,0,0,1-.65-2.71,39.65,39.65,0,0,1-.53-4.17,18.28,18.28,0,0,1,0-2.32c.08-1.22.18-2.45.34-3.66a20.86,20.86,0,0,1,.59-2.87c.34-1.23.71-2.46,1.15-3.66a19.62,19.62,0,0,1,1.06-2.34c.54-1,1.08-2.06,1.71-3a31.46,31.46,0,0,1,1.92-2.6A36,36,0,0,1,25,25.29a16.62,16.62,0,0,1,1.4-1.22,29.5,29.5,0,0,1,2.37-1.85c1.52-1,3.08-1.89,4.69-2.71A21.2,21.2,0,0,1,36,18.41a37.11,37.11,0,0,1,4.09-1.2,34.94,34.94,0,0,1,4.73-.77,24.9,24.9,0,0,1,5.38.07c.95.12,1.9.19,2.84.33a13,13,0,0,1,1.5.32c1,.26,2,.49,2.95.81.78.25,1.53.56,2.29.87.59.24,1.17.49,1.73.77a27.77,27.77,0,0,1,4.88,2.93c1,.74,1.87,1.55,2.8,2.33a27.74,27.74,0,0,1,4,4.41,15.26,15.26,0,0,1,1,1.4c.76,1.26,1.5,2.53,2.17,3.84A12.12,12.12,0,0,1,76.88,36c.4,1.13.83,2.25,1.11,3.4.35,1.41.6,2.84.85,4.27C79,44.32,79,45,79,45.65ZM77.89,47A30.19,30.19,0,0,0,77,40.14,29.3,29.3,0,0,0,73.4,31.7a29,29,0,0,0-3.63-4.64,30.88,30.88,0,0,0-13.41-8.23,31.28,31.28,0,0,0-6-1.17,31.67,31.67,0,0,0-7.22.12,30.94,30.94,0,0,0-18.31,9.35,29.58,29.58,0,0,0-5.11,7.35,29,29,0,0,0-2.15,19.43A28.8,28.8,0,0,0,21,62.23,29.95,29.95,0,0,0,31.69,72.7,31.19,31.19,0,0,0,51.3,76.63a31.36,31.36,0,0,0,8.35-2.27,30.58,30.58,0,0,0,9.05-5.94,29.4,29.4,0,0,0,5-6.32A29.07,29.07,0,0,0,77.89,47Z"/><path d="M79,45.65c0,.7,0,1.37,0,2-.08,1.3-.16,2.61-.31,3.91a25.25,25.25,0,0,1-1.45,5.86,25.32,25.32,0,0,1-2.54,5.25,44,44,0,0,1-2.8,4A28.22,28.22,0,0,1,68.64,70a45.5,45.5,0,0,1-4.16,3.14,30.63,30.63,0,0,1-3.07,1.69,28.33,28.33,0,0,1-4.82,1.87,28.85,28.85,0,0,1-5.09,1.08c-1.24.15-2.5.21-3.76.24a24.69,24.69,0,0,1-3.46-.1c-1.54-.19-3.08-.5-4.61-.8a17.47,17.47,0,0,1-2.19-.56c-.91-.3-1.81-.67-2.7-1q-.76-.3-1.49-.66c-.64-.31-1.28-.61-1.88-1-1.08-.66-2.17-1.3-3.18-2.05a30.56,30.56,0,0,1-3-2.57A41.1,41.1,0,0,1,22.1,65.9a30.38,30.38,0,0,1-2-2.89c-.44-.67-.84-1.37-1.22-2.08A16.27,16.27,0,0,1,18,59c-.43-1.15-.87-2.29-1.25-3.46a19,19,0,0,1-.65-2.71,39.65,39.65,0,0,1-.53-4.17,18.28,18.28,0,0,1,0-2.32c.08-1.22.18-2.45.34-3.66a20.86,20.86,0,0,1,.59-2.87c.34-1.23.71-2.46,1.15-3.66a19.62,19.62,0,0,1,1.06-2.34c.54-1,1.08-2.06,1.71-3a31.46,31.46,0,0,1,1.92-2.6A36,36,0,0,1,25,25.29a16.62,16.62,0,0,1,1.4-1.22,29.5,29.5,0,0,1,2.37-1.85c1.52-1,3.08-1.89,4.69-2.71A21.2,21.2,0,0,1,36,18.41a37.11,37.11,0,0,1,4.09-1.2,34.94,34.94,0,0,1,4.73-.77,24.9,24.9,0,0,1,5.38.07c.95.12,1.9.19,2.84.33a13,13,0,0,1,1.5.32c1,.26,2,.49,2.95.81.78.25,1.53.56,2.29.87.59.24,1.17.49,1.73.77a27.77,27.77,0,0,1,4.88,2.93c1,.74,1.87,1.55,2.8,2.33a27.74,27.74,0,0,1,4,4.41,15.26,15.26,0,0,1,1,1.4c.76,1.26,1.5,2.53,2.17,3.84A12.12,12.12,0,0,1,76.88,36c.4,1.13.83,2.25,1.11,3.4.35,1.41.6,2.84.85,4.27C79,44.32,79,45,79,45.65ZM77.89,47A30.19,30.19,0,0,0,77,40.14,29.3,29.3,0,0,0,73.4,31.7a29,29,0,0,0-3.63-4.64,30.88,30.88,0,0,0-13.41-8.23,31.28,31.28,0,0,0-6-1.17,31.67,31.67,0,0,0-7.22.12,30.94,30.94,0,0,0-18.31,9.35,29.58,29.58,0,0,0-5.11,7.35,29,29,0,0,0-2.15,19.43A28.8,28.8,0,0,0,21,62.23,29.95,29.95,0,0,0,31.69,72.7,31.19,31.19,0,0,0,51.3,76.63a31.36,31.36,0,0,0,8.35-2.27,30.58,30.58,0,0,0,9.05-5.94,29.4,29.4,0,0,0,5-6.32A29.07,29.07,0,0,0,77.89,47Z"/><g id="_0505-onion" data-name="0505-onion"><path class="cls-3" d="M49.38,55.33c0-.14-.09-.27-.1-.41a1.81,1.81,0,0,0-.1-.36,1.87,1.87,0,0,1-.15-.51,14.25,14.25,0,0,0-1-1.59,4.92,4.92,0,0,1-.67-.67,17.08,17.08,0,0,1-1.8-1.33c-.45-.2-.88-.39-1.28-.62A4.17,4.17,0,0,0,43,49.23a12.07,12.07,0,0,1-2.57-2.1c0-.06-.06-.08-.1-.1a7.8,7.8,0,0,0-.62-1.18c-.19-.47-.29-1-.92-1.08-.12,0-.11.09-.26.05a1.09,1.09,0,0,0-.56.72c-.13.31-.32.57-.46.87-.68.5-1.23,1.13-1.95,1.59s-1.42,1-2.15,1.44a12.48,12.48,0,0,0-6.57,4.87c-.14.64-.41,1.16-.51,1.85s0,1.28,0,2.05A8.11,8.11,0,0,0,29.83,63c.38.3.87.5,1.23.82a11,11,0,0,0,1.28.82,7.54,7.54,0,0,0,3.08,1.13c0,.09.12.15.15.26s.2.11.21.26c-.1.31-.27.55-.36.87s-.25.76,0,.92c.47,0,.56-.33.77-.56a2.83,2.83,0,0,1,.46-.87c.11.09.42,0,.51.1,0,.28-.19.42-.15.77s0,.63.31.62.32-.29.31-.62,0-.6.21-.77a1.81,1.81,0,0,1,.51-.05c.15.6.09,1.42.82,1.44.51-.35,0-1,0-1.59.11-.11.32-.13.46-.21s.36.25.56.36.35.3.51.46c.35.22.66.73,1.23.56a.89.89,0,0,0-.41-1c-.13-.13-.31-.2-.41-.36a.69.69,0,0,1-.41-.36,3.94,3.94,0,0,0,.82-.36,15.72,15.72,0,0,0,4.21-1.69c.21-.22.39-.47.62-.67s.47-.38.62-.67a8.6,8.6,0,0,0,1.18-1.44,7.68,7.68,0,0,1,.46-.82,2.22,2.22,0,0,1,.21-.46,2.65,2.65,0,0,1,.21-.46,10.3,10.3,0,0,0,.46-2.15V56.15A5.79,5.79,0,0,1,49.38,55.33Zm-19,6.05c-.61-.71-1.27-1.36-1.85-2.1a8.46,8.46,0,0,1-.31-1V56.92A13.87,13.87,0,0,1,28.65,55c.23-.34.41-.72.62-1.08.44-.47.93-.89,1.39-1.33a4.65,4.65,0,0,0,.62-.36c.24-.11.42-.26.67-.36.07,0,.07-.07.15-.05s.07,0,0,0,0,0,0,.05c-.21.29-.47.59-.67.82l-.15.2s0,.05-.05.1a4.59,4.59,0,0,0-.46.77c0,.08,0,.13-.05.21s-.09.12-.1.15,0,.17-.05.21a14.21,14.21,0,0,0-.31,3.75,18.24,18.24,0,0,0,.31,2.1c.11.07,0,.34.15.41a1,1,0,0,0,.15.46c.06.35.27.55.36.87A4.83,4.83,0,0,1,30.34,61.39Zm3.23,1.85a6.1,6.1,0,0,1-1.69-1.95,10.76,10.76,0,0,1-.82-2.82,25.62,25.62,0,0,1,0-3.18c.07-.39.15-.78.21-1.18.11-.13.08-.4.21-.51s.17-.27.15-.51c.3-.61.69-1.12,1-1.69a4.88,4.88,0,0,1,1.18-.46,13.71,13.71,0,0,0-1.13,7,10.88,10.88,0,0,0,.36,1.69,7.31,7.31,0,0,0,.56,1.49,8.91,8.91,0,0,0,.67,1.39l.41.62c.09.25.32.36.41.62C34.57,63.61,34.09,63.4,33.58,63.23Zm3.18,1.08a11.72,11.72,0,0,1-2-2.82,13.07,13.07,0,0,1-1.23-3.59c-.07-.9,0-1.9-.05-2.87a16.65,16.65,0,0,1,.41-2.36c.32-.47.62-1,1-1.39a2.74,2.74,0,0,1,.51-.67c.11-.27.36-.39.46-.67.38-.39.66-.88,1-1.28a7.31,7.31,0,0,1,1.08-1.23c0-.26.23-.39.31-.62s.18-.41.36-.51a.14.14,0,0,1,.1-.15,2.56,2.56,0,0,1,.31.72.33.33,0,0,0-.41.05A6.68,6.68,0,0,0,38,48.41a5.23,5.23,0,0,0-.51.67,15.38,15.38,0,0,0-.62,1.74,18.8,18.8,0,0,0-.46,1.85A22.36,22.36,0,0,0,36,56.92c0,.4,0,.61,0,1.08a5.55,5.55,0,0,0,.05,1.08,13.44,13.44,0,0,0,.26,2.05c.11.1.07.34.15.46a3.39,3.39,0,0,1,.1.46,1.12,1.12,0,0,1,.15.41,1.35,1.35,0,0,1,.15.41,6.56,6.56,0,0,0,.41.77c.05.32.32.44.36.77A8.11,8.11,0,0,1,36.76,64.31Zm4.72-.21a9.29,9.29,0,0,1-1.9.26c-.24,0,.06-.12.05-.21s.15-.15.21-.26.23-.35.41-.46a1.42,1.42,0,0,1,.26-.51,3.35,3.35,0,0,0,.05-.72,7.33,7.33,0,0,0,.56-1.59,7,7,0,0,0,.36-1.8c.12-.07,0-.36.05-.51s0-.32.05-.46a9.33,9.33,0,0,0,.05-1c0-.39-.09-.63-.05-1a1.29,1.29,0,0,0-.05-.51c0-.14.07-.41-.05-.46a8.74,8.74,0,0,0-1-3.34c-.26-.46-.47-1-.72-1.44a7.46,7.46,0,0,0-.26-.82c-.09-.27-.18-.54-.46-.62-.18.15-.16.49-.15.82s.07.55.21.72a3,3,0,0,0,.67,1.23c.17.58.48,1,.62,1.64a10.41,10.41,0,0,1,.41,1.8,30,30,0,0,1,0,3.49,28.91,28.91,0,0,1-.67,3.39,5.78,5.78,0,0,1-.62,1.44c-.18.16-.28.4-.46.56s-.14.2-.21.31-.06.24-.26.21a10.7,10.7,0,0,1-1.74-5.54V55.79c.08-.64.06-1.37.15-2,0-.36.12-.6.1-1,.13,0,0-.36.1-.41a.7.7,0,0,1,.1-.41,9.19,9.19,0,0,1,.41-1.69c.07-.12.09-.29.15-.41s.21-.13.15-.36a5.61,5.61,0,0,0,.21-.82,2.81,2.81,0,0,0,.41-.82c.16,0,.17-.14.36-.1s0-.27.1-.31a.42.42,0,0,1,.1.31c.15-.11-.07-.27,0-.46,0,0,0,0,.05.05.3.33.42.84.77,1.13s.54.7.82,1a6.87,6.87,0,0,0,.62.41,13.16,13.16,0,0,1,.87,1.13,8.78,8.78,0,0,1,.72,1.28,6.49,6.49,0,0,1,.51,1.49,2.16,2.16,0,0,1,.21.82c.12.05,0,.37.1.41s-.06.37.05.41a12.4,12.4,0,0,1-.21,3.69,12.53,12.53,0,0,1-.41,1.59,7.45,7.45,0,0,0-.46,1.54A11.44,11.44,0,0,1,41.48,64.11Zm3-1.9a2.23,2.23,0,0,0-.36.46c-.17.12-.2.38-.41.46a1.85,1.85,0,0,1-.41.41c-.1.19-.42.16-.56.31-.12,0,0-.23.05-.21s.11-.17.15-.26a5.55,5.55,0,0,1,.31-.51,8.06,8.06,0,0,0,.26-.92,6.48,6.48,0,0,0,1-2.51c.12,0,0-.27.1-.31s.09-.22.05-.41c.12,0,0-.29.05-.41s0-.29.05-.41a6.39,6.39,0,0,0,0-1.69v-.87c-.11,0,0-.25-.05-.36s0-.33-.1-.36a11.43,11.43,0,0,0-.31-1.49c-.23-.37-.31-.89-.56-1.23a12.13,12.13,0,0,0-.62-1.18.14.14,0,0,1-.1-.15c-.06,0,0-.07,0,0a3.63,3.63,0,0,0,.82.56c.3.47.72.82,1,1.28s.58,1,.87,1.44a10.57,10.57,0,0,1,.41,3.54A12.59,12.59,0,0,1,45.53,60c-.12.16-.15.4-.26.56A12.15,12.15,0,0,0,44.5,62.21Zm2.87-3.54c-.35.47-.56,1.08-.87,1.59-.14.27-.32.5-.46.77-.16,0-.15.26-.31.31a.26.26,0,0,1-.15.15c0,.08-.14.17-.1,0a7.46,7.46,0,0,0,.67-1.18c.1-.19.19-.47.31-.77,0,0,.09-.13.1-.15.07-.19.07-.39.15-.62,0,0,.1-.13.1-.15,0-.19.07-.48.1-.72s.06-.47.1-.72c0-.59,0-1.09-.05-1.64a11.45,11.45,0,0,0-.51-2.05.24.24,0,0,1-.05-.15c.08,0,.09,0,.15.05a10.14,10.14,0,0,1,.87,1.23A9.07,9.07,0,0,1,47.38,58.67Z"/></g><g id="_0310-carrot" data-name="0310-carrot"><path class="cls-3" d="M75,50.29a3,3,0,0,0-.26-1.79c-.16,0-.19-.32-.38-.33-.06-.22-.32-.11-.38-.33a5.39,5.39,0,0,0,0-1.14,2.74,2.74,0,0,0-1.21-2c-.18,0-.28-.06-.44-.07s-.42.11-.49-.06c0-.45-.06-.9-.09-1.35a5.66,5.66,0,0,0-1.52-2.8,4.39,4.39,0,0,0-.77-.47,3.08,3.08,0,0,0-1,0,2.73,2.73,0,0,0-1.39.93,3,3,0,0,0-1-.53.48.48,0,0,1-.37,0l-.73.18-.68.4a3.81,3.81,0,0,1-.47.53c-.16.29-.27.61-.44.88.07.22-.15.26-.06.49-.16.08.06.39-.13.45a1.53,1.53,0,0,0-1.33,1.16,4.5,4.5,0,0,0,.58,1.89,1.37,1.37,0,0,0-.48.48,3.72,3.72,0,0,0,0,1.92,2.25,2.25,0,0,0,.71,1c.32,0,.54.17,1,0A1.76,1.76,0,0,0,64.2,49c0-.14.1-.26.14-.39s0-.43.16-.34.26.27.11.45a.82.82,0,0,0-.24.48,9.06,9.06,0,0,0-.5.9,7,7,0,0,1-.43.94,1,1,0,0,1-.19.46c-.07.16,0,.4-.24.48a1.93,1.93,0,0,0-.75-.12,1.43,1.43,0,0,0-.75-.12c-.45.06-.68.26-1.11.33-.48.53-1.13.95-1.54,1.51a9.56,9.56,0,0,0-1.25,1.74,10.7,10.7,0,0,0-1.41,1.84c-.23.08-.19.33-.37.45s-.27.28-.3.49c-.31.28-.4.68-.72,1a26.08,26.08,0,0,0-2.1,4.15,42.53,42.53,0,0,0-3,9.09c.2.34.09.73.4.92.6.12.9-.33,1.36-.57.3-.35.81-.56,1.09-.92.68-.66,1.44-1.27,2.1-1.94a14,14,0,0,0,1.09-.92c.28-.36.7-.63,1-1,.79-.59,1.26-1.38,2.1-1.94.65-.66,1.44-1.24,2-1.93.77-.6,1.3-1.36,2-2,.34-.32.6-.69,1-1a7.16,7.16,0,0,0,1-1c.15-.16.27-.35.41-.52s.32-.35.4-.57c.23-.13.28-.37.47-.53s.24-.4.33-.62a7.26,7.26,0,0,0,0-1.32,13,13,0,0,0-.72-2q.62-.49,1.26-1a6.64,6.64,0,0,1,1.25-1,3.25,3.25,0,0,0,.51,1.37,6.72,6.72,0,0,0,1.42.67,2.48,2.48,0,0,0,.87-.09c.18-.14.44-.25.55-.43s.17-.41.41-.52a4.37,4.37,0,0,0,1,.42,3.5,3.5,0,0,0,1.26-.25.58.58,0,0,1,.3-.25A2.9,2.9,0,0,0,75,50.29ZM63.87,47.67c-.07,0-.06.12-.14.15-.26.26-.31.65-.63.87-.37-.2-.42-1-.33-1.35a1.09,1.09,0,0,0,.44-.17c.21,0,.3.14.46.19s.31.13.46.19S63.95,47.62,63.87,47.67ZM64.65,58a1,1,0,0,1-.37.45c-.06-.32-.17-.56-.43-.55-.59.07-.32.91-.06,1.21a18.31,18.31,0,0,1-2,1.68c-.22.35-.59.6-.85.92s-.57.62-1,.84c-.12-.49-.38-.74-.78-.77-.22.06-.18.27-.26.42a2.06,2.06,0,0,0,.19.55c0,.12.24.33.15.38.09.18-.19.14-.17.28-.17,0-.14.17-.31.19-.19-.4-.35-.85-.8-.82s-.37.29-.48.48a4.35,4.35,0,0,0,.43,1c0,.26-.2.36-.36.5a1.22,1.22,0,0,1-.43.46,5.05,5.05,0,0,1-.85.92c-.7.52-1.31,1.1-1.93,1.66C53.15,69,52.16,70.31,51,71.52c-.16-.07,0-.33.07-.44s.11-.28.13-.45a2.58,2.58,0,0,0,.26-.9c.3-.54.35-1.23.65-1.77a3.86,3.86,0,0,1,.32-.91,3.47,3.47,0,0,1,.33-.86,3.58,3.58,0,0,1,.33-.86c.09-.3.23-.57.33-.86.43,0,.56.51,1.05.4.28-.06.15-.35.09-.62a1.14,1.14,0,0,0-.74-.6,22.09,22.09,0,0,1,.93-2.08,13.55,13.55,0,0,1,1.15-1.89c.53.08.71.72,1.18.91.4,0,.58-.22.59-.5a1.25,1.25,0,0,0-.54-.76c-.11-.34-.48-.27-.62-.57.6-.74,1.08-1.55,1.72-2.27s1-1.6,1.79-2.23c.4,0,.56.44,1,.41.28,0,.23-.27.31-.43a1.28,1.28,0,0,0-.52-.65c0-.06,0-.11.09-.14a2.57,2.57,0,0,1,.89-.28c.26,0,.47.06.66,0,0,.22-.19.27-.12.51a1.61,1.61,0,0,0,1.86,1.52A9.29,9.29,0,0,0,65,56.9a3.48,3.48,0,0,0,0,.65C64.84,57.67,64.88,57.91,64.65,58ZM73.4,52.7a1.24,1.24,0,0,1-1.14-.26c0-.58.1-1.68-.65-1.69-.34.07-.38.31-.4.57a2.53,2.53,0,0,0-.12.75c-.19.42-.18.95-.6,1.22-.33,0-.49-.24-.7-.43a5.56,5.56,0,0,1-.57-.64c0-.19-.16-.26-.18-.49,0-.68.92-.85,1-1.5a.62.62,0,0,0-.57-.64c-.62.1-.72.53-1.13.75a5.67,5.67,0,0,1-.93.82c-.59.57-1.28,1.08-1.87,1.65a1.26,1.26,0,0,0-.36.5,1.37,1.37,0,0,0-.54.49c-.31.08-.25.39-.61.45s-.61-.21-.83-.46.2-.13.18-.22.06-.22.1-.32.17-.44.4-.57a8.92,8.92,0,0,1,.71-1.49c.22-.49.49-1,.73-1.43a8.33,8.33,0,0,1,.85-1.4c.16-.53.81-.76.94-1.3,0-.15-.06-.33-.15-.38-.24-.22-.47-.08-.83,0a3.09,3.09,0,0,0-.62.63c-.2.16-.34.58-.58.56-.1-.05-.12-.23-.15-.38s.23-.11.24-.24.41-.23.36-.5c-.08-.45-.49-.36-.81-.4a2.1,2.1,0,0,1-1-1.79c.66-.08,1.29-.33,1.33-.92,0-.34-.3-.29-.42-.5a1.82,1.82,0,0,1,.54-1,2.78,2.78,0,0,1,1.42-.29c.31.47.36,1.36.93,1.39s.48-.7.35-1.28a1.9,1.9,0,0,1,1.4-.64,2,2,0,0,1,.65.44A8.17,8.17,0,0,1,70,42.95c-.09.26-.34.43-.29.79a.69.69,0,0,0,.77.47.73.73,0,0,0,.53.95c-.08.33-.28,1,.25,1s.27-.44.58-.56.29,0,.46-.05A2,2,0,0,1,73,46.88a9.73,9.73,0,0,1-.06,1,1.53,1.53,0,0,1-.44.41,1.25,1.25,0,0,0,.07.52c-.16.17-.24.4-.4.57A.46.46,0,0,0,72,50c.09.34.65.18.9,0a2.9,2.9,0,0,0,.74-1.14c.29-.09.26.36.42.5a.83.83,0,0,1-.12.51c.1.2,0,.29.05.47a8.15,8.15,0,0,0-.34.8c.06.24.27.24.43.31C74,51.95,73.87,52.44,73.4,52.7Zm-4.17-6.82a.41.41,0,0,0-.14.15,9.86,9.86,0,0,0-1.28,1.39c-.32.53-.72,1-1.07,1.51s-.72,1-1.07,1.51c-.23.21-.25.55-.54.73-.08.32-.51.43-.32.91.09.23.31.23.49.3.41-.12.51-.43.81-.61.12-.31.47-.48.58-.8.29-.21.39-.53.65-.76a3.7,3.7,0,0,1,.58-.8c.31-.56.77-1,1.11-1.58.26-.23.4-.53.65-.76s.56-.43.37-.93C69.93,45.85,69.66,45.73,69.23,45.89ZM60.56,56.18c-.22,0-.37-.14-.66,0a.29.29,0,0,1-.13.21c0,.47.32.58.54.76a2.19,2.19,0,0,1,.32.34c.09.15.27.14.41.2a.83.83,0,0,0,.4-.34C61.33,56.66,60.88,56.52,60.56,56.18ZM60,58.89c-.3-.11-.44-.49-.87-.39a.44.44,0,0,0-.31.43.62.62,0,0,0,.29.47c.15.09.24.3.39.38.23.3.38.74.91.56.17-.14.15-.39.14-.63S60.13,59.2,60,58.89Zm-6.43,7.48a.76.76,0,0,0,1,.71s0-.08.1-.08C55,66.3,53.82,65.62,53.54,66.37Z"/></g><path class="cls-3" d="M36.32,39c-.25-.32-.49-.37-.74-.57a9.41,9.41,0,0,1-1-.26,2.82,2.82,0,0,1-.79,0,4.94,4.94,0,0,1-.79.09,7.82,7.82,0,0,1-1.09.39,5.15,5.15,0,0,1-1.14.61,25.4,25.4,0,0,0,.92-3.8,16.06,16.06,0,0,0,.26-1.92c.1-.64.39-1.28,0-1.92l-.22-.22a1.41,1.41,0,0,0-1.35.31,12.33,12.33,0,0,0-1.83,3.14c-.2.52-.44,1-.61,1.57l-.26.79c-.15.28-.07.55-.31.83-.8-1.74-3.2-4.63-5.07-4.45a4.3,4.3,0,0,0-1,.66c.09.12-.07.23.09.35-.13.12.31.23.17.35l.35.35c-.12.13.34.26.22.39A11.61,11.61,0,0,1,23,37.14c.21.48.46,1,.65,1.44s.45,1,.61,1.48A13.61,13.61,0,0,1,25.05,43a7.59,7.59,0,0,1,0,2.93c-.05.2.24.41.18.61a11.64,11.64,0,0,0-.57,3.19,1.74,1.74,0,0,0,.7.61c-.07.14.23.22.31.22s.26,0,.39,0,.16-.23.31-.31a2.73,2.73,0,0,1,0-.39,6.89,6.89,0,0,1,.22-.83c.16-.55.28-1.11.44-1.66,1.46-.76,2.91-2.38,4.37-3.67s2.91-1.83,4.37-2.79a3,3,0,0,0,.87-1.14C36.53,39.47,36.56,39.22,36.32,39Zm-9.61,3.14a2.92,2.92,0,0,0,0,.83c-.11.28.12.55-.13.83-.3-.19,0-.38-.22-.57.1-.17-.1-.35,0-.52-.16-.35-.13-.7-.26-1-.15-.71-.43-1.43-.65-2.14-.18-.36-.28-.73-.48-1.09s-.37-.7-.44-1a2.12,2.12,0,0,1-.31-.57,2.6,2.6,0,0,1-.26-.52c-.17-.17-.17-.35-.35-.52,0-.17-.34-.35-.17-.52a10.88,10.88,0,0,1,3.45,5.2C26.84,41,26.72,41.55,26.71,42.12Zm3.89-8.78c.08-.07,0-.19.13-.13s0,.09,0,.13c-.27,1.32-.48,2.65-.83,4-.22.67-.37,1.34-.61,2a16.41,16.41,0,0,1-.83,2c-.21.2,0-.11-.17-.17.09-.12,0-.23,0-.35s-.08-.47-.17-.7A22.82,22.82,0,0,1,30.6,33.34Zm-.48,9.48a6,6,0,0,1-1,.87L28,44.87c-.22-.2.16-.41.09-.61a4.27,4.27,0,0,0,.7-.61A8.81,8.81,0,0,0,29.68,42,9.16,9.16,0,0,1,32,40.11l.13,0c.17-.09.32-.24.48-.31s0,0,.09,0a1.38,1.38,0,0,1,.39-.13c.06,0,.16,0,.22,0s.13,0,.17,0,.06-.08.09-.09a4,4,0,0,1,.83,0,2.08,2.08,0,0,1,.26.09c.07,0,.16,0,.26.09A36.14,36.14,0,0,0,30.12,42.82Zm35.34-5s.13,0,.18.07.16.2.24.25.26.08.37.13,0,0,.06.06.09,0,.12,0,.08.11.12.13c.3.09.61,0,.92.14a3.82,3.82,0,0,0,1.3-.28c.17-.2.34-.4.51-.61,0-.2,0-.29.07-.43a3.46,3.46,0,0,0-.76-2.12c-.31-.33-.7-.58-1-.89a5.19,5.19,0,0,0,1.38-1.15,3.07,3.07,0,0,0,.57-.92,2.69,2.69,0,0,0,.14-.8,1.77,1.77,0,0,0-.9-1.44c-.07,0-.18,0-.18-.07l-1,0a3.39,3.39,0,0,0-1.69,1,2.2,2.2,0,0,1-.44.61c-.12.25-.17.58-.38.73a3.45,3.45,0,0,0-2-1.4,4.21,4.21,0,0,0-.74,0c0,.12-.29,0-.31.18-.18,0-.21.16-.37.18A2.28,2.28,0,0,0,61,32.9s.05,0,.06.06.07.15.06.31c.18.15.26.39.48.5s.42.29.55.5a10.16,10.16,0,0,1,1.16.58,4.66,4.66,0,0,0-1.91,2.68l0,1a2.69,2.69,0,0,0,.36.62,1.4,1.4,0,0,0,.74.14c.32-.27.16-1.05.22-1.6.09,0,.06-.15.07-.25A1.1,1.1,0,0,0,63,37c.39-.37.66-.87,1.19-1.09a2.64,2.64,0,0,0,.24.56c0,.09,0,.17.06.25s.1,0,.12.06,0,.14.06.19a3.41,3.41,0,0,0,.24.25c.06.08.09.22.12.25s.1,0,.12,0,0,.1,0,.12.1,0,.12,0S65.4,37.76,65.46,37.81Zm-3.11-5.19c0-.24.14-.32.2-.49,1.09,0,1.31.8,1.76,1.39v.19A4.45,4.45,0,0,1,62.35,32.62Zm4.68.52h-.49c-.12.09-.32.08-.38.24s-.18.35-.25.18a3.65,3.65,0,0,1,1.28-2.32,3.59,3.59,0,0,1,.93-.23c0,.07.11.05.18.07.21.18.18.48.11.8-.23.29-.45.59-.7.85S67.26,33,67,33.15Zm-1.64,1.94c.16-.09.39-.1.5-.24a5.92,5.92,0,0,1,1.65,1c.2.42.58.65.53,1.31a1.81,1.81,0,0,1-1.23,0A2.81,2.81,0,0,1,65.39,35.09Zm-6.52,5.19a7.55,7.55,0,0,0,.52-.95c.21-.31.55-.6.26-1s-.73,0-1.14.34-.43.83-.77,1.22c-.05-.17-.23-.52-.44-.36-.2-.06-.31.25-.35.35a1.25,1.25,0,0,1-.07.52,2.87,2.87,0,0,1,0,1,18.23,18.23,0,0,1-1.11,1.8c-.15-.59,0-1.15-.18-1.74.06-.56-.17-1.17-.09-1.73.57-.62,1.54-.62,1.71-1.32-.11-.3-.49-.25-.48-.41.7-.56,1.56-1.09,1.54-1.74-.39-.43-.89,0-1.35.27a8.49,8.49,0,0,1,.4-1.4c0-.23.2-.44.17-.68a.54.54,0,0,0,.14-.73c-.17-.2-.36-.14-.56-.11a5.77,5.77,0,0,0-1,2.25c-.32.77-.48,1.55-.87,2.31-.25-.85-.3-1.68-.56-2.54-.05-.42-.22-.85-.28-1.27s-.39-.9-.06-1.28c.15-.13.26,0,.42-.17L55.91,32a8.42,8.42,0,0,1,.71-.7,3.54,3.54,0,0,0,.32-.8,3.62,3.62,0,0,0-1.57.59c-.22.12-.47.47-.67.44a9.68,9.68,0,0,1,.43-1.66,5.07,5.07,0,0,1,.23-.81c0-.15.17-.27.14-.42.13-.13.06-.29.05-.43a.57.57,0,0,0-.73-.14,1.93,1.93,0,0,0-.42.87c-.17.29-.16.6-.33.88a3.44,3.44,0,0,1-.25.89c.09.16-.12.28-.06.43s0,.14-.07.21,0,.28-.11.16c-.2-.47-.28-.92-.44-1.38a10,10,0,0,1-.39-1.41c.22-.12.24-.26.4-.39.24-.78.46-1.56.69-2.33.12-.18.3-.34.29-.54-.27-.43-.61-.27-1,.05a3.37,3.37,0,0,0-.44,1c-.18.15-.06.34-.24.5s0,.49-.19.46c-.13-.46-.18-.9-.35-1.37a1.34,1.34,0,0,0-.22-.69c0-.1-.08-.22-.18-.33s-.18-.4-.32-.22c-.1-.1-.24.14-.16.2-.13.09-.09.19-.08.3s0,.41,0,.62c0,.41.19.85.11,1.25a1.78,1.78,0,0,0-.46-.5c0-.29-.26-.6-.54-.6a1,1,0,0,0-.41.48,4.59,4.59,0,0,0,1.92,2.58c.23.53.24,1,.51,1.56a1.62,1.62,0,0,0,.21.77c-.11.25.3.57.07.8-.28-.33-.58-.5-.86-.81l-.38-.49c-.07-.13-.17,0-.24-.21l-.38-.49c-.25-.13-.46-.54-.75-.36,0,0-.06,0-.09,0-.39.32-.1.72.08,1.11l.95,1.22c.17,0,.3.41.48.41.1.24.46.28.42.54a5.31,5.31,0,0,0-.83-.37c-.29-.05-.56-.2-.9.15-.09.33.31.72.61.78a2.57,2.57,0,0,0,.91.47,2.23,2.23,0,0,0,.92.38c.29.25.63.11.92.38.13.56.26,1.12.36,1.67a5.71,5.71,0,0,1,.2.86c0,.27.22.59,0,.84a6.7,6.7,0,0,1-1.69-1.27c-.57-.45-1.09-1.38-1.76-1.06-.27.19.06.45,0,.66a1.37,1.37,0,0,0-.76-.27.53.53,0,0,0-.76.12.56.56,0,0,0,.4.62,1.88,1.88,0,0,0,.74.45c.48.36,1,.48,1.48.8-.44.12-1.41.22-1.17.91.27.43.63.15.94.21a7.89,7.89,0,0,1,1-.05,7.9,7.9,0,0,1,1-.05,1,1,0,0,1,.94.21,13.11,13.11,0,0,1,.22,1.7,4.05,4.05,0,0,1,0,.84c.11.16,0,.29,0,.44a.44.44,0,0,1,0,.22c0,.06,0,.18-.06.12-.19-.41-.28-.8-.46-1.2,0-.33-.13-.93-.57-1a.68.68,0,0,0-.47.91c0,.37.26.75.21,1.08-.13-.14-.28-.14-.41-.23-.68-.64-1-1.84-1.7-1.89a.73.73,0,0,0-.28.45c-.17.14.17.34,0,.48-.35-.11-.67-.47-1.06-.35,0,.15-.22.26-.05.43,0,.14.18.32.29.48a7,7,0,0,0,1.63,1c.27.22.56.23.82.46s.28.09.41.23c.08,0,.14.06.21.07s.17.07.11.15c-.56.15-1.06-.21-1.66.27a1.49,1.49,0,0,0-.06.43c.45.61,1,.41,1.53.46.27,0,.51.13.79,0,.26.14.56,0,.82.15a21.23,21.23,0,0,1-.09,2.41c0,.41,0,.82-.07,1.22a1.91,1.91,0,0,1-.08.61c.06.11-.06.2,0,.31s0,.31-.16.2a.25.25,0,0,1-.13-.37c0-.14-.06-.3,0-.44-.17-.49-.38-1-.6-1.49s-.35-1.19-.92-1.39c0,0-.1.07-.14,0-.56.38-.26.88,0,1.36-.09.09.15.22.09.32s.06.24.22.38c0,.23.26.5.26.74a5.9,5.9,0,0,1-1.2-.64,5.39,5.39,0,0,1-.33-1.23c-.22-.42,0-.79-.33-1.23a2.61,2.61,0,0,0-.44,0,.8.8,0,0,0-.26.67c-.12.23.17.52-.05.74a1.68,1.68,0,0,1-.42-.54c-.32.25-.12.57-.11.87.26.36.37.69.66,1.05.14.07.26.27.4.31.08.2.41.17.35.35-.28,0-.57.09-.85.11s-.54-.14-.86.2a.31.31,0,0,1,0,.26c.56.64,1.27.45,1.87.5a10.17,10.17,0,0,0,2-.1c.29.27.62.18.91.47a2.59,2.59,0,0,0-.14.42c.25.74-.33,1.37-.09,2.1.19.36.43.29.66.35.55-.34.54-.75.67-1.15s.1-.84.2-1.25a7.66,7.66,0,0,0,.12-1.26c.16-.41,0-.85.29-1.24.14-.08.26,0,.41-.08a11.45,11.45,0,0,1,1.64-.8,1.89,1.89,0,0,0,.77-.83,1,1,0,0,0-.88,0c-.29,0-.62.3-.92.32a2.85,2.85,0,0,1,.4-.7,2.69,2.69,0,0,1,.4-.7c.06,0,.11,0,.16.11a.44.44,0,0,1,.22,0L58.4,46c.19,0,.41-.2.6-.23s.38-.33.29-.54c.1,0-.15-.18-.2-.16s-.24,0-.35,0a2.06,2.06,0,0,1-.74.26,4,4,0,0,1,.4-.7c0-.26.35-.48.1-.78s-.73.21-.94.5a4.45,4.45,0,0,1-.57,1c-.15.33-.39.66-.57,1a3.31,3.31,0,0,0-.33.49c-.13.07,0,.17-.21.24,0,.05-.12.3-.16.2s0-.33,0-.48,0-.35,0-.53a3.51,3.51,0,0,1,.08-1c.55-.58.75-1.2,1.28-1.77.45-.14,1-.32,1.07-.83,0-.22-.42-.2-.39-.4a2.86,2.86,0,0,1,.39-.61c.69-.27,1.33-.09,2.06-.66,0-.19.13-.36-.06-.58C59.79,40,59.3,40.37,58.87,40.28ZM46.36,45.61l-.83-.83a1.34,1.34,0,0,1-.35-.44c-.09-.15-.25-.29-.26-.44a2.2,2.2,0,0,0,.66-.74,5.88,5.88,0,0,0-.7-5.5,16,16,0,0,0-1.48-1.57c-.06-.05-.12,0-.17-.09a8.42,8.42,0,0,0-1.66-1c-.28-.06-.55-.29-.83-.22a.76.76,0,0,0-.83.13,1,1,0,0,0-.31.39s0,.13,0,.17a2.64,2.64,0,0,0-.17.61c-.15.39-.09.79-.22,1.18.09,2.11.25,4.22,2.4,6.33a2.77,2.77,0,0,1,.57.39,12.28,12.28,0,0,1,1.44.39c0,.19.28.38.31.57s.33.41.44.61l1.27,1.27c.13,0,.26.12.39.22s.29.09.44.09a.7.7,0,0,0,.79-.35c.07-.13,0-.26,0-.39C47.13,45.93,46.64,45.88,46.36,45.61Zm-2-3.62c-.13-.13-.49,0-.48-.31a1.24,1.24,0,0,1-.17-.52c-.18-.35,0-.7-.44-1-.25-.18-.62.21-.74.48-.28-.57-.56-1.14-.83-1.7a14.92,14.92,0,0,1-.61-1.66,3.76,3.76,0,0,1,.13-.92,10.2,10.2,0,0,1,2.27,1.92,5.13,5.13,0,0,1,.83,1.88A2.77,2.77,0,0,1,44.39,42Z"/><path class="cls-4" d="M41.76,28.5"/><path class="cls-4" d="M41.76,27.61"/><path d="M41.89,29.14a1.15,1.15,0,0,0-.23,1.81,1.31,1.31,0,0,0,2-.5,1.56,1.56,0,0,0,0-1.26c-.15-.37-.45-.85-.91-.78a1,1,0,0,0-.48,1.67c.44.36,1.07-.26.63-.63,0,0-.06-.16,0-.16l-.31-.13c.31.3.57,1,0,1.18-.32.12-.57-.28-.27-.42.51-.25.06-1-.45-.77Z"/><path d="M37.36,28.06a1,1,0,0,1-.17,1.05c-.19.25,0,.56.27.65a1.66,1.66,0,0,0,2.08-1.25c.1-.43,0-1.07-.43-1.26a1.33,1.33,0,0,0-1.48.37c-.37.43.25,1.06.63.63a.49.49,0,0,1,.62-.14l-.27-.2c.32.54-.37,1.22-.92,1l.27.65a1.89,1.89,0,0,0,.17-1.95c-.24-.52-1-.07-.77.45Z"/><path d="M37,31.75a1.49,1.49,0,0,0-.42,1.12.47.47,0,0,0,.33.43,1.3,1.3,0,0,0,1.72-1.24.45.45,0,0,0-.44-.44l-.89,0c-.57,0-.57.86,0,.89l.89,0-.44-.44a.41.41,0,0,1-.6.38l.33.43a.6.6,0,0,1,.16-.49c.39-.42-.24-1-.63-.63Z"/><path d="M45.52,26.2l.6-.57-.76-.44c-.1.44-1,.31-.9-.11.07-.2.41-.27.6-.24a.37.37,0,0,1,.26.12s0-.09-.06.07a2.49,2.49,0,0,0-.19.46.46.46,0,0,0,.32.56.46.46,0,0,0,.56-.32,2.6,2.6,0,0,0,.3-.81.93.93,0,0,0-.24-.55,1.27,1.27,0,0,0-.85-.43,1.43,1.43,0,0,0-1.58.93c-.41,1.59,2.32,2.09,2.66.56a.46.46,0,0,0-.76-.44l-.6.57c-.42.41.22,1,.64.64Z"/><path d="M61.37,26.82c0-.05,0,0,0-.11s.16-.11.12-.08,0,0,0-.05,0,0,0,0l0,.07s-.09.06-.11.09-.07,0,0,0l.11.43.22-1.3c.06-.35-.3-.73-.65-.5a1.15,1.15,0,0,0-.42,1.48.45.45,0,0,0,.61.16.45.45,0,0,0,.16-.61.25.25,0,0,1,.11-.27l-.65-.5L60.63,27a.45.45,0,0,0,.11.43A1,1,0,0,0,62.18,26c-.74-.82-2.18.33-1.58,1.24.31.47,1.08,0,.77-.45Z"/><path d="M44.69,71.4a.79.79,0,1,0,.73-1.31c-.56-.11-.8.74-.24.86,0,0,0-.27.13-.17-.41-.4-1,.23-.63.63Z"/></g></g></svg>